<svg xmlns="http://www.w3.org/2000/svg" xmlns:xlink="http://www.w3.org/1999/xlink" width="794" zoomAndPan="magnify" viewBox="0 0 594.95996 842.24997" height="1123" preserveAspectRatio="xMidYMid meet" version="1.0"><path fill="#cdb696" d="M 356.21875 323.980469 L 356.066406 324.894531 C 356.015625 325.199219 355.929688 325.554688 355.777344 325.976562 C 355.675781 326.433594 355.492188 326.925781 355.253906 327.464844 C 354.375 329.664062 352.277344 332.660156 348.570312 335.199219 C 346.746094 336.5 344.5625 337.667969 342.058594 338.699219 C 339.523438 339.714844 336.847656 340.507812 333.769531 341.289062 C 330.757812 341.996094 327.492188 342.523438 324.027344 342.878906 C 320.542969 343.183594 316.886719 343.234375 313.0625 343.082031 C 305.417969 342.792969 297.214844 341.457031 288.773438 339.273438 C 280.332031 337.125 271.617188 334.214844 262.753906 331.121094 C 253.875 328.023438 244.722656 324.894531 235.316406 322.492188 C 225.894531 320.125 216.117188 318.601562 206.390625 318.921875 C 201.535156 319.058594 196.695312 319.632812 192.042969 320.769531 C 190.875 321.054688 189.726562 321.410156 188.574219 321.714844 C 187.476562 322.105469 186.242188 322.511719 185.277344 322.882812 C 184.160156 323.371094 182.910156 323.8125 181.894531 324.320312 C 180.878906 324.863281 179.847656 325.300781 178.832031 325.925781 C 170.710938 330.613281 163.859375 337.464844 160.019531 345.5 C 156.179688 353.46875 155.488281 362.621094 158.277344 370.230469 C 159.632812 374.003906 161.933594 377.300781 164.742188 379.824219 C 167.566406 382.394531 170.863281 384.339844 174.164062 385.929688 C 180.84375 389.078125 187.390625 390.953125 193.363281 391.832031 C 199.335938 392.78125 204.644531 392.746094 208.992188 392.441406 C 213.339844 392.070312 216.742188 391.496094 219.027344 390.972656 C 221.308594 390.445312 222.527344 390.109375 222.527344 390.109375 C 222.527344 390.109375 221.34375 390.53125 219.09375 391.242188 C 216.84375 391.902344 213.492188 392.832031 209.09375 393.425781 C 204.730469 394 199.316406 394.335938 193.125 393.710938 C 186.984375 393.171875 180.015625 391.597656 172.945312 388.585938 C 169.425781 387.0625 165.789062 385.136719 162.492188 382.378906 C 159.140625 379.601562 156.453125 375.882812 154.742188 371.585938 C 151.292969 363.023438 151.78125 352.621094 155.960938 343.589844 C 160.140625 334.570312 167.445312 326.839844 176.394531 321.679688 C 177.476562 321.003906 178.714844 320.445312 179.898438 319.835938 C 181.097656 319.210938 182.199219 318.824219 183.367188 318.316406 C 184.703125 317.789062 185.835938 317.433594 187.085938 316.976562 C 188.339844 316.640625 189.574219 316.234375 190.84375 315.929688 C 195.882812 314.679688 201.078125 314.019531 206.238281 313.867188 C 216.605469 313.578125 226.824219 315.253906 236.515625 317.757812 C 246.246094 320.261719 255.414062 323.710938 264.242188 326.925781 C 273.089844 330.140625 281.550781 333.285156 289.753906 335.636719 C 297.957031 337.953125 305.859375 339.597656 313.25 340.1875 C 320.644531 340.8125 327.460938 340.492188 333.398438 339.445312 C 336.289062 338.886719 339.167969 338.207031 341.570312 337.378906 C 344.023438 336.535156 346.203125 335.519531 348.03125 334.386719 C 351.703125 332.117188 354.003906 329.445312 355.015625 327.347656 C 355.289062 326.824219 355.492188 326.367188 355.644531 325.945312 C 355.796875 325.539062 355.914062 325.167969 355.980469 324.878906 C 356.152344 324.285156 356.21875 323.980469 356.21875 323.980469 " fill-opacity="1" fill-rule="nonzero"/><path fill="#cdb696" d="M 306.28125 367.8125 C 306.28125 367.8125 306.246094 366.730469 306.195312 364.714844 C 306.144531 362.703125 305.910156 359.777344 305.453125 356.054688 C 304.945312 352.351562 304.167969 347.867188 302.660156 342.910156 C 301.136719 337.972656 299.007812 332.507812 295.828125 327.0625 C 292.628906 321.628906 288.398438 316.199219 282.96875 311.566406 C 277.503906 306.980469 270.824219 303.328125 263.398438 300.90625 C 255.988281 298.453125 247.902344 297.269531 239.648438 296.914062 C 235.535156 296.761719 231.273438 296.796875 227.195312 297.136719 C 223.085938 297.457031 219.378906 298.371094 216.015625 300.417969 C 214.324219 301.398438 212.699219 302.582031 211.160156 303.902344 L 210.585938 304.390625 L 210.078125 304.882812 L 208.925781 306 C 208.082031 306.742188 207.523438 307.472656 206.84375 308.199219 C 204.242188 311.191406 201.992188 314.660156 200.300781 318.265625 C 196.898438 325.503906 195.34375 333.558594 196.289062 341.117188 C 197.203125 348.613281 200.316406 355.769531 205.304688 360.488281 C 207.726562 362.839844 210.738281 364.515625 213.765625 365.242188 C 216.828125 366.019531 220.023438 365.882812 222.765625 364.902344 C 228.398438 362.992188 231.289062 357.308594 231.257812 352.453125 C 231.257812 349.984375 230.597656 347.734375 229.445312 345.855469 C 228.347656 344.09375 226.839844 342.640625 225.320312 341.675781 C 222.222656 339.730469 219.230469 339.207031 217.25 339.257812 C 216.25 339.257812 215.472656 339.359375 214.964844 339.460938 C 214.457031 339.578125 214.203125 339.628906 214.203125 339.628906 C 214.203125 339.628906 214.457031 339.546875 214.964844 339.394531 C 215.457031 339.242188 216.21875 339.070312 217.230469 338.988281 C 219.226562 338.785156 222.410156 338.9375 225.824219 340.832031 C 227.535156 341.777344 229.226562 343.148438 230.648438 345.144531 C 232 347.039062 232.964844 349.609375 233.132812 352.382812 C 233.304688 355.160156 232.777344 358.203125 231.257812 361.011719 C 229.765625 363.835938 227.078125 366.308594 223.8125 367.625 C 220.53125 368.964844 216.742188 369.300781 213.035156 368.558594 C 209.230469 367.8125 205.730469 365.917969 202.734375 363.277344 C 196.761719 357.96875 193.042969 350.101562 191.859375 341.695312 C 190.65625 333.253906 192.078125 324.234375 195.851562 316.199219 C 197.746094 312.140625 200.128906 308.367188 203.125 304.882812 C 203.902344 304.019531 204.664062 303.089844 205.441406 302.394531 L 206.59375 301.28125 L 207.25 300.636719 L 207.878906 300.078125 C 209.601562 298.605469 211.445312 297.21875 213.460938 296.035156 C 214.476562 295.445312 215.523438 294.917969 216.625 294.445312 C 217.183594 294.207031 217.773438 293.988281 218.246094 293.820312 C 218.875 293.601562 219.398438 293.449219 219.972656 293.277344 C 222.257812 292.667969 224.539062 292.347656 226.773438 292.160156 C 231.222656 291.839844 235.503906 291.839844 239.851562 292.027344 C 248.492188 292.414062 256.984375 293.957031 264.835938 296.679688 C 272.703125 299.386719 279.789062 303.632812 285.457031 308.738281 C 291.140625 313.867188 295.320312 319.855469 298.363281 325.65625 C 301.460938 331.492188 303.269531 337.277344 304.472656 342.4375 C 305.671875 347.597656 306.164062 352.199219 306.433594 355.953125 C 306.535156 357.847656 306.621094 359.539062 306.570312 361.011719 C 306.550781 362.46875 306.550781 363.71875 306.46875 364.734375 C 306.347656 366.730469 306.28125 367.8125 306.28125 367.8125 " fill-opacity="1" fill-rule="nonzero"/><path fill="#cdb696" d="M 155.132812 347.308594 C 155.132812 347.308594 154.589844 347.699219 153.609375 348.289062 C 152.628906 348.882812 151.207031 349.679688 149.363281 350.4375 C 147.519531 351.167969 145.21875 351.859375 142.597656 352.046875 C 141.328125 352.148438 139.855469 352.078125 138.46875 351.84375 C 137.066406 351.605469 135.644531 351.167969 134.289062 350.523438 C 132.953125 349.882812 131.652344 349.035156 130.585938 347.9375 C 129.503906 346.886719 128.613281 345.566406 128.070312 344.28125 C 127.457031 342.84375 127.230469 341.523438 127.1875 340.222656 C 127.152344 338.9375 127.324219 337.75 127.640625 336.703125 C 127.957031 335.671875 128.386719 334.773438 128.863281 334.046875 C 129.308594 333.320312 129.828125 332.777344 130.25 332.355469 C 130.6875 331.964844 131.078125 331.695312 131.347656 331.507812 C 131.601562 331.355469 131.753906 331.273438 131.753906 331.273438 C 131.753906 331.273438 131.683594 331.425781 131.566406 331.710938 C 131.414062 331.964844 131.296875 332.421875 131.09375 332.914062 C 130.925781 333.4375 130.789062 334.0625 130.671875 334.773438 C 130.550781 335.484375 130.535156 336.28125 130.550781 337.125 C 130.585938 337.972656 130.722656 338.851562 130.976562 339.730469 C 131.210938 340.578125 131.617188 341.507812 132.058594 342.183594 C 132.582031 343.03125 133.191406 343.691406 133.933594 344.332031 C 134.679688 344.957031 135.542969 345.515625 136.488281 345.957031 C 137.421875 346.414062 138.433594 346.75 139.46875 347.039062 C 140.515625 347.292969 141.496094 347.460938 142.613281 347.5625 C 144.726562 347.75 146.84375 347.683594 148.703125 347.582031 C 150.5625 347.496094 152.171875 347.378906 153.320312 347.328125 C 154.457031 347.277344 155.132812 347.308594 155.132812 347.308594 " fill-opacity="1" fill-rule="nonzero"/><path fill="#cdb696" d="M 276.523438 305.171875 L 276.203125 302.988281 L 276.355469 303.257812 C 275.035156 302.582031 273.734375 301.789062 272.53125 300.855469 C 271.347656 299.910156 270.179688 298.910156 269.164062 297.746094 C 267.085938 295.445312 265.425781 292.667969 264.480469 289.574219 C 264.226562 288.796875 264.023438 288.050781 263.871094 287.207031 C 263.734375 286.546875 263.652344 285.597656 263.601562 284.769531 C 263.53125 283.113281 263.667969 281.453125 264.007812 279.847656 C 264.667969 276.597656 266.238281 273.503906 268.589844 270.980469 C 269.722656 269.730469 271.214844 268.632812 272.667969 267.886719 C 274.308594 267.039062 276.035156 266.566406 277.742188 266.363281 C 281.160156 265.957031 284.679688 266.6875 287.621094 268.511719 C 289.09375 269.425781 290.378906 270.695312 291.34375 272.132812 C 292.324219 273.554688 292.96875 275.175781 293.273438 276.769531 C 293.914062 280 293.542969 283.113281 292.832031 286.019531 L 292.746094 286.375 L 292.59375 286.496094 C 290.972656 287.660156 288.890625 287.949219 287.199219 287.359375 C 288.976562 287.339844 290.617188 286.5625 291.582031 285.378906 L 291.328125 285.835938 C 291.328125 282.960938 291.074219 280.101562 290.160156 277.648438 C 289.652344 276.429688 289.09375 275.328125 288.265625 274.417969 C 287.503906 273.519531 286.503906 272.828125 285.457031 272.269531 C 283.34375 271.132812 280.753906 270.878906 278.402344 271.253906 C 277.203125 271.4375 276.085938 271.8125 275.121094 272.300781 C 273.96875 272.910156 273.089844 273.605469 272.210938 274.46875 C 270.484375 276.191406 269.316406 278.492188 268.625 280.945312 C 268.269531 282.164062 268.066406 283.449219 268.03125 284.71875 C 268.015625 285.363281 268.015625 285.867188 268.101562 286.664062 C 268.117188 287.273438 268.203125 287.949219 268.335938 288.59375 C 268.828125 291.179688 269.859375 293.753906 271.332031 296.121094 C 272.785156 298.488281 274.613281 300.703125 276.746094 302.699219 L 276.929688 302.871094 L 276.898438 302.988281 L 276.523438 305.171875 " fill-opacity="1" fill-rule="nonzero"/><path fill="#cdb696" d="M 243.539062 323.59375 C 243.539062 323.59375 243.773438 324.015625 244.246094 324.8125 C 244.484375 325.199219 244.636719 325.757812 244.90625 326.382812 C 245.078125 327.042969 245.332031 327.820312 245.382812 328.71875 C 245.601562 330.511719 245.433594 332.8125 244.484375 335.28125 C 243.554688 337.75 241.878906 340.492188 239.003906 342.554688 C 237.566406 343.554688 235.839844 344.433594 233.84375 344.753906 C 232 345.058594 229.734375 344.957031 227.6875 344.382812 C 223.492188 343.25 219.582031 340.238281 216.878906 336.09375 C 215.523438 334.011719 214.457031 331.609375 213.882812 328.972656 C 213.324219 326.453125 213.1875 323.59375 213.511719 320.835938 C 214.1875 315.269531 216.605469 309.738281 220.414062 304.96875 C 224.269531 300.144531 229.464844 296.40625 235.265625 293.601562 C 238.15625 292.179688 241.203125 291.046875 244.296875 290.046875 C 245.839844 289.558594 247.480469 289.101562 249 288.675781 C 250.625 288.253906 252.25 287.847656 253.875 287.492188 C 260.4375 286.070312 267.390625 285.226562 274.5625 285.496094 C 276.40625 285.5625 278.082031 285.699219 280.058594 285.9375 C 281.800781 286.191406 283.425781 286.375 285.320312 286.800781 C 289.042969 287.527344 292.476562 288.542969 295.996094 289.707031 C 309.96875 294.480469 322.808594 302.023438 336.035156 308.132812 C 349.265625 314.171875 363.476562 318.636719 378.023438 321.140625 C 385.28125 322.441406 392.640625 323.269531 399.980469 323.59375 C 407.289062 323.898438 414.886719 324.117188 420.6875 322.1875 C 422.617188 321.496094 423.699219 321.003906 425.222656 320.191406 C 426.625 319.398438 428.011719 318.519531 429.316406 317.484375 C 431.953125 315.472656 434.371094 313.070312 436.554688 310.449219 C 438.753906 307.828125 440.765625 304.96875 442.527344 302.058594 C 443.015625 301.28125 443.457031 300.519531 443.828125 299.824219 C 444.199219 299.082031 444.625 298.402344 444.980469 297.625 L 446.0625 295.359375 L 447.042969 293.058594 C 449.496094 286.867188 450.898438 280.371094 450.578125 274.230469 C 450.375 268.074219 447.941406 262.421875 443.898438 258.5 C 439.886719 254.691406 434.152344 252.710938 428.859375 253.085938 C 427.519531 253.152344 426.21875 253.421875 424.96875 253.746094 L 424.035156 254.050781 L 423.800781 254.117188 L 423.679688 254.152344 C 423.5625 254.203125 423.730469 254.117188 423.679688 254.152344 L 423.15625 254.371094 L 422.140625 254.808594 L 421.328125 255.234375 C 419.113281 256.417969 417.066406 258.160156 415.425781 260.105469 C 412.078125 264.011719 410.214844 268.917969 409.929688 273.621094 C 409.589844 278.324219 410.890625 282.941406 413.277344 286.410156 C 415.644531 289.929688 419.199219 292.109375 422.851562 292.535156 C 426.488281 293.023438 429.992188 291.925781 432.34375 289.945312 C 432.613281 289.675781 432.902344 289.421875 433.171875 289.167969 C 433.375 288.949219 433.679688 288.574219 433.914062 288.289062 C 434.320312 287.714844 434.695312 287.136719 435 286.496094 C 435.605469 285.242188 435.960938 283.957031 436.148438 282.722656 C 436.488281 280.269531 436.113281 278.105469 435.488281 276.480469 C 434.203125 273.179688 432.292969 272.21875 432.375 272.167969 C 432.292969 272.21875 434.269531 272.996094 435.910156 276.292969 C 436.707031 277.917969 437.28125 280.152344 437.148438 282.824219 C 437.0625 284.160156 436.808594 285.597656 436.234375 287.035156 C 435.960938 287.761719 435.558594 288.507812 435.101562 289.21875 C 434.847656 289.558594 434.675781 289.828125 434.371094 290.214844 C 434.066406 290.539062 433.78125 290.875 433.476562 291.179688 C 430.921875 293.667969 426.945312 295.257812 422.632812 294.96875 C 420.5 294.851562 418.183594 294.242188 416.152344 293.109375 C 414.039062 291.957031 412.210938 290.300781 410.65625 288.339844 C 407.609375 284.363281 405.800781 279.121094 405.835938 273.484375 C 405.867188 267.851562 407.847656 261.964844 411.636719 257.042969 C 413.566406 254.574219 415.867188 252.375 418.808594 250.648438 L 419.941406 249.988281 L 420.941406 249.5 L 421.449219 249.261719 C 421.464844 249.246094 421.734375 249.125 421.703125 249.160156 L 421.835938 249.109375 L 422.140625 248.992188 L 423.34375 248.535156 C 424.949219 248.027344 426.640625 247.621094 428.351562 247.453125 C 435.253906 246.707031 442.558594 248.921875 448.191406 253.863281 L 449.277344 254.878906 C 449.632812 255.214844 449.851562 255.488281 450.136719 255.792969 L 450.5625 256.25 L 450.746094 256.46875 L 451.070312 256.890625 L 452.726562 259.125 C 452.980469 259.53125 453.199219 259.9375 453.4375 260.34375 C 453.859375 261.171875 454.433594 261.949219 454.757812 262.828125 C 456.378906 266.246094 457.210938 270 457.53125 273.722656 C 458.207031 281.25 456.582031 288.710938 453.996094 295.75 L 452.945312 298.371094 L 451.761719 300.941406 C 450.96875 302.617188 449.988281 304.511719 449.105469 305.984375 C 447.210938 309.265625 445.082031 312.394531 442.644531 315.4375 C 440.226562 318.46875 437.46875 321.324219 434.289062 323.863281 C 432.699219 325.132812 430.972656 326.265625 429.164062 327.316406 C 427.4375 328.296875 425.101562 329.292969 423.527344 329.835938 L 422.648438 330.121094 L 421.886719 330.359375 C 421.378906 330.511719 420.871094 330.628906 420.367188 330.75 C 419.332031 331.003906 418.320312 331.207031 417.304688 331.359375 C 415.273438 331.695312 413.242188 331.863281 411.265625 331.964844 C 407.289062 332.136719 403.5 332.050781 399.625 331.914062 C 391.910156 331.59375 384.199219 330.816406 376.550781 329.460938 C 361.292969 326.738281 346.421875 321.96875 332.601562 315.523438 C 325.699219 312.328125 319.1875 308.773438 312.757812 305.441406 C 306.332031 302.125 299.972656 299.03125 293.542969 296.710938 C 290.363281 295.578125 287.0625 294.546875 283.933594 293.886719 C 282.445312 293.5 280.636719 293.261719 278.945312 292.957031 C 277.523438 292.753906 275.78125 292.535156 274.207031 292.433594 C 267.746094 291.976562 261.300781 292.535156 255.109375 293.667969 C 253.570312 293.9375 252.046875 294.277344 250.558594 294.613281 C 248.96875 294.988281 247.53125 295.34375 246.039062 295.78125 C 243.097656 296.609375 240.289062 297.59375 237.617188 298.726562 C 234.945312 299.859375 232.457031 301.230469 230.15625 302.769531 C 229.613281 303.175781 229.023438 303.5625 228.515625 303.96875 L 227.738281 304.578125 L 226.925781 305.289062 C 225.925781 306.136719 224.980469 307.082031 224.117188 308.0625 C 220.648438 312.023438 218.382812 316.742188 217.535156 321.410156 C 217.128906 323.777344 217.097656 326.027344 217.453125 328.3125 C 217.808594 330.476562 218.570312 332.558594 219.617188 334.402344 C 221.730469 338.105469 224.964844 340.847656 228.414062 342.046875 C 230.15625 342.65625 231.8125 342.878906 233.574219 342.726562 C 235.230469 342.589844 236.753906 341.949219 238.074219 341.152344 C 240.730469 339.527344 242.488281 337.125 243.570312 334.894531 C 244.636719 332.660156 244.992188 330.476562 244.941406 328.753906 C 244.824219 325.21875 243.402344 323.625 243.539062 323.59375 " fill-opacity="1" fill-rule="nonzero"/></svg>