<svg xmlns="http://www.w3.org/2000/svg" xmlns:xlink="http://www.w3.org/1999/xlink" width="794" zoomAndPan="magnify" viewBox="0 0 594.95996 842.24997" height="1123" preserveAspectRatio="xMidYMid meet" version="1.0"><path fill="#cdb696" d="M 337.171875 367.890625 L 337.035156 368.703125 C 336.992188 368.972656 336.914062 369.289062 336.78125 369.664062 C 336.691406 370.070312 336.523438 370.507812 336.3125 370.988281 C 335.53125 372.941406 333.664062 375.605469 330.371094 377.863281 C 328.746094 379.019531 326.804688 380.058594 324.582031 380.976562 C 322.324219 381.878906 319.945312 382.585938 317.210938 383.277344 C 314.53125 383.910156 311.628906 384.375 308.546875 384.691406 C 305.445312 384.960938 302.195312 385.007812 298.796875 384.871094 C 292 384.617188 284.703125 383.429688 277.195312 381.488281 C 269.691406 379.578125 261.945312 376.988281 254.0625 374.238281 C 246.164062 371.484375 238.027344 368.703125 229.664062 366.566406 C 221.285156 364.460938 212.589844 363.105469 203.941406 363.390625 C 199.621094 363.511719 195.320312 364.023438 191.183594 365.03125 C 190.144531 365.285156 189.121094 365.601562 188.101562 365.875 C 187.121094 366.21875 186.023438 366.582031 185.167969 366.910156 C 184.171875 367.347656 183.0625 367.738281 182.15625 368.191406 C 181.253906 368.671875 180.339844 369.0625 179.433594 369.617188 C 172.214844 373.785156 166.121094 379.878906 162.707031 387.023438 C 159.292969 394.109375 158.675781 402.246094 161.160156 409.015625 C 162.363281 412.371094 164.40625 415.304688 166.90625 417.542969 C 169.417969 419.832031 172.351562 421.5625 175.285156 422.972656 C 181.226562 425.773438 187.046875 427.441406 192.355469 428.222656 C 197.667969 429.066406 202.390625 429.035156 206.257812 428.765625 C 210.121094 428.433594 213.144531 427.921875 215.175781 427.457031 C 217.207031 426.992188 218.289062 426.691406 218.289062 426.691406 C 218.289062 426.691406 217.238281 427.066406 215.238281 427.699219 C 213.234375 428.285156 210.257812 429.113281 206.347656 429.636719 C 202.464844 430.148438 197.652344 430.449219 192.144531 429.894531 C 186.6875 429.414062 180.488281 428.015625 174.199219 425.335938 C 171.070312 423.980469 167.835938 422.265625 164.90625 419.816406 C 161.925781 417.347656 159.535156 414.039062 158.015625 410.21875 C 154.945312 402.605469 155.382812 393.355469 159.097656 385.324219 C 162.8125 377.304688 169.3125 370.429688 177.269531 365.84375 C 178.230469 365.242188 179.328125 364.746094 180.382812 364.203125 C 181.449219 363.648438 182.429688 363.300781 183.464844 362.851562 C 184.65625 362.382812 185.664062 362.066406 186.777344 361.660156 C 187.890625 361.359375 188.988281 361 190.117188 360.730469 C 194.597656 359.617188 199.214844 359.027344 203.804688 358.894531 C 213.023438 358.636719 222.109375 360.128906 230.730469 362.351562 C 239.378906 364.578125 247.53125 367.648438 255.386719 370.507812 C 263.253906 373.363281 270.773438 376.164062 278.070312 378.253906 C 285.363281 380.3125 292.390625 381.773438 298.964844 382.300781 C 305.535156 382.855469 311.597656 382.570312 316.878906 381.636719 C 319.449219 381.140625 322.007812 380.539062 324.144531 379.800781 C 326.324219 379.050781 328.265625 378.148438 329.890625 377.140625 C 333.15625 375.125 335.199219 372.746094 336.101562 370.882812 C 336.34375 370.417969 336.523438 370.011719 336.660156 369.632812 C 336.792969 369.273438 336.898438 368.941406 336.960938 368.6875 C 337.109375 368.160156 337.171875 367.890625 337.171875 367.890625 " fill-opacity="1" fill-rule="nonzero"/><path fill="#cdb696" d="M 292.765625 406.863281 C 292.765625 406.863281 292.734375 405.902344 292.691406 404.109375 C 292.644531 402.320312 292.433594 399.71875 292.027344 396.410156 C 291.578125 393.113281 290.886719 389.128906 289.546875 384.722656 C 288.191406 380.328125 286.296875 375.46875 283.46875 370.625 C 280.625 365.796875 276.867188 360.96875 272.035156 356.847656 C 267.179688 352.769531 261.238281 349.523438 254.632812 347.371094 C 248.042969 345.191406 240.855469 344.136719 233.511719 343.820312 C 229.859375 343.6875 226.066406 343.714844 222.441406 344.015625 C 218.785156 344.300781 215.492188 345.113281 212.5 346.933594 C 210.996094 347.808594 209.550781 348.859375 208.179688 350.035156 L 207.671875 350.46875 L 207.21875 350.90625 L 206.195312 351.898438 C 205.445312 352.5625 204.949219 353.207031 204.347656 353.855469 C 202.027344 356.515625 200.027344 359.601562 198.523438 362.804688 C 195.5 369.242188 194.117188 376.402344 194.960938 383.128906 C 195.773438 389.789062 198.539062 396.152344 202.976562 400.351562 C 205.128906 402.441406 207.804688 403.929688 210.5 404.578125 C 213.222656 405.269531 216.0625 405.148438 218.5 404.277344 C 223.511719 402.578125 226.082031 397.523438 226.050781 393.207031 C 226.050781 391.007812 225.464844 389.007812 224.441406 387.339844 C 223.464844 385.773438 222.125 384.480469 220.773438 383.625 C 218.019531 381.894531 215.355469 381.425781 213.597656 381.472656 C 212.710938 381.472656 212.015625 381.5625 211.566406 381.652344 C 211.113281 381.757812 210.890625 381.804688 210.890625 381.804688 C 210.890625 381.804688 211.113281 381.726562 211.566406 381.59375 C 212.003906 381.457031 212.679688 381.308594 213.582031 381.230469 C 215.355469 381.050781 218.183594 381.1875 221.222656 382.871094 C 222.742188 383.714844 224.246094 384.933594 225.511719 386.707031 C 226.714844 388.390625 227.570312 390.679688 227.722656 393.144531 C 227.871094 395.613281 227.40625 398.320312 226.050781 400.816406 C 224.726562 403.328125 222.335938 405.523438 219.433594 406.699219 C 216.515625 407.886719 213.144531 408.1875 209.851562 407.527344 C 206.46875 406.863281 203.351562 405.179688 200.691406 402.832031 C 195.378906 398.109375 192.070312 391.113281 191.019531 383.636719 C 189.949219 376.132812 191.214844 368.113281 194.566406 360.96875 C 196.253906 357.359375 198.375 354.003906 201.035156 350.90625 C 201.726562 350.140625 202.40625 349.3125 203.097656 348.695312 L 204.121094 347.703125 L 204.707031 347.128906 L 205.261719 346.632812 C 206.796875 345.324219 208.4375 344.089844 210.226562 343.039062 C 211.128906 342.511719 212.0625 342.046875 213.039062 341.625 C 213.535156 341.414062 214.0625 341.21875 214.484375 341.066406 C 215.039062 340.871094 215.507812 340.738281 216.019531 340.585938 C 218.050781 340.046875 220.082031 339.757812 222.066406 339.59375 C 226.023438 339.308594 229.828125 339.308594 233.695312 339.472656 C 241.378906 339.820312 248.933594 341.1875 255.910156 343.609375 C 262.90625 346.015625 269.210938 349.792969 274.25 354.335938 C 279.300781 358.894531 283.019531 364.21875 285.726562 369.378906 C 288.476562 374.566406 290.089844 379.710938 291.15625 384.300781 C 292.222656 388.886719 292.660156 392.980469 292.902344 396.320312 C 292.992188 398.003906 293.066406 399.507812 293.019531 400.816406 C 293.007812 402.109375 293.007812 403.222656 292.929688 404.125 C 292.824219 405.902344 292.765625 406.863281 292.765625 406.863281 " fill-opacity="1" fill-rule="nonzero"/><path fill="#cdb696" d="M 158.359375 388.632812 C 158.359375 388.632812 157.878906 388.976562 157.007812 389.503906 C 156.132812 390.03125 154.871094 390.738281 153.230469 391.414062 C 151.589844 392.0625 149.546875 392.679688 147.214844 392.84375 C 146.085938 392.933594 144.777344 392.875 143.542969 392.664062 C 142.296875 392.453125 141.03125 392.0625 139.828125 391.492188 C 138.640625 390.917969 137.480469 390.167969 136.535156 389.1875 C 135.574219 388.257812 134.78125 387.082031 134.296875 385.941406 C 133.75 384.660156 133.550781 383.488281 133.511719 382.328125 C 133.480469 381.1875 133.632812 380.132812 133.914062 379.199219 C 134.199219 378.285156 134.582031 377.484375 135.003906 376.839844 C 135.398438 376.191406 135.859375 375.710938 136.234375 375.335938 C 136.625 374.988281 136.96875 374.75 137.210938 374.582031 C 137.4375 374.449219 137.570312 374.371094 137.570312 374.371094 C 137.570312 374.371094 137.511719 374.507812 137.40625 374.761719 C 137.269531 374.988281 137.164062 375.394531 136.984375 375.832031 C 136.835938 376.296875 136.714844 376.855469 136.609375 377.484375 C 136.503906 378.117188 136.488281 378.824219 136.503906 379.578125 C 136.535156 380.328125 136.65625 381.109375 136.878906 381.894531 C 137.089844 382.644531 137.453125 383.472656 137.84375 384.074219 C 138.308594 384.828125 138.851562 385.414062 139.511719 385.984375 C 140.175781 386.542969 140.941406 387.039062 141.785156 387.429688 C 142.613281 387.835938 143.515625 388.136719 144.429688 388.390625 C 145.363281 388.617188 146.238281 388.769531 147.230469 388.859375 C 149.109375 389.023438 150.988281 388.964844 152.644531 388.875 C 154.300781 388.796875 155.726562 388.691406 156.75 388.648438 C 157.757812 388.601562 158.359375 388.632812 158.359375 388.632812 " fill-opacity="1" fill-rule="nonzero"/><path fill="#cdb696" d="M 266.304688 351.160156 L 266.019531 349.222656 L 266.15625 349.460938 C 264.980469 348.859375 263.824219 348.152344 262.753906 347.324219 C 261.703125 346.484375 260.664062 345.597656 259.761719 344.558594 C 257.910156 342.511719 256.4375 340.046875 255.59375 337.292969 C 255.371094 336.601562 255.1875 335.9375 255.054688 335.1875 C 254.933594 334.601562 254.859375 333.757812 254.8125 333.019531 C 254.753906 331.546875 254.875 330.070312 255.175781 328.644531 C 255.761719 325.753906 257.160156 323.003906 259.25 320.761719 C 260.257812 319.648438 261.582031 318.667969 262.875 318.007812 C 264.335938 317.257812 265.871094 316.835938 267.390625 316.652344 C 270.425781 316.292969 273.554688 316.941406 276.171875 318.566406 C 277.480469 319.375 278.625 320.503906 279.484375 321.785156 C 280.355469 323.046875 280.925781 324.492188 281.199219 325.90625 C 281.769531 328.777344 281.4375 331.546875 280.808594 334.132812 L 280.730469 334.449219 L 280.597656 334.554688 C 279.152344 335.59375 277.300781 335.847656 275.796875 335.320312 C 277.378906 335.308594 278.835938 334.613281 279.695312 333.5625 L 279.46875 333.96875 C 279.46875 331.410156 279.242188 328.867188 278.429688 326.6875 C 277.980469 325.605469 277.480469 324.625 276.746094 323.8125 C 276.066406 323.015625 275.179688 322.402344 274.25 321.902344 C 272.367188 320.894531 270.066406 320.671875 267.976562 321 C 266.90625 321.167969 265.914062 321.496094 265.058594 321.933594 C 264.035156 322.476562 263.253906 323.09375 262.46875 323.859375 C 260.9375 325.394531 259.898438 327.441406 259.28125 329.621094 C 258.964844 330.703125 258.785156 331.847656 258.753906 332.976562 C 258.738281 333.546875 258.738281 334 258.816406 334.707031 C 258.828125 335.246094 258.90625 335.847656 259.023438 336.421875 C 259.460938 338.722656 260.378906 341.007812 261.6875 343.113281 C 262.980469 345.21875 264.605469 347.191406 266.5 348.964844 L 266.667969 349.117188 L 266.636719 349.222656 L 266.304688 351.160156 " fill-opacity="1" fill-rule="nonzero"/><path fill="#cdb696" d="M 236.972656 367.542969 C 236.972656 367.542969 237.183594 367.917969 237.605469 368.625 C 237.816406 368.972656 237.949219 369.46875 238.191406 370.023438 C 238.339844 370.613281 238.566406 371.304688 238.613281 372.101562 C 238.808594 373.695312 238.65625 375.742188 237.816406 377.9375 C 236.988281 380.132812 235.5 382.570312 232.941406 384.40625 C 231.664062 385.292969 230.128906 386.074219 228.351562 386.359375 C 226.714844 386.632812 224.699219 386.542969 222.878906 386.03125 C 219.148438 385.023438 215.671875 382.34375 213.265625 378.660156 C 212.0625 376.808594 211.113281 374.671875 210.601562 372.328125 C 210.105469 370.085938 209.988281 367.542969 210.273438 365.089844 C 210.875 360.140625 213.023438 355.222656 216.410156 350.980469 C 219.839844 346.695312 224.457031 343.371094 229.617188 340.871094 C 232.1875 339.609375 234.898438 338.601562 237.648438 337.714844 C 239.019531 337.277344 240.476562 336.871094 241.832031 336.496094 C 243.277344 336.121094 244.71875 335.757812 246.164062 335.441406 C 252 334.179688 258.183594 333.425781 264.5625 333.667969 C 266.199219 333.726562 267.691406 333.847656 269.449219 334.058594 C 271 334.285156 272.441406 334.449219 274.128906 334.824219 C 277.4375 335.472656 280.492188 336.375 283.621094 337.414062 C 296.042969 341.65625 307.460938 348.363281 319.226562 353.792969 C 330.988281 359.164062 343.625 363.136719 356.5625 365.363281 C 363.015625 366.519531 369.558594 367.257812 376.085938 367.542969 C 382.585938 367.8125 389.339844 368.007812 394.496094 366.292969 C 396.210938 365.675781 397.175781 365.242188 398.527344 364.519531 C 399.777344 363.8125 401.011719 363.03125 402.167969 362.113281 C 404.515625 360.324219 406.667969 358.1875 408.609375 355.855469 C 410.5625 353.523438 412.351562 350.980469 413.917969 348.394531 C 414.355469 347.703125 414.746094 347.023438 415.074219 346.410156 C 415.40625 345.746094 415.78125 345.144531 416.097656 344.453125 L 417.0625 342.4375 L 417.933594 340.390625 C 420.113281 334.886719 421.363281 329.109375 421.078125 323.648438 C 420.898438 318.171875 418.730469 313.148438 415.136719 309.660156 C 411.570312 306.273438 406.472656 304.515625 401.761719 304.847656 C 400.574219 304.90625 399.417969 305.148438 398.304688 305.433594 L 397.476562 305.703125 L 397.265625 305.761719 L 397.160156 305.792969 C 397.054688 305.839844 397.207031 305.761719 397.160156 305.792969 L 396.695312 305.988281 L 395.792969 306.378906 L 395.070312 306.757812 C 393.097656 307.808594 391.277344 309.359375 389.820312 311.089844 C 386.839844 314.5625 385.1875 318.925781 384.929688 323.109375 C 384.628906 327.289062 385.789062 331.394531 387.910156 334.480469 C 390.015625 337.609375 393.175781 339.550781 396.421875 339.925781 C 399.65625 340.359375 402.769531 339.382812 404.863281 337.625 C 405.101562 337.382812 405.359375 337.15625 405.597656 336.929688 C 405.78125 336.734375 406.050781 336.40625 406.261719 336.148438 C 406.621094 335.636719 406.953125 335.125 407.222656 334.554688 C 407.765625 333.441406 408.082031 332.296875 408.246094 331.199219 C 408.546875 329.019531 408.214844 327.09375 407.660156 325.648438 C 406.515625 322.714844 404.816406 321.859375 404.890625 321.8125 C 404.816406 321.859375 406.578125 322.550781 408.035156 325.484375 C 408.742188 326.929688 409.253906 328.914062 409.132812 331.289062 C 409.058594 332.480469 408.832031 333.757812 408.320312 335.035156 C 408.082031 335.683594 407.71875 336.34375 407.3125 336.976562 C 407.089844 337.277344 406.9375 337.519531 406.667969 337.863281 C 406.394531 338.148438 406.140625 338.449219 405.871094 338.722656 C 403.597656 340.933594 400.0625 342.347656 396.226562 342.089844 C 394.332031 341.984375 392.269531 341.445312 390.464844 340.4375 C 388.585938 339.414062 386.960938 337.9375 385.578125 336.195312 C 382.871094 332.660156 381.261719 327.996094 381.289062 322.988281 C 381.320312 317.976562 383.082031 312.742188 386.449219 308.367188 C 388.164062 306.167969 390.210938 304.214844 392.828125 302.679688 L 393.835938 302.09375 L 394.722656 301.65625 L 395.175781 301.445312 C 395.191406 301.429688 395.429688 301.324219 395.398438 301.355469 L 395.519531 301.3125 L 395.792969 301.207031 L 396.859375 300.800781 C 398.289062 300.347656 399.792969 299.988281 401.3125 299.835938 C 407.449219 299.175781 413.949219 301.144531 418.957031 305.539062 L 419.917969 306.441406 C 420.234375 306.742188 420.429688 306.980469 420.6875 307.253906 L 421.0625 307.660156 L 421.226562 307.855469 L 421.515625 308.230469 L 422.25 309.222656 L 422.988281 310.214844 C 423.214844 310.578125 423.410156 310.9375 423.621094 311.300781 C 423.996094 312.035156 424.507812 312.726562 424.792969 313.511719 C 426.238281 316.550781 426.972656 319.886719 427.261719 323.199219 C 427.863281 329.890625 426.417969 336.527344 424.117188 342.78125 L 423.183594 345.113281 L 422.128906 347.402344 C 421.421875 348.890625 420.550781 350.574219 419.769531 351.882812 C 418.085938 354.800781 416.1875 357.585938 414.023438 360.292969 C 411.871094 362.984375 409.417969 365.527344 406.589844 367.785156 C 405.179688 368.910156 403.644531 369.917969 402.035156 370.851562 C 400.5 371.726562 398.421875 372.613281 397.023438 373.09375 L 396.242188 373.347656 L 395.566406 373.558594 C 395.113281 373.695312 394.664062 373.800781 394.210938 373.90625 C 393.292969 374.132812 392.390625 374.3125 391.488281 374.449219 C 389.683594 374.75 387.878906 374.898438 386.117188 374.988281 C 382.582031 375.140625 379.214844 375.0625 375.769531 374.945312 C 368.910156 374.65625 362.050781 373.964844 355.25 372.761719 C 341.683594 370.339844 328.460938 366.097656 316.171875 360.367188 C 310.035156 357.523438 304.242188 354.367188 298.527344 351.402344 C 292.808594 348.453125 287.15625 345.703125 281.4375 343.640625 C 278.609375 342.632812 275.675781 341.714844 272.894531 341.128906 C 271.570312 340.78125 269.960938 340.570312 268.457031 340.300781 C 267.191406 340.121094 265.644531 339.925781 264.246094 339.835938 C 258.5 339.429688 252.765625 339.925781 247.261719 340.933594 C 245.894531 341.171875 244.539062 341.472656 243.214844 341.773438 C 241.800781 342.105469 240.523438 342.421875 239.199219 342.8125 C 236.582031 343.550781 234.085938 344.421875 231.707031 345.429688 C 229.332031 346.4375 227.121094 347.65625 225.074219 349.027344 C 224.59375 349.386719 224.066406 349.734375 223.613281 350.09375 L 222.921875 350.636719 L 222.199219 351.265625 C 221.3125 352.019531 220.472656 352.863281 219.703125 353.734375 C 216.621094 357.253906 214.605469 361.449219 213.851562 365.601562 C 213.492188 367.707031 213.460938 369.710938 213.777344 371.738281 C 214.09375 373.664062 214.769531 375.515625 215.703125 377.15625 C 217.582031 380.449219 220.457031 382.886719 223.523438 383.953125 C 225.074219 384.496094 226.546875 384.691406 228.113281 384.554688 C 229.585938 384.4375 230.941406 383.863281 232.113281 383.15625 C 234.476562 381.714844 236.039062 379.578125 237.003906 377.589844 C 237.949219 375.605469 238.265625 373.664062 238.222656 372.132812 C 238.117188 368.988281 236.851562 367.574219 236.972656 367.542969 " fill-opacity="1" fill-rule="nonzero"/></svg>