<svg xmlns="http://www.w3.org/2000/svg" xmlns:xlink="http://www.w3.org/1999/xlink" width="500" zoomAndPan="magnify" viewBox="0 0 375 374.999991" height="500" preserveAspectRatio="xMidYMid meet" version="1.0"><defs><clipPath id="id1"><path d="M 121.308594 95.40625 L 254.058594 95.40625 L 254.058594 279.90625 L 121.308594 279.90625 Z M 121.308594 95.40625 " clip-rule="nonzero"/></clipPath></defs><path fill="#e8d8a5" d="M 180.398438 216.726562 L 181.617188 214.925781 L 182.851562 215.984375 L 183.078125 219.488281 Z M 183.699219 221.429688 C 183.773438 221.429688 183.847656 221.414062 183.914062 221.382812 C 184.121094 221.292969 184.246094 221.085938 184.230469 220.863281 L 183.898438 215.691406 C 183.890625 215.550781 183.824219 215.414062 183.714844 215.324219 L 181.855469 213.730469 C 181.742188 213.632812 181.589844 213.589844 181.4375 213.609375 C 181.289062 213.628906 181.152344 213.710938 181.066406 213.839844 L 179.277344 216.488281 C 179.136719 216.699219 179.160156 216.976562 179.335938 217.15625 L 183.320312 221.265625 C 183.421875 221.375 183.558594 221.429688 183.699219 221.429688 " fill-opacity="1" fill-rule="nonzero"/><path fill="#e8d8a5" d="M 194.972656 216.726562 L 192.292969 219.488281 L 192.519531 215.984375 L 193.753906 214.925781 Z M 193.515625 213.730469 L 191.65625 215.324219 C 191.546875 215.414062 191.480469 215.550781 191.472656 215.691406 L 191.136719 220.863281 C 191.125 221.085938 191.25 221.292969 191.453125 221.382812 C 191.523438 221.414062 191.597656 221.429688 191.667969 221.429688 C 191.808594 221.429688 191.949219 221.375 192.050781 221.265625 L 196.035156 217.15625 C 196.210938 216.976562 196.234375 216.699219 196.09375 216.488281 L 194.300781 213.839844 C 194.21875 213.710938 194.082031 213.628906 193.933594 213.609375 C 193.78125 213.589844 193.628906 213.632812 193.515625 213.730469 " fill-opacity="1" fill-rule="nonzero"/><g clip-path="url(#id1)"><path fill="#e8d8a5" d="M 251.589844 133.539062 L 244.804688 140.628906 L 245.867188 134.609375 L 249.976562 131.273438 C 250.042969 131.21875 250.097656 131.148438 250.128906 131.070312 L 252.535156 125.398438 Z M 229.007812 162.542969 L 216.414062 169.386719 L 224.972656 159.082031 L 241.125 145.382812 Z M 208.265625 190.484375 L 205.808594 185.988281 L 212.589844 182.617188 Z M 214.273438 181.761719 L 225.917969 174.511719 L 227.53125 184.996094 L 217.25 191.425781 L 208.25 193.453125 L 208.757812 191.800781 Z M 222.921875 172.40625 L 230.984375 170.105469 L 226.042969 173.179688 C 226.042969 173.179688 226.042969 173.179688 226.042969 173.183594 L 216.964844 178.832031 Z M 228.328125 183.191406 L 226.902344 173.898438 L 233.421875 169.839844 Z M 208.664062 216.882812 L 209.40625 234.632812 L 197.835938 224.1875 L 205.75 214.878906 C 205.828125 214.785156 205.871094 214.671875 205.875 214.550781 L 206.066406 209.082031 Z M 200.265625 272.25 L 210.082031 237.527344 L 215.757812 251.582031 Z M 165.292969 237.523438 L 175.109375 272.257812 L 159.613281 251.582031 Z M 169.300781 209.082031 L 169.496094 214.550781 C 169.5 214.671875 169.542969 214.785156 169.621094 214.878906 L 177.535156 224.1875 L 165.964844 234.636719 L 166.707031 216.882812 Z M 158.117188 191.425781 L 147.839844 184.996094 L 149.453125 174.511719 L 161.097656 181.761719 L 166.613281 191.800781 L 167.117188 193.453125 Z M 148.46875 173.898438 L 147.039062 183.191406 L 141.949219 169.839844 Z M 152.445312 172.40625 L 158.40625 178.832031 L 149.328125 173.179688 C 149.328125 173.179688 149.328125 173.179688 149.324219 173.179688 L 144.386719 170.105469 Z M 169.558594 185.988281 L 167.105469 190.484375 L 162.78125 182.617188 Z M 134.246094 145.382812 L 150.398438 159.082031 L 158.957031 169.386719 L 146.363281 162.542969 Z M 122.835938 125.398438 L 125.242188 131.070312 C 125.273438 131.148438 125.328125 131.21875 125.394531 131.273438 L 129.503906 134.609375 L 130.566406 140.628906 L 123.78125 133.539062 Z M 138.613281 99.988281 L 133.898438 118.9375 L 130.117188 131.976562 L 127.96875 119.8125 Z M 135.648438 131.867188 C 135.65625 131.910156 135.664062 131.949219 135.679688 131.988281 L 137.667969 136.984375 L 131.773438 141.328125 L 130.539062 134.351562 L 134.148438 121.902344 Z M 137.875 121.304688 L 140.558594 116.796875 L 138.972656 124.253906 C 138.96875 124.273438 138.964844 124.296875 138.964844 124.316406 L 137.988281 134.910156 L 136.691406 131.652344 L 136.355469 129.40625 Z M 147.921875 127.554688 C 147.902344 127.589844 147.886719 127.628906 147.875 127.671875 L 144.007812 141.761719 L 144.007812 126.972656 L 153.414062 117.679688 Z M 140.601562 141.335938 L 142.945312 131.351562 L 142.945312 144.214844 Z M 148.863281 156.386719 L 132.253906 142.296875 L 138.074219 138.003906 L 139.53125 141.664062 C 139.53125 141.671875 139.535156 141.675781 139.539062 141.679688 C 139.558594 141.722656 139.582031 141.765625 139.613281 141.804688 L 143.035156 146.011719 Z M 165.082031 143.042969 L 168.742188 139.210938 L 167.089844 142.667969 C 167.089844 142.667969 167.089844 142.671875 167.085938 142.675781 C 167.085938 142.679688 167.082031 142.683594 167.082031 142.683594 L 163.929688 150.011719 Z M 171.847656 166.601562 L 165.179688 164.527344 L 163.246094 154.292969 L 166.925781 145.738281 L 166.574219 154.707031 C 166.570312 154.792969 166.585938 154.871094 166.621094 154.945312 Z M 208.445312 145.738281 L 212.125 154.292969 L 210.191406 164.527344 L 203.523438 166.601562 L 208.75 154.945312 C 208.785156 154.871094 208.800781 154.792969 208.796875 154.707031 Z M 210.289062 143.042969 L 211.441406 150.011719 L 208.289062 142.683594 C 208.285156 142.683594 208.285156 142.679688 208.28125 142.675781 C 208.28125 142.671875 208.28125 142.667969 208.28125 142.667969 L 206.628906 139.210938 Z M 213.949219 170.6875 L 198.390625 173.820312 L 202.878906 167.917969 L 210.8125 165.449219 C 210.832031 165.441406 210.851562 165.433594 210.871094 165.425781 L 222.722656 160.125 Z M 204.574219 185.5625 L 200.269531 192.621094 L 193.816406 195.132812 L 188.332031 184.460938 L 197.175781 175.320312 L 205.421875 181.21875 Z M 205.375 199.226562 L 198.671875 214.050781 L 194.390625 206.886719 L 194.105469 196.164062 L 200.777344 193.5625 L 202.339844 193.265625 L 201.808594 195.425781 C 201.773438 195.566406 201.796875 195.714844 201.871094 195.835938 C 201.949219 195.960938 202.070312 196.042969 202.214844 196.074219 L 206.089844 196.898438 Z M 188.21875 252.003906 L 188.21875 230.488281 L 191.136719 230.144531 C 191.234375 230.132812 191.328125 230.09375 191.40625 230.03125 L 195.988281 226.351562 C 196.007812 226.335938 196.023438 226.316406 196.042969 226.296875 C 196.046875 226.292969 196.054688 226.285156 196.058594 226.28125 L 196.0625 226.277344 C 196.0625 226.277344 196.0625 226.273438 196.066406 226.273438 L 197.148438 225 L 209.164062 235.847656 Z M 179.308594 226.273438 L 179.3125 226.28125 C 179.316406 226.289062 179.328125 226.292969 179.332031 226.300781 C 179.351562 226.320312 179.367188 226.335938 179.382812 226.351562 L 183.964844 230.03125 C 184.042969 230.09375 184.136719 230.132812 184.234375 230.144531 L 187.15625 230.488281 L 187.15625 252.003906 L 166.210938 235.847656 L 178.222656 225 Z M 170.121094 202.09375 L 176.109375 215.335938 L 176.703125 221.570312 L 170.550781 214.328125 Z M 173.15625 196.074219 C 173.296875 196.042969 173.421875 195.960938 173.496094 195.835938 C 173.574219 195.714844 173.597656 195.566406 173.5625 195.425781 L 173.03125 193.265625 L 174.589844 193.5625 L 181.265625 196.164062 L 180.980469 206.886719 L 176.695312 214.050781 L 169.996094 199.226562 L 169.28125 196.898438 Z M 178.191406 175.320312 L 187.039062 184.460938 L 181.554688 195.132812 L 175.101562 192.621094 L 170.796875 185.5625 L 169.949219 181.21875 Z M 187.15625 183.050781 L 179.667969 175.3125 L 187.15625 176.15625 Z M 188.21875 176.15625 L 195.703125 175.3125 L 188.21875 183.050781 Z M 193.035156 195.9375 L 193.3125 206.421875 L 188.21875 205.65625 L 188.21875 186.570312 Z M 188.21875 226.46875 L 194.144531 226.46875 L 190.859375 229.105469 L 188.21875 229.417969 Z M 187.15625 226.46875 L 187.15625 229.417969 L 184.511719 229.105469 L 181.226562 226.46875 Z M 187.15625 205.65625 L 182.058594 206.421875 L 182.335938 195.9375 L 187.15625 186.5625 Z M 177.910156 222.988281 L 177.175781 215.320312 L 181.835938 207.527344 L 187.15625 206.730469 L 187.15625 225.40625 L 179.964844 225.40625 Z M 197.460938 222.988281 L 195.40625 225.40625 L 188.21875 225.40625 L 188.21875 206.730469 L 193.53125 207.527344 L 198.195312 215.320312 Z M 164.5 165.425781 C 164.519531 165.433594 164.539062 165.441406 164.558594 165.449219 L 172.492188 167.917969 L 176.980469 173.820312 L 161.421875 170.6875 L 152.648438 160.125 Z M 169.453125 180.265625 L 162.515625 171.992188 L 176.953125 174.898438 Z M 170.316406 186.820312 L 173.660156 192.304688 L 167.921875 191.207031 Z M 167.871094 192.28125 L 171.878906 193.046875 L 172.398438 195.148438 L 168.96875 195.878906 Z M 176.839844 274.46875 L 166.332031 237.285156 L 187.15625 253.347656 L 187.15625 278.589844 Z M 198.535156 274.46875 L 188.21875 278.589844 L 188.21875 253.347656 L 209.042969 237.285156 Z M 204.820312 214.328125 L 198.664062 221.570312 L 199.261719 215.335938 L 205.25 202.09375 Z M 206.398438 195.878906 L 202.972656 195.148438 L 203.488281 193.046875 L 207.496094 192.28125 Z M 207.449219 191.207031 L 201.710938 192.304688 L 205.050781 186.820312 Z M 205.917969 180.265625 L 198.417969 174.898438 L 212.855469 171.992188 Z M 232.335938 146.011719 L 235.75 141.8125 C 235.753906 141.8125 235.753906 141.808594 235.753906 141.808594 L 235.757812 141.804688 C 235.789062 141.765625 235.8125 141.722656 235.832031 141.679688 C 235.832031 141.675781 235.835938 141.671875 235.839844 141.664062 L 237.296875 138.003906 L 243.117188 142.296875 L 226.507812 156.386719 Z M 227.496094 127.671875 C 227.484375 127.628906 227.46875 127.589844 227.449219 127.554688 L 221.953125 117.679688 L 231.359375 126.972656 L 231.359375 141.761719 Z M 232.425781 131.351562 L 234.765625 141.335938 L 232.425781 144.214844 Z M 236.40625 124.316406 C 236.402344 124.296875 236.402344 124.273438 236.398438 124.253906 L 234.808594 116.796875 L 237.496094 121.304688 L 239.015625 129.40625 L 238.675781 131.652344 L 237.382812 134.910156 Z M 241.222656 121.902344 L 244.832031 134.351562 L 243.597656 141.328125 L 237.703125 136.984375 L 239.6875 131.988281 C 239.703125 131.949219 239.714844 131.910156 239.722656 131.867188 Z M 247.398438 119.8125 L 245.25 131.976562 L 241.472656 118.945312 L 236.757812 99.988281 Z M 253.625 121.265625 C 253.367188 121.199219 253.101562 121.328125 253 121.570312 L 249.203125 130.53125 L 246.148438 133.011719 L 248.480469 119.816406 C 248.5 119.699219 248.480469 119.578125 248.425781 119.472656 L 235.679688 95.738281 C 235.554688 95.5 235.269531 95.394531 235.019531 95.492188 C 234.769531 95.589844 234.632812 95.855469 234.695312 96.117188 L 240.511719 119.484375 L 239.496094 126.207031 L 238.523438 121.019531 C 238.511719 120.957031 238.488281 120.898438 238.457031 120.84375 L 234.078125 113.484375 C 233.941406 113.261719 233.667969 113.167969 233.425781 113.261719 C 233.183594 113.355469 233.042969 113.613281 233.097656 113.867188 L 235.347656 124.445312 L 236.515625 137.089844 L 235.476562 139.699219 L 232.410156 126.628906 C 232.410156 126.625 232.40625 126.617188 232.40625 126.613281 C 232.394531 126.578125 232.382812 126.542969 232.367188 126.511719 C 232.359375 126.5 232.355469 126.488281 232.347656 126.480469 C 232.324219 126.441406 232.300781 126.40625 232.269531 126.375 C 232.269531 126.375 232.265625 126.375 232.265625 126.371094 L 220.054688 114.308594 C 219.867188 114.121094 219.570312 114.101562 219.359375 114.261719 C 219.148438 114.421875 219.085938 114.710938 219.214844 114.941406 L 226.484375 128.015625 L 231.320312 145.644531 L 224.214844 158.292969 L 211.367188 164.039062 L 213.199219 154.332031 C 213.210938 154.277344 213.210938 154.21875 213.203125 154.15625 C 213.203125 154.152344 213.203125 154.152344 213.203125 154.148438 L 211.3125 142.710938 C 211.292969 142.605469 211.246094 142.507812 211.171875 142.429688 L 205.097656 136.0625 C 204.917969 135.875 204.625 135.84375 204.410156 135.992188 C 204.195312 136.140625 204.121094 136.425781 204.234375 136.660156 L 207.273438 143.023438 L 207.726562 154.625 L 202.09375 167.1875 L 196.828125 174.117188 L 187.683594 175.144531 L 178.542969 174.117188 L 173.273438 167.1875 L 167.644531 154.625 L 168.097656 143.023438 L 171.136719 136.660156 C 171.25 136.425781 171.175781 136.140625 170.957031 135.992188 C 170.742188 135.84375 170.453125 135.875 170.273438 136.0625 L 164.199219 142.429688 C 164.125 142.507812 164.074219 142.605469 164.058594 142.710938 L 162.167969 154.148438 C 162.164062 154.152344 162.167969 154.15625 162.167969 154.160156 C 162.160156 154.21875 162.160156 154.273438 162.167969 154.328125 C 162.167969 154.332031 162.167969 154.332031 162.167969 154.332031 L 164.003906 164.039062 L 151.15625 158.292969 L 144.046875 145.644531 L 148.882812 128.015625 L 156.152344 114.941406 C 156.285156 114.710938 156.222656 114.421875 156.011719 114.261719 C 155.800781 114.101562 155.503906 114.121094 155.316406 114.308594 L 143.101562 126.371094 C 143.101562 126.371094 143.101562 126.375 143.101562 126.375 C 143.070312 126.40625 143.042969 126.441406 143.023438 126.480469 C 143.015625 126.488281 143.011719 126.5 143.007812 126.507812 C 142.988281 126.542969 142.972656 126.578125 142.964844 126.613281 C 142.964844 126.621094 142.960938 126.625 142.957031 126.628906 L 139.894531 139.699219 L 138.855469 137.089844 L 140.023438 124.445312 L 142.269531 113.867188 C 142.324219 113.613281 142.1875 113.355469 141.945312 113.261719 C 141.703125 113.167969 141.425781 113.261719 141.292969 113.484375 L 136.914062 120.84375 C 136.882812 120.898438 136.859375 120.957031 136.847656 121.019531 L 135.871094 126.207031 L 134.859375 119.484375 L 140.675781 96.117188 C 140.738281 95.855469 140.597656 95.589844 140.347656 95.492188 C 140.097656 95.394531 139.816406 95.5 139.691406 95.738281 L 126.945312 119.472656 C 126.886719 119.578125 126.871094 119.699219 126.890625 119.816406 L 129.222656 133.011719 L 126.167969 130.53125 L 122.371094 121.570312 C 122.269531 121.328125 122 121.199219 121.746094 121.265625 C 121.488281 121.332031 121.320312 121.578125 121.351562 121.839844 L 122.746094 133.839844 C 122.757812 133.953125 122.808594 134.0625 122.890625 134.144531 L 130.984375 142.605469 L 145.5625 163.257812 C 145.609375 163.324219 145.671875 163.378906 145.746094 163.417969 L 160.789062 171.589844 L 168.867188 181.222656 L 169.5625 184.800781 L 161.820312 180.949219 L 153.125 171.574219 C 153.058594 171.5 152.976562 171.449219 152.882812 171.425781 L 141.046875 168.046875 C 140.828125 167.976562 140.585938 168.054688 140.453125 168.25 C 140.441406 168.265625 140.429688 168.285156 140.417969 168.300781 C 140.363281 168.402344 140.347656 168.515625 140.359375 168.621094 C 140.363281 168.648438 140.367188 168.671875 140.375 168.699219 C 140.382812 168.71875 140.386719 168.734375 140.394531 168.75 L 146.761719 185.449219 C 146.765625 185.453125 146.765625 185.457031 146.769531 185.460938 C 146.789062 185.507812 146.8125 185.550781 146.84375 185.589844 C 146.847656 185.597656 146.855469 185.601562 146.863281 185.609375 C 146.894531 185.648438 146.933594 185.683594 146.972656 185.710938 C 146.976562 185.710938 146.976562 185.710938 146.976562 185.710938 L 146.980469 185.714844 L 157.632812 192.375 C 157.679688 192.40625 157.738281 192.429688 157.796875 192.441406 L 167.476562 194.625 L 168.964844 199.503906 L 169.195312 206.035156 L 165.671875 216.617188 C 165.65625 216.667969 165.648438 216.714844 165.644531 216.765625 L 164.851562 235.769531 L 158.515625 251.460938 C 158.445312 251.632812 158.472656 251.832031 158.582031 251.980469 L 175.972656 275.183594 C 176.003906 275.226562 176.039062 275.261719 176.078125 275.289062 C 176.085938 275.296875 176.09375 275.300781 176.101562 275.304688 C 176.132812 275.324219 176.164062 275.34375 176.199219 275.359375 L 187.488281 279.867188 C 187.496094 279.871094 187.507812 279.875 187.515625 279.875 C 187.527344 279.878906 187.535156 279.882812 187.546875 279.886719 C 187.59375 279.898438 187.640625 279.90625 187.683594 279.90625 C 187.730469 279.90625 187.777344 279.898438 187.820312 279.886719 C 187.832031 279.882812 187.84375 279.878906 187.855469 279.875 C 187.863281 279.875 187.875 279.871094 187.882812 279.867188 L 199.140625 275.371094 C 199.144531 275.371094 199.144531 275.367188 199.148438 275.367188 L 199.167969 275.359375 C 199.191406 275.351562 199.207031 275.335938 199.226562 275.328125 C 199.289062 275.292969 199.347656 275.25 199.390625 275.191406 C 199.394531 275.1875 199.394531 275.1875 199.398438 275.183594 C 199.40625 275.175781 199.410156 275.167969 199.417969 275.160156 L 216.789062 251.980469 C 216.898438 251.832031 216.925781 251.632812 216.855469 251.460938 L 210.519531 235.769531 L 209.726562 216.765625 C 209.722656 216.714844 209.714844 216.667969 209.699219 216.617188 L 206.175781 206.035156 L 206.402344 199.503906 L 207.894531 194.625 L 217.574219 192.441406 C 217.632812 192.429688 217.6875 192.40625 217.738281 192.375 L 228.386719 185.714844 C 228.390625 185.714844 228.390625 185.714844 228.390625 185.714844 L 228.390625 185.710938 C 228.394531 185.710938 228.394531 185.710938 228.394531 185.710938 C 228.4375 185.683594 228.476562 185.648438 228.507812 185.609375 C 228.515625 185.601562 228.519531 185.597656 228.527344 185.589844 C 228.558594 185.550781 228.582031 185.507812 228.601562 185.460938 C 228.601562 185.457031 228.605469 185.453125 228.605469 185.449219 L 234.976562 168.746094 C 234.980469 168.734375 234.988281 168.722656 234.992188 168.707031 C 235 168.679688 235.007812 168.648438 235.011719 168.617188 C 235.023438 168.511719 235.003906 168.398438 234.949219 168.300781 C 234.941406 168.285156 234.929688 168.265625 234.917969 168.25 C 234.785156 168.054688 234.542969 167.980469 234.324219 168.046875 L 222.488281 171.425781 C 222.394531 171.449219 222.308594 171.5 222.242188 171.574219 L 213.550781 180.949219 L 205.804688 184.800781 L 206.503906 181.222656 L 214.582031 171.589844 L 229.625 163.417969 C 229.695312 163.378906 229.757812 163.324219 229.804688 163.257812 L 244.386719 142.605469 L 252.480469 134.144531 C 252.558594 134.0625 252.609375 133.953125 252.625 133.839844 L 254.019531 121.839844 C 254.046875 121.578125 253.882812 121.332031 253.625 121.265625 " fill-opacity="1" fill-rule="nonzero"/></g></svg>