<svg xmlns="http://www.w3.org/2000/svg" xmlns:xlink="http://www.w3.org/1999/xlink" width="500" zoomAndPan="magnify" viewBox="0 0 375 374.999991" height="500" preserveAspectRatio="xMidYMid meet" version="1.0"><path fill="#803b04" d="M 187.417969 33.8125 C 237.457031 33.8125 243.371094 33.976562 263.171875 34.878906 C 281.414062 35.699219 291.355469 38.742188 298.011719 41.371094 C 306.722656 44.738281 312.964844 48.847656 319.539062 55.421875 C 326.113281 61.992188 330.136719 68.238281 333.589844 76.949219 C 336.136719 83.519531 339.175781 93.460938 340.078125 111.785156 C 340.984375 131.585938 341.148438 137.503906 341.148438 187.542969 C 341.148438 237.578125 340.984375 243.496094 340.078125 263.296875 C 339.257812 281.539062 336.21875 291.480469 333.589844 298.136719 C 330.21875 306.84375 326.113281 313.089844 319.539062 319.660156 C 312.964844 326.234375 306.722656 330.261719 298.011719 333.710938 C 291.4375 336.257812 281.496094 339.300781 263.171875 340.203125 C 243.371094 341.105469 237.457031 341.269531 187.417969 341.269531 C 137.378906 341.269531 131.464844 341.105469 111.660156 340.203125 C 93.421875 339.382812 83.480469 336.339844 76.824219 333.710938 C 68.113281 330.34375 61.871094 326.234375 55.296875 319.660156 C 48.722656 313.089844 44.699219 306.84375 41.246094 298.136719 C 38.699219 291.5625 35.660156 281.621094 34.753906 263.296875 C 33.851562 243.496094 33.6875 237.578125 33.6875 187.542969 C 33.6875 137.503906 33.851562 131.585938 34.753906 111.785156 C 35.578125 93.542969 38.617188 83.601562 41.246094 76.949219 C 44.617188 68.238281 48.722656 61.992188 55.296875 55.421875 C 61.871094 48.847656 68.113281 44.820312 76.824219 41.371094 C 83.398438 38.824219 93.339844 35.78125 111.660156 34.878906 C 131.464844 33.976562 137.378906 33.8125 187.417969 33.8125 M 187.417969 0.0429688 C 136.476562 0.0429688 130.148438 0.289062 110.101562 1.191406 C 90.132812 2.09375 76.496094 5.300781 64.582031 9.902344 C 52.257812 14.667969 41.820312 21.074219 31.386719 31.511719 C 21.035156 41.945312 14.625 52.378906 9.859375 64.703125 C 5.257812 76.617188 2.054688 90.257812 1.148438 110.222656 C 0.246094 130.191406 0 136.597656 0 187.457031 C 0 238.402344 0.246094 244.726562 1.148438 264.777344 C 2.054688 284.742188 5.257812 298.382812 9.859375 310.296875 C 14.625 322.621094 21.035156 333.054688 31.46875 343.488281 C 41.902344 353.925781 52.339844 360.332031 64.664062 365.097656 C 76.578125 369.699219 90.21875 372.90625 110.183594 373.808594 C 130.148438 374.710938 136.558594 374.957031 187.5 374.957031 C 238.441406 374.957031 244.769531 374.710938 264.816406 373.808594 C 284.78125 372.90625 298.421875 369.699219 310.335938 365.097656 C 322.660156 360.332031 333.097656 353.925781 343.53125 343.488281 C 353.964844 333.054688 360.375 322.621094 365.140625 310.296875 C 369.742188 298.382812 372.945312 284.742188 373.851562 264.777344 C 374.753906 244.808594 375 238.402344 375 187.457031 C 375 136.515625 374.753906 130.191406 373.851562 110.140625 C 372.945312 90.175781 369.742188 76.535156 365.140625 64.621094 C 360.375 52.296875 353.964844 41.863281 343.53125 31.429688 C 333.097656 20.992188 322.660156 14.585938 310.335938 9.820312 C 298.421875 5.21875 284.78125 2.011719 264.816406 1.109375 C 244.769531 0.289062 238.359375 0.0429688 187.417969 0.0429688 " fill-opacity="1" fill-rule="nonzero"/><path fill="#803b04" d="M 187.417969 91.242188 C 134.257812 91.242188 91.203125 134.296875 91.203125 187.457031 C 91.203125 240.621094 134.339844 283.757812 187.5 283.757812 C 240.660156 283.757812 283.796875 240.703125 283.796875 187.457031 C 283.714844 134.296875 240.578125 91.242188 187.417969 91.242188 M 187.417969 249.984375 C 152.910156 249.984375 124.972656 222.050781 124.972656 187.542969 C 124.972656 153.03125 152.910156 125.097656 187.417969 125.097656 C 221.925781 125.097656 249.863281 153.03125 249.863281 187.542969 C 249.945312 221.96875 221.925781 249.984375 187.417969 249.984375 " fill-opacity="1" fill-rule="nonzero"/><path fill="#803b04" d="M 310.007812 87.464844 C 310.007812 99.871094 299.902344 109.976562 287.496094 109.976562 C 275.085938 109.976562 264.980469 99.871094 264.980469 87.464844 C 264.980469 75.058594 275.085938 64.953125 287.496094 64.953125 C 299.902344 64.953125 310.007812 74.976562 310.007812 87.464844 " fill-opacity="1" fill-rule="nonzero"/></svg>