<svg xmlns="http://www.w3.org/2000/svg" xmlns:xlink="http://www.w3.org/1999/xlink" width="250" zoomAndPan="magnify" viewBox="0 0 187.5 187.499992" height="250" preserveAspectRatio="xMidYMid meet" version="1.0"><defs><clipPath id="id1"><path d="M 63.476562 42.339844 L 123.851562 42.339844 L 123.851562 126.714844 L 63.476562 126.714844 Z M 63.476562 42.339844 " clip-rule="nonzero"/></clipPath></defs><path fill="#e8d8a5" d="M 90.351562 97.820312 L 90.902344 96.996094 L 91.464844 97.480469 L 91.566406 99.085938 Z M 91.851562 99.972656 C 91.886719 99.972656 91.917969 99.964844 91.949219 99.949219 C 92.042969 99.910156 92.101562 99.816406 92.09375 99.710938 L 91.941406 97.347656 C 91.9375 97.28125 91.90625 97.222656 91.859375 97.179688 L 91.011719 96.449219 C 90.960938 96.40625 90.890625 96.386719 90.820312 96.394531 C 90.753906 96.402344 90.691406 96.441406 90.652344 96.5 L 89.839844 97.710938 C 89.773438 97.808594 89.785156 97.933594 89.867188 98.019531 L 91.679688 99.898438 C 91.722656 99.945312 91.789062 99.972656 91.851562 99.972656 " fill-opacity="1" fill-rule="nonzero"/><path fill="#e8d8a5" d="M 96.976562 97.820312 L 95.757812 99.085938 L 95.863281 97.480469 L 96.421875 96.996094 Z M 96.316406 96.449219 L 95.46875 97.179688 C 95.421875 97.222656 95.390625 97.28125 95.386719 97.347656 L 95.234375 99.710938 C 95.226562 99.816406 95.285156 99.910156 95.378906 99.949219 C 95.410156 99.964844 95.441406 99.972656 95.476562 99.972656 C 95.539062 99.972656 95.601562 99.945312 95.648438 99.898438 L 97.460938 98.019531 C 97.539062 97.933594 97.550781 97.808594 97.488281 97.710938 L 96.671875 96.5 C 96.632812 96.441406 96.574219 96.402344 96.503906 96.394531 C 96.4375 96.386719 96.367188 96.40625 96.316406 96.449219 " fill-opacity="1" fill-rule="nonzero"/><g clip-path="url(#id1)"><path fill="#e8d8a5" d="M 122.726562 59.777344 L 119.640625 63.019531 L 120.125 60.269531 L 121.992188 58.742188 C 122.023438 58.71875 122.046875 58.683594 122.0625 58.648438 L 123.15625 56.054688 Z M 112.457031 73.042969 L 106.730469 76.171875 L 110.621094 71.460938 L 117.96875 65.191406 Z M 103.023438 85.820312 L 101.90625 83.765625 L 104.988281 82.222656 Z M 105.753906 81.828125 L 111.050781 78.515625 L 111.785156 83.308594 L 107.109375 86.25 L 103.015625 87.179688 L 103.246094 86.421875 Z M 109.691406 77.550781 L 113.355469 76.5 L 111.109375 77.90625 L 106.980469 80.492188 Z M 112.148438 82.484375 L 111.5 78.234375 L 114.464844 76.378906 Z M 103.207031 97.894531 L 103.542969 106.011719 L 98.28125 101.234375 L 101.878906 96.976562 C 101.914062 96.933594 101.933594 96.882812 101.9375 96.828125 L 102.023438 94.324219 Z M 99.386719 123.214844 L 103.847656 107.332031 L 106.429688 113.761719 Z M 83.480469 107.332031 L 87.945312 123.214844 L 80.898438 113.761719 Z M 85.304688 94.324219 L 85.390625 96.828125 C 85.390625 96.882812 85.414062 96.933594 85.449219 96.976562 L 89.046875 101.234375 L 83.785156 106.011719 L 84.121094 97.894531 Z M 80.21875 86.25 L 75.542969 83.308594 L 76.273438 78.515625 L 81.570312 81.828125 L 84.082031 86.421875 L 84.308594 87.179688 Z M 75.828125 78.234375 L 75.179688 82.484375 L 72.863281 76.378906 Z M 77.636719 77.550781 L 80.347656 80.492188 L 76.21875 77.90625 L 73.972656 76.5 Z M 85.421875 83.765625 L 84.304688 85.820312 L 82.335938 82.222656 Z M 69.359375 65.191406 L 76.707031 71.460938 L 80.597656 76.171875 L 74.871094 73.042969 Z M 64.171875 56.054688 L 65.265625 58.648438 C 65.28125 58.683594 65.304688 58.71875 65.332031 58.742188 L 67.203125 60.269531 L 67.6875 63.019531 L 64.601562 59.777344 Z M 71.347656 44.433594 L 69.203125 53.101562 L 67.484375 59.0625 L 66.503906 53.5 Z M 69.996094 59.015625 C 70 59.03125 70.003906 59.050781 70.011719 59.066406 L 70.917969 61.351562 L 68.234375 63.339844 L 67.671875 60.148438 L 69.316406 54.457031 Z M 71.011719 54.183594 L 72.230469 52.121094 L 71.511719 55.53125 C 71.507812 55.539062 71.507812 55.550781 71.503906 55.558594 L 71.0625 60.402344 L 70.472656 58.914062 L 70.320312 57.886719 Z M 75.578125 57.039062 C 75.570312 57.058594 75.5625 57.074219 75.558594 57.09375 L 73.800781 63.539062 L 73.800781 56.773438 L 78.078125 52.523438 Z M 72.25 63.34375 L 73.316406 58.777344 L 73.316406 64.660156 Z M 76.007812 70.226562 L 68.453125 63.78125 L 71.101562 61.820312 L 71.761719 63.496094 C 71.765625 63.496094 71.765625 63.5 71.765625 63.5 C 71.777344 63.519531 71.785156 63.539062 71.800781 63.558594 L 73.355469 65.484375 Z M 83.382812 64.125 L 85.046875 62.371094 L 84.296875 63.953125 C 84.296875 63.953125 84.296875 63.957031 84.296875 63.957031 C 84.292969 63.957031 84.292969 63.960938 84.292969 63.960938 L 82.859375 67.308594 Z M 86.460938 74.898438 L 83.429688 73.949219 L 82.546875 69.269531 L 84.222656 65.355469 L 84.0625 69.460938 C 84.0625 69.496094 84.066406 69.535156 84.082031 69.566406 Z M 103.105469 65.355469 L 104.777344 69.269531 L 103.898438 73.949219 L 100.867188 74.898438 L 103.242188 69.566406 C 103.257812 69.535156 103.265625 69.496094 103.265625 69.460938 Z M 103.945312 64.125 L 104.46875 67.308594 L 103.035156 63.960938 C 103.035156 63.960938 103.03125 63.957031 103.03125 63.957031 C 103.03125 63.953125 103.03125 63.953125 103.03125 63.953125 L 102.28125 62.371094 Z M 105.609375 76.765625 L 98.53125 78.199219 L 100.574219 75.5 L 104.183594 74.371094 C 104.191406 74.367188 104.199219 74.363281 104.207031 74.359375 L 109.597656 71.9375 Z M 101.34375 83.570312 L 99.386719 86.796875 L 96.453125 87.945312 L 93.957031 83.066406 L 97.980469 78.882812 L 101.730469 81.582031 Z M 101.710938 89.820312 L 98.660156 96.597656 L 96.710938 93.320312 L 96.582031 88.417969 L 99.617188 87.226562 L 100.328125 87.09375 L 100.085938 88.082031 C 100.070312 88.144531 100.082031 88.210938 100.117188 88.269531 C 100.152344 88.324219 100.207031 88.363281 100.269531 88.375 L 102.035156 88.753906 Z M 93.90625 113.953125 L 93.90625 104.113281 L 95.234375 103.957031 C 95.277344 103.953125 95.320312 103.933594 95.355469 103.90625 L 97.4375 102.222656 C 97.449219 102.214844 97.457031 102.207031 97.464844 102.199219 C 97.464844 102.195312 97.46875 102.191406 97.472656 102.191406 L 97.472656 102.1875 L 97.96875 101.605469 L 103.433594 106.566406 Z M 89.851562 102.1875 L 89.855469 102.191406 C 89.859375 102.195312 89.863281 102.195312 89.867188 102.199219 C 89.871094 102.207031 89.878906 102.214844 89.886719 102.222656 L 91.972656 103.90625 C 92.007812 103.933594 92.050781 103.953125 92.09375 103.957031 L 93.421875 104.113281 L 93.421875 113.953125 L 83.898438 106.566406 L 89.359375 101.605469 Z M 85.675781 91.128906 L 88.398438 97.183594 L 88.667969 100.035156 L 85.871094 96.726562 Z M 87.054688 88.375 C 87.121094 88.363281 87.175781 88.324219 87.210938 88.269531 C 87.246094 88.210938 87.257812 88.144531 87.242188 88.082031 L 87 87.09375 L 87.707031 87.226562 L 90.746094 88.417969 L 90.613281 93.320312 L 88.664062 96.597656 L 85.617188 89.820312 L 85.292969 88.753906 Z M 89.347656 78.882812 L 93.367188 83.066406 L 90.875 87.945312 L 87.941406 86.796875 L 85.984375 83.570312 L 85.597656 81.582031 Z M 93.421875 82.421875 L 90.015625 78.882812 L 93.421875 79.265625 Z M 93.90625 79.265625 L 97.308594 78.882812 L 93.90625 82.417969 Z M 96.097656 88.3125 L 96.222656 93.109375 L 93.90625 92.757812 L 93.90625 84.03125 Z M 93.90625 102.277344 L 96.601562 102.277344 L 95.109375 103.484375 L 93.90625 103.625 Z M 93.421875 102.277344 L 93.421875 103.625 L 92.21875 103.484375 L 90.726562 102.277344 Z M 93.421875 92.757812 L 91.105469 93.109375 L 91.230469 88.3125 L 93.421875 84.027344 Z M 89.21875 100.683594 L 88.882812 97.175781 L 91.003906 93.613281 L 93.421875 93.25 L 93.421875 101.789062 L 90.152344 101.789062 Z M 98.109375 100.683594 L 97.175781 101.789062 L 93.90625 101.789062 L 93.90625 93.25 L 96.324219 93.613281 L 98.441406 97.175781 Z M 83.117188 74.359375 C 83.128906 74.363281 83.136719 74.367188 83.144531 74.371094 L 86.753906 75.5 L 88.796875 78.199219 L 81.71875 76.765625 L 77.730469 71.9375 Z M 85.371094 81.148438 L 82.214844 77.363281 L 88.78125 78.691406 Z M 85.765625 84.144531 L 87.285156 86.652344 L 84.675781 86.152344 Z M 84.652344 86.640625 L 86.476562 86.992188 L 86.710938 87.953125 L 85.152344 88.285156 Z M 88.730469 124.226562 L 83.953125 107.222656 L 93.421875 114.566406 L 93.421875 126.113281 Z M 98.597656 124.226562 L 93.90625 126.113281 L 93.90625 114.566406 L 103.378906 107.222656 Z M 101.457031 96.726562 L 98.65625 100.035156 L 98.929688 97.183594 L 101.652344 91.128906 Z M 102.175781 88.285156 L 100.617188 87.953125 L 100.851562 86.992188 L 102.675781 86.640625 Z M 102.652344 86.152344 L 100.042969 86.652344 L 101.5625 84.144531 Z M 101.957031 81.148438 L 98.546875 78.691406 L 105.109375 77.363281 Z M 113.96875 65.484375 L 115.523438 63.5625 C 115.523438 63.5625 115.523438 63.558594 115.523438 63.558594 L 115.527344 63.558594 C 115.542969 63.539062 115.550781 63.519531 115.5625 63.5 C 115.5625 63.5 115.5625 63.496094 115.5625 63.496094 L 116.226562 61.820312 L 118.875 63.78125 L 111.320312 70.226562 Z M 111.769531 57.09375 C 111.765625 57.074219 111.757812 57.058594 111.746094 57.039062 L 109.25 52.523438 L 113.527344 56.773438 L 113.527344 63.539062 Z M 114.011719 58.777344 L 115.078125 63.34375 L 114.011719 64.660156 Z M 115.820312 55.558594 C 115.820312 55.550781 115.820312 55.539062 115.816406 55.53125 L 115.097656 52.121094 L 116.316406 54.183594 L 117.007812 57.886719 L 116.855469 58.914062 L 116.265625 60.402344 Z M 118.011719 54.457031 L 119.652344 60.148438 L 119.09375 63.339844 L 116.410156 61.351562 L 117.316406 59.066406 C 117.320312 59.050781 117.328125 59.03125 117.328125 59.015625 Z M 120.820312 53.5 L 119.84375 59.0625 L 118.125 53.105469 L 115.980469 44.433594 Z M 123.652344 54.164062 C 123.535156 54.132812 123.414062 54.195312 123.367188 54.304688 L 121.640625 58.402344 L 120.253906 59.535156 L 121.3125 53.5 C 121.324219 53.449219 121.3125 53.394531 121.289062 53.34375 L 115.492188 42.488281 C 115.433594 42.382812 115.304688 42.335938 115.191406 42.378906 C 115.078125 42.421875 115.015625 42.542969 115.042969 42.664062 L 117.6875 53.351562 L 117.226562 56.425781 L 116.785156 54.050781 C 116.777344 54.023438 116.769531 53.996094 116.753906 53.972656 L 114.761719 50.605469 C 114.703125 50.503906 114.574219 50.460938 114.464844 50.503906 C 114.355469 50.546875 114.292969 50.664062 114.316406 50.78125 L 115.339844 55.617188 L 115.871094 61.402344 L 115.398438 62.59375 L 114.003906 56.617188 C 114.003906 56.613281 114.003906 56.613281 114.003906 56.609375 C 113.996094 56.59375 113.992188 56.578125 113.984375 56.5625 C 113.980469 56.558594 113.980469 56.554688 113.976562 56.550781 C 113.964844 56.53125 113.953125 56.515625 113.941406 56.5 L 108.386719 50.984375 C 108.300781 50.898438 108.164062 50.886719 108.070312 50.960938 C 107.972656 51.035156 107.945312 51.167969 108.003906 51.273438 L 111.308594 57.25 L 113.507812 65.3125 L 110.277344 71.097656 L 104.433594 73.726562 L 105.269531 69.289062 C 105.273438 69.261719 105.273438 69.234375 105.269531 69.207031 C 105.269531 69.207031 105.269531 69.203125 105.269531 69.203125 L 104.410156 63.972656 C 104.402344 63.921875 104.378906 63.878906 104.34375 63.84375 L 101.582031 60.933594 C 101.5 60.847656 101.367188 60.832031 101.269531 60.898438 C 101.171875 60.96875 101.136719 61.097656 101.191406 61.207031 L 102.570312 64.117188 L 102.777344 69.421875 L 100.21875 75.164062 L 97.820312 78.335938 L 93.664062 78.804688 L 89.503906 78.335938 L 87.109375 75.164062 L 84.546875 69.421875 L 84.753906 64.117188 L 86.136719 61.207031 C 86.1875 61.097656 86.15625 60.96875 86.054688 60.898438 C 85.957031 60.832031 85.824219 60.847656 85.746094 60.933594 L 82.980469 63.84375 C 82.949219 63.878906 82.925781 63.921875 82.917969 63.972656 L 82.058594 69.203125 C 82.058594 69.203125 82.058594 69.207031 82.058594 69.207031 C 82.054688 69.234375 82.054688 69.261719 82.058594 69.285156 L 82.894531 73.726562 L 77.050781 71.097656 L 73.816406 65.3125 L 76.015625 57.25 L 79.324219 51.273438 C 79.382812 51.167969 79.355469 51.035156 79.257812 50.960938 C 79.164062 50.886719 79.027344 50.898438 78.941406 50.984375 L 73.386719 56.5 C 73.371094 56.515625 73.359375 56.53125 73.351562 56.550781 C 73.347656 56.554688 73.347656 56.558594 73.34375 56.5625 C 73.335938 56.578125 73.328125 56.59375 73.324219 56.609375 C 73.324219 56.613281 73.324219 56.617188 73.320312 56.617188 L 71.929688 62.59375 L 71.457031 61.402344 L 71.988281 55.617188 L 73.007812 50.78125 C 73.035156 50.664062 72.972656 50.546875 72.859375 50.503906 C 72.75 50.460938 72.625 50.503906 72.566406 50.605469 L 70.574219 53.972656 C 70.558594 53.996094 70.546875 54.023438 70.542969 54.050781 L 70.097656 56.425781 L 69.636719 53.351562 L 72.28125 42.664062 C 72.3125 42.542969 72.25 42.421875 72.136719 42.378906 C 72.019531 42.335938 71.894531 42.382812 71.835938 42.488281 L 66.039062 53.34375 C 66.011719 53.394531 66.003906 53.449219 66.015625 53.5 L 67.074219 59.535156 L 65.6875 58.402344 L 63.957031 54.304688 C 63.910156 54.191406 63.789062 54.132812 63.675781 54.164062 C 63.558594 54.195312 63.480469 54.308594 63.496094 54.425781 L 64.128906 59.914062 C 64.136719 59.96875 64.160156 60.015625 64.195312 60.054688 L 67.875 63.921875 L 74.507812 73.367188 C 74.527344 73.398438 74.554688 73.425781 74.589844 73.441406 L 81.429688 77.179688 L 85.105469 81.582031 L 85.421875 83.222656 L 81.902344 81.460938 L 77.945312 77.171875 C 77.917969 77.140625 77.878906 77.117188 77.835938 77.101562 L 72.453125 75.558594 C 72.355469 75.527344 72.242188 75.5625 72.183594 75.652344 C 72.175781 75.660156 72.171875 75.667969 72.167969 75.675781 C 72.140625 75.722656 72.132812 75.773438 72.140625 75.820312 C 72.140625 75.832031 72.144531 75.84375 72.148438 75.855469 C 72.148438 75.859375 72.148438 75.859375 72.148438 75.859375 C 72.148438 75.867188 72.152344 75.871094 72.15625 75.878906 L 75.050781 83.519531 C 75.054688 83.519531 75.054688 83.519531 75.054688 83.523438 C 75.0625 83.542969 75.074219 83.5625 75.089844 83.582031 C 75.089844 83.585938 75.09375 83.585938 75.097656 83.589844 C 75.113281 83.609375 75.128906 83.625 75.148438 83.636719 L 75.152344 83.636719 L 79.996094 86.683594 C 80.019531 86.699219 80.042969 86.710938 80.070312 86.714844 L 84.472656 87.714844 L 85.148438 89.945312 L 85.253906 92.933594 L 83.652344 97.773438 C 83.644531 97.792969 83.640625 97.816406 83.640625 97.839844 L 83.28125 106.527344 L 80.398438 113.707031 C 80.367188 113.785156 80.378906 113.875 80.429688 113.941406 L 88.335938 124.554688 C 88.351562 124.574219 88.367188 124.589844 88.382812 124.601562 C 88.386719 124.605469 88.390625 124.605469 88.394531 124.609375 C 88.410156 124.617188 88.425781 124.628906 88.441406 124.636719 L 93.574219 126.695312 C 93.578125 126.699219 93.582031 126.699219 93.585938 126.699219 C 93.59375 126.703125 93.597656 126.703125 93.601562 126.703125 C 93.621094 126.710938 93.644531 126.714844 93.664062 126.714844 C 93.683594 126.714844 93.707031 126.710938 93.726562 126.703125 C 93.730469 126.703125 93.734375 126.703125 93.742188 126.699219 C 93.746094 126.699219 93.75 126.699219 93.753906 126.695312 L 98.875 124.640625 C 98.875 124.640625 98.875 124.640625 98.878906 124.636719 L 98.886719 124.636719 C 98.894531 124.632812 98.902344 124.625 98.914062 124.621094 C 98.941406 124.605469 98.96875 124.582031 98.988281 124.558594 C 98.988281 124.554688 98.988281 124.554688 98.992188 124.554688 C 98.992188 124.550781 98.996094 124.546875 99 124.542969 L 106.898438 113.941406 C 106.949219 113.875 106.960938 113.785156 106.929688 113.707031 L 104.046875 106.527344 L 103.6875 97.839844 C 103.6875 97.816406 103.683594 97.792969 103.675781 97.773438 L 102.074219 92.929688 L 102.175781 89.945312 L 102.855469 87.714844 L 107.257812 86.714844 C 107.285156 86.710938 107.308594 86.699219 107.332031 86.683594 L 112.175781 83.640625 C 112.175781 83.636719 112.175781 83.636719 112.175781 83.636719 C 112.175781 83.636719 112.179688 83.636719 112.179688 83.636719 C 112.199219 83.625 112.214844 83.609375 112.230469 83.589844 C 112.234375 83.585938 112.234375 83.585938 112.238281 83.582031 C 112.253906 83.5625 112.261719 83.542969 112.273438 83.523438 C 112.273438 83.519531 112.273438 83.519531 112.273438 83.519531 L 115.171875 75.878906 C 115.175781 75.875 115.175781 75.867188 115.179688 75.859375 C 115.183594 75.847656 115.183594 75.832031 115.1875 75.820312 C 115.191406 75.769531 115.183594 75.71875 115.160156 75.675781 C 115.15625 75.667969 115.152344 75.660156 115.144531 75.652344 C 115.085938 75.5625 114.972656 75.527344 114.875 75.558594 L 109.492188 77.101562 C 109.449219 77.117188 109.410156 77.140625 109.378906 77.171875 L 105.425781 81.460938 L 101.90625 83.222656 L 102.222656 81.582031 L 105.894531 77.179688 L 112.738281 73.441406 C 112.769531 73.425781 112.796875 73.398438 112.820312 73.367188 L 119.449219 63.921875 L 123.132812 60.054688 C 123.167969 60.015625 123.191406 59.96875 123.199219 59.914062 L 123.832031 54.425781 C 123.84375 54.308594 123.769531 54.195312 123.652344 54.164062 " fill-opacity="1" fill-rule="nonzero"/></g><path fill="#e8d8a5" d="M 45.15625 13.980469 L 47.375 13.980469 C 48.417969 13.980469 49.167969 14.136719 49.632812 14.449219 C 50.101562 14.757812 50.335938 15.25 50.335938 15.925781 C 50.335938 16.390625 50.207031 16.773438 49.945312 17.074219 C 49.683594 17.378906 49.308594 17.574219 48.8125 17.660156 L 48.8125 17.714844 C 50.003906 17.925781 50.601562 18.550781 50.601562 19.597656 C 50.601562 20.300781 50.363281 20.851562 49.882812 21.246094 C 49.410156 21.636719 48.746094 21.832031 47.898438 21.832031 L 45.15625 21.832031 Z M 46.070312 17.339844 L 47.578125 17.339844 C 48.21875 17.339844 48.679688 17.242188 48.960938 17.042969 C 49.246094 16.839844 49.390625 16.496094 49.390625 16.011719 C 49.390625 15.574219 49.230469 15.261719 48.914062 15.066406 C 48.601562 14.871094 48.101562 14.769531 47.414062 14.769531 L 46.070312 14.769531 Z M 46.070312 18.113281 L 46.070312 21.050781 L 47.710938 21.050781 C 48.339844 21.050781 48.816406 20.929688 49.140625 20.683594 C 49.464844 20.441406 49.625 20.058594 49.625 19.535156 C 49.625 19.046875 49.460938 18.6875 49.132812 18.457031 C 48.804688 18.230469 48.304688 18.113281 47.632812 18.113281 Z M 46.070312 18.113281 " fill-opacity="1" fill-rule="nonzero"/><path fill="#e8d8a5" d="M 57.867188 21.832031 L 53.484375 21.832031 L 53.484375 13.980469 L 57.867188 13.980469 L 57.867188 14.792969 L 54.398438 14.792969 L 54.398438 17.316406 L 57.65625 17.316406 L 57.65625 18.128906 L 54.398438 18.128906 L 54.398438 21.011719 L 57.867188 21.011719 Z M 57.867188 21.832031 " fill-opacity="1" fill-rule="nonzero"/><path fill="#e8d8a5" d="M 65.183594 21.832031 L 60.800781 21.832031 L 60.800781 13.980469 L 65.183594 13.980469 L 65.183594 14.792969 L 61.714844 14.792969 L 61.714844 17.316406 L 64.972656 17.316406 L 64.972656 18.128906 L 61.714844 18.128906 L 61.714844 21.011719 L 65.183594 21.011719 Z M 65.183594 21.832031 " fill-opacity="1" fill-rule="nonzero"/><path fill="#e8d8a5" d="M 69.027344 18.566406 L 69.027344 21.832031 L 68.113281 21.832031 L 68.113281 13.980469 L 70.269531 13.980469 C 71.234375 13.980469 71.945312 14.167969 72.402344 14.535156 C 72.867188 14.902344 73.097656 15.457031 73.097656 16.199219 C 73.097656 17.238281 72.570312 17.9375 71.511719 18.300781 L 73.644531 21.832031 L 72.566406 21.832031 L 70.667969 18.566406 Z M 69.027344 17.785156 L 70.277344 17.785156 C 70.921875 17.785156 71.398438 17.660156 71.699219 17.402344 C 72 17.144531 72.152344 16.757812 72.152344 16.246094 C 72.152344 15.726562 72 15.351562 71.691406 15.121094 C 71.382812 14.894531 70.890625 14.777344 70.214844 14.777344 L 69.027344 14.777344 Z M 69.027344 17.785156 " fill-opacity="1" fill-rule="nonzero"/><path fill="#e8d8a5" d="M 86.988281 17.894531 C 86.988281 19.152344 86.671875 20.140625 86.035156 20.863281 C 85.398438 21.582031 84.515625 21.941406 83.378906 21.941406 C 82.222656 21.941406 81.328125 21.589844 80.699219 20.878906 C 80.074219 20.171875 79.761719 19.175781 79.761719 17.886719 C 79.761719 16.605469 80.078125 15.613281 80.707031 14.910156 C 81.335938 14.207031 82.234375 13.855469 83.394531 13.855469 C 84.519531 13.855469 85.398438 14.214844 86.035156 14.933594 C 86.671875 15.648438 86.988281 16.636719 86.988281 17.894531 Z M 80.730469 17.894531 C 80.730469 18.957031 80.957031 19.765625 81.410156 20.316406 C 81.863281 20.863281 82.519531 21.136719 83.378906 21.136719 C 84.25 21.136719 84.90625 20.863281 85.347656 20.316406 C 85.796875 19.769531 86.019531 18.964844 86.019531 17.894531 C 86.019531 16.839844 85.796875 16.039062 85.355469 15.496094 C 84.914062 14.949219 84.257812 14.675781 83.394531 14.675781 C 82.523438 14.675781 81.863281 14.953125 81.410156 15.503906 C 80.957031 16.050781 80.730469 16.847656 80.730469 17.894531 Z M 80.730469 17.894531 " fill-opacity="1" fill-rule="nonzero"/><path fill="#e8d8a5" d="M 89.933594 21.832031 L 89.933594 13.980469 L 90.847656 13.980469 L 90.847656 21.003906 L 94.316406 21.003906 L 94.316406 21.832031 Z M 89.933594 21.832031 " fill-opacity="1" fill-rule="nonzero"/><path fill="#e8d8a5" d="M 103.113281 17.832031 C 103.113281 19.128906 102.757812 20.121094 102.050781 20.808594 C 101.347656 21.492188 100.335938 21.832031 99.019531 21.832031 L 96.839844 21.832031 L 96.839844 13.980469 L 99.246094 13.980469 C 100.46875 13.980469 101.421875 14.320312 102.097656 14.996094 C 102.773438 15.675781 103.113281 16.621094 103.113281 17.832031 Z M 102.144531 17.863281 C 102.144531 16.839844 101.886719 16.066406 101.371094 15.550781 C 100.855469 15.03125 100.09375 14.769531 99.082031 14.769531 L 97.753906 14.769531 L 97.753906 21.042969 L 98.863281 21.042969 C 99.953125 21.042969 100.769531 20.777344 101.316406 20.238281 C 101.867188 19.703125 102.144531 18.910156 102.144531 17.863281 Z M 102.144531 17.863281 " fill-opacity="1" fill-rule="nonzero"/><path fill="#e8d8a5" d="M 110.484375 19.746094 C 110.484375 20.433594 110.234375 20.972656 109.734375 21.363281 C 109.234375 21.75 108.554688 21.941406 107.695312 21.941406 C 106.761719 21.941406 106.046875 21.824219 105.546875 21.582031 L 105.546875 20.699219 C 105.871094 20.835938 106.222656 20.941406 106.601562 21.019531 C 106.980469 21.097656 107.355469 21.136719 107.726562 21.136719 C 108.335938 21.136719 108.792969 21.023438 109.101562 20.792969 C 109.410156 20.566406 109.5625 20.246094 109.5625 19.832031 C 109.5625 19.558594 109.507812 19.332031 109.398438 19.160156 C 109.289062 18.988281 109.105469 18.832031 108.851562 18.683594 C 108.597656 18.535156 108.207031 18.363281 107.6875 18.175781 C 106.953125 17.917969 106.429688 17.609375 106.117188 17.253906 C 105.804688 16.894531 105.648438 16.425781 105.648438 15.847656 C 105.648438 15.246094 105.875 14.761719 106.328125 14.402344 C 106.785156 14.042969 107.386719 13.863281 108.132812 13.863281 C 108.914062 13.863281 109.632812 14.007812 110.289062 14.292969 L 110.007812 15.089844 C 109.355469 14.820312 108.726562 14.683594 108.117188 14.683594 C 107.632812 14.683594 107.253906 14.789062 106.976562 14.996094 C 106.707031 15.207031 106.570312 15.492188 106.570312 15.855469 C 106.570312 16.132812 106.621094 16.355469 106.71875 16.527344 C 106.824219 16.699219 106.992188 16.859375 107.226562 17.003906 C 107.464844 17.152344 107.832031 17.3125 108.320312 17.488281 C 109.144531 17.78125 109.707031 18.097656 110.015625 18.433594 C 110.328125 18.769531 110.484375 19.207031 110.484375 19.746094 Z M 110.484375 19.746094 " fill-opacity="1" fill-rule="nonzero"/><path fill="#e8d8a5" d="M 115.714844 21.832031 L 114.800781 21.832031 L 114.800781 14.792969 L 112.308594 14.792969 L 112.308594 13.980469 L 118.199219 13.980469 L 118.199219 14.792969 L 115.714844 14.792969 Z M 115.714844 21.832031 " fill-opacity="1" fill-rule="nonzero"/><path fill="#e8d8a5" d="M 127.394531 17.894531 C 127.394531 19.152344 127.078125 20.140625 126.441406 20.863281 C 125.804688 21.582031 124.921875 21.941406 123.785156 21.941406 C 122.628906 21.941406 121.734375 21.589844 121.105469 20.878906 C 120.480469 20.171875 120.167969 19.175781 120.167969 17.886719 C 120.167969 16.605469 120.484375 15.613281 121.113281 14.910156 C 121.742188 14.207031 122.640625 13.855469 123.800781 13.855469 C 124.925781 13.855469 125.804688 14.214844 126.441406 14.933594 C 127.078125 15.648438 127.394531 16.636719 127.394531 17.894531 Z M 121.136719 17.894531 C 121.136719 18.957031 121.363281 19.765625 121.816406 20.316406 C 122.269531 20.863281 122.925781 21.136719 123.785156 21.136719 C 124.65625 21.136719 125.3125 20.863281 125.753906 20.316406 C 126.203125 19.769531 126.425781 18.964844 126.425781 17.894531 C 126.425781 16.839844 126.203125 16.039062 125.761719 15.496094 C 125.320312 14.949219 124.664062 14.675781 123.800781 14.675781 C 122.929688 14.675781 122.269531 14.953125 121.816406 15.503906 C 121.363281 16.050781 121.136719 16.847656 121.136719 17.894531 Z M 121.136719 17.894531 " fill-opacity="1" fill-rule="nonzero"/><path fill="#e8d8a5" d="M 131.253906 18.566406 L 131.253906 21.832031 L 130.339844 21.832031 L 130.339844 13.980469 L 132.496094 13.980469 C 133.457031 13.980469 134.167969 14.167969 134.628906 14.535156 C 135.089844 14.902344 135.324219 15.457031 135.324219 16.199219 C 135.324219 17.238281 134.792969 17.9375 133.738281 18.300781 L 135.871094 21.832031 L 134.792969 21.832031 L 132.894531 18.566406 Z M 131.253906 17.785156 L 132.503906 17.785156 C 133.148438 17.785156 133.621094 17.660156 133.925781 17.402344 C 134.226562 17.144531 134.378906 16.757812 134.378906 16.246094 C 134.378906 15.726562 134.222656 15.351562 133.917969 15.121094 C 133.609375 14.894531 133.117188 14.777344 132.441406 14.777344 L 131.253906 14.777344 Z M 131.253906 17.785156 " fill-opacity="1" fill-rule="nonzero"/><path fill="#e8d8a5" d="M 140.335938 17.902344 L 142.429688 13.980469 L 143.421875 13.980469 L 140.796875 18.785156 L 140.796875 21.832031 L 139.875 21.832031 L 139.875 18.832031 L 137.257812 13.980469 L 138.257812 13.980469 Z M 140.335938 17.902344 " fill-opacity="1" fill-rule="nonzero"/><path fill="#e8d8a5" d="M 27.089844 155.871094 C 28.449219 154.496094 30.222656 153.808594 32.410156 153.808594 C 34.597656 153.808594 36.375 154.496094 37.738281 155.871094 C 39.109375 157.242188 39.792969 159.042969 39.792969 161.269531 C 39.792969 163.5 39.109375 165.300781 37.738281 166.675781 C 36.375 168.050781 34.597656 168.738281 32.410156 168.738281 C 30.222656 168.738281 28.449219 168.050781 27.089844 166.675781 C 25.730469 165.300781 25.050781 163.5 25.050781 161.269531 C 25.050781 159.042969 25.730469 157.242188 27.089844 155.871094 Z M 28.214844 166.238281 C 29.277344 167.496094 30.679688 168.121094 32.417969 168.121094 C 34.164062 168.121094 35.5625 167.496094 36.621094 166.238281 C 37.683594 164.980469 38.214844 163.324219 38.214844 161.269531 C 38.214844 159.917969 37.976562 158.722656 37.496094 157.683594 C 37.015625 156.644531 36.335938 155.839844 35.457031 155.269531 C 34.578125 154.703125 33.5625 154.417969 32.410156 154.417969 C 30.675781 154.417969 29.277344 155.050781 28.214844 156.308594 C 27.15625 157.566406 26.628906 159.21875 26.628906 161.269531 C 26.628906 163.324219 27.15625 164.980469 28.214844 166.238281 Z M 28.214844 166.238281 " fill-opacity="1" fill-rule="nonzero"/><path fill="#e8d8a5" d="M 46.292969 168.246094 C 46.648438 168.246094 46.949219 168.121094 47.199219 167.871094 C 47.453125 167.617188 47.589844 167.308594 47.605469 166.949219 L 47.605469 155.589844 C 47.589844 155.238281 47.453125 154.933594 47.199219 154.683594 C 46.949219 154.429688 46.648438 154.300781 46.292969 154.300781 L 46.027344 154.300781 L 46.027344 154.089844 L 50.511719 154.089844 L 50.511719 154.300781 L 50.246094 154.300781 C 49.757812 154.300781 49.382812 154.511719 49.121094 154.933594 C 48.996094 155.136719 48.933594 155.355469 48.933594 155.589844 L 48.933594 167.816406 L 51.871094 167.816406 C 52.882812 167.816406 53.652344 167.589844 54.183594 167.136719 C 54.71875 166.683594 55.164062 166.015625 55.519531 165.128906 L 55.722656 165.128906 L 54.535156 168.449219 L 46.027344 168.449219 L 46.027344 168.246094 Z M 46.292969 168.246094 " fill-opacity="1" fill-rule="nonzero"/><path fill="#e8d8a5" d="M 68.496094 154.089844 C 70.683594 154.089844 72.457031 154.753906 73.816406 156.074219 C 75.179688 157.394531 75.863281 159.125 75.863281 161.269531 C 75.863281 163.417969 75.179688 165.152344 73.816406 166.472656 C 72.457031 167.792969 70.683594 168.449219 68.496094 168.449219 L 61.550781 168.449219 L 61.550781 168.246094 L 61.816406 168.246094 C 62.171875 168.246094 62.472656 168.121094 62.722656 167.871094 C 62.976562 167.617188 63.113281 167.308594 63.128906 166.949219 L 63.128906 155.464844 C 63.128906 155.136719 62.992188 154.863281 62.722656 154.636719 C 62.457031 154.414062 62.15625 154.300781 61.816406 154.300781 L 61.566406 154.300781 L 61.550781 154.089844 Z M 64.457031 154.707031 L 64.457031 167.832031 L 68.496094 167.832031 C 69.648438 167.832031 70.664062 167.558594 71.542969 167.011719 C 72.429688 166.464844 73.113281 165.699219 73.597656 164.707031 C 74.082031 163.71875 74.324219 162.574219 74.324219 161.269531 C 74.324219 159.300781 73.789062 157.714844 72.714844 156.511719 C 71.640625 155.308594 70.234375 154.707031 68.496094 154.707031 Z M 64.457031 154.707031 " fill-opacity="1" fill-rule="nonzero"/><path fill="#e8d8a5" d="M 82.113281 167.605469 C 82.070312 167.417969 82.050781 167.050781 82.050781 166.503906 C 82.050781 165.957031 82.152344 165.375 82.363281 164.753906 L 82.542969 164.753906 C 82.53125 164.90625 82.527344 165.058594 82.527344 165.207031 C 82.527344 166.042969 82.777344 166.738281 83.285156 167.292969 C 83.789062 167.847656 84.457031 168.121094 85.292969 168.121094 C 86.152344 168.121094 86.855469 167.863281 87.410156 167.339844 C 87.964844 166.820312 88.246094 166.167969 88.246094 165.386719 C 88.246094 164.601562 87.980469 163.960938 87.449219 163.464844 L 83.511719 159.816406 C 82.769531 159.136719 82.402344 158.308594 82.402344 157.339844 C 82.402344 156.367188 82.722656 155.535156 83.371094 154.847656 C 84.019531 154.15625 84.902344 153.808594 86.011719 153.808594 C 86.53125 153.808594 87.121094 153.878906 87.777344 154.011719 L 88.574219 154.011719 L 88.574219 156.535156 L 88.386719 156.535156 C 88.386719 155.890625 88.164062 155.378906 87.722656 154.996094 C 87.277344 154.613281 86.707031 154.417969 86.011719 154.417969 C 85.3125 154.417969 84.726562 154.652344 84.253906 155.121094 C 83.785156 155.585938 83.550781 156.167969 83.550781 156.863281 C 83.550781 157.5625 83.824219 158.164062 84.371094 158.667969 L 88.410156 162.402344 C 89.089844 163.027344 89.433594 163.886719 89.433594 164.980469 C 89.433594 166.074219 89.082031 166.976562 88.386719 167.683594 C 87.691406 168.386719 86.761719 168.738281 85.597656 168.738281 C 84.996094 168.738281 84.359375 168.644531 83.683594 168.457031 C 83.003906 168.277344 82.480469 167.992188 82.113281 167.605469 Z M 82.113281 167.605469 " fill-opacity="1" fill-rule="nonzero"/><path fill="#e8d8a5" d="M 106.679688 155.917969 C 106.679688 155.589844 106.5625 155.308594 106.328125 155.066406 C 106.097656 154.828125 105.828125 154.703125 105.515625 154.691406 L 101.617188 154.691406 L 101.617188 166.972656 C 101.625 167.328125 101.757812 167.628906 102.015625 167.878906 C 102.269531 168.125 102.574219 168.246094 102.929688 168.246094 L 103.195312 168.246094 L 103.195312 168.449219 L 98.703125 168.449219 L 98.703125 168.246094 L 98.96875 168.246094 C 99.320312 168.246094 99.625 168.125 99.882812 167.878906 C 100.136719 167.628906 100.269531 167.335938 100.28125 166.996094 L 100.28125 154.691406 L 96.382812 154.691406 C 96.054688 154.703125 95.777344 154.828125 95.554688 155.066406 C 95.328125 155.308594 95.21875 155.589844 95.21875 155.917969 L 95.21875 156.269531 L 95.015625 156.285156 L 95.015625 153.707031 C 95.21875 153.785156 95.570312 153.867188 96.078125 153.949219 C 96.582031 154.035156 97.046875 154.074219 97.476562 154.074219 L 104.40625 154.074219 C 105.070312 154.074219 105.625 154.023438 106.070312 153.917969 C 106.515625 153.816406 106.789062 153.746094 106.882812 153.707031 L 106.882812 156.285156 L 106.679688 156.269531 Z M 106.679688 155.917969 " fill-opacity="1" fill-rule="nonzero"/><path fill="#e8d8a5" d="M 114.746094 155.871094 C 116.105469 154.496094 117.878906 153.808594 120.066406 153.808594 C 122.253906 153.808594 124.03125 154.496094 125.394531 155.871094 C 126.765625 157.242188 127.449219 159.042969 127.449219 161.269531 C 127.449219 163.5 126.765625 165.300781 125.394531 166.675781 C 124.03125 168.050781 122.253906 168.738281 120.066406 168.738281 C 117.878906 168.738281 116.105469 168.050781 114.746094 166.675781 C 113.386719 165.300781 112.707031 163.5 112.707031 161.269531 C 112.707031 159.042969 113.386719 157.242188 114.746094 155.871094 Z M 115.871094 166.238281 C 116.933594 167.496094 118.335938 168.121094 120.074219 168.121094 C 121.820312 168.121094 123.21875 167.496094 124.277344 166.238281 C 125.339844 164.980469 125.871094 163.324219 125.871094 161.269531 C 125.871094 159.917969 125.632812 158.722656 125.152344 157.683594 C 124.671875 156.644531 123.992188 155.839844 123.113281 155.269531 C 122.234375 154.703125 121.21875 154.417969 120.066406 154.417969 C 118.332031 154.417969 116.933594 155.050781 115.871094 156.308594 C 114.8125 157.566406 114.285156 159.21875 114.285156 161.269531 C 114.285156 163.324219 114.8125 164.980469 115.871094 166.238281 Z M 115.871094 166.238281 " fill-opacity="1" fill-rule="nonzero"/><path fill="#e8d8a5" d="M 137.902344 154.730469 L 136.589844 154.730469 L 136.589844 166.949219 C 136.589844 167.308594 136.714844 167.617188 136.964844 167.871094 C 137.21875 168.121094 137.53125 168.246094 137.902344 168.246094 L 138.152344 168.246094 L 138.167969 168.449219 L 133.683594 168.449219 L 133.683594 168.246094 L 133.949219 168.246094 C 134.304688 168.246094 134.605469 168.125 134.855469 167.878906 C 135.109375 167.628906 135.246094 167.328125 135.261719 166.972656 L 135.261719 155.589844 C 135.246094 155.238281 135.109375 154.933594 134.855469 154.683594 C 134.605469 154.429688 134.304688 154.300781 133.949219 154.300781 L 133.683594 154.300781 L 133.683594 154.089844 L 139.214844 154.089844 C 140.460938 154.089844 141.4375 154.4375 142.144531 155.128906 C 142.859375 155.824219 143.214844 156.71875 143.214844 157.816406 C 143.214844 158.917969 142.875 159.867188 142.199219 160.667969 C 141.523438 161.464844 140.699219 161.863281 139.730469 161.863281 C 139.933594 161.964844 140.175781 162.152344 140.457031 162.433594 C 140.738281 162.710938 140.988281 163 141.207031 163.300781 C 142.382812 164.984375 143.148438 166.019531 143.503906 166.410156 C 143.859375 166.800781 144.109375 167.070312 144.261719 167.214844 C 144.414062 167.355469 144.578125 167.496094 144.753906 167.628906 C 144.929688 167.765625 145.109375 167.875 145.285156 167.957031 C 145.679688 168.152344 146.105469 168.246094 146.558594 168.246094 L 146.558594 168.449219 L 145.433594 168.449219 C 144.84375 168.449219 144.296875 168.347656 143.792969 168.136719 C 143.289062 167.925781 142.90625 167.707031 142.652344 167.480469 C 142.398438 167.253906 142.179688 167.035156 141.996094 166.824219 C 141.8125 166.613281 141.304688 165.902344 140.464844 164.699219 C 139.632812 163.496094 139.148438 162.808594 139.011719 162.636719 C 138.875 162.464844 138.734375 162.296875 138.582031 162.128906 C 138.144531 161.667969 137.707031 161.433594 137.269531 161.433594 L 137.269531 161.230469 C 137.378906 161.246094 137.523438 161.253906 137.699219 161.253906 C 137.875 161.253906 138.09375 161.246094 138.355469 161.230469 C 140.054688 161.191406 141.121094 160.480469 141.558594 159.097656 C 141.636719 158.824219 141.675781 158.566406 141.675781 158.332031 C 141.675781 158.09375 141.675781 157.9375 141.675781 157.863281 C 141.648438 156.953125 141.410156 156.214844 140.957031 155.652344 C 140.507812 155.089844 139.902344 154.789062 139.136719 154.746094 C 138.808594 154.738281 138.398438 154.730469 137.902344 154.730469 Z M 137.902344 154.730469 " fill-opacity="1" fill-rule="nonzero"/><path fill="#e8d8a5" d="M 164.136719 154.300781 L 163.847656 154.300781 C 163.441406 154.300781 163.054688 154.414062 162.691406 154.636719 C 162.324219 154.863281 162.019531 155.144531 161.777344 155.488281 L 157.738281 162.050781 L 157.738281 166.949219 C 157.738281 167.308594 157.863281 167.617188 158.113281 167.871094 C 158.367188 168.121094 158.679688 168.246094 159.050781 168.246094 L 159.300781 168.246094 L 159.300781 168.449219 L 154.824219 168.449219 L 154.824219 168.246094 L 155.089844 168.246094 C 155.449219 168.246094 155.753906 168.125 156.003906 167.878906 C 156.257812 167.628906 156.390625 167.328125 156.402344 166.972656 L 156.402344 162.027344 L 152.488281 155.488281 C 152.285156 155.160156 151.992188 154.882812 151.613281 154.652344 C 151.238281 154.417969 150.847656 154.300781 150.441406 154.300781 L 150.152344 154.300781 L 150.152344 154.089844 L 155.199219 154.089844 L 155.199219 154.300781 L 154.925781 154.300781 C 154.628906 154.300781 154.394531 154.4375 154.230469 154.707031 C 154.144531 154.859375 154.105469 155.007812 154.105469 155.152344 C 154.105469 155.292969 154.140625 155.433594 154.214844 155.566406 L 157.285156 161.308594 L 160.566406 155.550781 C 160.632812 155.417969 160.667969 155.28125 160.667969 155.144531 C 160.667969 155.003906 160.621094 154.859375 160.527344 154.707031 C 160.363281 154.4375 160.132812 154.300781 159.832031 154.300781 L 159.582031 154.300781 L 159.582031 154.089844 L 164.136719 154.089844 Z M 164.136719 154.300781 " fill-opacity="1" fill-rule="nonzero"/><path fill="#e8d8a5" d="M 57.539062 140.441406 C 57.886719 140.441406 58.160156 140.527344 58.359375 140.699219 C 58.5625 140.867188 58.664062 141.09375 58.664062 141.386719 C 58.664062 141.683594 58.5625 141.914062 58.359375 142.082031 C 58.160156 142.25 57.886719 142.332031 57.539062 142.332031 L 56.796875 142.332031 L 56.796875 143.199219 L 56.5 143.199219 L 56.5 140.441406 Z M 57.523438 142.074219 C 57.796875 142.074219 58.007812 142.015625 58.148438 141.894531 C 58.292969 141.773438 58.367188 141.605469 58.367188 141.386719 C 58.367188 141.164062 58.292969 140.992188 58.148438 140.871094 C 58.007812 140.75 57.796875 140.691406 57.523438 140.691406 L 56.796875 140.691406 L 56.796875 142.074219 Z M 57.523438 142.074219 " fill-opacity="1" fill-rule="nonzero"/><path fill="#e8d8a5" d="M 61.066406 140.441406 L 61.363281 140.441406 L 61.363281 142.949219 L 62.902344 142.949219 L 62.902344 143.199219 L 61.066406 143.199219 Z M 61.066406 140.441406 " fill-opacity="1" fill-rule="nonzero"/><path fill="#e8d8a5" d="M 66.863281 142.464844 L 65.324219 142.464844 L 64.996094 143.199219 L 64.691406 143.199219 L 65.949219 140.441406 L 66.238281 140.441406 L 67.496094 143.199219 L 67.191406 143.199219 Z M 66.753906 142.230469 L 66.089844 140.746094 L 65.433594 142.230469 Z M 66.753906 142.230469 " fill-opacity="1" fill-rule="nonzero"/><path fill="#e8d8a5" d="M 71.683594 142.949219 L 71.683594 143.199219 L 69.425781 143.199219 L 69.425781 142.996094 L 71.253906 140.691406 L 69.449219 140.691406 L 69.449219 140.441406 L 71.636719 140.441406 L 71.636719 140.644531 L 69.816406 142.949219 Z M 71.683594 142.949219 " fill-opacity="1" fill-rule="nonzero"/><path fill="#e8d8a5" d="M 75.730469 142.464844 L 74.191406 142.464844 L 73.863281 143.199219 L 73.558594 143.199219 L 74.816406 140.441406 L 75.105469 140.441406 L 76.363281 143.199219 L 76.058594 143.199219 Z M 75.621094 142.230469 L 74.957031 140.746094 L 74.300781 142.230469 Z M 75.621094 142.230469 " fill-opacity="1" fill-rule="nonzero"/><path fill="#e8d8a5" d="M 81.335938 140.441406 L 82.460938 140.441406 C 82.75 140.441406 83.007812 140.5 83.234375 140.621094 C 83.457031 140.734375 83.628906 140.898438 83.75 141.105469 C 83.875 141.3125 83.9375 141.554688 83.9375 141.824219 C 83.9375 142.089844 83.875 142.328125 83.75 142.535156 C 83.628906 142.742188 83.457031 142.90625 83.234375 143.027344 C 83.007812 143.140625 82.75 143.199219 82.460938 143.199219 L 81.335938 143.199219 Z M 82.445312 142.949219 C 82.683594 142.949219 82.894531 142.902344 83.078125 142.808594 C 83.257812 142.710938 83.398438 142.578125 83.5 142.410156 C 83.597656 142.238281 83.648438 142.042969 83.648438 141.824219 C 83.648438 141.601562 83.597656 141.40625 83.5 141.238281 C 83.398438 141.066406 83.257812 140.933594 83.078125 140.839844 C 82.894531 140.742188 82.683594 140.691406 82.445312 140.691406 L 81.632812 140.691406 L 81.632812 142.949219 Z M 82.445312 142.949219 " fill-opacity="1" fill-rule="nonzero"/><path fill="#e8d8a5" d="M 88.28125 142.949219 L 88.28125 143.199219 L 86.328125 143.199219 L 86.328125 140.441406 L 88.21875 140.441406 L 88.21875 140.691406 L 86.625 140.691406 L 86.625 141.675781 L 88.046875 141.675781 L 88.046875 141.925781 L 86.625 141.925781 L 86.625 142.949219 Z M 88.28125 142.949219 " fill-opacity="1" fill-rule="nonzero"/><path fill="#e8d8a5" d="M 93.476562 140.441406 L 93.773438 140.441406 L 93.773438 142.949219 L 95.3125 142.949219 L 95.3125 143.199219 L 93.476562 143.199219 Z M 93.476562 140.441406 " fill-opacity="1" fill-rule="nonzero"/><path fill="#e8d8a5" d="M 99.273438 142.464844 L 97.734375 142.464844 L 97.40625 143.199219 L 97.101562 143.199219 L 98.359375 140.441406 L 98.648438 140.441406 L 99.90625 143.199219 L 99.601562 143.199219 Z M 99.164062 142.230469 L 98.5 140.746094 L 97.84375 142.230469 Z M 99.164062 142.230469 " fill-opacity="1" fill-rule="nonzero"/><path fill="#e8d8a5" d="M 106.082031 143.222656 C 105.804688 143.222656 105.558594 143.164062 105.339844 143.042969 C 105.121094 142.921875 104.949219 142.757812 104.824219 142.542969 C 104.699219 142.328125 104.636719 142.089844 104.636719 141.824219 C 104.636719 141.558594 104.699219 141.320312 104.824219 141.105469 C 104.949219 140.890625 105.121094 140.726562 105.339844 140.605469 C 105.5625 140.480469 105.808594 140.417969 106.082031 140.417969 C 106.285156 140.417969 106.472656 140.453125 106.644531 140.519531 C 106.820312 140.585938 106.96875 140.6875 107.089844 140.824219 L 106.910156 141.003906 C 106.691406 140.785156 106.417969 140.675781 106.089844 140.675781 C 105.871094 140.675781 105.671875 140.726562 105.496094 140.832031 C 105.316406 140.929688 105.175781 141.066406 105.074219 141.238281 C 104.972656 141.410156 104.925781 141.605469 104.925781 141.824219 C 104.925781 142.039062 104.972656 142.230469 105.074219 142.402344 C 105.175781 142.574219 105.316406 142.710938 105.496094 142.816406 C 105.671875 142.914062 105.871094 142.964844 106.089844 142.964844 C 106.421875 142.964844 106.695312 142.851562 106.910156 142.628906 L 107.089844 142.816406 C 106.96875 142.945312 106.820312 143.046875 106.644531 143.121094 C 106.472656 143.1875 106.285156 143.222656 106.082031 143.222656 Z M 106.082031 143.222656 " fill-opacity="1" fill-rule="nonzero"/><path fill="#e8d8a5" d="M 110.660156 143.222656 C 110.382812 143.222656 110.132812 143.164062 109.910156 143.042969 C 109.691406 142.917969 109.519531 142.75 109.394531 142.542969 C 109.269531 142.328125 109.207031 142.089844 109.207031 141.824219 C 109.207031 141.558594 109.269531 141.320312 109.394531 141.105469 C 109.519531 140.890625 109.691406 140.726562 109.910156 140.605469 C 110.132812 140.480469 110.382812 140.417969 110.660156 140.417969 C 110.929688 140.417969 111.175781 140.480469 111.394531 140.605469 C 111.613281 140.726562 111.785156 140.890625 111.910156 141.105469 C 112.039062 141.320312 112.105469 141.558594 112.105469 141.824219 C 112.105469 142.089844 112.039062 142.328125 111.910156 142.542969 C 111.785156 142.757812 111.613281 142.921875 111.394531 143.042969 C 111.175781 143.164062 110.929688 143.222656 110.660156 143.222656 Z M 110.660156 142.964844 C 110.878906 142.964844 111.074219 142.914062 111.246094 142.816406 C 111.421875 142.71875 111.5625 142.582031 111.660156 142.410156 C 111.757812 142.234375 111.808594 142.039062 111.808594 141.824219 C 111.808594 141.605469 111.757812 141.410156 111.660156 141.238281 C 111.5625 141.0625 111.421875 140.921875 111.246094 140.824219 C 111.074219 140.726562 110.878906 140.675781 110.660156 140.675781 C 110.441406 140.675781 110.242188 140.726562 110.066406 140.824219 C 109.890625 140.921875 109.75 141.0625 109.644531 141.238281 C 109.546875 141.410156 109.496094 141.605469 109.496094 141.824219 C 109.496094 142.039062 109.546875 142.234375 109.644531 142.410156 C 109.75 142.582031 109.890625 142.71875 110.066406 142.816406 C 110.242188 142.914062 110.441406 142.964844 110.660156 142.964844 Z M 110.660156 142.964844 " fill-opacity="1" fill-rule="nonzero"/><path fill="#e8d8a5" d="M 116.375 143.199219 L 115.75 142.316406 C 115.675781 142.320312 115.605469 142.324219 115.53125 142.324219 L 114.789062 142.324219 L 114.789062 143.199219 L 114.492188 143.199219 L 114.492188 140.441406 L 115.53125 140.441406 C 115.878906 140.441406 116.152344 140.527344 116.351562 140.699219 C 116.554688 140.867188 116.65625 141.09375 116.65625 141.386719 C 116.65625 141.601562 116.601562 141.78125 116.492188 141.933594 C 116.382812 142.078125 116.226562 142.1875 116.023438 142.253906 L 116.695312 143.199219 Z M 115.515625 142.074219 C 115.792969 142.074219 116 142.015625 116.140625 141.894531 C 116.285156 141.773438 116.359375 141.605469 116.359375 141.386719 C 116.359375 141.164062 116.285156 140.992188 116.140625 140.871094 C 116 140.75 115.792969 140.691406 115.515625 140.691406 L 114.789062 140.691406 L 114.789062 142.074219 Z M 115.515625 142.074219 " fill-opacity="1" fill-rule="nonzero"/><path fill="#e8d8a5" d="M 120.292969 143.222656 C 120.015625 143.222656 119.765625 143.164062 119.542969 143.042969 C 119.324219 142.917969 119.152344 142.75 119.027344 142.542969 C 118.902344 142.328125 118.839844 142.089844 118.839844 141.824219 C 118.839844 141.558594 118.902344 141.320312 119.027344 141.105469 C 119.152344 140.890625 119.324219 140.726562 119.542969 140.605469 C 119.765625 140.480469 120.015625 140.417969 120.292969 140.417969 C 120.5625 140.417969 120.808594 140.480469 121.027344 140.605469 C 121.246094 140.726562 121.417969 140.890625 121.542969 141.105469 C 121.671875 141.320312 121.738281 141.558594 121.738281 141.824219 C 121.738281 142.089844 121.671875 142.328125 121.542969 142.542969 C 121.417969 142.757812 121.246094 142.921875 121.027344 143.042969 C 120.808594 143.164062 120.5625 143.222656 120.292969 143.222656 Z M 120.292969 142.964844 C 120.511719 142.964844 120.707031 142.914062 120.878906 142.816406 C 121.054688 142.71875 121.191406 142.582031 121.292969 142.410156 C 121.390625 142.234375 121.441406 142.039062 121.441406 141.824219 C 121.441406 141.605469 121.390625 141.410156 121.292969 141.238281 C 121.191406 141.0625 121.054688 140.921875 120.878906 140.824219 C 120.707031 140.726562 120.511719 140.675781 120.292969 140.675781 C 120.074219 140.675781 119.875 140.726562 119.699219 140.824219 C 119.519531 140.921875 119.378906 141.0625 119.277344 141.238281 C 119.175781 141.410156 119.128906 141.605469 119.128906 141.824219 C 119.128906 142.039062 119.175781 142.234375 119.277344 142.410156 C 119.378906 142.582031 119.519531 142.71875 119.699219 142.816406 C 119.875 142.914062 120.074219 142.964844 120.292969 142.964844 Z M 120.292969 142.964844 " fill-opacity="1" fill-rule="nonzero"/><path fill="#e8d8a5" d="M 126.429688 140.441406 L 126.429688 143.199219 L 126.195312 143.199219 L 124.421875 140.964844 L 124.421875 143.199219 L 124.125 143.199219 L 124.125 140.441406 L 124.367188 140.441406 L 126.148438 142.675781 L 126.148438 140.441406 Z M 126.429688 140.441406 " fill-opacity="1" fill-rule="nonzero"/><path fill="#e8d8a5" d="M 130.800781 142.464844 L 129.261719 142.464844 L 128.933594 143.199219 L 128.628906 143.199219 L 129.886719 140.441406 L 130.175781 140.441406 L 131.433594 143.199219 L 131.128906 143.199219 Z M 130.691406 142.230469 L 130.027344 140.746094 L 129.371094 142.230469 Z M 130.691406 142.230469 " fill-opacity="1" fill-rule="nonzero"/><path fill="#e8d8a5" d="M 78.214844 181.367188 L 78.214844 184.125 L 77.933594 184.125 L 77.933594 181.617188 L 77.285156 181.617188 L 77.285156 181.367188 Z M 78.214844 181.367188 " fill-opacity="1" fill-rule="nonzero"/><path fill="#e8d8a5" d="M 82.191406 182.679688 C 82.367188 182.738281 82.5 182.824219 82.589844 182.9375 C 82.683594 183.050781 82.730469 183.191406 82.730469 183.359375 C 82.730469 183.515625 82.683594 183.652344 82.597656 183.773438 C 82.511719 183.894531 82.390625 183.988281 82.230469 184.054688 C 82.066406 184.117188 81.878906 184.148438 81.660156 184.148438 C 81.332031 184.148438 81.070312 184.078125 80.878906 183.9375 C 80.691406 183.796875 80.597656 183.605469 80.597656 183.359375 C 80.597656 183.191406 80.640625 183.050781 80.730469 182.9375 C 80.824219 182.824219 80.957031 182.738281 81.128906 182.679688 C 80.988281 182.621094 80.878906 182.542969 80.808594 182.445312 C 80.734375 182.339844 80.699219 182.214844 80.699219 182.070312 C 80.699219 181.851562 80.785156 181.675781 80.957031 181.546875 C 81.132812 181.410156 81.367188 181.34375 81.660156 181.34375 C 81.855469 181.34375 82.027344 181.375 82.175781 181.4375 C 82.320312 181.496094 82.433594 181.578125 82.511719 181.6875 C 82.59375 181.796875 82.636719 181.925781 82.636719 182.070312 C 82.636719 182.214844 82.597656 182.339844 82.519531 182.445312 C 82.445312 182.542969 82.335938 182.621094 82.191406 182.679688 Z M 80.980469 182.078125 C 80.980469 182.234375 81.039062 182.355469 81.160156 182.445312 C 81.277344 182.535156 81.445312 182.578125 81.660156 182.578125 C 81.871094 182.578125 82.039062 182.535156 82.160156 182.445312 C 82.285156 182.355469 82.347656 182.238281 82.347656 182.085938 C 82.347656 181.929688 82.285156 181.808594 82.160156 181.71875 C 82.035156 181.628906 81.867188 181.585938 81.660156 181.585938 C 81.449219 181.585938 81.285156 181.628906 81.160156 181.71875 C 81.039062 181.808594 80.980469 181.925781 80.980469 182.078125 Z M 81.660156 183.90625 C 81.902344 183.90625 82.09375 183.855469 82.230469 183.757812 C 82.371094 183.660156 82.441406 183.523438 82.441406 183.351562 C 82.441406 183.179688 82.371094 183.046875 82.230469 182.953125 C 82.09375 182.855469 81.902344 182.804688 81.660156 182.804688 C 81.417969 182.804688 81.230469 182.855469 81.089844 182.953125 C 80.953125 183.046875 80.886719 183.179688 80.886719 183.351562 C 80.886719 183.523438 80.953125 183.660156 81.089844 183.757812 C 81.222656 183.855469 81.414062 183.90625 81.660156 183.90625 Z M 81.660156 183.90625 " fill-opacity="1" fill-rule="nonzero"/><path fill="#e8d8a5" d="M 86.445312 182.679688 C 86.621094 182.738281 86.753906 182.824219 86.84375 182.9375 C 86.9375 183.050781 86.984375 183.191406 86.984375 183.359375 C 86.984375 183.515625 86.9375 183.652344 86.851562 183.773438 C 86.765625 183.894531 86.644531 183.988281 86.484375 184.054688 C 86.320312 184.117188 86.132812 184.148438 85.914062 184.148438 C 85.585938 184.148438 85.324219 184.078125 85.132812 183.9375 C 84.945312 183.796875 84.851562 183.605469 84.851562 183.359375 C 84.851562 183.191406 84.894531 183.050781 84.984375 182.9375 C 85.078125 182.824219 85.210938 182.738281 85.382812 182.679688 C 85.242188 182.621094 85.132812 182.542969 85.0625 182.445312 C 84.988281 182.339844 84.953125 182.214844 84.953125 182.070312 C 84.953125 181.851562 85.039062 181.675781 85.210938 181.546875 C 85.386719 181.410156 85.621094 181.34375 85.914062 181.34375 C 86.109375 181.34375 86.28125 181.375 86.429688 181.4375 C 86.574219 181.496094 86.6875 181.578125 86.765625 181.6875 C 86.847656 181.796875 86.890625 181.925781 86.890625 182.070312 C 86.890625 182.214844 86.851562 182.339844 86.773438 182.445312 C 86.699219 182.542969 86.589844 182.621094 86.445312 182.679688 Z M 85.234375 182.078125 C 85.234375 182.234375 85.292969 182.355469 85.414062 182.445312 C 85.53125 182.535156 85.699219 182.578125 85.914062 182.578125 C 86.125 182.578125 86.292969 182.535156 86.414062 182.445312 C 86.539062 182.355469 86.601562 182.238281 86.601562 182.085938 C 86.601562 181.929688 86.539062 181.808594 86.414062 181.71875 C 86.289062 181.628906 86.121094 181.585938 85.914062 181.585938 C 85.703125 181.585938 85.539062 181.628906 85.414062 181.71875 C 85.292969 181.808594 85.234375 181.925781 85.234375 182.078125 Z M 85.914062 183.90625 C 86.15625 183.90625 86.347656 183.855469 86.484375 183.757812 C 86.625 183.660156 86.695312 183.523438 86.695312 183.351562 C 86.695312 183.179688 86.625 183.046875 86.484375 182.953125 C 86.347656 182.855469 86.15625 182.804688 85.914062 182.804688 C 85.671875 182.804688 85.484375 182.855469 85.34375 182.953125 C 85.207031 183.046875 85.140625 183.179688 85.140625 183.351562 C 85.140625 183.523438 85.207031 183.660156 85.34375 183.757812 C 85.476562 183.855469 85.667969 183.90625 85.914062 183.90625 Z M 85.914062 183.90625 " fill-opacity="1" fill-rule="nonzero"/><path fill="#e8d8a5" d="M 90.695312 182.679688 C 90.871094 182.738281 91.003906 182.824219 91.09375 182.9375 C 91.1875 183.050781 91.234375 183.191406 91.234375 183.359375 C 91.234375 183.515625 91.191406 183.652344 91.101562 183.773438 C 91.019531 183.894531 90.894531 183.988281 90.734375 184.054688 C 90.574219 184.117188 90.382812 184.148438 90.164062 184.148438 C 89.835938 184.148438 89.574219 184.078125 89.382812 183.9375 C 89.195312 183.796875 89.101562 183.605469 89.101562 183.359375 C 89.101562 183.191406 89.144531 183.050781 89.234375 182.9375 C 89.328125 182.824219 89.460938 182.738281 89.632812 182.679688 C 89.492188 182.621094 89.386719 182.542969 89.3125 182.445312 C 89.238281 182.339844 89.203125 182.214844 89.203125 182.070312 C 89.203125 181.851562 89.289062 181.675781 89.460938 181.546875 C 89.636719 181.410156 89.871094 181.34375 90.164062 181.34375 C 90.363281 181.34375 90.535156 181.375 90.679688 181.4375 C 90.824219 181.496094 90.9375 181.578125 91.015625 181.6875 C 91.097656 181.796875 91.140625 181.925781 91.140625 182.070312 C 91.140625 182.214844 91.101562 182.339844 91.023438 182.445312 C 90.949219 182.542969 90.839844 182.621094 90.695312 182.679688 Z M 89.484375 182.078125 C 89.484375 182.234375 89.542969 182.355469 89.664062 182.445312 C 89.785156 182.535156 89.949219 182.578125 90.164062 182.578125 C 90.378906 182.578125 90.542969 182.535156 90.664062 182.445312 C 90.789062 182.355469 90.851562 182.238281 90.851562 182.085938 C 90.851562 181.929688 90.789062 181.808594 90.664062 181.71875 C 90.539062 181.628906 90.371094 181.585938 90.164062 181.585938 C 89.957031 181.585938 89.789062 181.628906 89.664062 181.71875 C 89.542969 181.808594 89.484375 181.925781 89.484375 182.078125 Z M 90.164062 183.90625 C 90.410156 183.90625 90.597656 183.855469 90.734375 183.757812 C 90.875 183.660156 90.945312 183.523438 90.945312 183.351562 C 90.945312 183.179688 90.875 183.046875 90.734375 182.953125 C 90.597656 182.855469 90.410156 182.804688 90.164062 182.804688 C 89.925781 182.804688 89.734375 182.855469 89.59375 182.953125 C 89.457031 183.046875 89.390625 183.179688 89.390625 183.351562 C 89.390625 183.523438 89.457031 183.660156 89.59375 183.757812 C 89.730469 183.855469 89.917969 183.90625 90.164062 183.90625 Z M 90.164062 183.90625 " fill-opacity="1" fill-rule="nonzero"/><path fill="#e8d8a5" d="M 93.40625 182.9375 L 94.4375 182.9375 L 94.4375 183.179688 L 93.40625 183.179688 Z M 93.40625 182.9375 " fill-opacity="1" fill-rule="nonzero"/><path fill="#e8d8a5" d="M 97.382812 181.367188 L 97.382812 184.125 L 97.101562 184.125 L 97.101562 181.617188 L 96.453125 181.617188 L 96.453125 181.367188 Z M 97.382812 181.367188 " fill-opacity="1" fill-rule="nonzero"/><path fill="#e8d8a5" d="M 100.640625 181.34375 C 101.003906 181.34375 101.285156 181.464844 101.476562 181.703125 C 101.675781 181.941406 101.773438 182.285156 101.773438 182.726562 C 101.773438 183.035156 101.71875 183.292969 101.609375 183.507812 C 101.503906 183.714844 101.359375 183.875 101.171875 183.984375 C 100.984375 184.09375 100.761719 184.148438 100.507812 184.148438 C 100.238281 184.148438 100.019531 184.097656 99.859375 184 L 99.96875 183.773438 C 100.105469 183.855469 100.285156 183.898438 100.507812 183.898438 C 100.808594 183.898438 101.046875 183.800781 101.21875 183.609375 C 101.394531 183.417969 101.484375 183.136719 101.484375 182.773438 C 101.484375 182.707031 101.480469 182.628906 101.46875 182.546875 C 101.402344 182.699219 101.292969 182.816406 101.140625 182.898438 C 100.996094 182.976562 100.824219 183.015625 100.632812 183.015625 C 100.449219 183.015625 100.289062 182.980469 100.148438 182.914062 C 100.007812 182.847656 99.898438 182.75 99.820312 182.625 C 99.742188 182.5 99.703125 182.355469 99.703125 182.195312 C 99.703125 182.023438 99.742188 181.875 99.820312 181.75 C 99.902344 181.621094 100.015625 181.519531 100.15625 181.453125 C 100.300781 181.378906 100.464844 181.34375 100.640625 181.34375 Z M 100.671875 182.78125 C 100.8125 182.78125 100.933594 182.753906 101.039062 182.703125 C 101.148438 182.644531 101.230469 182.574219 101.289062 182.484375 C 101.351562 182.390625 101.382812 182.289062 101.382812 182.179688 C 101.382812 182.070312 101.355469 181.972656 101.296875 181.882812 C 101.238281 181.792969 101.15625 181.722656 101.046875 181.671875 C 100.9375 181.613281 100.808594 181.585938 100.65625 181.585938 C 100.453125 181.585938 100.289062 181.640625 100.164062 181.75 C 100.039062 181.859375 99.976562 182.003906 99.976562 182.1875 C 99.976562 182.363281 100.039062 182.507812 100.164062 182.617188 C 100.289062 182.726562 100.457031 182.78125 100.671875 182.78125 Z M 100.671875 182.78125 " fill-opacity="1" fill-rule="nonzero"/><path fill="#e8d8a5" d="M 104.78125 181.34375 C 105.144531 181.34375 105.421875 181.464844 105.617188 181.703125 C 105.8125 181.941406 105.914062 182.285156 105.914062 182.726562 C 105.914062 183.035156 105.859375 183.292969 105.75 183.507812 C 105.644531 183.714844 105.5 183.875 105.3125 183.984375 C 105.125 184.09375 104.902344 184.148438 104.648438 184.148438 C 104.375 184.148438 104.160156 184.097656 104 184 L 104.109375 183.773438 C 104.242188 183.855469 104.421875 183.898438 104.648438 183.898438 C 104.949219 183.898438 105.1875 183.800781 105.359375 183.609375 C 105.535156 183.417969 105.625 183.136719 105.625 182.773438 C 105.625 182.707031 105.617188 182.628906 105.609375 182.546875 C 105.539062 182.699219 105.429688 182.816406 105.28125 182.898438 C 105.132812 182.976562 104.964844 183.015625 104.773438 183.015625 C 104.589844 183.015625 104.429688 182.980469 104.289062 182.914062 C 104.148438 182.847656 104.039062 182.75 103.960938 182.625 C 103.882812 182.5 103.84375 182.355469 103.84375 182.195312 C 103.84375 182.023438 103.882812 181.875 103.960938 181.75 C 104.042969 181.621094 104.15625 181.519531 104.296875 181.453125 C 104.441406 181.378906 104.601562 181.34375 104.78125 181.34375 Z M 104.8125 182.78125 C 104.953125 182.78125 105.074219 182.753906 105.179688 182.703125 C 105.289062 182.644531 105.371094 182.574219 105.429688 182.484375 C 105.492188 182.390625 105.523438 182.289062 105.523438 182.179688 C 105.523438 182.070312 105.492188 181.972656 105.4375 181.882812 C 105.378906 181.792969 105.296875 181.722656 105.1875 181.671875 C 105.078125 181.613281 104.945312 181.585938 104.796875 181.585938 C 104.59375 181.585938 104.429688 181.640625 104.304688 181.75 C 104.179688 181.859375 104.117188 182.003906 104.117188 182.1875 C 104.117188 182.363281 104.179688 182.507812 104.304688 182.617188 C 104.429688 182.726562 104.597656 182.78125 104.8125 182.78125 Z M 104.8125 182.78125 " fill-opacity="1" fill-rule="nonzero"/><path fill="#e8d8a5" d="M 108.921875 181.34375 C 109.285156 181.34375 109.5625 181.464844 109.757812 181.703125 C 109.953125 181.941406 110.054688 182.285156 110.054688 182.726562 C 110.054688 183.035156 110 183.292969 109.890625 183.507812 C 109.785156 183.714844 109.640625 183.875 109.453125 183.984375 C 109.265625 184.09375 109.042969 184.148438 108.789062 184.148438 C 108.515625 184.148438 108.300781 184.097656 108.140625 184 L 108.25 183.773438 C 108.382812 183.855469 108.5625 183.898438 108.789062 183.898438 C 109.089844 183.898438 109.328125 183.800781 109.5 183.609375 C 109.675781 183.417969 109.765625 183.136719 109.765625 182.773438 C 109.765625 182.707031 109.757812 182.628906 109.75 182.546875 C 109.679688 182.699219 109.570312 182.816406 109.421875 182.898438 C 109.273438 182.976562 109.105469 183.015625 108.914062 183.015625 C 108.730469 183.015625 108.570312 182.980469 108.429688 182.914062 C 108.289062 182.847656 108.179688 182.75 108.101562 182.625 C 108.023438 182.5 107.984375 182.355469 107.984375 182.195312 C 107.984375 182.023438 108.023438 181.875 108.101562 181.75 C 108.183594 181.621094 108.296875 181.519531 108.4375 181.453125 C 108.582031 181.378906 108.742188 181.34375 108.921875 181.34375 Z M 108.953125 182.78125 C 109.09375 182.78125 109.214844 182.753906 109.320312 182.703125 C 109.429688 182.644531 109.511719 182.574219 109.570312 182.484375 C 109.632812 182.390625 109.664062 182.289062 109.664062 182.179688 C 109.664062 182.070312 109.632812 181.972656 109.578125 181.882812 C 109.519531 181.792969 109.4375 181.722656 109.328125 181.671875 C 109.21875 181.613281 109.085938 181.585938 108.9375 181.585938 C 108.734375 181.585938 108.570312 181.640625 108.445312 181.75 C 108.320312 181.859375 108.257812 182.003906 108.257812 182.1875 C 108.257812 182.363281 108.320312 182.507812 108.445312 182.617188 C 108.570312 182.726562 108.738281 182.78125 108.953125 182.78125 Z M 108.953125 182.78125 " fill-opacity="1" fill-rule="nonzero"/></svg>