<svg xmlns="http://www.w3.org/2000/svg" xmlns:xlink="http://www.w3.org/1999/xlink" width="500" zoomAndPan="magnify" viewBox="0 0 375 374.999991" height="500" preserveAspectRatio="xMidYMid meet" version="1.0"><defs><clipPath id="id1"><path d="M 126.953125 84.679688 L 247.703125 84.679688 L 247.703125 253.429688 L 126.953125 253.429688 Z M 126.953125 84.679688 " clip-rule="nonzero"/></clipPath></defs><path fill="#e8d8a5" d="M 180.703125 195.644531 L 181.808594 193.996094 L 182.933594 194.964844 L 183.136719 198.171875 Z M 183.707031 199.945312 C 183.773438 199.945312 183.839844 199.929688 183.902344 199.902344 C 184.085938 199.820312 184.203125 199.632812 184.1875 199.425781 L 183.886719 194.699219 C 183.875 194.566406 183.816406 194.445312 183.71875 194.359375 L 182.027344 192.902344 C 181.921875 192.8125 181.785156 192.773438 181.644531 192.792969 C 181.511719 192.808594 181.386719 192.886719 181.308594 193 L 179.679688 195.425781 C 179.550781 195.617188 179.574219 195.871094 179.734375 196.039062 L 183.359375 199.796875 C 183.449219 199.894531 183.578125 199.945312 183.707031 199.945312 " fill-opacity="1" fill-rule="nonzero"/><path fill="#e8d8a5" d="M 193.957031 195.644531 L 191.519531 198.171875 L 191.726562 194.964844 L 192.847656 193.996094 Z M 192.632812 192.902344 L 190.941406 194.359375 C 190.84375 194.445312 190.78125 194.566406 190.773438 194.699219 L 190.46875 199.425781 C 190.457031 199.632812 190.570312 199.820312 190.757812 199.902344 C 190.820312 199.929688 190.886719 199.945312 190.953125 199.945312 C 191.082031 199.945312 191.207031 199.894531 191.300781 199.796875 L 194.925781 196.039062 C 195.082031 195.871094 195.105469 195.617188 194.976562 195.425781 L 193.347656 193 C 193.269531 192.886719 193.148438 192.808594 193.011719 192.792969 C 192.875 192.773438 192.734375 192.8125 192.632812 192.902344 " fill-opacity="1" fill-rule="nonzero"/><g clip-path="url(#id1)"><path fill="#e8d8a5" d="M 245.457031 119.558594 L 239.285156 126.042969 L 240.25 120.539062 L 243.988281 117.488281 C 244.050781 117.4375 244.097656 117.371094 244.128906 117.296875 L 246.316406 112.113281 Z M 224.917969 146.085938 L 213.460938 152.34375 L 221.246094 142.921875 L 235.9375 130.386719 Z M 206.050781 171.644531 L 203.816406 167.53125 L 209.980469 164.445312 Z M 211.511719 163.660156 L 222.105469 157.03125 L 223.574219 166.621094 L 214.222656 172.503906 L 206.035156 174.359375 L 206.496094 172.847656 Z M 219.382812 155.105469 L 226.714844 153 L 222.222656 155.8125 C 222.21875 155.8125 222.21875 155.816406 222.21875 155.816406 L 213.960938 160.984375 Z M 224.300781 164.972656 L 223 156.472656 L 228.929688 152.757812 Z M 206.414062 195.789062 L 207.085938 212.023438 L 196.5625 202.46875 L 203.761719 193.953125 C 203.832031 193.867188 203.871094 193.765625 203.875 193.65625 L 204.050781 188.652344 Z M 198.773438 246.429688 L 207.699219 214.667969 L 212.863281 227.523438 Z M 166.960938 214.664062 L 175.890625 246.433594 L 161.796875 227.523438 Z M 170.609375 188.652344 L 170.78125 193.65625 C 170.785156 193.765625 170.828125 193.867188 170.898438 193.953125 L 178.097656 202.46875 L 167.574219 212.027344 L 168.246094 195.789062 Z M 160.4375 172.503906 L 151.085938 166.621094 L 152.550781 157.03125 L 163.144531 163.660156 L 168.164062 172.84375 L 168.621094 174.359375 Z M 151.65625 156.472656 L 150.359375 164.972656 L 145.726562 152.757812 Z M 155.277344 155.105469 L 160.699219 160.984375 L 152.4375 155.816406 C 152.4375 155.8125 152.4375 155.8125 152.4375 155.8125 L 147.945312 153 Z M 170.84375 167.53125 L 168.609375 171.644531 L 164.675781 164.445312 Z M 138.722656 130.386719 L 153.414062 142.921875 L 161.195312 152.34375 L 149.742188 146.085938 Z M 128.34375 112.113281 L 130.53125 117.296875 C 130.5625 117.371094 130.609375 117.4375 130.667969 117.488281 L 134.40625 120.539062 L 135.375 126.042969 L 129.203125 119.558594 Z M 142.695312 88.871094 L 138.40625 106.203125 L 134.96875 118.128906 L 133.011719 107.003906 Z M 139.996094 118.03125 C 140.003906 118.066406 140.011719 118.101562 140.027344 118.136719 L 141.835938 122.707031 L 136.46875 126.683594 L 135.347656 120.300781 L 138.632812 108.914062 Z M 142.023438 108.367188 L 144.464844 104.246094 L 143.023438 111.066406 C 143.015625 111.082031 143.015625 111.101562 143.011719 111.121094 L 142.125 120.808594 L 140.945312 117.832031 L 140.640625 115.777344 Z M 151.160156 114.082031 C 151.144531 114.117188 151.128906 114.152344 151.117188 114.191406 L 147.601562 127.078125 L 147.601562 113.550781 L 156.15625 105.050781 Z M 144.503906 126.691406 L 146.632812 117.558594 L 146.632812 129.324219 Z M 152.015625 140.453125 L 136.910156 127.566406 L 142.203125 123.640625 L 143.527344 126.992188 C 143.53125 126.996094 143.535156 127 143.535156 127.003906 C 143.554688 127.042969 143.574219 127.082031 143.601562 127.117188 L 146.714844 130.96875 Z M 166.769531 128.25 L 170.097656 124.746094 L 168.597656 127.90625 C 168.59375 127.910156 168.59375 127.914062 168.59375 127.914062 C 168.589844 127.917969 168.589844 127.921875 168.589844 127.921875 L 165.722656 134.621094 Z M 172.921875 149.796875 L 166.859375 147.902344 L 165.097656 138.539062 L 168.445312 130.714844 L 168.125 138.921875 C 168.125 138.996094 168.136719 139.070312 168.167969 139.136719 Z M 206.210938 130.714844 L 209.558594 138.539062 L 207.800781 147.902344 L 201.734375 149.796875 L 206.488281 139.136719 C 206.519531 139.070312 206.535156 138.996094 206.53125 138.921875 Z M 207.890625 128.25 L 208.9375 134.621094 L 206.070312 127.921875 C 206.070312 127.921875 206.066406 127.917969 206.066406 127.914062 C 206.0625 127.910156 206.0625 127.910156 206.0625 127.90625 L 204.5625 124.746094 Z M 211.21875 153.535156 L 197.066406 156.402344 L 201.148438 151 L 208.367188 148.742188 C 208.382812 148.738281 208.402344 148.730469 208.417969 148.722656 L 219.199219 143.875 Z M 202.691406 167.140625 L 198.777344 173.597656 L 192.90625 175.894531 L 187.917969 166.132812 L 195.960938 157.769531 L 203.460938 163.167969 Z M 203.421875 179.640625 L 197.324219 193.195312 L 193.425781 186.644531 L 193.167969 176.835938 L 199.238281 174.457031 L 200.660156 174.1875 L 200.175781 176.164062 C 200.140625 176.289062 200.164062 176.425781 200.234375 176.539062 C 200.304688 176.648438 200.414062 176.726562 200.542969 176.753906 L 204.070312 177.507812 Z M 187.8125 227.910156 L 187.8125 208.230469 L 190.46875 207.914062 C 190.558594 207.90625 190.644531 207.871094 190.714844 207.8125 L 194.878906 204.445312 C 194.898438 204.429688 194.914062 204.414062 194.929688 204.398438 C 194.933594 204.390625 194.941406 204.386719 194.945312 204.382812 L 194.949219 204.378906 C 194.949219 204.378906 194.949219 204.378906 194.949219 204.375 L 195.9375 203.210938 L 206.867188 213.132812 Z M 179.707031 204.378906 L 179.710938 204.382812 C 179.71875 204.390625 179.726562 204.394531 179.734375 204.402344 C 179.746094 204.417969 179.761719 204.433594 179.777344 204.445312 L 183.945312 207.8125 C 184.015625 207.871094 184.101562 207.90625 184.191406 207.914062 L 186.847656 208.230469 L 186.847656 227.910156 L 167.796875 213.132812 L 178.722656 203.210938 Z M 171.351562 182.257812 L 176.800781 194.371094 L 177.339844 200.074219 L 171.746094 193.453125 Z M 174.113281 176.753906 C 174.242188 176.726562 174.355469 176.648438 174.425781 176.539062 C 174.492188 176.425781 174.515625 176.289062 174.484375 176.164062 L 174 174.1875 L 175.417969 174.457031 L 181.492188 176.835938 L 181.230469 186.644531 L 177.332031 193.195312 L 171.238281 179.640625 L 170.589844 177.507812 Z M 178.695312 157.769531 L 186.738281 166.132812 L 181.753906 175.894531 L 175.882812 173.597656 L 171.96875 167.140625 L 171.199219 163.167969 Z M 186.847656 164.84375 L 180.035156 157.765625 L 186.847656 158.535156 Z M 187.8125 158.535156 L 194.621094 157.765625 L 187.8125 164.839844 Z M 192.195312 176.628906 L 192.449219 186.21875 L 187.8125 185.515625 L 187.8125 168.0625 Z M 187.8125 204.554688 L 193.203125 204.554688 L 190.21875 206.96875 L 187.8125 207.25 Z M 186.847656 204.554688 L 186.847656 207.25 L 184.441406 206.96875 L 181.457031 204.554688 Z M 186.847656 185.515625 L 182.210938 186.21875 L 182.464844 176.628906 L 186.847656 168.054688 Z M 178.4375 201.371094 L 177.769531 194.355469 L 182.007812 187.230469 L 186.847656 186.5 L 186.847656 203.582031 L 180.304688 203.582031 Z M 196.222656 201.371094 L 194.351562 203.582031 L 187.8125 203.582031 L 187.8125 186.5 L 192.648438 187.230469 L 196.886719 194.355469 Z M 166.238281 148.722656 C 166.257812 148.730469 166.273438 148.738281 166.292969 148.742188 L 173.511719 151 L 177.59375 156.402344 L 163.441406 153.535156 L 155.460938 143.875 Z M 170.746094 162.296875 L 164.433594 154.730469 L 177.566406 157.386719 Z M 171.53125 168.292969 L 174.570312 173.304688 L 169.351562 172.304688 Z M 169.308594 173.285156 L 172.953125 173.984375 L 173.425781 175.90625 L 170.304688 176.574219 Z M 177.464844 248.457031 L 167.90625 214.449219 L 186.847656 229.136719 L 186.847656 252.226562 Z M 197.199219 248.457031 L 187.8125 252.226562 L 187.8125 229.136719 L 206.757812 214.449219 Z M 202.914062 193.453125 L 197.316406 200.074219 L 197.859375 194.371094 L 203.304688 182.257812 Z M 204.351562 176.574219 L 201.234375 175.90625 L 201.703125 173.984375 L 205.351562 173.285156 Z M 205.304688 172.304688 L 200.085938 173.304688 L 203.125 168.292969 Z M 203.914062 162.296875 L 197.09375 157.386719 L 210.222656 154.730469 Z M 227.941406 130.96875 L 231.050781 127.125 C 231.050781 127.125 231.050781 127.121094 231.050781 127.121094 L 231.054688 127.117188 C 231.085938 127.082031 231.105469 127.042969 231.125 127.003906 C 231.125 127 231.128906 126.996094 231.128906 126.992188 L 232.453125 123.640625 L 237.75 127.566406 L 222.640625 140.453125 Z M 223.539062 114.191406 C 223.53125 114.152344 223.515625 114.117188 223.496094 114.082031 L 218.5 105.050781 L 227.058594 113.550781 L 227.058594 127.078125 Z M 228.023438 117.558594 L 230.15625 126.691406 L 228.023438 129.324219 Z M 231.644531 111.121094 C 231.644531 111.101562 231.640625 111.082031 231.636719 111.066406 L 230.195312 104.246094 L 232.636719 108.367188 L 234.019531 115.777344 L 233.710938 117.832031 L 232.53125 120.808594 Z M 236.027344 108.914062 L 239.308594 120.300781 L 238.1875 126.683594 L 232.824219 122.707031 L 234.632812 118.136719 C 234.644531 118.101562 234.65625 118.066406 234.660156 118.03125 Z M 241.644531 107.003906 L 239.691406 118.128906 L 236.253906 106.210938 L 231.964844 88.871094 Z M 247.308594 108.332031 C 247.074219 108.269531 246.832031 108.390625 246.738281 108.613281 L 243.285156 116.808594 L 240.507812 119.074219 L 242.628906 107.003906 C 242.648438 106.898438 242.628906 106.789062 242.578125 106.691406 L 230.988281 84.980469 C 230.871094 84.765625 230.613281 84.671875 230.386719 84.757812 C 230.15625 84.847656 230.03125 85.089844 230.089844 85.328125 L 235.378906 106.703125 L 234.457031 112.851562 L 233.570312 108.105469 C 233.558594 108.050781 233.539062 107.996094 233.511719 107.945312 L 229.527344 101.214844 C 229.40625 101.011719 229.152344 100.925781 228.933594 101.011719 C 228.714844 101.097656 228.585938 101.332031 228.636719 101.566406 L 230.683594 111.238281 L 231.742188 122.804688 L 230.800781 125.191406 L 228.011719 113.238281 C 228.011719 113.230469 228.007812 113.226562 228.007812 113.222656 C 227.996094 113.191406 227.984375 113.15625 227.96875 113.128906 C 227.964844 113.117188 227.960938 113.109375 227.953125 113.101562 C 227.933594 113.066406 227.910156 113.03125 227.882812 113.003906 L 216.773438 101.96875 C 216.601562 101.796875 216.332031 101.777344 216.140625 101.925781 C 215.949219 102.070312 215.890625 102.335938 216.007812 102.550781 L 222.621094 114.503906 L 227.019531 130.628906 L 220.554688 142.199219 L 208.867188 147.453125 L 210.539062 138.578125 C 210.546875 138.523438 210.546875 138.472656 210.539062 138.417969 C 210.539062 138.414062 210.542969 138.410156 210.539062 138.40625 L 208.820312 127.945312 C 208.804688 127.847656 208.757812 127.757812 208.691406 127.6875 L 203.167969 121.867188 C 203.003906 121.695312 202.738281 121.667969 202.542969 121.800781 C 202.347656 121.9375 202.277344 122.195312 202.382812 122.414062 L 205.144531 128.234375 L 205.558594 138.84375 L 200.4375 150.332031 L 195.644531 156.671875 L 187.328125 157.613281 L 179.011719 156.671875 L 174.222656 150.332031 L 169.097656 138.84375 L 169.511719 128.234375 L 172.277344 122.414062 C 172.378906 122.195312 172.3125 121.9375 172.113281 121.800781 C 171.917969 121.667969 171.652344 121.695312 171.492188 121.867188 L 165.964844 127.6875 C 165.898438 127.757812 165.855469 127.847656 165.839844 127.945312 L 164.117188 138.40625 C 164.117188 138.410156 164.117188 138.414062 164.117188 138.417969 C 164.109375 138.472656 164.109375 138.523438 164.121094 138.574219 L 165.789062 147.453125 L 154.101562 142.199219 L 147.636719 130.628906 L 152.035156 114.503906 L 158.648438 102.550781 C 158.765625 102.335938 158.710938 102.070312 158.519531 101.925781 C 158.328125 101.777344 158.058594 101.796875 157.886719 101.96875 L 146.777344 113.003906 C 146.746094 113.03125 146.722656 113.066406 146.703125 113.101562 C 146.699219 113.109375 146.695312 113.117188 146.691406 113.125 C 146.671875 113.15625 146.660156 113.191406 146.652344 113.222656 C 146.652344 113.230469 146.648438 113.234375 146.644531 113.238281 L 143.859375 125.191406 L 142.914062 122.804688 L 143.976562 111.238281 L 146.019531 101.566406 C 146.070312 101.332031 145.945312 101.097656 145.722656 101.011719 C 145.503906 100.925781 145.253906 101.011719 145.132812 101.214844 L 141.148438 107.945312 C 141.117188 107.996094 141.097656 108.050781 141.085938 108.105469 L 140.199219 112.851562 L 139.277344 106.703125 L 144.566406 85.328125 C 144.628906 85.089844 144.5 84.847656 144.273438 84.757812 C 144.042969 84.671875 143.789062 84.765625 143.671875 84.980469 L 132.082031 106.691406 C 132.027344 106.789062 132.011719 106.898438 132.03125 107.003906 L 134.152344 119.074219 L 131.375 116.808594 L 127.917969 108.613281 C 127.824219 108.386719 127.582031 108.269531 127.351562 108.332031 C 127.117188 108.394531 126.964844 108.617188 126.992188 108.855469 L 128.261719 119.832031 C 128.273438 119.9375 128.320312 120.035156 128.390625 120.113281 L 135.753906 127.847656 L 149.015625 146.738281 C 149.058594 146.800781 149.113281 146.851562 149.179688 146.886719 L 162.863281 154.363281 L 170.210938 163.167969 L 170.847656 166.445312 L 163.804688 162.921875 L 155.894531 154.34375 C 155.835938 154.28125 155.757812 154.234375 155.671875 154.207031 L 144.90625 151.117188 C 144.710938 151.054688 144.488281 151.128906 144.367188 151.304688 C 144.355469 151.320312 144.34375 151.335938 144.335938 151.351562 C 144.285156 151.445312 144.269531 151.546875 144.28125 151.644531 C 144.285156 151.667969 144.289062 151.691406 144.296875 151.714844 C 144.296875 151.71875 144.296875 151.71875 144.296875 151.71875 C 144.300781 151.734375 144.304688 151.746094 144.3125 151.761719 L 150.105469 167.039062 C 150.109375 167.042969 150.109375 167.042969 150.113281 167.046875 C 150.128906 167.089844 150.152344 167.128906 150.179688 167.164062 C 150.183594 167.171875 150.191406 167.175781 150.195312 167.183594 C 150.226562 167.21875 150.261719 167.25 150.300781 167.273438 C 150.300781 167.273438 150.300781 167.277344 150.300781 167.277344 L 150.304688 167.277344 L 159.992188 173.371094 C 160.039062 173.402344 160.089844 173.421875 160.140625 173.433594 L 168.945312 175.429688 L 170.300781 179.890625 L 170.511719 185.867188 L 167.304688 195.546875 C 167.292969 195.589844 167.285156 195.632812 167.28125 195.679688 L 166.5625 213.058594 L 160.796875 227.414062 C 160.734375 227.570312 160.757812 227.75 160.859375 227.886719 L 176.675781 249.113281 C 176.703125 249.148438 176.734375 249.179688 176.769531 249.207031 C 176.777344 249.214844 176.785156 249.214844 176.792969 249.21875 C 176.824219 249.238281 176.851562 249.257812 176.882812 249.273438 L 187.148438 253.394531 C 187.160156 253.398438 187.167969 253.398438 187.175781 253.402344 C 187.1875 253.40625 187.195312 253.410156 187.203125 253.410156 C 187.246094 253.421875 187.289062 253.429688 187.328125 253.429688 C 187.371094 253.429688 187.414062 253.421875 187.453125 253.410156 C 187.464844 253.410156 187.472656 253.40625 187.484375 253.402344 C 187.492188 253.398438 187.5 253.398438 187.507812 253.394531 L 197.75 249.28125 C 197.753906 249.28125 197.753906 249.28125 197.757812 249.277344 L 197.773438 249.273438 C 197.792969 249.265625 197.808594 249.25 197.828125 249.242188 C 197.886719 249.210938 197.9375 249.167969 197.976562 249.117188 C 197.980469 249.113281 197.980469 249.113281 197.984375 249.113281 L 197.984375 249.109375 C 197.988281 249.101562 197.996094 249.097656 198 249.089844 L 213.800781 227.886719 C 213.902344 227.75 213.925781 227.570312 213.863281 227.414062 L 208.097656 213.058594 L 207.375 195.679688 C 207.375 195.632812 207.367188 195.589844 207.351562 195.546875 L 204.148438 185.863281 L 204.355469 179.890625 L 205.710938 175.429688 L 214.515625 173.433594 C 214.570312 173.421875 214.621094 173.402344 214.667969 173.371094 L 224.351562 167.28125 C 224.355469 167.277344 224.355469 167.277344 224.355469 167.277344 C 224.355469 167.277344 224.359375 167.273438 224.359375 167.273438 C 224.398438 167.25 224.433594 167.21875 224.460938 167.183594 C 224.46875 167.175781 224.472656 167.171875 224.476562 167.164062 C 224.507812 167.128906 224.527344 167.089844 224.546875 167.046875 C 224.546875 167.042969 224.550781 167.042969 224.550781 167.039062 L 230.347656 151.761719 C 230.351562 151.75 230.355469 151.734375 230.359375 151.722656 C 230.367188 151.695312 230.371094 151.667969 230.375 151.640625 C 230.386719 151.542969 230.371094 151.441406 230.320312 151.351562 C 230.3125 151.335938 230.304688 151.320312 230.292969 151.304688 C 230.171875 151.128906 229.949219 151.058594 229.753906 151.117188 L 218.984375 154.207031 C 218.902344 154.234375 218.824219 154.28125 218.761719 154.34375 L 210.855469 162.921875 L 203.8125 166.445312 L 204.445312 163.167969 L 211.792969 154.363281 L 225.476562 146.886719 C 225.542969 146.851562 225.597656 146.800781 225.640625 146.738281 L 238.902344 127.847656 L 246.265625 120.113281 C 246.339844 120.035156 246.386719 119.9375 246.398438 119.832031 L 247.664062 108.855469 C 247.691406 108.617188 247.539062 108.394531 247.308594 108.332031 " fill-opacity="1" fill-rule="nonzero"/></g><path fill="#e8d8a5" d="M 90.316406 27.960938 L 94.753906 27.960938 C 96.835938 27.960938 98.339844 28.273438 99.269531 28.898438 C 100.207031 29.515625 100.675781 30.5 100.675781 31.851562 C 100.675781 32.78125 100.414062 33.546875 99.894531 34.148438 C 99.371094 34.753906 98.617188 35.144531 97.628906 35.320312 L 97.628906 35.429688 C 100.011719 35.847656 101.207031 37.101562 101.207031 39.195312 C 101.207031 40.601562 100.726562 41.703125 99.769531 42.492188 C 98.820312 43.273438 97.496094 43.664062 95.800781 43.664062 L 90.316406 43.664062 Z M 92.144531 34.679688 L 95.160156 34.679688 C 96.441406 34.679688 97.363281 34.484375 97.925781 34.085938 C 98.496094 33.679688 98.785156 32.992188 98.785156 32.023438 C 98.785156 31.148438 98.464844 30.519531 97.832031 30.132812 C 97.207031 29.738281 96.207031 29.539062 94.832031 29.539062 L 92.144531 29.539062 Z M 92.144531 36.226562 L 92.144531 42.101562 L 95.425781 42.101562 C 96.683594 42.101562 97.636719 41.859375 98.285156 41.367188 C 98.929688 40.878906 99.253906 40.113281 99.253906 39.070312 C 99.253906 38.09375 98.925781 37.375 98.269531 36.914062 C 97.613281 36.457031 96.613281 36.226562 95.269531 36.226562 Z M 92.144531 36.226562 " fill-opacity="1" fill-rule="nonzero"/><path fill="#e8d8a5" d="M 115.730469 43.664062 L 106.964844 43.664062 L 106.964844 27.960938 L 115.730469 27.960938 L 115.730469 29.585938 L 108.792969 29.585938 L 108.792969 34.632812 L 115.308594 34.632812 L 115.308594 36.257812 L 108.792969 36.257812 L 108.792969 42.023438 L 115.730469 42.023438 Z M 115.730469 43.664062 " fill-opacity="1" fill-rule="nonzero"/><path fill="#e8d8a5" d="M 130.363281 43.664062 L 121.597656 43.664062 L 121.597656 27.960938 L 130.363281 27.960938 L 130.363281 29.585938 L 123.425781 29.585938 L 123.425781 34.632812 L 129.941406 34.632812 L 129.941406 36.257812 L 123.425781 36.257812 L 123.425781 42.023438 L 130.363281 42.023438 Z M 130.363281 43.664062 " fill-opacity="1" fill-rule="nonzero"/><path fill="#e8d8a5" d="M 138.058594 37.132812 L 138.058594 43.664062 L 136.230469 43.664062 L 136.230469 27.960938 L 140.542969 27.960938 C 142.46875 27.960938 143.890625 28.332031 144.808594 29.070312 C 145.734375 29.800781 146.199219 30.910156 146.199219 32.398438 C 146.199219 34.472656 145.140625 35.875 143.027344 36.601562 L 147.292969 43.664062 L 145.136719 43.664062 L 141.339844 37.132812 Z M 138.058594 35.570312 L 140.558594 35.570312 C 141.847656 35.570312 142.796875 35.316406 143.402344 34.804688 C 144.003906 34.285156 144.308594 33.515625 144.308594 32.492188 C 144.308594 31.453125 144 30.703125 143.386719 30.242188 C 142.769531 29.785156 141.785156 29.554688 140.433594 29.554688 L 138.058594 29.554688 Z M 138.058594 35.570312 " fill-opacity="1" fill-rule="nonzero"/><path fill="#e8d8a5" d="M 173.976562 35.789062 C 173.976562 38.300781 173.339844 40.28125 172.070312 41.726562 C 170.796875 43.164062 169.027344 43.882812 166.757812 43.882812 C 164.445312 43.882812 162.65625 43.175781 161.398438 41.757812 C 160.148438 40.34375 159.523438 38.347656 159.523438 35.773438 C 159.523438 33.210938 160.152344 31.226562 161.414062 29.820312 C 162.671875 28.414062 164.464844 27.710938 166.789062 27.710938 C 169.039062 27.710938 170.796875 28.429688 172.070312 29.867188 C 173.339844 31.296875 173.976562 33.269531 173.976562 35.789062 Z M 161.460938 35.789062 C 161.460938 37.914062 161.914062 39.53125 162.820312 40.632812 C 163.726562 41.726562 165.039062 42.273438 166.757812 42.273438 C 168.496094 42.273438 169.808594 41.726562 170.695312 40.632812 C 171.589844 39.539062 172.039062 37.925781 172.039062 35.789062 C 172.039062 33.675781 171.59375 32.078125 170.710938 30.992188 C 169.824219 29.898438 168.515625 29.351562 166.789062 29.351562 C 165.046875 29.351562 163.726562 29.90625 162.820312 31.007812 C 161.914062 32.101562 161.460938 33.695312 161.460938 35.789062 Z M 161.460938 35.789062 " fill-opacity="1" fill-rule="nonzero"/><path fill="#e8d8a5" d="M 179.867188 43.664062 L 179.867188 27.960938 L 181.695312 27.960938 L 181.695312 42.007812 L 188.632812 42.007812 L 188.632812 43.664062 Z M 179.867188 43.664062 " fill-opacity="1" fill-rule="nonzero"/><path fill="#e8d8a5" d="M 206.226562 35.664062 C 206.226562 38.257812 205.515625 40.242188 204.101562 41.617188 C 202.695312 42.984375 200.671875 43.664062 198.039062 43.664062 L 193.679688 43.664062 L 193.679688 27.960938 L 198.492188 27.960938 C 200.9375 27.960938 202.839844 28.640625 204.195312 29.992188 C 205.546875 31.347656 206.226562 33.238281 206.226562 35.664062 Z M 204.289062 35.726562 C 204.289062 33.675781 203.773438 32.132812 202.742188 31.101562 C 201.710938 30.0625 200.183594 29.539062 198.164062 29.539062 L 195.507812 29.539062 L 195.507812 42.085938 L 197.726562 42.085938 C 199.902344 42.085938 201.539062 41.550781 202.632812 40.476562 C 203.734375 39.40625 204.289062 37.820312 204.289062 35.726562 Z M 204.289062 35.726562 " fill-opacity="1" fill-rule="nonzero"/><path fill="#e8d8a5" d="M 220.972656 39.492188 C 220.972656 40.867188 220.472656 41.945312 219.472656 42.726562 C 218.472656 43.5 217.113281 43.882812 215.394531 43.882812 C 213.527344 43.882812 212.097656 43.644531 211.097656 43.164062 L 211.097656 41.398438 C 211.742188 41.671875 212.445312 41.882812 213.207031 42.039062 C 213.964844 42.195312 214.714844 42.273438 215.457031 42.273438 C 216.675781 42.273438 217.589844 42.046875 218.207031 41.585938 C 218.820312 41.128906 219.128906 40.488281 219.128906 39.664062 C 219.128906 39.113281 219.019531 38.664062 218.800781 38.320312 C 218.582031 37.976562 218.214844 37.660156 217.707031 37.367188 C 217.195312 37.066406 216.417969 36.726562 215.378906 36.351562 C 213.910156 35.832031 212.863281 35.21875 212.238281 34.507812 C 211.613281 33.789062 211.300781 32.851562 211.300781 31.695312 C 211.300781 30.488281 211.753906 29.523438 212.660156 28.804688 C 213.574219 28.085938 214.777344 27.726562 216.269531 27.726562 C 217.832031 27.726562 219.269531 28.015625 220.582031 28.585938 L 220.019531 30.179688 C 218.714844 29.640625 217.457031 29.367188 216.238281 29.367188 C 215.269531 29.367188 214.507812 29.578125 213.957031 29.992188 C 213.414062 30.410156 213.144531 30.984375 213.144531 31.710938 C 213.144531 32.265625 213.242188 32.710938 213.441406 33.054688 C 213.648438 33.398438 213.988281 33.71875 214.457031 34.007812 C 214.933594 34.300781 215.664062 34.625 216.644531 34.976562 C 218.289062 35.5625 219.417969 36.191406 220.035156 36.867188 C 220.660156 37.535156 220.972656 38.410156 220.972656 39.492188 Z M 220.972656 39.492188 " fill-opacity="1" fill-rule="nonzero"/><path fill="#e8d8a5" d="M 231.425781 43.664062 L 229.597656 43.664062 L 229.597656 29.585938 L 224.613281 29.585938 L 224.613281 27.960938 L 236.394531 27.960938 L 236.394531 29.585938 L 231.425781 29.585938 Z M 231.425781 43.664062 " fill-opacity="1" fill-rule="nonzero"/><path fill="#e8d8a5" d="M 254.789062 35.789062 C 254.789062 38.300781 254.152344 40.28125 252.882812 41.726562 C 251.609375 43.164062 249.839844 43.882812 247.570312 43.882812 C 245.257812 43.882812 243.46875 43.175781 242.210938 41.757812 C 240.960938 40.34375 240.335938 38.347656 240.335938 35.773438 C 240.335938 33.210938 240.964844 31.226562 242.226562 29.820312 C 243.484375 28.414062 245.277344 27.710938 247.601562 27.710938 C 249.851562 27.710938 251.609375 28.429688 252.882812 29.867188 C 254.152344 31.296875 254.789062 33.269531 254.789062 35.789062 Z M 242.273438 35.789062 C 242.273438 37.914062 242.726562 39.53125 243.632812 40.632812 C 244.539062 41.726562 245.851562 42.273438 247.570312 42.273438 C 249.308594 42.273438 250.621094 41.726562 251.507812 40.632812 C 252.402344 39.539062 252.851562 37.925781 252.851562 35.789062 C 252.851562 33.675781 252.40625 32.078125 251.523438 30.992188 C 250.636719 29.898438 249.328125 29.351562 247.601562 29.351562 C 245.859375 29.351562 244.539062 29.90625 243.632812 31.007812 C 242.726562 32.101562 242.273438 33.695312 242.273438 35.789062 Z M 242.273438 35.789062 " fill-opacity="1" fill-rule="nonzero"/><path fill="#e8d8a5" d="M 262.507812 37.132812 L 262.507812 43.664062 L 260.679688 43.664062 L 260.679688 27.960938 L 264.992188 27.960938 C 266.917969 27.960938 268.339844 28.332031 269.257812 29.070312 C 270.183594 29.800781 270.648438 30.910156 270.648438 32.398438 C 270.648438 34.472656 269.589844 35.875 267.476562 36.601562 L 271.742188 43.664062 L 269.585938 43.664062 L 265.789062 37.132812 Z M 262.507812 35.570312 L 265.007812 35.570312 C 266.296875 35.570312 267.246094 35.316406 267.851562 34.804688 C 268.453125 34.285156 268.757812 33.515625 268.757812 32.492188 C 268.757812 31.453125 268.449219 30.703125 267.835938 30.242188 C 267.21875 29.785156 266.234375 29.554688 264.882812 29.554688 L 262.507812 29.554688 Z M 262.507812 35.570312 " fill-opacity="1" fill-rule="nonzero"/><path fill="#e8d8a5" d="M 280.675781 35.804688 L 284.863281 27.960938 L 286.847656 27.960938 L 281.597656 37.570312 L 281.597656 43.664062 L 279.753906 43.664062 L 279.753906 37.664062 L 274.519531 27.960938 L 276.519531 27.960938 Z M 280.675781 35.804688 " fill-opacity="1" fill-rule="nonzero"/><path fill="#e8d8a5" d="M 54.179688 311.746094 C 56.898438 308.996094 60.445312 307.621094 64.820312 307.621094 C 69.195312 307.621094 72.746094 308.996094 75.476562 311.746094 C 78.214844 314.488281 79.585938 318.085938 79.585938 322.542969 C 79.585938 327.003906 78.214844 330.605469 75.476562 333.355469 C 72.746094 336.105469 69.195312 337.480469 64.820312 337.480469 C 60.445312 337.480469 56.898438 336.105469 54.179688 333.355469 C 51.460938 330.605469 50.101562 327.003906 50.101562 322.542969 C 50.101562 318.085938 51.460938 314.488281 54.179688 311.746094 Z M 56.429688 332.480469 C 58.554688 334.992188 61.355469 336.246094 64.835938 336.246094 C 68.324219 336.246094 71.125 334.992188 73.242188 332.480469 C 75.367188 329.960938 76.429688 326.648438 76.429688 322.542969 C 76.429688 319.835938 75.949219 317.445312 74.992188 315.371094 C 74.03125 313.289062 72.671875 311.679688 70.914062 310.542969 C 69.152344 309.410156 67.121094 308.839844 64.820312 308.839844 C 61.351562 308.839844 58.554688 310.101562 56.429688 312.621094 C 54.3125 315.132812 53.257812 318.441406 53.257812 322.542969 C 53.257812 326.648438 54.3125 329.960938 56.429688 332.480469 Z M 56.429688 332.480469 " fill-opacity="1" fill-rule="nonzero"/><path fill="#e8d8a5" d="M 92.589844 336.496094 C 93.296875 336.496094 93.902344 336.246094 94.402344 335.746094 C 94.910156 335.238281 95.183594 334.621094 95.214844 333.902344 L 95.214844 311.183594 C 95.183594 310.476562 94.910156 309.871094 94.402344 309.371094 C 93.902344 308.863281 93.296875 308.605469 92.589844 308.605469 L 92.058594 308.605469 L 92.058594 308.183594 L 101.027344 308.183594 L 101.027344 308.605469 L 100.496094 308.605469 C 99.515625 308.605469 98.765625 309.027344 98.246094 309.871094 C 97.996094 310.277344 97.871094 310.714844 97.871094 311.183594 L 97.871094 335.636719 L 103.746094 335.636719 C 105.765625 335.636719 107.308594 335.183594 108.371094 334.277344 C 109.441406 333.371094 110.332031 332.035156 111.042969 330.261719 L 111.449219 330.261719 L 109.074219 336.902344 L 92.058594 336.902344 L 92.058594 336.496094 Z M 92.589844 336.496094 " fill-opacity="1" fill-rule="nonzero"/><path fill="#e8d8a5" d="M 136.992188 308.183594 C 141.367188 308.183594 144.914062 309.507812 147.632812 312.152344 C 150.359375 314.789062 151.726562 318.253906 151.726562 322.542969 C 151.726562 326.835938 150.359375 330.304688 147.632812 332.949219 C 144.914062 335.585938 141.367188 336.902344 136.992188 336.902344 L 123.101562 336.902344 L 123.101562 336.496094 L 123.632812 336.496094 C 124.339844 336.496094 124.945312 336.246094 125.445312 335.746094 C 125.953125 335.238281 126.226562 334.621094 126.257812 333.902344 L 126.257812 310.933594 C 126.257812 310.277344 125.984375 309.726562 125.445312 309.277344 C 124.914062 308.832031 124.308594 308.605469 123.632812 308.605469 L 123.132812 308.605469 L 123.101562 308.183594 Z M 128.914062 309.417969 L 128.914062 335.667969 L 136.992188 335.667969 C 139.292969 335.667969 141.324219 335.121094 143.085938 334.027344 C 144.855469 332.933594 146.226562 331.398438 147.195312 329.417969 C 148.164062 327.441406 148.648438 325.148438 148.648438 322.542969 C 148.648438 318.605469 147.574219 315.433594 145.429688 313.027344 C 143.28125 310.621094 140.46875 309.417969 136.992188 309.417969 Z M 128.914062 309.417969 " fill-opacity="1" fill-rule="nonzero"/><path fill="#e8d8a5" d="M 164.222656 335.214844 C 164.136719 334.839844 164.097656 334.105469 164.097656 333.011719 C 164.097656 331.917969 164.304688 330.753906 164.722656 329.511719 L 165.082031 329.511719 C 165.058594 329.816406 165.050781 330.117188 165.050781 330.417969 C 165.050781 332.085938 165.554688 333.476562 166.566406 334.589844 C 167.574219 335.695312 168.914062 336.246094 170.582031 336.246094 C 172.300781 336.246094 173.710938 335.726562 174.816406 334.683594 C 175.929688 333.644531 176.488281 332.339844 176.488281 330.777344 C 176.488281 329.207031 175.957031 327.925781 174.894531 326.933594 L 167.019531 319.636719 C 165.539062 318.273438 164.800781 316.621094 164.800781 314.683594 C 164.800781 312.738281 165.445312 311.074219 166.738281 309.699219 C 168.039062 308.316406 169.800781 307.621094 172.019531 307.621094 C 173.058594 307.621094 174.238281 307.757812 175.550781 308.027344 L 177.144531 308.027344 L 177.144531 313.074219 L 176.769531 313.074219 C 176.769531 311.785156 176.324219 310.757812 175.441406 309.996094 C 174.554688 309.226562 173.414062 308.839844 172.019531 308.839844 C 170.621094 308.839844 169.449219 309.308594 168.503906 310.246094 C 167.566406 311.175781 167.097656 312.335938 167.097656 313.730469 C 167.097656 315.128906 167.644531 316.332031 168.738281 317.339844 L 176.816406 324.808594 C 178.179688 326.058594 178.863281 327.777344 178.863281 329.964844 C 178.863281 332.152344 178.164062 333.957031 176.769531 335.371094 C 175.382812 336.777344 173.523438 337.480469 171.191406 337.480469 C 169.992188 337.480469 168.714844 337.292969 167.363281 336.917969 C 166.007812 336.554688 164.960938 335.988281 164.222656 335.214844 Z M 164.222656 335.214844 " fill-opacity="1" fill-rule="nonzero"/><path fill="#e8d8a5" d="M 213.355469 311.839844 C 213.355469 311.183594 213.121094 310.617188 212.652344 310.136719 C 212.191406 309.660156 211.652344 309.410156 211.027344 309.386719 L 203.230469 309.386719 L 203.230469 333.949219 C 203.25 334.660156 203.515625 335.261719 204.027344 335.761719 C 204.535156 336.253906 205.144531 336.496094 205.855469 336.496094 L 206.386719 336.496094 L 206.386719 336.902344 L 197.402344 336.902344 L 197.402344 336.496094 L 197.933594 336.496094 C 198.640625 336.496094 199.25 336.253906 199.761719 335.761719 C 200.269531 335.261719 200.535156 334.675781 200.558594 333.996094 L 200.558594 309.386719 L 192.761719 309.386719 C 192.105469 309.410156 191.550781 309.660156 191.105469 310.136719 C 190.65625 310.617188 190.433594 311.183594 190.433594 311.839844 L 190.433594 312.542969 L 190.027344 312.574219 L 190.027344 307.417969 C 190.433594 307.574219 191.140625 307.738281 192.152344 307.902344 C 193.160156 308.070312 194.09375 308.152344 194.949219 308.152344 L 208.808594 308.152344 C 210.140625 308.152344 211.25 308.050781 212.136719 307.839844 C 213.03125 307.632812 213.574219 307.492188 213.761719 307.417969 L 213.761719 312.574219 L 213.355469 312.542969 Z M 213.355469 311.839844 " fill-opacity="1" fill-rule="nonzero"/><path fill="#e8d8a5" d="M 229.492188 311.746094 C 232.210938 308.996094 235.757812 307.621094 240.132812 307.621094 C 244.507812 307.621094 248.058594 308.996094 250.789062 311.746094 C 253.527344 314.488281 254.898438 318.085938 254.898438 322.542969 C 254.898438 327.003906 253.527344 330.605469 250.789062 333.355469 C 248.058594 336.105469 244.507812 337.480469 240.132812 337.480469 C 235.757812 337.480469 232.210938 336.105469 229.492188 333.355469 C 226.773438 330.605469 225.414062 327.003906 225.414062 322.542969 C 225.414062 318.085938 226.773438 314.488281 229.492188 311.746094 Z M 231.742188 332.480469 C 233.867188 334.992188 236.667969 336.246094 240.148438 336.246094 C 243.636719 336.246094 246.4375 334.992188 248.554688 332.480469 C 250.679688 329.960938 251.742188 326.648438 251.742188 322.542969 C 251.742188 319.835938 251.261719 317.445312 250.304688 315.371094 C 249.34375 313.289062 247.984375 311.679688 246.226562 310.542969 C 244.464844 309.410156 242.433594 308.839844 240.132812 308.839844 C 236.664062 308.839844 233.867188 310.101562 231.742188 312.621094 C 229.625 315.132812 228.570312 318.441406 228.570312 322.542969 C 228.570312 326.648438 229.625 329.960938 231.742188 332.480469 Z M 231.742188 332.480469 " fill-opacity="1" fill-rule="nonzero"/><path fill="#e8d8a5" d="M 275.808594 309.464844 L 273.183594 309.464844 L 273.183594 333.902344 C 273.183594 334.621094 273.433594 335.238281 273.933594 335.746094 C 274.441406 336.246094 275.066406 336.496094 275.808594 336.496094 L 276.308594 336.496094 L 276.339844 336.902344 L 267.371094 336.902344 L 267.371094 336.496094 L 267.902344 336.496094 C 268.609375 336.496094 269.214844 336.253906 269.714844 335.761719 C 270.222656 335.261719 270.496094 334.660156 270.527344 333.949219 L 270.527344 311.183594 C 270.496094 310.476562 270.222656 309.871094 269.714844 309.371094 C 269.214844 308.863281 268.609375 308.605469 267.902344 308.605469 L 267.371094 308.605469 L 267.371094 308.183594 L 278.433594 308.183594 C 280.921875 308.183594 282.875 308.878906 284.292969 310.261719 C 285.71875 311.648438 286.433594 313.441406 286.433594 315.636719 C 286.433594 317.835938 285.753906 319.738281 284.402344 321.339844 C 283.046875 322.933594 281.402344 323.730469 279.464844 323.730469 C 279.871094 323.929688 280.355469 324.308594 280.917969 324.871094 C 281.480469 325.425781 281.980469 326.003906 282.417969 326.605469 C 284.769531 329.972656 286.300781 332.042969 287.011719 332.824219 C 287.71875 333.605469 288.222656 334.144531 288.527344 334.433594 C 288.828125 334.714844 289.15625 334.992188 289.511719 335.261719 C 289.863281 335.535156 290.21875 335.753906 290.574219 335.917969 C 291.363281 336.304688 292.214844 336.496094 293.121094 336.496094 L 293.121094 336.902344 L 290.871094 336.902344 C 289.691406 336.902344 288.597656 336.695312 287.589844 336.277344 C 286.578125 335.851562 285.816406 335.414062 285.308594 334.964844 C 284.796875 334.507812 284.359375 334.070312 283.996094 333.652344 C 283.628906 333.226562 282.609375 331.808594 280.933594 329.402344 C 279.265625 326.996094 278.296875 325.621094 278.027344 325.277344 C 277.753906 324.933594 277.46875 324.597656 277.167969 324.261719 C 276.292969 323.335938 275.417969 322.871094 274.542969 322.871094 L 274.542969 322.464844 C 274.761719 322.496094 275.046875 322.511719 275.402344 322.511719 C 275.753906 322.511719 276.191406 322.496094 276.714844 322.464844 C 280.109375 322.382812 282.246094 320.960938 283.121094 318.199219 C 283.277344 317.648438 283.355469 317.136719 283.355469 316.667969 C 283.355469 316.191406 283.355469 315.878906 283.355469 315.730469 C 283.300781 313.910156 282.824219 312.433594 281.917969 311.308594 C 281.019531 310.183594 279.808594 309.582031 278.277344 309.496094 C 277.621094 309.476562 276.796875 309.464844 275.808594 309.464844 Z M 275.808594 309.464844 " fill-opacity="1" fill-rule="nonzero"/><path fill="#e8d8a5" d="M 328.269531 308.605469 L 327.691406 308.605469 C 326.878906 308.605469 326.105469 308.832031 325.378906 309.277344 C 324.648438 309.726562 324.039062 310.292969 323.550781 310.980469 L 315.472656 324.105469 L 315.472656 333.902344 C 315.472656 334.621094 315.722656 335.238281 316.222656 335.746094 C 316.730469 336.246094 317.355469 336.496094 318.097656 336.496094 L 318.597656 336.496094 L 318.597656 336.902344 L 309.644531 336.902344 L 309.644531 336.496094 L 310.175781 336.496094 C 310.894531 336.496094 311.503906 336.253906 312.003906 335.761719 C 312.511719 335.261719 312.777344 334.660156 312.800781 333.949219 L 312.800781 324.058594 L 304.972656 310.980469 C 304.566406 310.324219 303.980469 309.769531 303.222656 309.308594 C 302.472656 308.839844 301.691406 308.605469 300.878906 308.605469 L 300.300781 308.605469 L 300.300781 308.183594 L 310.394531 308.183594 L 310.394531 308.605469 L 309.847656 308.605469 C 309.253906 308.605469 308.789062 308.878906 308.457031 309.417969 C 308.289062 309.722656 308.207031 310.019531 308.207031 310.308594 C 308.207031 310.589844 308.277344 310.867188 308.425781 311.136719 L 314.566406 322.621094 L 321.128906 311.105469 C 321.261719 310.835938 321.332031 310.566406 321.332031 310.292969 C 321.332031 310.011719 321.238281 309.722656 321.050781 309.417969 C 320.726562 308.878906 320.261719 308.605469 319.660156 308.605469 L 319.160156 308.605469 L 319.160156 308.183594 L 328.269531 308.183594 Z M 328.269531 308.605469 " fill-opacity="1" fill-rule="nonzero"/><path fill="#e8d8a5" d="M 115.078125 280.878906 C 115.773438 280.878906 116.320312 281.050781 116.71875 281.394531 C 117.125 281.730469 117.328125 282.1875 117.328125 282.769531 C 117.328125 283.363281 117.125 283.828125 116.71875 284.160156 C 116.320312 284.496094 115.773438 284.660156 115.078125 284.660156 L 113.59375 284.660156 L 113.59375 286.394531 L 113 286.394531 L 113 280.878906 Z M 115.046875 284.144531 C 115.597656 284.144531 116.015625 284.027344 116.296875 283.785156 C 116.585938 283.546875 116.734375 283.207031 116.734375 282.769531 C 116.734375 282.324219 116.585938 281.980469 116.296875 281.738281 C 116.015625 281.5 115.597656 281.378906 115.046875 281.378906 L 113.59375 281.378906 L 113.59375 284.144531 Z M 115.046875 284.144531 " fill-opacity="1" fill-rule="nonzero"/><path fill="#e8d8a5" d="M 122.132812 280.878906 L 122.726562 280.878906 L 122.726562 285.894531 L 125.804688 285.894531 L 125.804688 286.394531 L 122.132812 286.394531 Z M 122.132812 280.878906 " fill-opacity="1" fill-rule="nonzero"/><path fill="#e8d8a5" d="M 133.726562 284.925781 L 130.648438 284.925781 L 129.992188 286.394531 L 129.382812 286.394531 L 131.898438 280.878906 L 132.476562 280.878906 L 134.992188 286.394531 L 134.382812 286.394531 Z M 133.507812 284.457031 L 132.179688 281.488281 L 130.867188 284.457031 Z M 133.507812 284.457031 " fill-opacity="1" fill-rule="nonzero"/><path fill="#e8d8a5" d="M 143.367188 285.894531 L 143.367188 286.394531 L 138.851562 286.394531 L 138.851562 285.988281 L 142.507812 281.378906 L 138.898438 281.378906 L 138.898438 280.878906 L 143.273438 280.878906 L 143.273438 281.285156 L 139.632812 285.894531 Z M 143.367188 285.894531 " fill-opacity="1" fill-rule="nonzero"/><path fill="#e8d8a5" d="M 151.464844 284.925781 L 148.386719 284.925781 L 147.730469 286.394531 L 147.121094 286.394531 L 149.636719 280.878906 L 150.214844 280.878906 L 152.730469 286.394531 L 152.121094 286.394531 Z M 151.246094 284.457031 L 149.917969 281.488281 L 148.605469 284.457031 Z M 151.246094 284.457031 " fill-opacity="1" fill-rule="nonzero"/><path fill="#e8d8a5" d="M 162.671875 280.878906 L 164.921875 280.878906 C 165.503906 280.878906 166.019531 281 166.46875 281.238281 C 166.914062 281.46875 167.257812 281.792969 167.5 282.207031 C 167.75 282.625 167.875 283.105469 167.875 283.644531 C 167.875 284.175781 167.75 284.652344 167.5 285.066406 C 167.257812 285.484375 166.914062 285.8125 166.46875 286.050781 C 166.019531 286.28125 165.503906 286.394531 164.921875 286.394531 L 162.671875 286.394531 Z M 164.890625 285.894531 C 165.367188 285.894531 165.789062 285.800781 166.15625 285.613281 C 166.519531 285.417969 166.800781 285.152344 167 284.816406 C 167.195312 284.472656 167.296875 284.082031 167.296875 283.644531 C 167.296875 283.199219 167.195312 282.808594 167 282.472656 C 166.800781 282.128906 166.519531 281.863281 166.15625 281.675781 C 165.789062 281.480469 165.367188 281.378906 164.890625 281.378906 L 163.265625 281.378906 L 163.265625 285.894531 Z M 164.890625 285.894531 " fill-opacity="1" fill-rule="nonzero"/><path fill="#e8d8a5" d="M 176.5625 285.894531 L 176.5625 286.394531 L 172.65625 286.394531 L 172.65625 280.878906 L 176.4375 280.878906 L 176.4375 281.378906 L 173.25 281.378906 L 173.25 283.347656 L 176.09375 283.347656 L 176.09375 283.847656 L 173.25 283.847656 L 173.25 285.894531 Z M 176.5625 285.894531 " fill-opacity="1" fill-rule="nonzero"/><path fill="#e8d8a5" d="M 186.957031 280.878906 L 187.550781 280.878906 L 187.550781 285.894531 L 190.628906 285.894531 L 190.628906 286.394531 L 186.957031 286.394531 Z M 186.957031 280.878906 " fill-opacity="1" fill-rule="nonzero"/><path fill="#e8d8a5" d="M 198.546875 284.925781 L 195.46875 284.925781 L 194.8125 286.394531 L 194.203125 286.394531 L 196.71875 280.878906 L 197.296875 280.878906 L 199.8125 286.394531 L 199.203125 286.394531 Z M 198.328125 284.457031 L 197 281.488281 L 195.6875 284.457031 Z M 198.328125 284.457031 " fill-opacity="1" fill-rule="nonzero"/><path fill="#e8d8a5" d="M 212.160156 286.441406 C 211.605469 286.441406 211.113281 286.324219 210.675781 286.082031 C 210.238281 285.84375 209.894531 285.511719 209.644531 285.082031 C 209.394531 284.65625 209.269531 284.175781 209.269531 283.644531 C 209.269531 283.113281 209.394531 282.636719 209.644531 282.207031 C 209.894531 281.78125 210.238281 281.449219 210.675781 281.207031 C 211.121094 280.957031 211.617188 280.832031 212.160156 280.832031 C 212.566406 280.832031 212.941406 280.902344 213.285156 281.035156 C 213.636719 281.171875 213.933594 281.375 214.175781 281.644531 L 213.816406 282.003906 C 213.378906 281.566406 212.832031 281.347656 212.175781 281.347656 C 211.738281 281.347656 211.339844 281.453125 210.988281 281.660156 C 210.632812 281.859375 210.351562 282.128906 210.144531 282.472656 C 209.945312 282.816406 209.847656 283.207031 209.847656 283.644531 C 209.847656 284.074219 209.945312 284.457031 210.144531 284.800781 C 210.351562 285.144531 210.632812 285.421875 210.988281 285.628906 C 211.339844 285.828125 211.738281 285.925781 212.175781 285.925781 C 212.839844 285.925781 213.386719 285.703125 213.816406 285.253906 L 214.175781 285.628906 C 213.933594 285.890625 213.636719 286.09375 213.285156 286.238281 C 212.941406 286.375 212.566406 286.441406 212.160156 286.441406 Z M 212.160156 286.441406 " fill-opacity="1" fill-rule="nonzero"/><path fill="#e8d8a5" d="M 221.320312 286.441406 C 220.765625 286.441406 220.265625 286.324219 219.820312 286.082031 C 219.382812 285.832031 219.039062 285.5 218.789062 285.082031 C 218.539062 284.65625 218.414062 284.175781 218.414062 283.644531 C 218.414062 283.113281 218.539062 282.636719 218.789062 282.207031 C 219.039062 281.78125 219.382812 281.449219 219.820312 281.207031 C 220.265625 280.957031 220.765625 280.832031 221.320312 280.832031 C 221.859375 280.832031 222.351562 280.957031 222.789062 281.207031 C 223.226562 281.449219 223.570312 281.78125 223.820312 282.207031 C 224.078125 282.636719 224.210938 283.113281 224.210938 283.644531 C 224.210938 284.175781 224.078125 284.65625 223.820312 285.082031 C 223.570312 285.511719 223.226562 285.84375 222.789062 286.082031 C 222.351562 286.324219 221.859375 286.441406 221.320312 286.441406 Z M 221.320312 285.925781 C 221.757812 285.925781 222.148438 285.828125 222.492188 285.628906 C 222.84375 285.433594 223.121094 285.160156 223.320312 284.816406 C 223.515625 284.464844 223.617188 284.074219 223.617188 283.644531 C 223.617188 283.207031 223.515625 282.816406 223.320312 282.472656 C 223.121094 282.121094 222.84375 281.84375 222.492188 281.644531 C 222.148438 281.449219 221.757812 281.347656 221.320312 281.347656 C 220.882812 281.347656 220.484375 281.449219 220.132812 281.644531 C 219.777344 281.84375 219.496094 282.121094 219.289062 282.472656 C 219.089844 282.816406 218.992188 283.207031 218.992188 283.644531 C 218.992188 284.074219 219.089844 284.464844 219.289062 284.816406 C 219.496094 285.160156 219.777344 285.433594 220.132812 285.628906 C 220.484375 285.828125 220.882812 285.925781 221.320312 285.925781 Z M 221.320312 285.925781 " fill-opacity="1" fill-rule="nonzero"/><path fill="#e8d8a5" d="M 232.753906 286.394531 L 231.503906 284.628906 C 231.355469 284.640625 231.210938 284.644531 231.066406 284.644531 L 229.582031 284.644531 L 229.582031 286.394531 L 228.988281 286.394531 L 228.988281 280.878906 L 231.066406 280.878906 C 231.761719 280.878906 232.308594 281.050781 232.707031 281.394531 C 233.113281 281.730469 233.316406 282.1875 233.316406 282.769531 C 233.316406 283.199219 233.207031 283.5625 232.988281 283.863281 C 232.769531 284.15625 232.457031 284.371094 232.050781 284.503906 L 233.394531 286.394531 Z M 231.035156 284.144531 C 231.585938 284.144531 232.003906 284.027344 232.285156 283.785156 C 232.574219 283.546875 232.722656 283.207031 232.722656 282.769531 C 232.722656 282.324219 232.574219 281.980469 232.285156 281.738281 C 232.003906 281.5 231.585938 281.378906 231.035156 281.378906 L 229.582031 281.378906 L 229.582031 284.144531 Z M 231.035156 284.144531 " fill-opacity="1" fill-rule="nonzero"/><path fill="#e8d8a5" d="M 240.585938 286.441406 C 240.03125 286.441406 239.53125 286.324219 239.085938 286.082031 C 238.648438 285.832031 238.304688 285.5 238.054688 285.082031 C 237.804688 284.65625 237.679688 284.175781 237.679688 283.644531 C 237.679688 283.113281 237.804688 282.636719 238.054688 282.207031 C 238.304688 281.78125 238.648438 281.449219 239.085938 281.207031 C 239.53125 280.957031 240.03125 280.832031 240.585938 280.832031 C 241.125 280.832031 241.617188 280.957031 242.054688 281.207031 C 242.492188 281.449219 242.835938 281.78125 243.085938 282.207031 C 243.34375 282.636719 243.476562 283.113281 243.476562 283.644531 C 243.476562 284.175781 243.34375 284.65625 243.085938 285.082031 C 242.835938 285.511719 242.492188 285.84375 242.054688 286.082031 C 241.617188 286.324219 241.125 286.441406 240.585938 286.441406 Z M 240.585938 285.925781 C 241.023438 285.925781 241.414062 285.828125 241.757812 285.628906 C 242.109375 285.433594 242.386719 285.160156 242.585938 284.816406 C 242.78125 284.464844 242.882812 284.074219 242.882812 283.644531 C 242.882812 283.207031 242.78125 282.816406 242.585938 282.472656 C 242.386719 282.121094 242.109375 281.84375 241.757812 281.644531 C 241.414062 281.449219 241.023438 281.347656 240.585938 281.347656 C 240.148438 281.347656 239.75 281.449219 239.398438 281.644531 C 239.042969 281.84375 238.761719 282.121094 238.554688 282.472656 C 238.355469 282.816406 238.257812 283.207031 238.257812 283.644531 C 238.257812 284.074219 238.355469 284.464844 238.554688 284.816406 C 238.761719 285.160156 239.042969 285.433594 239.398438 285.628906 C 239.75 285.828125 240.148438 285.925781 240.585938 285.925781 Z M 240.585938 285.925781 " fill-opacity="1" fill-rule="nonzero"/><path fill="#e8d8a5" d="M 252.863281 280.878906 L 252.863281 286.394531 L 252.394531 286.394531 L 248.847656 281.925781 L 248.847656 286.394531 L 248.253906 286.394531 L 248.253906 280.878906 L 248.738281 280.878906 L 252.300781 285.347656 L 252.300781 280.878906 Z M 252.863281 280.878906 " fill-opacity="1" fill-rule="nonzero"/><path fill="#e8d8a5" d="M 261.605469 284.925781 L 258.527344 284.925781 L 257.871094 286.394531 L 257.261719 286.394531 L 259.777344 280.878906 L 260.355469 280.878906 L 262.871094 286.394531 L 262.261719 286.394531 Z M 261.386719 284.457031 L 260.058594 281.488281 L 258.746094 284.457031 Z M 261.386719 284.457031 " fill-opacity="1" fill-rule="nonzero"/><path fill="#e8d8a5" d="M 156.429688 362.734375 L 156.429688 368.25 L 155.867188 368.25 L 155.867188 363.234375 L 154.570312 363.234375 L 154.570312 362.734375 Z M 156.429688 362.734375 " fill-opacity="1" fill-rule="nonzero"/><path fill="#e8d8a5" d="M 164.378906 365.359375 C 164.730469 365.476562 164.996094 365.648438 165.175781 365.875 C 165.363281 366.105469 165.457031 366.386719 165.457031 366.71875 C 165.457031 367.03125 165.367188 367.308594 165.191406 367.546875 C 165.023438 367.789062 164.777344 367.976562 164.457031 368.109375 C 164.132812 368.234375 163.753906 368.296875 163.316406 368.296875 C 162.660156 368.296875 162.136719 368.15625 161.753906 367.875 C 161.378906 367.59375 161.191406 367.210938 161.191406 366.71875 C 161.191406 366.386719 161.277344 366.105469 161.457031 365.875 C 161.644531 365.648438 161.910156 365.476562 162.253906 365.359375 C 161.972656 365.246094 161.757812 365.089844 161.613281 364.890625 C 161.464844 364.683594 161.394531 364.433594 161.394531 364.140625 C 161.394531 363.703125 161.566406 363.355469 161.910156 363.09375 C 162.261719 362.824219 162.730469 362.6875 163.316406 362.6875 C 163.710938 362.6875 164.054688 362.75 164.347656 362.875 C 164.636719 362.992188 164.863281 363.15625 165.019531 363.375 C 165.183594 363.59375 165.269531 363.851562 165.269531 364.140625 C 165.269531 364.433594 165.191406 364.683594 165.035156 364.890625 C 164.886719 365.089844 164.667969 365.246094 164.378906 365.359375 Z M 161.957031 364.15625 C 161.957031 364.46875 162.074219 364.714844 162.316406 364.890625 C 162.554688 365.070312 162.886719 365.15625 163.316406 365.15625 C 163.742188 365.15625 164.074219 365.070312 164.316406 364.890625 C 164.566406 364.714844 164.691406 364.476562 164.691406 364.171875 C 164.691406 363.859375 164.566406 363.617188 164.316406 363.4375 C 164.066406 363.261719 163.730469 363.171875 163.316406 363.171875 C 162.898438 363.171875 162.566406 363.261719 162.316406 363.4375 C 162.074219 363.617188 161.957031 363.855469 161.957031 364.15625 Z M 163.316406 367.8125 C 163.804688 367.8125 164.183594 367.714844 164.457031 367.515625 C 164.738281 367.320312 164.878906 367.046875 164.878906 366.703125 C 164.878906 366.359375 164.738281 366.09375 164.457031 365.90625 C 164.183594 365.710938 163.804688 365.609375 163.316406 365.609375 C 162.835938 365.609375 162.457031 365.710938 162.175781 365.90625 C 161.902344 366.09375 161.769531 366.359375 161.769531 366.703125 C 161.769531 367.046875 161.902344 367.320312 162.175781 367.515625 C 162.445312 367.714844 162.824219 367.8125 163.316406 367.8125 Z M 163.316406 367.8125 " fill-opacity="1" fill-rule="nonzero"/><path fill="#e8d8a5" d="M 172.886719 365.359375 C 173.238281 365.476562 173.503906 365.648438 173.683594 365.875 C 173.871094 366.105469 173.964844 366.386719 173.964844 366.71875 C 173.964844 367.03125 173.875 367.308594 173.699219 367.546875 C 173.53125 367.789062 173.285156 367.976562 172.964844 368.109375 C 172.640625 368.234375 172.261719 368.296875 171.824219 368.296875 C 171.167969 368.296875 170.644531 368.15625 170.261719 367.875 C 169.886719 367.59375 169.699219 367.210938 169.699219 366.71875 C 169.699219 366.386719 169.785156 366.105469 169.964844 365.875 C 170.152344 365.648438 170.417969 365.476562 170.761719 365.359375 C 170.480469 365.246094 170.265625 365.089844 170.121094 364.890625 C 169.972656 364.683594 169.902344 364.433594 169.902344 364.140625 C 169.902344 363.703125 170.074219 363.355469 170.417969 363.09375 C 170.769531 362.824219 171.238281 362.6875 171.824219 362.6875 C 172.21875 362.6875 172.5625 362.75 172.855469 362.875 C 173.144531 362.992188 173.371094 363.15625 173.527344 363.375 C 173.691406 363.59375 173.777344 363.851562 173.777344 364.140625 C 173.777344 364.433594 173.699219 364.683594 173.542969 364.890625 C 173.394531 365.089844 173.175781 365.246094 172.886719 365.359375 Z M 170.464844 364.15625 C 170.464844 364.46875 170.582031 364.714844 170.824219 364.890625 C 171.0625 365.070312 171.394531 365.15625 171.824219 365.15625 C 172.25 365.15625 172.582031 365.070312 172.824219 364.890625 C 173.074219 364.714844 173.199219 364.476562 173.199219 364.171875 C 173.199219 363.859375 173.074219 363.617188 172.824219 363.4375 C 172.574219 363.261719 172.238281 363.171875 171.824219 363.171875 C 171.40625 363.171875 171.074219 363.261719 170.824219 363.4375 C 170.582031 363.617188 170.464844 363.855469 170.464844 364.15625 Z M 171.824219 367.8125 C 172.3125 367.8125 172.691406 367.714844 172.964844 367.515625 C 173.246094 367.320312 173.386719 367.046875 173.386719 366.703125 C 173.386719 366.359375 173.246094 366.09375 172.964844 365.90625 C 172.691406 365.710938 172.3125 365.609375 171.824219 365.609375 C 171.34375 365.609375 170.964844 365.710938 170.683594 365.90625 C 170.410156 366.09375 170.277344 366.359375 170.277344 366.703125 C 170.277344 367.046875 170.410156 367.320312 170.683594 367.515625 C 170.953125 367.714844 171.332031 367.8125 171.824219 367.8125 Z M 171.824219 367.8125 " fill-opacity="1" fill-rule="nonzero"/><path fill="#e8d8a5" d="M 181.394531 365.359375 C 181.746094 365.476562 182.011719 365.648438 182.191406 365.875 C 182.378906 366.105469 182.472656 366.386719 182.472656 366.71875 C 182.472656 367.03125 182.382812 367.308594 182.207031 367.546875 C 182.039062 367.789062 181.792969 367.976562 181.472656 368.109375 C 181.148438 368.234375 180.769531 368.296875 180.332031 368.296875 C 179.675781 368.296875 179.152344 368.15625 178.769531 367.875 C 178.394531 367.59375 178.207031 367.210938 178.207031 366.71875 C 178.207031 366.386719 178.292969 366.105469 178.472656 365.875 C 178.660156 365.648438 178.925781 365.476562 179.269531 365.359375 C 178.988281 365.246094 178.773438 365.089844 178.628906 364.890625 C 178.480469 364.683594 178.410156 364.433594 178.410156 364.140625 C 178.410156 363.703125 178.582031 363.355469 178.925781 363.09375 C 179.277344 362.824219 179.746094 362.6875 180.332031 362.6875 C 180.726562 362.6875 181.070312 362.75 181.363281 362.875 C 181.652344 362.992188 181.878906 363.15625 182.035156 363.375 C 182.199219 363.59375 182.285156 363.851562 182.285156 364.140625 C 182.285156 364.433594 182.207031 364.683594 182.050781 364.890625 C 181.902344 365.089844 181.683594 365.246094 181.394531 365.359375 Z M 178.972656 364.15625 C 178.972656 364.46875 179.089844 364.714844 179.332031 364.890625 C 179.570312 365.070312 179.902344 365.15625 180.332031 365.15625 C 180.757812 365.15625 181.089844 365.070312 181.332031 364.890625 C 181.582031 364.714844 181.707031 364.476562 181.707031 364.171875 C 181.707031 363.859375 181.582031 363.617188 181.332031 363.4375 C 181.082031 363.261719 180.746094 363.171875 180.332031 363.171875 C 179.914062 363.171875 179.582031 363.261719 179.332031 363.4375 C 179.089844 363.617188 178.972656 363.855469 178.972656 364.15625 Z M 180.332031 367.8125 C 180.820312 367.8125 181.199219 367.714844 181.472656 367.515625 C 181.753906 367.320312 181.894531 367.046875 181.894531 366.703125 C 181.894531 366.359375 181.753906 366.09375 181.472656 365.90625 C 181.199219 365.710938 180.820312 365.609375 180.332031 365.609375 C 179.851562 365.609375 179.472656 365.710938 179.191406 365.90625 C 178.917969 366.09375 178.785156 366.359375 178.785156 366.703125 C 178.785156 367.046875 178.917969 367.320312 179.191406 367.515625 C 179.460938 367.714844 179.839844 367.8125 180.332031 367.8125 Z M 180.332031 367.8125 " fill-opacity="1" fill-rule="nonzero"/><path fill="#e8d8a5" d="M 186.808594 365.875 L 188.871094 365.875 L 188.871094 366.359375 L 186.808594 366.359375 Z M 186.808594 365.875 " fill-opacity="1" fill-rule="nonzero"/><path fill="#e8d8a5" d="M 194.769531 362.734375 L 194.769531 368.25 L 194.207031 368.25 L 194.207031 363.234375 L 192.910156 363.234375 L 192.910156 362.734375 Z M 194.769531 362.734375 " fill-opacity="1" fill-rule="nonzero"/><path fill="#e8d8a5" d="M 201.285156 362.6875 C 202.011719 362.6875 202.570312 362.929688 202.957031 363.40625 C 203.351562 363.886719 203.550781 364.570312 203.550781 365.453125 C 203.550781 366.070312 203.441406 366.589844 203.222656 367.015625 C 203.011719 367.433594 202.722656 367.75 202.347656 367.96875 C 201.972656 368.1875 201.527344 368.296875 201.019531 368.296875 C 200.476562 368.296875 200.042969 368.199219 199.722656 368 L 199.941406 367.546875 C 200.210938 367.714844 200.570312 367.796875 201.019531 367.796875 C 201.621094 367.796875 202.097656 367.605469 202.441406 367.21875 C 202.792969 366.835938 202.972656 366.277344 202.972656 365.546875 C 202.972656 365.414062 202.960938 365.261719 202.941406 365.09375 C 202.804688 365.398438 202.585938 365.632812 202.285156 365.796875 C 201.992188 365.953125 201.652344 366.03125 201.269531 366.03125 C 200.902344 366.03125 200.582031 365.964844 200.300781 365.828125 C 200.019531 365.695312 199.800781 365.5 199.644531 365.25 C 199.488281 365 199.410156 364.714844 199.410156 364.390625 C 199.410156 364.046875 199.488281 363.75 199.644531 363.5 C 199.808594 363.242188 200.035156 363.042969 200.316406 362.90625 C 200.605469 362.761719 200.929688 362.6875 201.285156 362.6875 Z M 201.347656 365.5625 C 201.628906 365.5625 201.871094 365.511719 202.082031 365.40625 C 202.300781 365.292969 202.464844 365.148438 202.582031 364.96875 C 202.707031 364.78125 202.769531 364.578125 202.769531 364.359375 C 202.769531 364.140625 202.710938 363.945312 202.597656 363.765625 C 202.480469 363.589844 202.316406 363.449219 202.097656 363.34375 C 201.878906 363.230469 201.617188 363.171875 201.316406 363.171875 C 200.910156 363.171875 200.582031 363.28125 200.332031 363.5 C 200.082031 363.71875 199.957031 364.011719 199.957031 364.375 C 199.957031 364.730469 200.082031 365.015625 200.332031 365.234375 C 200.582031 365.453125 200.917969 365.5625 201.347656 365.5625 Z M 201.347656 365.5625 " fill-opacity="1" fill-rule="nonzero"/><path fill="#e8d8a5" d="M 209.5625 362.6875 C 210.289062 362.6875 210.847656 362.929688 211.234375 363.40625 C 211.628906 363.886719 211.828125 364.570312 211.828125 365.453125 C 211.828125 366.070312 211.71875 366.589844 211.5 367.015625 C 211.289062 367.433594 211 367.75 210.625 367.96875 C 210.25 368.1875 209.804688 368.296875 209.296875 368.296875 C 208.753906 368.296875 208.320312 368.199219 208 368 L 208.21875 367.546875 C 208.488281 367.714844 208.847656 367.796875 209.296875 367.796875 C 209.898438 367.796875 210.375 367.605469 210.71875 367.21875 C 211.070312 366.835938 211.25 366.277344 211.25 365.546875 C 211.25 365.414062 211.238281 365.261719 211.21875 365.09375 C 211.082031 365.398438 210.863281 365.632812 210.5625 365.796875 C 210.269531 365.953125 209.929688 366.03125 209.546875 366.03125 C 209.179688 366.03125 208.859375 365.964844 208.578125 365.828125 C 208.296875 365.695312 208.078125 365.5 207.921875 365.25 C 207.765625 365 207.6875 364.714844 207.6875 364.390625 C 207.6875 364.046875 207.765625 363.75 207.921875 363.5 C 208.085938 363.242188 208.3125 363.042969 208.59375 362.90625 C 208.882812 362.761719 209.207031 362.6875 209.5625 362.6875 Z M 209.625 365.5625 C 209.90625 365.5625 210.148438 365.511719 210.359375 365.40625 C 210.578125 365.292969 210.742188 365.148438 210.859375 364.96875 C 210.984375 364.78125 211.046875 364.578125 211.046875 364.359375 C 211.046875 364.140625 210.988281 363.945312 210.875 363.765625 C 210.757812 363.589844 210.59375 363.449219 210.375 363.34375 C 210.15625 363.230469 209.894531 363.171875 209.59375 363.171875 C 209.1875 363.171875 208.859375 363.28125 208.609375 363.5 C 208.359375 363.71875 208.234375 364.011719 208.234375 364.375 C 208.234375 364.730469 208.359375 365.015625 208.609375 365.234375 C 208.859375 365.453125 209.195312 365.5625 209.625 365.5625 Z M 209.625 365.5625 " fill-opacity="1" fill-rule="nonzero"/><path fill="#e8d8a5" d="M 217.839844 362.6875 C 218.566406 362.6875 219.125 362.929688 219.511719 363.40625 C 219.90625 363.886719 220.105469 364.570312 220.105469 365.453125 C 220.105469 366.070312 219.996094 366.589844 219.777344 367.015625 C 219.566406 367.433594 219.277344 367.75 218.902344 367.96875 C 218.527344 368.1875 218.082031 368.296875 217.574219 368.296875 C 217.03125 368.296875 216.597656 368.199219 216.277344 368 L 216.496094 367.546875 C 216.765625 367.714844 217.125 367.796875 217.574219 367.796875 C 218.175781 367.796875 218.652344 367.605469 218.996094 367.21875 C 219.347656 366.835938 219.527344 366.277344 219.527344 365.546875 C 219.527344 365.414062 219.515625 365.261719 219.496094 365.09375 C 219.359375 365.398438 219.140625 365.632812 218.839844 365.796875 C 218.546875 365.953125 218.207031 366.03125 217.824219 366.03125 C 217.457031 366.03125 217.136719 365.964844 216.855469 365.828125 C 216.574219 365.695312 216.355469 365.5 216.199219 365.25 C 216.042969 365 215.964844 364.714844 215.964844 364.390625 C 215.964844 364.046875 216.042969 363.75 216.199219 363.5 C 216.363281 363.242188 216.589844 363.042969 216.871094 362.90625 C 217.160156 362.761719 217.484375 362.6875 217.839844 362.6875 Z M 217.902344 365.5625 C 218.183594 365.5625 218.425781 365.511719 218.636719 365.40625 C 218.855469 365.292969 219.019531 365.148438 219.136719 364.96875 C 219.261719 364.78125 219.324219 364.578125 219.324219 364.359375 C 219.324219 364.140625 219.265625 363.945312 219.152344 363.765625 C 219.035156 363.589844 218.871094 363.449219 218.652344 363.34375 C 218.433594 363.230469 218.171875 363.171875 217.871094 363.171875 C 217.464844 363.171875 217.136719 363.28125 216.886719 363.5 C 216.636719 363.71875 216.511719 364.011719 216.511719 364.375 C 216.511719 364.730469 216.636719 365.015625 216.886719 365.234375 C 217.136719 365.453125 217.472656 365.5625 217.902344 365.5625 Z M 217.902344 365.5625 " fill-opacity="1" fill-rule="nonzero"/></svg>