<svg xmlns="http://www.w3.org/2000/svg" xmlns:xlink="http://www.w3.org/1999/xlink" width="794" zoomAndPan="magnify" viewBox="0 0 595.5 842.249979" height="1123" preserveAspectRatio="xMidYMid meet" version="1.0"><path fill="#cdb696" d="M 439.460938 620.15625 L 439.328125 620.96875 C 439.28125 621.242188 439.207031 621.558594 439.070312 621.933594 C 438.980469 622.339844 438.8125 622.777344 438.601562 623.261719 C 437.820312 625.21875 435.953125 627.886719 432.652344 630.148438 C 431.023438 631.308594 429.082031 632.347656 426.851562 633.265625 C 424.589844 634.171875 422.210938 634.878906 419.46875 635.570312 C 416.785156 636.203125 413.878906 636.671875 410.789062 636.988281 C 407.683594 637.257812 404.429688 637.304688 401.023438 637.167969 C 394.214844 636.914062 386.90625 635.722656 379.386719 633.777344 C 371.867188 631.863281 364.109375 629.273438 356.210938 626.515625 C 348.300781 623.757812 340.152344 620.96875 331.773438 618.832031 C 323.378906 616.722656 314.671875 615.367188 306.007812 615.652344 C 301.683594 615.773438 297.375 616.285156 293.230469 617.292969 C 292.191406 617.550781 291.164062 617.867188 290.140625 618.136719 C 289.160156 618.484375 288.0625 618.847656 287.203125 619.175781 C 286.207031 619.613281 285.09375 620.007812 284.1875 620.457031 C 283.285156 620.941406 282.367188 621.332031 281.460938 621.890625 C 274.230469 626.0625 268.125 632.167969 264.707031 639.324219 C 261.285156 646.421875 260.667969 654.570312 263.15625 661.351562 C 264.359375 664.710938 266.410156 667.652344 268.910156 669.894531 C 271.425781 672.1875 274.363281 673.917969 277.304688 675.335938 C 283.253906 678.136719 289.085938 679.808594 294.40625 680.59375 C 299.722656 681.4375 304.453125 681.40625 308.328125 681.136719 C 312.199219 680.804688 315.230469 680.292969 317.261719 679.824219 C 319.296875 679.359375 320.382812 679.058594 320.382812 679.058594 C 320.382812 679.058594 319.328125 679.433594 317.324219 680.066406 C 315.320312 680.652344 312.335938 681.484375 308.417969 682.011719 C 304.53125 682.523438 299.707031 682.824219 294.195312 682.265625 C 288.722656 681.785156 282.515625 680.382812 276.21875 677.699219 C 273.082031 676.34375 269.84375 674.628906 266.90625 672.171875 C 263.921875 669.699219 261.527344 666.386719 260.003906 662.558594 C 256.929688 654.933594 257.367188 645.667969 261.089844 637.621094 C 264.8125 629.589844 271.320312 622.703125 279.292969 618.109375 C 280.257812 617.503906 281.355469 617.007812 282.410156 616.464844 C 283.480469 615.90625 284.460938 615.5625 285.5 615.109375 C 286.691406 614.640625 287.699219 614.324219 288.816406 613.917969 C 289.929688 613.617188 291.03125 613.257812 292.160156 612.984375 C 296.648438 611.871094 301.277344 611.28125 305.871094 611.144531 C 315.109375 610.890625 324.207031 612.382812 332.84375 614.613281 C 341.507812 616.84375 349.671875 619.914062 357.539062 622.777344 C 365.417969 625.640625 372.953125 628.445312 380.261719 630.539062 C 387.570312 632.601562 394.605469 634.066406 401.191406 634.59375 C 407.773438 635.148438 413.847656 634.863281 419.136719 633.929688 C 421.710938 633.433594 424.273438 632.828125 426.414062 632.089844 C 428.597656 631.335938 430.542969 630.433594 432.167969 629.421875 C 435.4375 627.40625 437.488281 625.023438 438.390625 623.15625 C 438.632812 622.6875 438.8125 622.28125 438.949219 621.90625 C 439.085938 621.542969 439.191406 621.210938 439.25 620.957031 C 439.402344 620.429688 439.460938 620.15625 439.460938 620.15625 " fill-opacity="1" fill-rule="nonzero"/><path fill="#cdb696" d="M 394.980469 659.199219 C 394.980469 659.199219 394.953125 658.234375 394.90625 656.441406 C 394.863281 654.648438 394.652344 652.039062 394.242188 648.726562 C 393.792969 645.425781 393.097656 641.433594 391.757812 637.019531 C 390.402344 632.617188 388.503906 627.75 385.671875 622.898438 C 382.824219 618.0625 379.054688 613.226562 374.21875 609.097656 C 369.351562 605.015625 363.398438 601.757812 356.785156 599.605469 C 350.1875 597.417969 342.984375 596.363281 335.628906 596.046875 C 331.96875 595.914062 328.171875 595.941406 324.539062 596.246094 C 320.878906 596.53125 317.578125 597.34375 314.582031 599.167969 C 313.074219 600.042969 311.628906 601.097656 310.257812 602.273438 L 309.742188 602.707031 L 309.292969 603.144531 L 308.265625 604.140625 C 307.515625 604.804688 307.015625 605.449219 306.414062 606.097656 C 304.09375 608.765625 302.089844 611.855469 300.582031 615.0625 C 297.554688 621.511719 296.167969 628.683594 297.011719 635.421875 C 297.824219 642.097656 300.597656 648.46875 305.042969 652.671875 C 307.199219 654.769531 309.878906 656.257812 312.578125 656.90625 C 315.304688 657.601562 318.152344 657.480469 320.59375 656.605469 C 325.609375 654.902344 328.1875 649.839844 328.15625 645.515625 C 328.15625 643.316406 327.570312 641.3125 326.542969 639.640625 C 325.566406 638.074219 324.222656 636.777344 322.867188 635.917969 C 320.109375 634.183594 317.445312 633.71875 315.679688 633.761719 C 314.792969 633.761719 314.097656 633.855469 313.644531 633.945312 C 313.195312 634.050781 312.96875 634.09375 312.96875 634.09375 C 312.96875 634.09375 313.195312 634.019531 313.644531 633.882812 C 314.082031 633.75 314.761719 633.597656 315.664062 633.523438 C 317.445312 633.339844 320.277344 633.476562 323.320312 635.164062 C 324.84375 636.007812 326.347656 637.230469 327.613281 639.007812 C 328.820312 640.695312 329.679688 642.984375 329.828125 645.457031 C 329.980469 647.925781 329.511719 650.640625 328.15625 653.140625 C 326.832031 655.65625 324.433594 657.855469 321.527344 659.03125 C 318.605469 660.222656 315.230469 660.523438 311.929688 659.859375 C 308.539062 659.199219 305.417969 657.511719 302.753906 655.160156 C 297.433594 650.429688 294.117188 643.421875 293.0625 635.933594 C 291.992188 628.414062 293.261719 620.382812 296.621094 613.226562 C 298.308594 609.609375 300.433594 606.25 303.097656 603.144531 C 303.792969 602.378906 304.46875 601.546875 305.164062 600.929688 L 306.1875 599.9375 L 306.777344 599.363281 L 307.332031 598.867188 C 308.871094 597.554688 310.511719 596.320312 312.304688 595.265625 C 313.210938 594.738281 314.144531 594.269531 315.125 593.847656 C 315.621094 593.636719 316.148438 593.441406 316.570312 593.292969 C 317.128906 593.09375 317.59375 592.960938 318.105469 592.808594 C 320.140625 592.265625 322.175781 591.980469 324.164062 591.816406 C 328.125 591.527344 331.9375 591.527344 335.8125 591.695312 C 343.511719 592.039062 351.074219 593.410156 358.066406 595.835938 C 365.074219 598.25 371.386719 602.03125 376.433594 606.582031 C 381.496094 611.148438 385.21875 616.480469 387.929688 621.648438 C 390.6875 626.847656 392.300781 632 393.371094 636.597656 C 394.441406 641.191406 394.875 645.289062 395.117188 648.636719 C 395.207031 650.324219 395.285156 651.828125 395.238281 653.140625 C 395.222656 654.4375 395.222656 655.550781 395.148438 656.457031 C 395.042969 658.234375 394.980469 659.199219 394.980469 659.199219 " fill-opacity="1" fill-rule="nonzero"/><path fill="#cdb696" d="M 260.351562 640.933594 C 260.351562 640.933594 259.871094 641.28125 258.996094 641.808594 C 258.121094 642.335938 256.855469 643.042969 255.214844 643.722656 C 253.570312 644.371094 251.523438 644.988281 249.1875 645.15625 C 248.054688 645.246094 246.746094 645.183594 245.511719 644.972656 C 244.257812 644.761719 242.992188 644.371094 241.789062 643.796875 C 240.597656 643.226562 239.4375 642.472656 238.488281 641.492188 C 237.527344 640.558594 236.730469 639.382812 236.246094 638.238281 C 235.699219 636.957031 235.5 635.78125 235.460938 634.621094 C 235.429688 633.476562 235.582031 632.421875 235.863281 631.488281 C 236.148438 630.570312 236.53125 629.769531 236.953125 629.121094 C 237.347656 628.472656 237.8125 627.992188 238.191406 627.617188 C 238.578125 627.269531 238.925781 627.027344 239.167969 626.863281 C 239.390625 626.726562 239.527344 626.652344 239.527344 626.652344 C 239.527344 626.652344 239.46875 626.785156 239.363281 627.042969 C 239.226562 627.269531 239.121094 627.675781 238.941406 628.113281 C 238.789062 628.578125 238.667969 629.136719 238.5625 629.769531 C 238.457031 630.402344 238.441406 631.109375 238.457031 631.863281 C 238.488281 632.617188 238.609375 633.402344 238.835938 634.183594 C 239.046875 634.9375 239.40625 635.765625 239.800781 636.371094 C 240.265625 637.125 240.808594 637.710938 241.472656 638.285156 C 242.132812 638.839844 242.902344 639.339844 243.746094 639.730469 C 244.574219 640.136719 245.480469 640.4375 246.398438 640.695312 C 247.332031 640.921875 248.207031 641.070312 249.203125 641.160156 C 251.085938 641.328125 252.96875 641.265625 254.625 641.175781 C 256.285156 641.101562 257.714844 640.996094 258.738281 640.949219 C 259.75 640.90625 260.351562 640.933594 260.351562 640.933594 " fill-opacity="1" fill-rule="nonzero"/><path fill="#cdb696" d="M 368.476562 603.402344 L 368.191406 601.457031 L 368.328125 601.699219 C 367.152344 601.097656 365.992188 600.386719 364.921875 599.558594 C 363.867188 598.714844 362.828125 597.828125 361.921875 596.785156 C 360.070312 594.738281 358.59375 592.265625 357.75 589.507812 C 357.523438 588.816406 357.34375 588.152344 357.207031 587.398438 C 357.085938 586.8125 357.011719 585.96875 356.964844 585.230469 C 356.90625 583.753906 357.027344 582.277344 357.328125 580.84375 C 357.914062 577.953125 359.316406 575.195312 361.410156 572.949219 C 362.421875 571.835938 363.746094 570.855469 365.042969 570.191406 C 366.503906 569.4375 368.042969 569.015625 369.5625 568.835938 C 372.605469 568.472656 375.742188 569.121094 378.363281 570.75 C 379.671875 571.5625 380.820312 572.695312 381.675781 573.972656 C 382.550781 575.238281 383.125 576.6875 383.394531 578.101562 C 383.96875 580.980469 383.636719 583.753906 383.003906 586.34375 L 382.929688 586.660156 L 382.792969 586.765625 C 381.347656 587.804688 379.492188 588.0625 377.984375 587.535156 C 379.566406 587.519531 381.03125 586.828125 381.886719 585.773438 L 381.664062 586.179688 C 381.664062 583.617188 381.4375 581.070312 380.621094 578.886719 C 380.171875 577.800781 379.671875 576.820312 378.933594 576.007812 C 378.257812 575.210938 377.367188 574.59375 376.433594 574.09375 C 374.550781 573.085938 372.246094 572.859375 370.152344 573.191406 C 369.082031 573.355469 368.085938 573.6875 367.226562 574.125 C 366.203125 574.667969 365.417969 575.285156 364.636719 576.054688 C 363.097656 577.589844 362.058594 579.640625 361.441406 581.824219 C 361.125 582.910156 360.945312 584.054688 360.914062 585.183594 C 360.898438 585.757812 360.898438 586.210938 360.972656 586.917969 C 360.988281 587.460938 361.066406 588.0625 361.183594 588.636719 C 361.621094 590.941406 362.542969 593.230469 363.851562 595.339844 C 365.148438 597.449219 366.773438 599.421875 368.675781 601.203125 L 368.839844 601.351562 L 368.808594 601.457031 L 368.476562 603.402344 " fill-opacity="1" fill-rule="nonzero"/><path fill="#cdb696" d="M 339.097656 619.808594 C 339.097656 619.808594 339.308594 620.1875 339.730469 620.894531 C 339.941406 621.242188 340.074219 621.738281 340.316406 622.296875 C 340.46875 622.882812 340.691406 623.578125 340.738281 624.375 C 340.933594 625.972656 340.785156 628.023438 339.941406 630.222656 C 339.109375 632.421875 337.621094 634.863281 335.058594 636.703125 C 333.777344 637.589844 332.238281 638.375 330.460938 638.660156 C 328.820312 638.929688 326.800781 638.839844 324.976562 638.328125 C 321.242188 637.320312 317.761719 634.636719 315.347656 630.945312 C 314.144531 629.09375 313.195312 626.953125 312.683594 624.601562 C 312.183594 622.355469 312.0625 619.808594 312.351562 617.355469 C 312.953125 612.398438 315.109375 607.46875 318.5 603.222656 C 321.933594 598.925781 326.558594 595.597656 331.726562 593.09375 C 334.304688 591.828125 337.015625 590.820312 339.773438 589.929688 C 341.144531 589.492188 342.605469 589.085938 343.960938 588.710938 C 345.410156 588.332031 346.855469 587.972656 348.300781 587.65625 C 354.148438 586.390625 360.339844 585.636719 366.730469 585.878906 C 368.371094 585.9375 369.863281 586.058594 371.628906 586.269531 C 373.179688 586.496094 374.625 586.660156 376.3125 587.039062 C 379.628906 587.6875 382.6875 588.589844 385.820312 589.628906 C 398.265625 593.878906 409.703125 600.597656 421.488281 606.039062 C 433.269531 611.417969 445.925781 615.394531 458.882812 617.625 C 465.347656 618.785156 471.902344 619.523438 478.441406 619.808594 C 484.953125 620.082031 491.71875 620.277344 496.886719 618.558594 C 498.601562 617.941406 499.566406 617.503906 500.921875 616.78125 C 502.175781 616.074219 503.410156 615.289062 504.570312 614.371094 C 506.921875 612.578125 509.074219 610.4375 511.019531 608.101562 C 512.976562 605.765625 514.769531 603.222656 516.339844 600.628906 C 516.773438 599.9375 517.167969 599.257812 517.5 598.640625 C 517.828125 597.976562 518.207031 597.375 518.523438 596.679688 L 519.488281 594.664062 L 520.359375 592.613281 C 522.546875 587.097656 523.796875 581.3125 523.511719 575.84375 C 523.328125 570.359375 521.160156 565.324219 517.558594 561.828125 C 513.988281 558.441406 508.878906 556.675781 504.164062 557.007812 C 502.972656 557.066406 501.8125 557.308594 500.699219 557.59375 L 499.867188 557.867188 L 499.65625 557.925781 L 499.550781 557.957031 C 499.445312 558.003906 499.597656 557.925781 499.550781 557.957031 L 499.085938 558.152344 L 498.179688 558.546875 L 497.457031 558.921875 C 495.484375 559.976562 493.660156 561.527344 492.199219 563.261719 C 489.214844 566.742188 487.558594 571.113281 487.300781 575.300781 C 487 579.488281 488.160156 583.601562 490.285156 586.691406 C 492.394531 589.824219 495.558594 591.769531 498.8125 592.144531 C 502.054688 592.582031 505.171875 591.605469 507.265625 589.839844 C 507.507812 589.601562 507.765625 589.375 508.003906 589.148438 C 508.1875 588.953125 508.457031 588.621094 508.667969 588.363281 C 509.03125 587.851562 509.363281 587.339844 509.632812 586.765625 C 510.175781 585.652344 510.492188 584.507812 510.65625 583.40625 C 510.957031 581.222656 510.628906 579.292969 510.070312 577.847656 C 508.925781 574.910156 507.222656 574.050781 507.296875 574.003906 C 507.222656 574.050781 508.984375 574.742188 510.445312 577.679688 C 511.15625 579.128906 511.667969 581.117188 511.546875 583.496094 C 511.472656 584.6875 511.246094 585.96875 510.734375 587.25 C 510.492188 587.898438 510.128906 588.558594 509.722656 589.191406 C 509.496094 589.496094 509.347656 589.734375 509.074219 590.082031 C 508.804688 590.367188 508.546875 590.667969 508.277344 590.941406 C 506 593.15625 502.460938 594.570312 498.617188 594.316406 C 496.71875 594.210938 494.65625 593.667969 492.847656 592.660156 C 490.964844 591.632812 489.335938 590.15625 487.949219 588.410156 C 485.238281 584.867188 483.625 580.199219 483.65625 575.179688 C 483.6875 570.164062 485.449219 564.917969 488.824219 560.535156 C 490.542969 558.335938 492.589844 556.375 495.210938 554.839844 L 496.222656 554.25 L 497.113281 553.8125 L 497.5625 553.601562 C 497.578125 553.585938 497.820312 553.480469 497.789062 553.511719 L 497.910156 553.46875 L 498.179688 553.363281 L 499.25 552.953125 C 500.683594 552.503906 502.1875 552.140625 503.710938 551.992188 C 509.859375 551.328125 516.367188 553.300781 521.386719 557.699219 L 522.351562 558.605469 C 522.667969 558.90625 522.863281 559.148438 523.117188 559.417969 L 523.496094 559.824219 L 523.660156 560.023438 L 523.945312 560.398438 L 524.683594 561.394531 L 525.421875 562.386719 C 525.648438 562.75 525.84375 563.109375 526.054688 563.472656 C 526.433594 564.210938 526.945312 564.902344 527.230469 565.6875 C 528.679688 568.730469 529.417969 572.074219 529.703125 575.390625 C 530.304688 582.097656 528.859375 588.742188 526.554688 595.007812 L 525.621094 597.34375 L 524.566406 599.632812 C 523.855469 601.125 522.984375 602.8125 522.199219 604.125 C 520.511719 607.046875 518.613281 609.835938 516.441406 612.546875 C 514.289062 615.246094 511.832031 617.792969 509 620.050781 C 507.582031 621.183594 506.046875 622.191406 504.433594 623.125 C 502.898438 624 500.816406 624.886719 499.417969 625.371094 L 498.632812 625.625 L 497.957031 625.835938 C 497.503906 625.972656 497.050781 626.078125 496.597656 626.183594 C 495.679688 626.410156 494.777344 626.589844 493.871094 626.726562 C 492.0625 627.027344 490.253906 627.179688 488.492188 627.269531 C 484.953125 627.417969 481.578125 627.34375 478.125 627.222656 C 471.253906 626.9375 464.382812 626.246094 457.574219 625.039062 C 443.980469 622.613281 430.738281 618.363281 418.425781 612.625 C 412.28125 609.773438 406.480469 606.609375 400.753906 603.644531 C 395.027344 600.691406 389.363281 597.933594 383.636719 595.867188 C 380.804688 594.859375 377.863281 593.9375 375.078125 593.351562 C 373.75 593.003906 372.140625 592.792969 370.632812 592.523438 C 369.367188 592.34375 367.816406 592.144531 366.414062 592.054688 C 360.65625 591.648438 354.917969 592.144531 349.402344 593.15625 C 348.03125 593.398438 346.675781 593.699219 345.347656 594 C 343.933594 594.332031 342.652344 594.648438 341.324219 595.039062 C 338.703125 595.777344 336.203125 596.652344 333.820312 597.660156 C 331.441406 598.671875 329.226562 599.890625 327.175781 601.261719 C 326.695312 601.625 326.167969 601.96875 325.714844 602.332031 L 325.023438 602.875 L 324.300781 603.507812 C 323.410156 604.261719 322.566406 605.105469 321.796875 605.976562 C 318.707031 609.503906 316.691406 613.707031 315.9375 617.867188 C 315.574219 619.976562 315.542969 621.980469 315.859375 624.015625 C 316.175781 625.941406 316.855469 627.796875 317.789062 629.4375 C 319.671875 632.738281 322.550781 635.179688 325.625 636.25 C 327.175781 636.792969 328.652344 636.988281 330.222656 636.851562 C 331.699219 636.730469 333.054688 636.160156 334.230469 635.449219 C 336.59375 634.003906 338.160156 631.863281 339.125 629.875 C 340.074219 627.886719 340.390625 625.941406 340.347656 624.40625 C 340.242188 621.257812 338.976562 619.839844 339.09375 619.808594 " fill-opacity="1" fill-rule="nonzero"/><path fill="#cdb696" d="M 268.105469 277.542969 L 267.96875 278.359375 C 267.921875 278.628906 267.847656 278.945312 267.710938 279.324219 C 267.621094 279.730469 267.457031 280.167969 267.246094 280.648438 C 266.460938 282.605469 264.59375 285.273438 261.292969 287.535156 C 259.667969 288.695312 257.722656 289.734375 255.492188 290.652344 C 253.230469 291.558594 250.851562 292.265625 248.109375 292.957031 C 245.425781 293.589844 242.519531 294.058594 239.429688 294.375 C 236.328125 294.644531 233.070312 294.691406 229.667969 294.554688 C 222.855469 294.300781 215.546875 293.109375 208.027344 291.164062 C 200.511719 289.253906 192.75 286.660156 184.855469 283.902344 C 176.945312 281.144531 168.792969 278.359375 160.414062 276.21875 C 152.023438 274.109375 143.3125 272.753906 134.648438 273.039062 C 130.324219 273.160156 126.015625 273.671875 121.871094 274.679688 C 120.832031 274.9375 119.808594 275.253906 118.78125 275.527344 C 117.804688 275.871094 116.703125 276.234375 115.84375 276.566406 C 114.851562 277.003906 113.734375 277.394531 112.832031 277.847656 C 111.925781 278.328125 111.007812 278.71875 110.105469 279.277344 C 102.871094 283.449219 96.769531 289.554688 93.347656 296.710938 C 89.929688 303.808594 89.308594 311.960938 91.796875 318.738281 C 93 322.101562 95.050781 325.039062 97.550781 327.285156 C 100.070312 329.574219 103.007812 331.304688 105.945312 332.722656 C 111.898438 335.523438 117.726562 337.199219 123.046875 337.980469 C 128.367188 338.824219 133.097656 338.796875 136.96875 338.523438 C 140.84375 338.191406 143.871094 337.679688 145.90625 337.210938 C 147.9375 336.746094 149.023438 336.445312 149.023438 336.445312 C 149.023438 336.445312 147.96875 336.820312 145.964844 337.453125 C 143.960938 338.042969 140.976562 338.871094 137.058594 339.398438 C 133.171875 339.910156 128.351562 340.210938 122.835938 339.652344 C 117.367188 339.171875 111.160156 337.769531 104.859375 335.089844 C 101.726562 333.730469 98.484375 332.015625 95.546875 329.558594 C 92.566406 327.085938 90.167969 323.773438 88.648438 319.945312 C 85.574219 312.320312 86.011719 303.054688 89.730469 295.007812 C 93.453125 286.976562 99.964844 280.089844 107.933594 275.496094 C 108.898438 274.894531 110 274.394531 111.054688 273.851562 C 112.121094 273.296875 113.101562 272.949219 114.140625 272.496094 C 115.332031 272.03125 116.339844 271.714844 117.457031 271.304688 C 118.570312 271.003906 119.671875 270.644531 120.800781 270.371094 C 125.292969 269.257812 129.917969 268.667969 134.511719 268.535156 C 143.75 268.277344 152.851562 269.769531 161.484375 272 C 170.148438 274.230469 178.316406 277.304688 186.179688 280.167969 C 194.0625 283.027344 201.59375 285.832031 208.902344 287.925781 C 216.210938 289.992188 223.246094 291.453125 229.832031 291.980469 C 236.417969 292.535156 242.488281 292.25 247.777344 291.316406 C 250.355469 290.820312 252.914062 290.214844 255.054688 289.476562 C 257.242188 288.726562 259.183594 287.820312 260.8125 286.8125 C 264.082031 284.792969 266.128906 282.410156 267.035156 280.542969 C 267.277344 280.074219 267.457031 279.667969 267.59375 279.292969 C 267.726562 278.929688 267.832031 278.597656 267.894531 278.34375 C 268.042969 277.816406 268.105469 277.542969 268.105469 277.542969 " fill-opacity="1" fill-rule="nonzero"/><path fill="#cdb696" d="M 223.625 316.585938 C 223.625 316.585938 223.59375 315.621094 223.546875 313.828125 C 223.503906 312.035156 223.292969 309.429688 222.886719 306.113281 C 222.433594 302.8125 221.742188 298.820312 220.398438 294.40625 C 219.042969 290.003906 217.144531 285.136719 214.3125 280.285156 C 211.464844 275.449219 207.699219 270.613281 202.859375 266.484375 C 197.992188 262.402344 192.042969 259.148438 185.425781 256.992188 C 178.828125 254.808594 171.625 253.753906 164.273438 253.4375 C 160.609375 253.300781 156.8125 253.332031 153.183594 253.632812 C 149.519531 253.917969 146.222656 254.730469 143.222656 256.554688 C 141.714844 257.429688 140.269531 258.484375 138.898438 259.660156 L 138.386719 260.097656 L 137.933594 260.53125 L 136.910156 261.527344 C 136.15625 262.191406 135.660156 262.839844 135.054688 263.484375 C 132.734375 266.152344 130.730469 269.242188 129.226562 272.453125 C 126.195312 278.902344 124.808594 286.074219 125.652344 292.808594 C 126.46875 299.484375 129.238281 305.855469 133.683594 310.0625 C 135.839844 312.15625 138.519531 313.648438 141.21875 314.292969 C 143.945312 314.988281 146.792969 314.867188 149.234375 313.992188 C 154.253906 312.289062 156.828125 307.226562 156.796875 302.902344 C 156.796875 300.703125 156.210938 298.699219 155.1875 297.027344 C 154.207031 295.460938 152.867188 294.164062 151.511719 293.304688 C 148.753906 291.574219 146.085938 291.105469 144.324219 291.152344 C 143.433594 291.152344 142.742188 291.242188 142.289062 291.332031 C 141.835938 291.4375 141.609375 291.480469 141.609375 291.480469 C 141.609375 291.480469 141.835938 291.40625 142.289062 291.269531 C 142.726562 291.136719 143.402344 290.984375 144.308594 290.910156 C 146.085938 290.730469 148.917969 290.863281 151.960938 292.550781 C 153.484375 293.394531 154.992188 294.617188 156.257812 296.394531 C 157.460938 298.082031 158.320312 300.371094 158.472656 302.84375 C 158.621094 305.316406 158.15625 308.027344 156.796875 310.527344 C 155.472656 313.042969 153.078125 315.246094 150.167969 316.417969 C 147.246094 317.609375 143.871094 317.910156 140.570312 317.25 C 137.179688 316.585938 134.0625 314.898438 131.394531 312.546875 C 126.074219 307.816406 122.761719 300.808594 121.707031 293.320312 C 120.636719 285.800781 121.902344 277.769531 125.261719 270.613281 C 126.949219 266.996094 129.074219 263.636719 131.742188 260.53125 C 132.433594 259.765625 133.113281 258.9375 133.804688 258.316406 L 134.828125 257.324219 L 135.417969 256.75 L 135.976562 256.253906 C 137.511719 254.941406 139.15625 253.707031 140.949219 252.652344 C 141.851562 252.125 142.785156 251.65625 143.765625 251.234375 C 144.261719 251.023438 144.789062 250.828125 145.210938 250.679688 C 145.769531 250.484375 146.234375 250.347656 146.75 250.195312 C 148.78125 249.652344 150.816406 249.367188 152.804688 249.203125 C 156.769531 248.914062 160.582031 248.914062 164.453125 249.082031 C 172.152344 249.429688 179.714844 250.800781 186.707031 253.226562 C 193.714844 255.636719 200.027344 259.417969 205.074219 263.96875 C 210.136719 268.535156 213.859375 273.867188 216.574219 279.035156 C 219.328125 284.234375 220.941406 289.386719 222.011719 293.984375 C 223.082031 298.578125 223.519531 302.675781 223.761719 306.023438 C 223.851562 307.710938 223.925781 309.21875 223.878906 310.527344 C 223.867188 311.824219 223.867188 312.9375 223.789062 313.84375 C 223.683594 315.621094 223.625 316.585938 223.625 316.585938 " fill-opacity="1" fill-rule="nonzero"/><path fill="#cdb696" d="M 88.992188 298.324219 C 88.992188 298.324219 88.511719 298.667969 87.636719 299.195312 C 86.761719 299.722656 85.496094 300.433594 83.855469 301.109375 C 82.214844 301.757812 80.164062 302.375 77.828125 302.542969 C 76.699219 302.632812 75.386719 302.570312 74.152344 302.359375 C 72.902344 302.148438 71.636719 301.757812 70.429688 301.1875 C 69.238281 300.613281 68.078125 299.859375 67.128906 298.878906 C 66.167969 297.945312 65.375 296.769531 64.890625 295.625 C 64.34375 294.34375 64.140625 293.167969 64.101562 292.007812 C 64.070312 290.863281 64.226562 289.808594 64.507812 288.875 C 64.789062 287.957031 65.171875 287.15625 65.597656 286.511719 C 65.992188 285.863281 66.457031 285.378906 66.832031 285.003906 C 67.21875 284.65625 67.566406 284.414062 67.808594 284.25 C 68.035156 284.113281 68.171875 284.039062 68.171875 284.039062 C 68.171875 284.039062 68.109375 284.175781 68.003906 284.429688 C 67.867188 284.65625 67.761719 285.0625 67.582031 285.5 C 67.429688 285.96875 67.3125 286.523438 67.207031 287.15625 C 67.101562 287.789062 67.085938 288.5 67.101562 289.253906 C 67.128906 290.003906 67.25 290.789062 67.476562 291.574219 C 67.6875 292.324219 68.050781 293.15625 68.441406 293.757812 C 68.910156 294.511719 69.449219 295.097656 70.113281 295.671875 C 70.777344 296.226562 71.546875 296.726562 72.390625 297.117188 C 73.21875 297.523438 74.121094 297.824219 75.039062 298.082031 C 75.976562 298.308594 76.847656 298.457031 77.84375 298.550781 C 79.726562 298.714844 81.609375 298.65625 83.269531 298.5625 C 84.925781 298.488281 86.355469 298.382812 87.382812 298.339844 C 88.390625 298.292969 88.992188 298.324219 88.992188 298.324219 " fill-opacity="1" fill-rule="nonzero"/><path fill="#cdb696" d="M 197.121094 260.789062 L 196.832031 258.84375 L 196.96875 259.085938 C 195.792969 258.484375 194.632812 257.777344 193.5625 256.945312 C 192.507812 256.101562 191.46875 255.214844 190.566406 254.175781 C 188.710938 252.125 187.234375 249.652344 186.390625 246.898438 C 186.164062 246.203125 185.984375 245.539062 185.847656 244.789062 C 185.730469 244.199219 185.652344 243.355469 185.609375 242.617188 C 185.546875 241.140625 185.667969 239.664062 185.96875 238.234375 C 186.558594 235.339844 187.957031 232.582031 190.054688 230.335938 C 191.0625 229.222656 192.386719 228.242188 193.683594 227.578125 C 195.144531 226.828125 196.683594 226.40625 198.203125 226.222656 C 201.25 225.863281 204.382812 226.511719 207.003906 228.136719 C 208.316406 228.949219 209.460938 230.082031 210.320312 231.363281 C 211.191406 232.628906 211.765625 234.074219 212.035156 235.492188 C 212.609375 238.367188 212.277344 241.140625 211.644531 243.730469 L 211.570312 244.046875 L 211.433594 244.15625 C 209.988281 245.195312 208.132812 245.449219 206.628906 244.921875 C 208.210938 244.90625 209.671875 244.214844 210.53125 243.160156 L 210.304688 243.566406 C 210.304688 241.003906 210.078125 238.457031 209.265625 236.273438 C 208.8125 235.1875 208.316406 234.210938 207.578125 233.394531 C 206.898438 232.597656 206.011719 231.980469 205.074219 231.480469 C 203.191406 230.472656 200.886719 230.246094 198.792969 230.578125 C 197.722656 230.742188 196.726562 231.074219 195.871094 231.511719 C 194.84375 232.054688 194.0625 232.671875 193.277344 233.441406 C 191.742188 234.976562 190.699219 237.027344 190.082031 239.210938 C 189.765625 240.296875 189.585938 241.441406 189.554688 242.570312 C 189.539062 243.144531 189.539062 243.597656 189.617188 244.304688 C 189.632812 244.847656 189.707031 245.449219 189.828125 246.023438 C 190.265625 248.328125 191.183594 250.617188 192.492188 252.726562 C 193.789062 254.835938 195.417969 256.8125 197.316406 258.589844 L 197.480469 258.738281 L 197.453125 258.84375 L 197.121094 260.789062 " fill-opacity="1" fill-rule="nonzero"/><path fill="#cdb696" d="M 167.738281 277.199219 C 167.738281 277.199219 167.949219 277.574219 168.371094 278.28125 C 168.582031 278.628906 168.71875 279.125 168.957031 279.683594 C 169.109375 280.273438 169.335938 280.964844 169.378906 281.761719 C 169.574219 283.359375 169.425781 285.410156 168.582031 287.609375 C 167.753906 289.808594 166.261719 292.25 163.699219 294.089844 C 162.417969 294.976562 160.882812 295.761719 159.105469 296.046875 C 157.460938 296.320312 155.441406 296.226562 153.621094 295.714844 C 149.882812 294.707031 146.402344 292.023438 143.992188 288.332031 C 142.785156 286.480469 141.835938 284.339844 141.324219 281.988281 C 140.828125 279.746094 140.707031 277.199219 140.992188 274.742188 C 141.59375 269.785156 143.75 264.855469 147.140625 260.609375 C 150.574219 256.3125 155.203125 252.984375 160.371094 250.484375 C 162.945312 249.21875 165.660156 248.207031 168.414062 247.320312 C 169.785156 246.882812 171.25 246.476562 172.605469 246.097656 C 174.050781 245.722656 175.496094 245.359375 176.945312 245.042969 C 182.789062 243.777344 188.984375 243.023438 195.371094 243.265625 C 197.015625 243.324219 198.507812 243.445312 200.269531 243.65625 C 201.820312 243.882812 203.265625 244.046875 204.957031 244.425781 C 208.269531 245.074219 211.328125 245.976562 214.464844 247.015625 C 226.910156 251.265625 238.34375 257.988281 250.128906 263.425781 C 261.910156 268.804688 274.566406 272.78125 287.527344 275.011719 C 293.992188 276.171875 300.546875 276.910156 307.085938 277.199219 C 313.59375 277.46875 320.359375 277.664062 325.527344 275.949219 C 327.246094 275.328125 328.210938 274.894531 329.566406 274.167969 C 330.816406 273.460938 332.050781 272.675781 333.210938 271.757812 C 335.5625 269.964844 337.71875 267.824219 339.660156 265.492188 C 341.621094 263.15625 343.414062 260.609375 344.980469 258.015625 C 345.417969 257.324219 345.808594 256.644531 346.140625 256.027344 C 346.472656 255.363281 346.847656 254.761719 347.164062 254.070312 L 348.128906 252.050781 L 349.003906 250 C 351.1875 244.484375 352.4375 238.699219 352.152344 233.230469 C 351.972656 227.746094 349.800781 222.714844 346.199219 219.21875 C 342.628906 215.828125 337.519531 214.0625 332.804688 214.394531 C 331.613281 214.457031 330.453125 214.695312 329.339844 214.984375 L 328.511719 215.253906 L 328.300781 215.316406 L 328.195312 215.34375 C 328.089844 215.390625 328.238281 215.316406 328.195312 215.34375 L 327.726562 215.539062 L 326.824219 215.933594 L 326.101562 216.308594 C 324.125 217.363281 322.304688 218.914062 320.839844 220.648438 C 317.859375 224.128906 316.199219 228.5 315.945312 232.6875 C 315.644531 236.875 316.804688 240.988281 318.925781 244.078125 C 321.039062 247.214844 324.203125 249.15625 327.457031 249.535156 C 330.695312 249.96875 333.816406 248.992188 335.910156 247.226562 C 336.148438 246.988281 336.40625 246.761719 336.648438 246.535156 C 336.828125 246.339844 337.097656 246.007812 337.308594 245.75 C 337.671875 245.238281 338.003906 244.726562 338.273438 244.15625 C 338.816406 243.039062 339.132812 241.894531 339.300781 240.792969 C 339.601562 238.609375 339.269531 236.679688 338.710938 235.234375 C 337.566406 232.296875 335.863281 231.4375 335.9375 231.390625 C 335.863281 231.4375 337.625 232.128906 339.089844 235.070312 C 339.796875 236.515625 340.308594 238.503906 340.1875 240.882812 C 340.113281 242.074219 339.886719 243.355469 339.375 244.636719 C 339.132812 245.285156 338.773438 245.949219 338.363281 246.582031 C 338.140625 246.882812 337.988281 247.121094 337.71875 247.46875 C 337.445312 247.753906 337.191406 248.058594 336.917969 248.328125 C 334.644531 250.542969 331.101562 251.960938 327.261719 251.703125 C 325.363281 251.597656 323.296875 251.054688 321.488281 250.046875 C 319.605469 249.019531 317.976562 247.542969 316.59375 245.796875 C 313.878906 242.253906 312.269531 237.585938 312.296875 232.566406 C 312.328125 227.550781 314.089844 222.304688 317.464844 217.921875 C 319.183594 215.722656 321.234375 213.761719 323.855469 212.226562 L 324.863281 211.636719 L 325.753906 211.203125 L 326.207031 210.988281 C 326.21875 210.976562 326.460938 210.871094 326.429688 210.898438 L 326.550781 210.855469 L 326.824219 210.75 L 327.894531 210.34375 C 329.324219 209.890625 330.832031 209.527344 332.351562 209.378906 C 338.5 208.714844 345.011719 210.6875 350.027344 215.089844 L 350.992188 215.992188 C 351.308594 216.292969 351.503906 216.535156 351.761719 216.804688 L 352.136719 217.214844 L 352.300781 217.410156 L 352.589844 217.785156 L 353.328125 218.78125 L 354.066406 219.773438 C 354.292969 220.136719 354.488281 220.496094 354.699219 220.859375 C 355.074219 221.597656 355.585938 222.292969 355.875 223.074219 C 357.320312 226.117188 358.058594 229.464844 358.34375 232.777344 C 358.949219 239.484375 357.5 246.128906 355.195312 252.394531 L 354.261719 254.730469 L 353.207031 257.023438 C 352.5 258.515625 351.625 260.203125 350.839844 261.511719 C 349.152344 264.4375 347.253906 267.222656 345.085938 269.933594 C 342.929688 272.632812 340.472656 275.179688 337.640625 277.4375 C 336.226562 278.570312 334.6875 279.578125 333.078125 280.511719 C 331.539062 281.386719 329.460938 282.277344 328.058594 282.757812 L 327.273438 283.015625 L 326.597656 283.226562 C 326.144531 283.359375 325.691406 283.464844 325.242188 283.570312 C 324.320312 283.796875 323.417969 283.980469 322.515625 284.113281 C 320.707031 284.414062 318.898438 284.566406 317.132812 284.65625 C 313.59375 284.808594 310.21875 284.730469 306.769531 284.613281 C 299.898438 284.324219 293.027344 283.632812 286.214844 282.425781 C 272.625 280 259.378906 275.75 247.070312 270.011719 C 240.921875 267.164062 235.121094 264 229.394531 261.03125 C 223.667969 258.078125 218.003906 255.320312 212.277344 253.253906 C 209.445312 252.246094 206.507812 251.328125 203.71875 250.738281 C 202.394531 250.390625 200.78125 250.179688 199.273438 249.910156 C 198.007812 249.730469 196.457031 249.535156 195.054688 249.441406 C 189.300781 249.035156 183.558594 249.535156 178.042969 250.542969 C 176.671875 250.785156 175.316406 251.085938 173.992188 251.386719 C 172.574219 251.71875 171.292969 252.035156 169.96875 252.425781 C 167.347656 253.164062 164.84375 254.039062 162.464844 255.046875 C 160.082031 256.058594 157.867188 257.277344 155.820312 258.648438 C 155.335938 259.011719 154.808594 259.359375 154.359375 259.71875 L 153.664062 260.261719 L 152.941406 260.894531 C 152.050781 261.648438 151.207031 262.492188 150.441406 263.367188 C 147.351562 266.890625 145.332031 271.09375 144.578125 275.253906 C 144.21875 277.363281 144.1875 279.367188 144.503906 281.402344 C 144.820312 283.332031 145.496094 285.183594 146.433594 286.828125 C 148.316406 290.125 151.191406 292.566406 154.265625 293.636719 C 155.820312 294.179688 157.296875 294.375 158.863281 294.238281 C 160.339844 294.121094 161.695312 293.546875 162.871094 292.839844 C 165.238281 291.390625 166.804688 289.253906 167.769531 287.261719 C 168.71875 285.273438 169.035156 283.332031 168.988281 281.792969 C 168.882812 278.644531 167.617188 277.226562 167.738281 277.199219 " fill-opacity="1" fill-rule="nonzero"/></svg>