<svg xmlns="http://www.w3.org/2000/svg" xmlns:xlink="http://www.w3.org/1999/xlink" width="500" zoomAndPan="magnify" viewBox="0 0 375 149.999998" height="200" preserveAspectRatio="xMidYMid meet" version="1.0"><defs><g/></defs><rect x="-37.5" width="450" fill="#ffffff" y="-15" height="179.999997" fill-opacity="1"/><rect x="-37.5" width="450" fill="#242024" y="-15" height="179.999997" fill-opacity="1"/><rect x="-37.5" width="450" fill="#ffffff" y="-15" height="179.999997" fill-opacity="1"/><rect x="-37.5" width="450" fill="#242024" y="-15" height="179.999997" fill-opacity="1"/><path fill="#e8d8a5" d="M 48.074219 98.636719 L 49.066406 97.171875 L 50.070312 98.03125 L 50.253906 100.878906 Z M 50.761719 102.457031 C 50.820312 102.457031 50.878906 102.445312 50.9375 102.421875 C 51.101562 102.347656 51.203125 102.179688 51.191406 101.996094 L 50.921875 97.792969 C 50.914062 97.675781 50.859375 97.570312 50.769531 97.492188 L 49.261719 96.199219 C 49.164062 96.121094 49.042969 96.082031 48.917969 96.097656 C 48.796875 96.117188 48.6875 96.183594 48.617188 96.285156 L 47.160156 98.441406 C 47.046875 98.613281 47.066406 98.835938 47.210938 98.984375 L 50.449219 102.324219 C 50.53125 102.414062 50.644531 102.457031 50.761719 102.457031 " fill-opacity="1" fill-rule="nonzero"/><path fill="#e8d8a5" d="M 59.929688 98.636719 L 57.75 100.878906 L 57.933594 98.03125 L 58.9375 97.171875 Z M 58.746094 96.199219 L 57.230469 97.492188 C 57.144531 97.570312 57.089844 97.675781 57.082031 97.792969 L 56.8125 101.996094 C 56.800781 102.179688 56.902344 102.347656 57.066406 102.421875 C 57.125 102.445312 57.183594 102.457031 57.242188 102.457031 C 57.355469 102.457031 57.46875 102.414062 57.554688 102.324219 L 60.796875 98.984375 C 60.9375 98.835938 60.957031 98.613281 60.84375 98.441406 L 59.386719 96.285156 C 59.316406 96.183594 59.207031 96.117188 59.085938 96.097656 C 58.960938 96.082031 58.835938 96.121094 58.746094 96.199219 " fill-opacity="1" fill-rule="nonzero"/><path fill="#e8d8a5" d="M 105.988281 31.003906 L 100.46875 36.765625 L 101.332031 31.871094 L 104.675781 29.160156 C 104.730469 29.117188 104.773438 29.058594 104.800781 28.992188 L 106.757812 24.382812 Z M 87.617188 54.582031 L 77.375 60.144531 L 84.335938 51.769531 L 97.476562 40.628906 Z M 70.746094 77.300781 L 68.746094 73.644531 L 74.261719 70.902344 Z M 75.632812 70.207031 L 85.105469 64.3125 L 86.417969 72.835938 L 78.054688 78.0625 L 70.734375 79.714844 L 71.144531 78.371094 Z M 82.667969 62.601562 L 89.226562 60.730469 L 85.207031 63.230469 L 77.820312 67.828125 Z M 87.066406 71.371094 L 85.90625 63.816406 L 91.210938 60.515625 Z M 71.070312 98.761719 L 71.671875 113.191406 L 62.261719 104.699219 L 68.699219 97.128906 C 68.761719 97.054688 68.796875 96.964844 68.800781 96.867188 L 68.957031 92.421875 Z M 64.238281 143.777344 L 72.222656 115.546875 L 76.839844 126.972656 Z M 35.785156 115.542969 L 43.769531 143.78125 L 31.164062 126.972656 Z M 39.046875 92.417969 L 39.203125 96.867188 C 39.207031 96.964844 39.242188 97.054688 39.304688 97.128906 L 45.742188 104.699219 L 36.332031 113.195312 L 36.933594 98.761719 Z M 29.949219 78.0625 L 21.585938 72.835938 L 22.898438 64.3125 L 32.371094 70.207031 L 36.859375 78.367188 L 37.269531 79.714844 Z M 22.097656 63.816406 L 20.9375 71.371094 L 16.792969 60.515625 Z M 25.335938 62.601562 L 30.183594 67.828125 L 22.796875 63.230469 L 18.777344 60.730469 Z M 39.257812 73.644531 L 37.257812 77.300781 L 33.742188 70.902344 Z M 10.53125 40.628906 L 23.667969 51.769531 L 30.628906 60.144531 L 20.386719 54.582031 Z M 1.246094 24.382812 L 3.203125 28.992188 C 3.230469 29.058594 3.273438 29.117188 3.328125 29.160156 L 6.671875 31.871094 L 7.535156 36.765625 L 2.015625 31.003906 Z M 14.082031 3.726562 L 10.246094 19.132812 L 7.171875 29.730469 L 5.421875 19.84375 Z M 11.671875 29.644531 C 11.675781 29.675781 11.683594 29.710938 11.695312 29.738281 L 13.3125 33.800781 L 8.515625 37.335938 L 7.511719 31.664062 L 10.449219 21.542969 Z M 13.480469 21.058594 L 15.664062 17.390625 L 14.375 23.453125 C 14.371094 23.46875 14.367188 23.488281 14.367188 23.503906 L 13.574219 32.117188 L 12.519531 29.464844 L 12.242188 27.644531 Z M 21.65625 26.136719 C 21.636719 26.167969 21.625 26.199219 21.617188 26.230469 L 18.46875 37.6875 L 18.46875 25.664062 L 26.121094 18.109375 Z M 15.699219 37.339844 L 17.605469 29.222656 L 17.605469 39.683594 Z M 22.417969 49.578125 L 8.90625 38.121094 L 13.644531 34.632812 L 14.828125 37.609375 C 14.828125 37.613281 14.832031 37.617188 14.835938 37.621094 C 14.851562 37.65625 14.867188 37.691406 14.894531 37.722656 L 17.679688 41.144531 Z M 35.613281 38.730469 L 38.589844 35.613281 L 37.246094 38.421875 C 37.246094 38.425781 37.246094 38.429688 37.246094 38.429688 C 37.242188 38.433594 37.242188 38.4375 37.242188 38.4375 L 34.675781 44.394531 Z M 41.117188 57.882812 L 35.695312 56.195312 L 34.121094 47.875 L 37.113281 40.921875 L 36.828125 48.214844 C 36.824219 48.28125 36.839844 48.347656 36.863281 48.40625 Z M 70.890625 40.921875 L 73.882812 47.875 L 72.308594 56.195312 L 66.886719 57.882812 L 71.136719 48.40625 C 71.164062 48.347656 71.179688 48.28125 71.175781 48.214844 Z M 72.390625 38.730469 L 73.328125 44.394531 L 70.761719 38.4375 C 70.761719 38.4375 70.761719 38.433594 70.757812 38.429688 C 70.757812 38.429688 70.757812 38.425781 70.757812 38.421875 L 69.414062 35.613281 Z M 75.367188 61.203125 L 62.710938 63.75 L 66.359375 58.953125 L 72.816406 56.945312 C 72.832031 56.9375 72.847656 56.933594 72.863281 56.925781 L 82.503906 52.617188 Z M 67.742188 73.296875 L 64.238281 79.035156 L 58.988281 81.078125 L 54.527344 72.402344 L 61.722656 64.96875 L 68.429688 69.765625 Z M 68.394531 84.40625 L 62.941406 96.457031 L 59.457031 90.636719 L 59.222656 81.914062 L 64.652344 79.804688 L 65.921875 79.5625 L 65.488281 81.316406 C 65.460938 81.429688 65.480469 81.550781 65.542969 81.652344 C 65.605469 81.75 65.707031 81.820312 65.820312 81.84375 L 68.972656 82.511719 Z M 54.4375 127.316406 L 54.4375 109.820312 L 56.808594 109.542969 C 56.890625 109.53125 56.964844 109.5 57.03125 109.449219 L 60.753906 106.457031 C 60.773438 106.445312 60.785156 106.429688 60.800781 106.414062 C 60.804688 106.410156 60.808594 106.40625 60.8125 106.402344 L 60.816406 106.398438 C 60.816406 106.398438 60.816406 106.398438 60.820312 106.398438 L 61.699219 105.359375 L 71.476562 114.179688 Z M 47.1875 106.398438 L 47.191406 106.402344 C 47.195312 106.410156 47.203125 106.414062 47.207031 106.417969 C 47.222656 106.433594 47.234375 106.445312 47.25 106.457031 L 50.972656 109.449219 C 51.039062 109.5 51.113281 109.53125 51.195312 109.542969 L 53.570312 109.820312 L 53.570312 127.316406 L 36.53125 114.179688 L 46.304688 105.359375 Z M 39.714844 86.738281 L 44.585938 97.503906 L 45.070312 102.574219 L 40.0625 96.683594 Z M 42.183594 81.84375 C 42.296875 81.820312 42.398438 81.75 42.460938 81.652344 C 42.523438 81.550781 42.542969 81.429688 42.511719 81.316406 L 42.078125 79.5625 L 43.351562 79.804688 L 48.78125 81.914062 L 48.546875 90.636719 L 45.0625 96.457031 L 39.609375 84.40625 L 39.03125 82.511719 Z M 46.28125 64.96875 L 53.476562 72.402344 L 49.015625 81.078125 L 43.761719 79.035156 L 40.261719 73.296875 L 39.574219 69.765625 Z M 53.570312 71.257812 L 47.480469 64.964844 L 53.570312 65.648438 Z M 54.4375 65.648438 L 60.523438 64.964844 L 54.4375 71.253906 Z M 58.351562 81.734375 L 58.578125 90.257812 L 54.4375 89.632812 L 54.4375 74.117188 Z M 54.4375 106.554688 L 59.253906 106.554688 L 56.585938 108.699219 L 54.4375 108.953125 Z M 53.570312 106.554688 L 53.570312 108.953125 L 51.417969 108.699219 L 48.75 106.554688 Z M 53.570312 89.632812 L 49.421875 90.257812 L 49.652344 81.734375 L 53.570312 74.109375 Z M 46.050781 103.722656 L 45.453125 97.492188 L 49.242188 91.15625 L 53.570312 90.507812 L 53.570312 105.691406 L 47.71875 105.691406 Z M 61.953125 103.726562 L 60.285156 105.691406 L 54.4375 105.691406 L 54.4375 90.507812 L 58.757812 91.15625 L 62.550781 97.488281 Z M 35.140625 56.925781 C 35.15625 56.933594 35.171875 56.9375 35.1875 56.945312 L 41.644531 58.953125 L 45.292969 63.75 L 32.636719 61.203125 L 25.5 52.617188 Z M 39.171875 68.992188 L 33.527344 62.265625 L 45.269531 64.628906 Z M 39.871094 74.320312 L 42.59375 78.777344 L 37.925781 77.886719 Z M 37.882812 78.761719 L 41.144531 79.382812 L 41.566406 81.089844 L 38.777344 81.683594 Z M 45.179688 145.582031 L 36.628906 115.347656 L 53.570312 128.40625 L 53.570312 148.929688 Z M 62.828125 145.578125 L 54.4375 148.929688 L 54.4375 128.40625 L 71.378906 115.347656 Z M 67.941406 96.683594 L 62.933594 102.574219 L 63.417969 97.503906 L 68.289062 86.738281 Z M 69.226562 81.683594 L 66.4375 81.089844 L 66.859375 79.382812 L 70.121094 78.761719 Z M 70.078125 77.886719 L 65.410156 78.777344 L 68.128906 74.320312 Z M 68.832031 68.992188 L 62.734375 64.628906 L 74.480469 62.265625 Z M 90.324219 41.144531 L 93.105469 37.730469 C 93.105469 37.726562 93.105469 37.726562 93.105469 37.726562 L 93.109375 37.722656 C 93.136719 37.691406 93.15625 37.65625 93.171875 37.621094 C 93.171875 37.617188 93.175781 37.613281 93.175781 37.609375 L 94.359375 34.632812 L 99.097656 38.121094 L 85.582031 49.578125 Z M 86.386719 26.230469 C 86.378906 26.199219 86.363281 26.167969 86.347656 26.136719 L 81.882812 18.109375 L 89.53125 25.664062 L 89.53125 37.6875 Z M 90.398438 29.222656 L 92.304688 37.34375 L 90.398438 39.683594 Z M 93.636719 23.503906 C 93.636719 23.488281 93.632812 23.46875 93.628906 23.453125 L 92.339844 17.390625 L 94.523438 21.058594 L 95.761719 27.644531 L 95.484375 29.464844 L 94.429688 32.117188 Z M 97.554688 21.539062 L 100.492188 31.664062 L 99.488281 37.335938 L 94.691406 33.800781 L 96.308594 29.738281 C 96.320312 29.710938 96.328125 29.675781 96.335938 29.644531 Z M 102.582031 19.84375 L 100.832031 29.730469 L 97.761719 19.136719 L 93.921875 3.726562 Z M 107.644531 21.023438 C 107.4375 20.96875 107.21875 21.074219 107.136719 21.273438 L 104.046875 28.558594 L 101.5625 30.574219 L 103.460938 19.84375 C 103.476562 19.75 103.460938 19.652344 103.414062 19.566406 L 93.046875 0.269531 C 92.945312 0.0742188 92.714844 -0.0078125 92.511719 0.0703125 C 92.304688 0.148438 92.195312 0.367188 92.246094 0.578125 L 96.976562 19.574219 L 96.152344 25.042969 L 95.359375 20.820312 C 95.351562 20.773438 95.332031 20.722656 95.304688 20.679688 L 91.742188 14.699219 C 91.632812 14.515625 91.410156 14.4375 91.210938 14.515625 C 91.015625 14.59375 90.902344 14.800781 90.945312 15.007812 L 92.777344 23.609375 L 93.726562 33.890625 L 92.878906 36.011719 L 90.386719 25.386719 C 90.386719 25.378906 90.382812 25.375 90.382812 25.371094 C 90.375 25.34375 90.363281 25.3125 90.351562 25.289062 C 90.34375 25.277344 90.339844 25.269531 90.335938 25.261719 C 90.316406 25.230469 90.296875 25.203125 90.269531 25.175781 L 80.335938 15.367188 C 80.179688 15.214844 79.941406 15.199219 79.769531 15.328125 C 79.597656 15.457031 79.546875 15.695312 79.652344 15.882812 L 85.566406 26.511719 L 89.5 40.84375 L 83.71875 51.128906 L 73.265625 55.800781 L 74.757812 47.90625 C 74.769531 47.863281 74.765625 47.8125 74.761719 47.765625 C 74.761719 47.761719 74.761719 47.757812 74.761719 47.757812 L 73.222656 38.457031 C 73.207031 38.371094 73.167969 38.292969 73.109375 38.230469 L 68.167969 33.054688 C 68.023438 32.902344 67.785156 32.875 67.609375 32.996094 C 67.433594 33.117188 67.371094 33.347656 67.464844 33.539062 L 69.9375 38.714844 L 70.308594 48.144531 L 65.726562 58.359375 L 61.441406 63.992188 L 54 64.828125 L 46.566406 63.992188 L 42.277344 58.359375 L 37.695312 48.144531 L 38.066406 38.714844 L 40.539062 33.539062 C 40.632812 33.347656 40.570312 33.117188 40.394531 32.996094 C 40.21875 32.878906 39.984375 32.902344 39.835938 33.054688 L 34.894531 38.230469 C 34.835938 38.292969 34.796875 38.371094 34.78125 38.457031 L 33.242188 47.757812 C 33.242188 47.757812 33.242188 47.761719 33.242188 47.765625 C 33.234375 47.8125 33.234375 47.859375 33.242188 47.90625 L 34.738281 55.800781 L 24.285156 51.128906 L 18.503906 40.84375 L 22.4375 26.511719 L 28.351562 15.882812 C 28.457031 15.695312 28.40625 15.457031 28.234375 15.328125 C 28.0625 15.199219 27.820312 15.214844 27.667969 15.367188 L 17.734375 25.175781 C 17.707031 25.203125 17.6875 25.230469 17.667969 25.261719 C 17.664062 25.269531 17.660156 25.277344 17.65625 25.285156 C 17.640625 25.3125 17.628906 25.34375 17.621094 25.371094 C 17.621094 25.375 17.617188 25.378906 17.617188 25.386719 L 15.121094 36.011719 L 14.277344 33.890625 L 15.226562 23.609375 L 17.058594 15.007812 C 17.101562 14.800781 16.988281 14.59375 16.792969 14.515625 C 16.59375 14.4375 16.371094 14.515625 16.261719 14.699219 L 12.699219 20.679688 C 12.671875 20.722656 12.652344 20.773438 12.644531 20.820312 L 11.851562 25.042969 L 11.027344 19.574219 L 15.757812 0.578125 C 15.8125 0.367188 15.695312 0.148438 15.492188 0.0703125 C 15.289062 -0.0078125 15.058594 0.078125 14.957031 0.269531 L 4.589844 19.566406 C 4.542969 19.652344 4.527344 19.75 4.542969 19.84375 L 6.441406 30.574219 L 3.957031 28.558594 L 0.867188 21.273438 C 0.785156 21.074219 0.566406 20.96875 0.359375 21.023438 C 0.152344 21.078125 0.015625 21.277344 0.0390625 21.492188 L 1.171875 31.246094 C 1.183594 31.339844 1.226562 31.429688 1.289062 31.496094 L 7.875 38.371094 L 19.734375 55.164062 C 19.773438 55.21875 19.824219 55.261719 19.882812 55.292969 L 32.121094 61.9375 L 38.691406 69.769531 L 39.261719 72.679688 L 32.960938 69.546875 L 25.886719 61.925781 C 25.832031 61.867188 25.765625 61.824219 25.6875 61.804688 L 16.058594 59.054688 C 15.882812 59 15.6875 59.066406 15.578125 59.222656 C 15.566406 59.234375 15.558594 59.25 15.550781 59.265625 C 15.507812 59.347656 15.492188 59.4375 15.503906 59.523438 C 15.503906 59.546875 15.507812 59.566406 15.515625 59.585938 C 15.515625 59.589844 15.515625 59.589844 15.515625 59.589844 C 15.519531 59.601562 15.523438 59.613281 15.527344 59.628906 L 20.710938 73.207031 C 20.710938 73.210938 20.714844 73.210938 20.714844 73.214844 C 20.730469 73.253906 20.75 73.289062 20.777344 73.320312 C 20.78125 73.324219 20.785156 73.332031 20.792969 73.335938 C 20.820312 73.367188 20.847656 73.394531 20.882812 73.417969 C 20.882812 73.417969 20.886719 73.417969 20.886719 73.417969 L 20.886719 73.421875 C 20.886719 73.421875 20.890625 73.421875 20.890625 73.421875 L 29.550781 78.835938 C 29.59375 78.863281 29.640625 78.878906 29.6875 78.890625 L 37.5625 80.664062 L 38.773438 84.632812 L 38.960938 89.941406 L 36.09375 98.546875 C 36.082031 98.585938 36.074219 98.625 36.070312 98.664062 L 35.425781 114.113281 L 30.269531 126.875 C 30.214844 127.015625 30.234375 127.175781 30.328125 127.296875 L 44.472656 146.160156 C 44.496094 146.195312 44.527344 146.222656 44.558594 146.246094 C 44.566406 146.25 44.574219 146.253906 44.578125 146.257812 C 44.605469 146.273438 44.628906 146.292969 44.660156 146.304688 L 53.839844 149.96875 C 53.847656 149.972656 53.855469 149.972656 53.863281 149.976562 C 53.875 149.980469 53.882812 149.980469 53.890625 149.984375 C 53.925781 149.992188 53.964844 150 54 150 C 54.039062 150 54.078125 149.992188 54.113281 149.984375 C 54.121094 149.980469 54.128906 149.980469 54.140625 149.976562 C 54.148438 149.972656 54.15625 149.972656 54.164062 149.96875 L 63.324219 146.3125 C 63.324219 146.3125 63.324219 146.3125 63.328125 146.308594 L 63.34375 146.304688 C 63.359375 146.296875 63.375 146.285156 63.390625 146.277344 C 63.441406 146.25 63.488281 146.214844 63.527344 146.164062 C 63.527344 146.164062 63.527344 146.164062 63.53125 146.160156 C 63.535156 146.152344 63.542969 146.148438 63.546875 146.140625 L 77.675781 127.296875 C 77.769531 127.175781 77.789062 127.015625 77.730469 126.875 L 72.578125 114.113281 L 71.929688 98.664062 C 71.929688 98.625 71.921875 98.585938 71.910156 98.546875 L 69.042969 89.941406 L 69.230469 84.632812 L 70.441406 80.664062 L 78.316406 78.890625 C 78.363281 78.878906 78.410156 78.863281 78.453125 78.835938 L 87.113281 73.421875 C 87.117188 73.421875 87.117188 73.421875 87.117188 73.421875 L 87.117188 73.417969 C 87.117188 73.417969 87.121094 73.417969 87.121094 73.417969 C 87.15625 73.394531 87.1875 73.367188 87.210938 73.335938 C 87.21875 73.332031 87.222656 73.324219 87.226562 73.320312 C 87.253906 73.289062 87.273438 73.253906 87.289062 73.214844 C 87.289062 73.210938 87.292969 73.210938 87.292969 73.207031 L 92.476562 59.628906 C 92.480469 59.617188 92.484375 59.605469 92.484375 59.59375 C 92.492188 59.570312 92.5 59.546875 92.5 59.519531 C 92.511719 59.433594 92.496094 59.34375 92.453125 59.265625 C 92.445312 59.25 92.4375 59.234375 92.425781 59.222656 C 92.316406 59.066406 92.121094 59.003906 91.945312 59.054688 L 82.3125 61.804688 C 82.238281 61.824219 82.167969 61.867188 82.117188 61.925781 L 75.042969 69.546875 L 68.742188 72.679688 L 69.3125 69.769531 L 75.882812 61.9375 L 88.121094 55.292969 C 88.179688 55.261719 88.230469 55.21875 88.269531 55.164062 L 100.128906 38.371094 L 106.714844 31.496094 C 106.777344 31.429688 106.820312 31.339844 106.832031 31.246094 L 107.964844 21.492188 C 107.988281 21.277344 107.855469 21.078125 107.644531 21.023438 " fill-opacity="1" fill-rule="nonzero"/><g fill="#e8d8a5" fill-opacity="1"><g transform="translate(103.283323, 104.157838)"><g><path d="M 7.21875 -16.875 C 9.125 -16.875 10.554688 -16.535156 11.515625 -15.859375 C 12.484375 -15.191406 12.914062 -14.160156 12.8125 -12.765625 C 12.769531 -11.921875 12.394531 -11.144531 11.6875 -10.4375 C 10.976562 -9.726562 9.992188 -9.265625 8.734375 -9.046875 L 8.734375 -9 C 10.367188 -9 11.613281 -8.632812 12.46875 -7.90625 C 13.320312 -7.1875 13.75 -6.21875 13.75 -5 C 13.75 -3.976562 13.492188 -3.085938 12.984375 -2.328125 C 12.484375 -1.578125 11.789062 -1 10.90625 -0.59375 C 10.03125 -0.195312 9.03125 0 7.90625 0 L 0.96875 0 L 1.015625 -0.796875 C 1.578125 -0.804688 1.976562 -0.929688 2.21875 -1.171875 C 2.46875 -1.410156 2.617188 -1.703125 2.671875 -2.046875 C 2.734375 -2.398438 2.789062 -3.007812 2.84375 -3.875 L 3.359375 -13.96875 C 3.378906 -14.71875 3.4375 -15.351562 3.53125 -15.875 L 1.78125 -15.78125 L 1.859375 -16.828125 C 2.992188 -16.828125 3.84375 -16.835938 4.40625 -16.859375 Z M 7.28125 -16.015625 C 6.769531 -16.015625 6.378906 -15.941406 6.109375 -15.796875 C 5.847656 -15.648438 5.664062 -15.414062 5.5625 -15.09375 C 5.457031 -14.78125 5.390625 -14.3125 5.359375 -13.6875 L 5.125 -9.203125 C 5.582031 -9.203125 6.164062 -9.222656 6.875 -9.265625 C 8.1875 -9.304688 9.148438 -9.691406 9.765625 -10.421875 C 10.390625 -11.148438 10.703125 -12.035156 10.703125 -13.078125 C 10.703125 -14.171875 10.367188 -14.929688 9.703125 -15.359375 C 9.035156 -15.796875 8.226562 -16.015625 7.28125 -16.015625 Z M 7.546875 -8.34375 C 6.671875 -8.34375 5.847656 -8.316406 5.078125 -8.265625 L 4.78125 -2.859375 C 4.738281 -1.960938 4.679688 -1.335938 4.609375 -0.984375 C 4.921875 -0.953125 5.5 -0.9375 6.34375 -0.9375 L 7.171875 -0.9375 C 8.492188 -0.9375 9.546875 -1.269531 10.328125 -1.9375 C 11.109375 -2.613281 11.5 -3.585938 11.5 -4.859375 C 11.5 -6.078125 11.132812 -6.960938 10.40625 -7.515625 C 9.675781 -8.066406 8.722656 -8.34375 7.546875 -8.34375 Z M 7.546875 -8.34375 "/></g></g></g><g fill="#e8d8a5" fill-opacity="1"><g transform="translate(123.332124, 104.157838)"><g><path d="M 13.25 -12.625 L 12.453125 -12.625 C 12.515625 -13.9375 12.273438 -14.832031 11.734375 -15.3125 C 11.191406 -15.800781 10.40625 -16.023438 9.375 -15.984375 L 7.3125 -15.9375 C 6.726562 -15.925781 6.304688 -15.820312 6.046875 -15.625 C 5.785156 -15.4375 5.613281 -15.160156 5.53125 -14.796875 C 5.445312 -14.441406 5.382812 -13.867188 5.34375 -13.078125 L 5.125 -9.234375 L 6.859375 -9.203125 C 7.609375 -9.191406 8.179688 -9.234375 8.578125 -9.328125 C 8.984375 -9.421875 9.289062 -9.628906 9.5 -9.953125 C 9.707031 -10.273438 9.828125 -10.78125 9.859375 -11.46875 L 10.65625 -11.46875 L 10.390625 -6.234375 L 9.59375 -6.234375 C 9.613281 -6.835938 9.5625 -7.289062 9.4375 -7.59375 C 9.320312 -7.90625 9.117188 -8.113281 8.828125 -8.21875 C 8.535156 -8.320312 8.125 -8.375 7.59375 -8.375 L 6.828125 -8.34375 L 5.078125 -8.265625 L 4.78125 -2.765625 C 4.738281 -1.867188 4.679688 -1.242188 4.609375 -0.890625 L 9.203125 -0.96875 C 10.328125 -0.976562 11.203125 -1.257812 11.828125 -1.8125 C 12.453125 -2.363281 12.796875 -3.320312 12.859375 -4.6875 L 13.6875 -4.6875 L 13.296875 0 L 0.984375 0 L 1.03125 -0.796875 C 1.59375 -0.804688 2 -0.929688 2.25 -1.171875 C 2.5 -1.410156 2.648438 -1.695312 2.703125 -2.03125 C 2.765625 -2.375 2.8125 -2.945312 2.84375 -3.75 L 3.421875 -14.140625 C 3.429688 -14.679688 3.484375 -15.257812 3.578125 -15.875 L 1.828125 -15.78125 L 1.875 -16.828125 L 13.34375 -16.828125 Z M 13.25 -12.625 "/></g></g></g><g fill="#e8d8a5" fill-opacity="1"><g transform="translate(143.380925, 104.157838)"><g><path d="M 13.25 -12.625 L 12.453125 -12.625 C 12.515625 -13.9375 12.273438 -14.832031 11.734375 -15.3125 C 11.191406 -15.800781 10.40625 -16.023438 9.375 -15.984375 L 7.3125 -15.9375 C 6.726562 -15.925781 6.304688 -15.820312 6.046875 -15.625 C 5.785156 -15.4375 5.613281 -15.160156 5.53125 -14.796875 C 5.445312 -14.441406 5.382812 -13.867188 5.34375 -13.078125 L 5.125 -9.234375 L 6.859375 -9.203125 C 7.609375 -9.191406 8.179688 -9.234375 8.578125 -9.328125 C 8.984375 -9.421875 9.289062 -9.628906 9.5 -9.953125 C 9.707031 -10.273438 9.828125 -10.78125 9.859375 -11.46875 L 10.65625 -11.46875 L 10.390625 -6.234375 L 9.59375 -6.234375 C 9.613281 -6.835938 9.5625 -7.289062 9.4375 -7.59375 C 9.320312 -7.90625 9.117188 -8.113281 8.828125 -8.21875 C 8.535156 -8.320312 8.125 -8.375 7.59375 -8.375 L 6.828125 -8.34375 L 5.078125 -8.265625 L 4.78125 -2.765625 C 4.738281 -1.867188 4.679688 -1.242188 4.609375 -0.890625 L 9.203125 -0.96875 C 10.328125 -0.976562 11.203125 -1.257812 11.828125 -1.8125 C 12.453125 -2.363281 12.796875 -3.320312 12.859375 -4.6875 L 13.6875 -4.6875 L 13.296875 0 L 0.984375 0 L 1.03125 -0.796875 C 1.59375 -0.804688 2 -0.929688 2.25 -1.171875 C 2.5 -1.410156 2.648438 -1.695312 2.703125 -2.03125 C 2.765625 -2.375 2.8125 -2.945312 2.84375 -3.75 L 3.421875 -14.140625 C 3.429688 -14.679688 3.484375 -15.257812 3.578125 -15.875 L 1.828125 -15.78125 L 1.875 -16.828125 L 13.34375 -16.828125 Z M 13.25 -12.625 "/></g></g></g><g fill="#e8d8a5" fill-opacity="1"><g transform="translate(163.429724, 104.157838)"><g><path d="M 7.28125 -16.875 C 9.4375 -16.84375 11.007812 -16.46875 12 -15.75 C 12.988281 -15.03125 13.484375 -14.035156 13.484375 -12.765625 C 13.484375 -11.609375 13.144531 -10.566406 12.46875 -9.640625 C 11.789062 -8.722656 10.578125 -8.09375 8.828125 -7.75 L 8.828125 -7.71875 C 9.097656 -7.507812 9.351562 -7.238281 9.59375 -6.90625 C 9.832031 -6.582031 10.101562 -6.164062 10.40625 -5.65625 L 11.90625 -3.078125 C 12.226562 -2.515625 12.492188 -2.082031 12.703125 -1.78125 C 12.921875 -1.488281 13.191406 -1.25 13.515625 -1.0625 C 13.835938 -0.882812 14.238281 -0.796875 14.71875 -0.796875 L 14.671875 0 L 11.734375 0 C 11.398438 -0.269531 11.078125 -0.625 10.765625 -1.0625 C 10.453125 -1.507812 10.109375 -2.046875 9.734375 -2.671875 L 8.265625 -5.25 C 8.222656 -5.34375 8.109375 -5.554688 7.921875 -5.890625 C 7.734375 -6.222656 7.539062 -6.53125 7.34375 -6.8125 C 7.15625 -7.09375 6.96875 -7.332031 6.78125 -7.53125 C 6.601562 -7.507812 6.332031 -7.5 5.96875 -7.5 L 5.03125 -7.53125 L 4.78125 -2.859375 C 4.738281 -1.941406 4.679688 -1.3125 4.609375 -0.96875 L 6.34375 -1.0625 L 6.296875 0 L 0.984375 0 L 1.03125 -0.796875 C 1.59375 -0.804688 2 -0.929688 2.25 -1.171875 C 2.5 -1.410156 2.648438 -1.695312 2.703125 -2.03125 C 2.765625 -2.375 2.8125 -2.945312 2.84375 -3.75 L 3.390625 -14.140625 C 3.410156 -14.679688 3.46875 -15.257812 3.5625 -15.875 L 1.796875 -15.78125 L 1.875 -16.828125 C 3.832031 -16.859375 5.285156 -16.875 6.234375 -16.875 Z M 7.140625 -15.96875 C 6.609375 -15.96875 6.21875 -15.863281 5.96875 -15.65625 C 5.726562 -15.445312 5.570312 -15.160156 5.5 -14.796875 C 5.425781 -14.441406 5.375 -13.910156 5.34375 -13.203125 L 5.078125 -8.46875 C 5.554688 -8.4375 5.90625 -8.421875 6.125 -8.421875 C 9.539062 -8.421875 11.25 -9.8125 11.25 -12.59375 C 11.25 -13.71875 10.910156 -14.5625 10.234375 -15.125 C 9.566406 -15.6875 8.535156 -15.96875 7.140625 -15.96875 Z M 7.140625 -15.96875 "/></g></g></g><g fill="#e8d8a5" fill-opacity="1"><g transform="translate(183.622751, 104.157838)"><g/></g></g><g fill="#e8d8a5" fill-opacity="1"><g transform="translate(195.114346, 104.157838)"><g><path d="M 9.9375 -17.21875 C 11.707031 -17.21875 13.191406 -16.8125 14.390625 -16 C 15.597656 -15.1875 16.488281 -14.144531 17.0625 -12.875 C 17.644531 -11.601562 17.9375 -10.269531 17.9375 -8.875 C 17.9375 -7.425781 17.601562 -5.988281 16.9375 -4.5625 C 16.269531 -3.132812 15.273438 -1.953125 13.953125 -1.015625 C 12.628906 -0.078125 11.039062 0.390625 9.1875 0.390625 C 7.40625 0.390625 5.910156 -0.0078125 4.703125 -0.8125 C 3.503906 -1.613281 2.613281 -2.644531 2.03125 -3.90625 C 1.457031 -5.164062 1.171875 -6.484375 1.171875 -7.859375 C 1.171875 -9.523438 1.535156 -11.070312 2.265625 -12.5 C 2.992188 -13.925781 4.019531 -15.066406 5.34375 -15.921875 C 6.664062 -16.785156 8.195312 -17.21875 9.9375 -17.21875 Z M 9.8125 -16.25 C 8.53125 -16.25 7.40625 -15.859375 6.4375 -15.078125 C 5.476562 -14.296875 4.742188 -13.285156 4.234375 -12.046875 C 3.734375 -10.816406 3.484375 -9.550781 3.484375 -8.25 C 3.484375 -7.039062 3.6875 -5.851562 4.09375 -4.6875 C 4.507812 -3.519531 5.148438 -2.546875 6.015625 -1.765625 C 6.890625 -0.984375 7.988281 -0.59375 9.3125 -0.59375 C 10.625 -0.59375 11.753906 -0.984375 12.703125 -1.765625 C 13.660156 -2.546875 14.382812 -3.539062 14.875 -4.75 C 15.375 -5.957031 15.625 -7.203125 15.625 -8.484375 C 15.625 -9.785156 15.398438 -11.03125 14.953125 -12.21875 C 14.503906 -13.414062 13.835938 -14.382812 12.953125 -15.125 C 12.078125 -15.875 11.03125 -16.25 9.8125 -16.25 Z M 9.8125 -16.25 "/></g></g></g><g fill="#e8d8a5" fill-opacity="1"><g transform="translate(219.225418, 104.157838)"><g><path d="M 7.125 -16.046875 C 6.59375 -16.023438 6.203125 -15.894531 5.953125 -15.65625 C 5.703125 -15.414062 5.539062 -15.101562 5.46875 -14.71875 C 5.394531 -14.34375 5.34375 -13.796875 5.3125 -13.078125 L 4.765625 -2.765625 C 4.710938 -1.867188 4.65625 -1.242188 4.59375 -0.890625 L 9.09375 -0.96875 C 10.132812 -1 10.925781 -1.328125 11.46875 -1.953125 C 12.007812 -2.578125 12.316406 -3.585938 12.390625 -4.984375 L 13.203125 -4.984375 L 12.796875 0 L 0.96875 0 L 1.015625 -0.796875 C 1.578125 -0.804688 1.976562 -0.929688 2.21875 -1.171875 C 2.46875 -1.410156 2.613281 -1.691406 2.65625 -2.015625 C 2.707031 -2.335938 2.757812 -2.914062 2.8125 -3.75 L 3.390625 -14.140625 C 3.410156 -14.265625 3.429688 -14.519531 3.453125 -14.90625 C 3.472656 -15.289062 3.507812 -15.613281 3.5625 -15.875 L 1.859375 -15.78125 L 1.859375 -16.828125 L 7.171875 -16.828125 Z M 7.125 -16.046875 "/></g></g></g><g fill="#e8d8a5" fill-opacity="1"><g transform="translate(238.264653, 104.157838)"><g><path d="M 7.4375 -16.859375 C 10.320312 -16.867188 12.585938 -16.21875 14.234375 -14.90625 C 15.890625 -13.59375 16.71875 -11.640625 16.71875 -9.046875 C 16.71875 -7.421875 16.351562 -5.921875 15.625 -4.546875 C 14.90625 -3.179688 13.828125 -2.082031 12.390625 -1.25 C 10.960938 -0.414062 9.226562 0 7.1875 0 L 0.96875 0 L 1.015625 -0.796875 C 1.578125 -0.804688 1.976562 -0.929688 2.21875 -1.171875 C 2.46875 -1.410156 2.617188 -1.695312 2.671875 -2.03125 C 2.734375 -2.375 2.78125 -2.945312 2.8125 -3.75 L 3.390625 -14.140625 C 3.453125 -14.941406 3.507812 -15.519531 3.5625 -15.875 L 1.78125 -15.78125 L 1.859375 -16.828125 Z M 7.28125 -15.96875 C 6.6875 -15.96875 6.257812 -15.875 6 -15.6875 C 5.738281 -15.5 5.566406 -15.234375 5.484375 -14.890625 C 5.398438 -14.546875 5.34375 -14 5.3125 -13.25 L 4.765625 -2.84375 C 4.710938 -1.9375 4.65625 -1.3125 4.59375 -0.96875 C 5.300781 -0.925781 6.160156 -0.90625 7.171875 -0.90625 C 8.597656 -0.90625 9.863281 -1.265625 10.96875 -1.984375 C 12.070312 -2.710938 12.929688 -3.703125 13.546875 -4.953125 C 14.160156 -6.203125 14.46875 -7.597656 14.46875 -9.140625 C 14.46875 -11.273438 13.867188 -12.945312 12.671875 -14.15625 C 11.472656 -15.363281 9.675781 -15.96875 7.28125 -15.96875 Z M 7.28125 -15.96875 "/></g></g></g><g fill="#e8d8a5" fill-opacity="1"><g transform="translate(261.17387, 104.157838)"><g><path d="M 6.828125 -17.21875 C 7.535156 -17.21875 8.253906 -17.125 8.984375 -16.9375 C 9.710938 -16.757812 10.363281 -16.441406 10.9375 -15.984375 L 10.890625 -17.03125 L 12.125 -17.03125 L 11.859375 -11.734375 L 10.984375 -11.734375 C 10.972656 -13.003906 10.617188 -14.070312 9.921875 -14.9375 C 9.234375 -15.8125 8.234375 -16.25 6.921875 -16.25 C 5.929688 -16.25 5.140625 -15.957031 4.546875 -15.375 C 3.953125 -14.789062 3.65625 -14.082031 3.65625 -13.25 C 3.65625 -12.644531 3.832031 -12.117188 4.1875 -11.671875 C 4.539062 -11.234375 4.972656 -10.859375 5.484375 -10.546875 C 5.992188 -10.242188 6.695312 -9.882812 7.59375 -9.46875 C 8.625 -9.007812 9.457031 -8.582031 10.09375 -8.1875 C 10.738281 -7.789062 11.28125 -7.285156 11.71875 -6.671875 C 12.164062 -6.066406 12.390625 -5.328125 12.390625 -4.453125 C 12.390625 -3.503906 12.15625 -2.664062 11.6875 -1.9375 C 11.21875 -1.207031 10.539062 -0.632812 9.65625 -0.21875 C 8.78125 0.1875 7.734375 0.390625 6.515625 0.390625 C 5.773438 0.390625 5.023438 0.304688 4.265625 0.140625 C 3.503906 -0.015625 2.851562 -0.28125 2.3125 -0.65625 L 2.375 0.1875 L 1.125 0.1875 L 1.25 -4.921875 L 2.1875 -4.921875 C 2.207031 -3.503906 2.625 -2.429688 3.4375 -1.703125 C 4.257812 -0.984375 5.34375 -0.625 6.6875 -0.625 C 7.707031 -0.625 8.570312 -0.90625 9.28125 -1.46875 C 10 -2.03125 10.359375 -2.804688 10.359375 -3.796875 C 10.359375 -4.472656 10.175781 -5.050781 9.8125 -5.53125 C 9.445312 -6.007812 9 -6.410156 8.46875 -6.734375 C 7.9375 -7.054688 7.207031 -7.441406 6.28125 -7.890625 C 5.28125 -8.347656 4.476562 -8.757812 3.875 -9.125 C 3.28125 -9.5 2.773438 -9.972656 2.359375 -10.546875 C 1.941406 -11.128906 1.734375 -11.835938 1.734375 -12.671875 C 1.734375 -13.316406 1.882812 -13.988281 2.1875 -14.6875 C 2.488281 -15.382812 3.019531 -15.976562 3.78125 -16.46875 C 4.539062 -16.96875 5.554688 -17.21875 6.828125 -17.21875 Z M 6.828125 -17.21875 "/></g></g></g><g fill="#e8d8a5" fill-opacity="1"><g transform="translate(279.9487, 104.157838)"><g><path d="M 15.078125 -11.765625 L 14.15625 -11.765625 C 14.195312 -12.773438 14.140625 -13.578125 13.984375 -14.171875 C 13.828125 -14.773438 13.535156 -15.222656 13.109375 -15.515625 C 12.691406 -15.816406 12.070312 -15.96875 11.25 -15.96875 L 9.203125 -15.9375 L 8.421875 -2.859375 C 8.367188 -1.941406 8.3125 -1.3125 8.25 -0.96875 L 10.25 -1.0625 L 10.203125 0 L 4.640625 0 L 4.6875 -0.796875 C 5.1875 -0.804688 5.554688 -0.941406 5.796875 -1.203125 C 6.035156 -1.460938 6.195312 -1.78125 6.28125 -2.15625 C 6.375 -2.539062 6.4375 -3.070312 6.46875 -3.75 L 7.21875 -15.9375 L 4.734375 -15.921875 C 3.742188 -15.921875 3.019531 -15.585938 2.5625 -14.921875 C 2.101562 -14.253906 1.832031 -13.203125 1.75 -11.765625 L 0.859375 -11.765625 L 1.28125 -16.828125 L 15.203125 -16.828125 Z M 15.078125 -11.765625 "/></g></g></g><g fill="#e8d8a5" fill-opacity="1"><g transform="translate(300.406129, 104.157838)"><g><path d="M 9.9375 -17.21875 C 11.707031 -17.21875 13.191406 -16.8125 14.390625 -16 C 15.597656 -15.1875 16.488281 -14.144531 17.0625 -12.875 C 17.644531 -11.601562 17.9375 -10.269531 17.9375 -8.875 C 17.9375 -7.425781 17.601562 -5.988281 16.9375 -4.5625 C 16.269531 -3.132812 15.273438 -1.953125 13.953125 -1.015625 C 12.628906 -0.078125 11.039062 0.390625 9.1875 0.390625 C 7.40625 0.390625 5.910156 -0.0078125 4.703125 -0.8125 C 3.503906 -1.613281 2.613281 -2.644531 2.03125 -3.90625 C 1.457031 -5.164062 1.171875 -6.484375 1.171875 -7.859375 C 1.171875 -9.523438 1.535156 -11.070312 2.265625 -12.5 C 2.992188 -13.925781 4.019531 -15.066406 5.34375 -15.921875 C 6.664062 -16.785156 8.195312 -17.21875 9.9375 -17.21875 Z M 9.8125 -16.25 C 8.53125 -16.25 7.40625 -15.859375 6.4375 -15.078125 C 5.476562 -14.296875 4.742188 -13.285156 4.234375 -12.046875 C 3.734375 -10.816406 3.484375 -9.550781 3.484375 -8.25 C 3.484375 -7.039062 3.6875 -5.851562 4.09375 -4.6875 C 4.507812 -3.519531 5.148438 -2.546875 6.015625 -1.765625 C 6.890625 -0.984375 7.988281 -0.59375 9.3125 -0.59375 C 10.625 -0.59375 11.753906 -0.984375 12.703125 -1.765625 C 13.660156 -2.546875 14.382812 -3.539062 14.875 -4.75 C 15.375 -5.957031 15.625 -7.203125 15.625 -8.484375 C 15.625 -9.785156 15.398438 -11.03125 14.953125 -12.21875 C 14.503906 -13.414062 13.835938 -14.382812 12.953125 -15.125 C 12.078125 -15.875 11.03125 -16.25 9.8125 -16.25 Z M 9.8125 -16.25 "/></g></g></g><g fill="#e8d8a5" fill-opacity="1"><g transform="translate(324.51721, 104.157838)"><g><path d="M 7.28125 -16.875 C 9.4375 -16.84375 11.007812 -16.46875 12 -15.75 C 12.988281 -15.03125 13.484375 -14.035156 13.484375 -12.765625 C 13.484375 -11.609375 13.144531 -10.566406 12.46875 -9.640625 C 11.789062 -8.722656 10.578125 -8.09375 8.828125 -7.75 L 8.828125 -7.71875 C 9.097656 -7.507812 9.351562 -7.238281 9.59375 -6.90625 C 9.832031 -6.582031 10.101562 -6.164062 10.40625 -5.65625 L 11.90625 -3.078125 C 12.226562 -2.515625 12.492188 -2.082031 12.703125 -1.78125 C 12.921875 -1.488281 13.191406 -1.25 13.515625 -1.0625 C 13.835938 -0.882812 14.238281 -0.796875 14.71875 -0.796875 L 14.671875 0 L 11.734375 0 C 11.398438 -0.269531 11.078125 -0.625 10.765625 -1.0625 C 10.453125 -1.507812 10.109375 -2.046875 9.734375 -2.671875 L 8.265625 -5.25 C 8.222656 -5.34375 8.109375 -5.554688 7.921875 -5.890625 C 7.734375 -6.222656 7.539062 -6.53125 7.34375 -6.8125 C 7.15625 -7.09375 6.96875 -7.332031 6.78125 -7.53125 C 6.601562 -7.507812 6.332031 -7.5 5.96875 -7.5 L 5.03125 -7.53125 L 4.78125 -2.859375 C 4.738281 -1.941406 4.679688 -1.3125 4.609375 -0.96875 L 6.34375 -1.0625 L 6.296875 0 L 0.984375 0 L 1.03125 -0.796875 C 1.59375 -0.804688 2 -0.929688 2.25 -1.171875 C 2.5 -1.410156 2.648438 -1.695312 2.703125 -2.03125 C 2.765625 -2.375 2.8125 -2.945312 2.84375 -3.75 L 3.390625 -14.140625 C 3.410156 -14.679688 3.46875 -15.257812 3.5625 -15.875 L 1.796875 -15.78125 L 1.875 -16.828125 C 3.832031 -16.859375 5.285156 -16.875 6.234375 -16.875 Z M 7.140625 -15.96875 C 6.609375 -15.96875 6.21875 -15.863281 5.96875 -15.65625 C 5.726562 -15.445312 5.570312 -15.160156 5.5 -14.796875 C 5.425781 -14.441406 5.375 -13.910156 5.34375 -13.203125 L 5.078125 -8.46875 C 5.554688 -8.4375 5.90625 -8.421875 6.125 -8.421875 C 9.539062 -8.421875 11.25 -9.8125 11.25 -12.59375 C 11.25 -13.71875 10.910156 -14.5625 10.234375 -15.125 C 9.566406 -15.6875 8.535156 -15.96875 7.140625 -15.96875 Z M 7.140625 -15.96875 "/></g></g></g><g fill="#e8d8a5" fill-opacity="1"><g transform="translate(344.710233, 104.157838)"><g><path d="M 16.046875 -16.046875 C 15.285156 -15.992188 14.640625 -15.734375 14.109375 -15.265625 C 13.585938 -14.804688 13 -14.03125 12.34375 -12.9375 L 10.359375 -9.578125 C 10.054688 -9.023438 9.601562 -8.238281 9 -7.21875 L 8.875 -5.1875 C 8.78125 -3.65625 8.738281 -2.878906 8.75 -2.859375 C 8.738281 -2.109375 8.679688 -1.476562 8.578125 -0.96875 L 10.578125 -1.0625 L 10.53125 0 L 4.984375 0 L 5.03125 -0.796875 C 5.59375 -0.804688 5.992188 -0.9375 6.234375 -1.1875 C 6.484375 -1.4375 6.628906 -1.722656 6.671875 -2.046875 C 6.722656 -2.378906 6.769531 -2.945312 6.8125 -3.75 L 6.953125 -6.5 L 3.15625 -13.109375 C 2.457031 -14.242188 2.070312 -15.148438 2 -15.828125 L 0.5 -15.78125 L 0.546875 -16.828125 L 6.65625 -16.828125 L 6.609375 -16.046875 C 5.328125 -16.046875 4.6875 -15.664062 4.6875 -14.90625 C 4.6875 -14.539062 4.851562 -14.046875 5.1875 -13.421875 L 5.9375 -12.125 C 6.820312 -10.5625 7.613281 -9.253906 8.3125 -8.203125 L 8.375 -8.203125 C 9.15625 -9.578125 10.09375 -11.179688 11.1875 -13.015625 C 11.4375 -13.460938 11.632812 -13.796875 11.78125 -14.015625 C 12.289062 -14.898438 12.707031 -15.507812 13.03125 -15.84375 L 11.140625 -15.78125 L 11.1875 -16.828125 L 16.09375 -16.828125 Z M 16.046875 -16.046875 "/></g></g></g><g fill="#e8d8a5" fill-opacity="1"><g transform="translate(121.943703, 67.252202)"><g><path d="M 4.90625 -4.515625 C 4.90625 -4.171875 4.847656 -3.890625 4.734375 -3.671875 C 4.617188 -3.453125 4.460938 -3.273438 4.265625 -3.140625 C 4.066406 -3.015625 3.832031 -2.925781 3.5625 -2.875 C 3.300781 -2.820312 3.019531 -2.796875 2.71875 -2.796875 C 2.59375 -2.796875 2.460938 -2.796875 2.328125 -2.796875 C 2.203125 -2.796875 2.066406 -2.8125 1.921875 -2.84375 L 1.921875 -1.09375 C 1.921875 -0.90625 1.929688 -0.75 1.953125 -0.625 C 1.972656 -0.507812 2.015625 -0.414062 2.078125 -0.34375 C 2.140625 -0.28125 2.226562 -0.234375 2.34375 -0.203125 C 2.46875 -0.179688 2.628906 -0.171875 2.828125 -0.171875 L 2.828125 0 L 0.171875 0 L 0.171875 -0.171875 C 0.359375 -0.171875 0.507812 -0.179688 0.625 -0.203125 C 0.75 -0.234375 0.835938 -0.28125 0.890625 -0.34375 C 0.953125 -0.414062 0.988281 -0.507812 1 -0.625 C 1.019531 -0.75 1.03125 -0.90625 1.03125 -1.09375 L 1.03125 -5.140625 C 1.03125 -5.335938 1.019531 -5.492188 1 -5.609375 C 0.988281 -5.734375 0.953125 -5.828125 0.890625 -5.890625 C 0.835938 -5.960938 0.753906 -6.007812 0.640625 -6.03125 C 0.523438 -6.0625 0.367188 -6.078125 0.171875 -6.078125 L 0.171875 -6.234375 L 2.4375 -6.234375 C 2.71875 -6.234375 3.003906 -6.207031 3.296875 -6.15625 C 3.585938 -6.113281 3.851562 -6.023438 4.09375 -5.890625 C 4.332031 -5.765625 4.523438 -5.585938 4.671875 -5.359375 C 4.828125 -5.140625 4.90625 -4.859375 4.90625 -4.515625 Z M 3.859375 -4.421875 C 3.859375 -4.617188 3.828125 -4.804688 3.765625 -4.984375 C 3.710938 -5.160156 3.628906 -5.3125 3.515625 -5.4375 C 3.398438 -5.570312 3.257812 -5.675781 3.09375 -5.75 C 2.9375 -5.832031 2.753906 -5.875 2.546875 -5.875 C 2.441406 -5.875 2.335938 -5.863281 2.234375 -5.84375 C 2.128906 -5.820312 2.023438 -5.800781 1.921875 -5.78125 L 1.921875 -3.15625 C 2.046875 -3.132812 2.171875 -3.117188 2.296875 -3.109375 C 2.421875 -3.097656 2.550781 -3.09375 2.6875 -3.09375 C 2.863281 -3.09375 3.023438 -3.128906 3.171875 -3.203125 C 3.316406 -3.273438 3.441406 -3.375 3.546875 -3.5 C 3.648438 -3.625 3.726562 -3.765625 3.78125 -3.921875 C 3.832031 -4.085938 3.859375 -4.253906 3.859375 -4.421875 Z M 3.859375 -4.421875 "/></g></g></g><g fill="#e8d8a5" fill-opacity="1"><g transform="translate(133.99863, 67.252202)"><g><path d="M 5.015625 0 L 0.171875 0 L 0.171875 -0.171875 C 0.316406 -0.171875 0.445312 -0.179688 0.5625 -0.203125 C 0.675781 -0.222656 0.769531 -0.257812 0.84375 -0.3125 C 0.925781 -0.363281 0.988281 -0.441406 1.03125 -0.546875 C 1.070312 -0.648438 1.09375 -0.785156 1.09375 -0.953125 L 1.09375 -5.28125 C 1.09375 -5.445312 1.070312 -5.578125 1.03125 -5.671875 C 0.988281 -5.773438 0.925781 -5.851562 0.84375 -5.90625 C 0.769531 -5.96875 0.675781 -6.007812 0.5625 -6.03125 C 0.445312 -6.050781 0.316406 -6.0625 0.171875 -6.0625 L 0.171875 -6.234375 L 2.890625 -6.234375 L 2.890625 -6.0625 C 2.734375 -6.0625 2.597656 -6.050781 2.484375 -6.03125 C 2.367188 -6.007812 2.273438 -5.96875 2.203125 -5.90625 C 2.128906 -5.851562 2.070312 -5.773438 2.03125 -5.671875 C 1.988281 -5.578125 1.96875 -5.445312 1.96875 -5.28125 L 1.96875 -1.171875 C 1.96875 -1.023438 1.976562 -0.898438 2 -0.796875 C 2.019531 -0.691406 2.0625 -0.609375 2.125 -0.546875 C 2.1875 -0.492188 2.265625 -0.457031 2.359375 -0.4375 C 2.460938 -0.414062 2.59375 -0.40625 2.75 -0.40625 L 3.375 -0.40625 C 3.675781 -0.40625 3.925781 -0.421875 4.125 -0.453125 C 4.332031 -0.484375 4.507812 -0.546875 4.65625 -0.640625 C 4.8125 -0.742188 4.941406 -0.878906 5.046875 -1.046875 C 5.160156 -1.222656 5.28125 -1.453125 5.40625 -1.734375 L 5.5625 -1.703125 Z M 5.015625 0 "/></g></g></g><g fill="#e8d8a5" fill-opacity="1"><g transform="translate(146.565602, 67.252202)"><g><path d="M 4.234375 0 L 4.234375 -0.171875 C 4.304688 -0.171875 4.378906 -0.175781 4.453125 -0.1875 C 4.523438 -0.195312 4.59375 -0.21875 4.65625 -0.25 C 4.71875 -0.28125 4.765625 -0.320312 4.796875 -0.375 C 4.835938 -0.425781 4.859375 -0.492188 4.859375 -0.578125 C 4.859375 -0.660156 4.832031 -0.773438 4.78125 -0.921875 C 4.738281 -1.066406 4.6875 -1.210938 4.625 -1.359375 C 4.5625 -1.515625 4.5 -1.660156 4.4375 -1.796875 C 4.382812 -1.929688 4.34375 -2.03125 4.3125 -2.09375 L 1.890625 -2.09375 C 1.878906 -2.050781 1.851562 -1.992188 1.8125 -1.921875 C 1.78125 -1.847656 1.742188 -1.765625 1.703125 -1.671875 C 1.660156 -1.578125 1.613281 -1.472656 1.5625 -1.359375 C 1.519531 -1.253906 1.476562 -1.148438 1.4375 -1.046875 C 1.40625 -0.953125 1.375 -0.859375 1.34375 -0.765625 C 1.320312 -0.679688 1.3125 -0.617188 1.3125 -0.578125 C 1.3125 -0.492188 1.335938 -0.425781 1.390625 -0.375 C 1.441406 -0.320312 1.503906 -0.28125 1.578125 -0.25 C 1.660156 -0.226562 1.742188 -0.210938 1.828125 -0.203125 C 1.910156 -0.191406 1.976562 -0.179688 2.03125 -0.171875 L 2.03125 0 L 0.078125 0 L 0.078125 -0.171875 C 0.222656 -0.179688 0.347656 -0.21875 0.453125 -0.28125 C 0.554688 -0.34375 0.644531 -0.425781 0.71875 -0.53125 C 0.800781 -0.632812 0.867188 -0.75 0.921875 -0.875 C 0.984375 -1 1.039062 -1.117188 1.09375 -1.234375 L 3.296875 -6.375 L 3.453125 -6.375 L 5.625 -1.203125 C 5.6875 -1.054688 5.742188 -0.921875 5.796875 -0.796875 C 5.859375 -0.679688 5.925781 -0.578125 6 -0.484375 C 6.070312 -0.398438 6.164062 -0.328125 6.28125 -0.265625 C 6.394531 -0.210938 6.535156 -0.179688 6.703125 -0.171875 L 6.703125 0 Z M 3.125 -4.96875 L 2.03125 -2.421875 L 4.1875 -2.421875 Z M 3.125 -4.96875 "/></g></g></g><g fill="#e8d8a5" fill-opacity="1"><g transform="translate(160.156663, 67.252202)"><g><path d="M 5.203125 0 L 0.125 0 L 0.125 -0.171875 L 4.109375 -5.875 L 2.125 -5.875 C 1.894531 -5.875 1.703125 -5.851562 1.546875 -5.8125 C 1.398438 -5.769531 1.28125 -5.703125 1.1875 -5.609375 C 1.101562 -5.515625 1.035156 -5.390625 0.984375 -5.234375 C 0.929688 -5.078125 0.882812 -4.890625 0.84375 -4.671875 L 0.671875 -4.671875 L 0.8125 -6.234375 L 5.421875 -6.234375 L 1.328125 -0.375 L 3.875 -0.375 C 4.113281 -0.375 4.3125 -0.398438 4.46875 -0.453125 C 4.632812 -0.515625 4.769531 -0.601562 4.875 -0.71875 C 4.976562 -0.832031 5.066406 -0.96875 5.140625 -1.125 C 5.210938 -1.289062 5.285156 -1.472656 5.359375 -1.671875 L 5.484375 -1.640625 Z M 5.203125 0 "/></g></g></g><g fill="#e8d8a5" fill-opacity="1"><g transform="translate(172.723635, 67.252202)"><g><path d="M 4.234375 0 L 4.234375 -0.171875 C 4.304688 -0.171875 4.378906 -0.175781 4.453125 -0.1875 C 4.523438 -0.195312 4.59375 -0.21875 4.65625 -0.25 C 4.71875 -0.28125 4.765625 -0.320312 4.796875 -0.375 C 4.835938 -0.425781 4.859375 -0.492188 4.859375 -0.578125 C 4.859375 -0.660156 4.832031 -0.773438 4.78125 -0.921875 C 4.738281 -1.066406 4.6875 -1.210938 4.625 -1.359375 C 4.5625 -1.515625 4.5 -1.660156 4.4375 -1.796875 C 4.382812 -1.929688 4.34375 -2.03125 4.3125 -2.09375 L 1.890625 -2.09375 C 1.878906 -2.050781 1.851562 -1.992188 1.8125 -1.921875 C 1.78125 -1.847656 1.742188 -1.765625 1.703125 -1.671875 C 1.660156 -1.578125 1.613281 -1.472656 1.5625 -1.359375 C 1.519531 -1.253906 1.476562 -1.148438 1.4375 -1.046875 C 1.40625 -0.953125 1.375 -0.859375 1.34375 -0.765625 C 1.320312 -0.679688 1.3125 -0.617188 1.3125 -0.578125 C 1.3125 -0.492188 1.335938 -0.425781 1.390625 -0.375 C 1.441406 -0.320312 1.503906 -0.28125 1.578125 -0.25 C 1.660156 -0.226562 1.742188 -0.210938 1.828125 -0.203125 C 1.910156 -0.191406 1.976562 -0.179688 2.03125 -0.171875 L 2.03125 0 L 0.078125 0 L 0.078125 -0.171875 C 0.222656 -0.179688 0.347656 -0.21875 0.453125 -0.28125 C 0.554688 -0.34375 0.644531 -0.425781 0.71875 -0.53125 C 0.800781 -0.632812 0.867188 -0.75 0.921875 -0.875 C 0.984375 -1 1.039062 -1.117188 1.09375 -1.234375 L 3.296875 -6.375 L 3.453125 -6.375 L 5.625 -1.203125 C 5.6875 -1.054688 5.742188 -0.921875 5.796875 -0.796875 C 5.859375 -0.679688 5.925781 -0.578125 6 -0.484375 C 6.070312 -0.398438 6.164062 -0.328125 6.28125 -0.265625 C 6.394531 -0.210938 6.535156 -0.179688 6.703125 -0.171875 L 6.703125 0 Z M 3.125 -4.96875 L 2.03125 -2.421875 L 4.1875 -2.421875 Z M 3.125 -4.96875 "/></g></g></g><g fill="#e8d8a5" fill-opacity="1"><g transform="translate(186.314695, 67.252202)"><g/></g></g><g fill="#e8d8a5" fill-opacity="1"><g transform="translate(195.973993, 67.252202)"><g><path d="M 6.4375 -3.15625 C 6.4375 -2.625 6.347656 -2.160156 6.171875 -1.765625 C 6.003906 -1.367188 5.765625 -1.039062 5.453125 -0.78125 C 5.140625 -0.519531 4.769531 -0.320312 4.34375 -0.1875 C 3.914062 -0.0625 3.453125 0 2.953125 0 L 0.171875 0 L 0.171875 -0.171875 C 0.359375 -0.171875 0.507812 -0.179688 0.625 -0.203125 C 0.75 -0.234375 0.835938 -0.28125 0.890625 -0.34375 C 0.953125 -0.414062 0.992188 -0.507812 1.015625 -0.625 C 1.035156 -0.75 1.046875 -0.90625 1.046875 -1.09375 L 1.046875 -5.140625 C 1.046875 -5.335938 1.035156 -5.492188 1.015625 -5.609375 C 1.003906 -5.734375 0.96875 -5.828125 0.90625 -5.890625 C 0.84375 -5.960938 0.753906 -6.007812 0.640625 -6.03125 C 0.523438 -6.0625 0.367188 -6.078125 0.171875 -6.078125 L 0.171875 -6.234375 L 2.703125 -6.234375 C 3.222656 -6.234375 3.710938 -6.179688 4.171875 -6.078125 C 4.628906 -5.984375 5.023438 -5.816406 5.359375 -5.578125 C 5.691406 -5.347656 5.953125 -5.035156 6.140625 -4.640625 C 6.335938 -4.242188 6.4375 -3.75 6.4375 -3.15625 Z M 5.40625 -3.109375 C 5.40625 -3.492188 5.347656 -3.851562 5.234375 -4.1875 C 5.128906 -4.53125 4.96875 -4.828125 4.75 -5.078125 C 4.539062 -5.328125 4.28125 -5.523438 3.96875 -5.671875 C 3.65625 -5.816406 3.296875 -5.890625 2.890625 -5.890625 C 2.722656 -5.890625 2.5625 -5.875 2.40625 -5.84375 C 2.25 -5.820312 2.09375 -5.789062 1.9375 -5.75 L 1.9375 -0.453125 C 2.082031 -0.410156 2.238281 -0.375 2.40625 -0.34375 C 2.582031 -0.320312 2.75 -0.3125 2.90625 -0.3125 C 3.3125 -0.3125 3.671875 -0.382812 3.984375 -0.53125 C 4.296875 -0.675781 4.554688 -0.875 4.765625 -1.125 C 4.972656 -1.382812 5.128906 -1.6875 5.234375 -2.03125 C 5.347656 -2.375 5.40625 -2.734375 5.40625 -3.109375 Z M 5.40625 -3.109375 "/></g></g></g><g fill="#e8d8a5" fill-opacity="1"><g transform="translate(209.589436, 67.252202)"><g><path d="M 5 0 L 0.203125 0 L 0.203125 -0.171875 C 0.398438 -0.171875 0.554688 -0.179688 0.671875 -0.203125 C 0.785156 -0.234375 0.875 -0.28125 0.9375 -0.34375 C 1 -0.414062 1.039062 -0.507812 1.0625 -0.625 C 1.082031 -0.75 1.09375 -0.90625 1.09375 -1.09375 L 1.09375 -5.15625 C 1.09375 -5.351562 1.082031 -5.507812 1.0625 -5.625 C 1.039062 -5.75 1 -5.84375 0.9375 -5.90625 C 0.882812 -5.96875 0.796875 -6.007812 0.671875 -6.03125 C 0.554688 -6.0625 0.398438 -6.078125 0.203125 -6.078125 L 0.203125 -6.234375 L 5 -6.234375 L 5.078125 -4.875 L 4.90625 -4.875 C 4.851562 -5.070312 4.800781 -5.238281 4.75 -5.375 C 4.707031 -5.507812 4.644531 -5.613281 4.5625 -5.6875 C 4.476562 -5.757812 4.367188 -5.8125 4.234375 -5.84375 C 4.097656 -5.882812 3.914062 -5.90625 3.6875 -5.90625 L 1.96875 -5.90625 L 1.96875 -3.4375 L 3.34375 -3.4375 C 3.53125 -3.4375 3.679688 -3.445312 3.796875 -3.46875 C 3.910156 -3.5 4.003906 -3.546875 4.078125 -3.609375 C 4.148438 -3.679688 4.203125 -3.773438 4.234375 -3.890625 C 4.273438 -4.003906 4.304688 -4.15625 4.328125 -4.34375 L 4.5 -4.34375 L 4.5 -2.15625 L 4.328125 -2.15625 C 4.304688 -2.34375 4.273438 -2.492188 4.234375 -2.609375 C 4.203125 -2.734375 4.148438 -2.828125 4.078125 -2.890625 C 4.015625 -2.960938 3.921875 -3.015625 3.796875 -3.046875 C 3.679688 -3.078125 3.53125 -3.09375 3.34375 -3.09375 L 1.96875 -3.09375 L 1.96875 -1.03125 C 1.96875 -0.914062 1.96875 -0.816406 1.96875 -0.734375 C 1.976562 -0.648438 2 -0.578125 2.03125 -0.515625 C 2.0625 -0.453125 2.113281 -0.40625 2.1875 -0.375 C 2.257812 -0.34375 2.359375 -0.328125 2.484375 -0.328125 L 3.546875 -0.328125 C 3.816406 -0.328125 4.035156 -0.347656 4.203125 -0.390625 C 4.378906 -0.441406 4.53125 -0.515625 4.65625 -0.609375 C 4.789062 -0.710938 4.90625 -0.84375 5 -1 C 5.101562 -1.15625 5.222656 -1.34375 5.359375 -1.5625 L 5.546875 -1.5625 Z M 5 0 "/></g></g></g><g fill="#e8d8a5" fill-opacity="1"><g transform="translate(222.156408, 67.252202)"><g/></g></g><g fill="#e8d8a5" fill-opacity="1"><g transform="translate(231.815706, 67.252202)"><g><path d="M 5.015625 0 L 0.171875 0 L 0.171875 -0.171875 C 0.316406 -0.171875 0.445312 -0.179688 0.5625 -0.203125 C 0.675781 -0.222656 0.769531 -0.257812 0.84375 -0.3125 C 0.925781 -0.363281 0.988281 -0.441406 1.03125 -0.546875 C 1.070312 -0.648438 1.09375 -0.785156 1.09375 -0.953125 L 1.09375 -5.28125 C 1.09375 -5.445312 1.070312 -5.578125 1.03125 -5.671875 C 0.988281 -5.773438 0.925781 -5.851562 0.84375 -5.90625 C 0.769531 -5.96875 0.675781 -6.007812 0.5625 -6.03125 C 0.445312 -6.050781 0.316406 -6.0625 0.171875 -6.0625 L 0.171875 -6.234375 L 2.890625 -6.234375 L 2.890625 -6.0625 C 2.734375 -6.0625 2.597656 -6.050781 2.484375 -6.03125 C 2.367188 -6.007812 2.273438 -5.96875 2.203125 -5.90625 C 2.128906 -5.851562 2.070312 -5.773438 2.03125 -5.671875 C 1.988281 -5.578125 1.96875 -5.445312 1.96875 -5.28125 L 1.96875 -1.171875 C 1.96875 -1.023438 1.976562 -0.898438 2 -0.796875 C 2.019531 -0.691406 2.0625 -0.609375 2.125 -0.546875 C 2.1875 -0.492188 2.265625 -0.457031 2.359375 -0.4375 C 2.460938 -0.414062 2.59375 -0.40625 2.75 -0.40625 L 3.375 -0.40625 C 3.675781 -0.40625 3.925781 -0.421875 4.125 -0.453125 C 4.332031 -0.484375 4.507812 -0.546875 4.65625 -0.640625 C 4.8125 -0.742188 4.941406 -0.878906 5.046875 -1.046875 C 5.160156 -1.222656 5.28125 -1.453125 5.40625 -1.734375 L 5.5625 -1.703125 Z M 5.015625 0 "/></g></g></g><g fill="#e8d8a5" fill-opacity="1"><g transform="translate(244.382678, 67.252202)"><g><path d="M 4.234375 0 L 4.234375 -0.171875 C 4.304688 -0.171875 4.378906 -0.175781 4.453125 -0.1875 C 4.523438 -0.195312 4.59375 -0.21875 4.65625 -0.25 C 4.71875 -0.28125 4.765625 -0.320312 4.796875 -0.375 C 4.835938 -0.425781 4.859375 -0.492188 4.859375 -0.578125 C 4.859375 -0.660156 4.832031 -0.773438 4.78125 -0.921875 C 4.738281 -1.066406 4.6875 -1.210938 4.625 -1.359375 C 4.5625 -1.515625 4.5 -1.660156 4.4375 -1.796875 C 4.382812 -1.929688 4.34375 -2.03125 4.3125 -2.09375 L 1.890625 -2.09375 C 1.878906 -2.050781 1.851562 -1.992188 1.8125 -1.921875 C 1.78125 -1.847656 1.742188 -1.765625 1.703125 -1.671875 C 1.660156 -1.578125 1.613281 -1.472656 1.5625 -1.359375 C 1.519531 -1.253906 1.476562 -1.148438 1.4375 -1.046875 C 1.40625 -0.953125 1.375 -0.859375 1.34375 -0.765625 C 1.320312 -0.679688 1.3125 -0.617188 1.3125 -0.578125 C 1.3125 -0.492188 1.335938 -0.425781 1.390625 -0.375 C 1.441406 -0.320312 1.503906 -0.28125 1.578125 -0.25 C 1.660156 -0.226562 1.742188 -0.210938 1.828125 -0.203125 C 1.910156 -0.191406 1.976562 -0.179688 2.03125 -0.171875 L 2.03125 0 L 0.078125 0 L 0.078125 -0.171875 C 0.222656 -0.179688 0.347656 -0.21875 0.453125 -0.28125 C 0.554688 -0.34375 0.644531 -0.425781 0.71875 -0.53125 C 0.800781 -0.632812 0.867188 -0.75 0.921875 -0.875 C 0.984375 -1 1.039062 -1.117188 1.09375 -1.234375 L 3.296875 -6.375 L 3.453125 -6.375 L 5.625 -1.203125 C 5.6875 -1.054688 5.742188 -0.921875 5.796875 -0.796875 C 5.859375 -0.679688 5.925781 -0.578125 6 -0.484375 C 6.070312 -0.398438 6.164062 -0.328125 6.28125 -0.265625 C 6.394531 -0.210938 6.535156 -0.179688 6.703125 -0.171875 L 6.703125 0 Z M 3.125 -4.96875 L 2.03125 -2.421875 L 4.1875 -2.421875 Z M 3.125 -4.96875 "/></g></g></g><g fill="#e8d8a5" fill-opacity="1"><g transform="translate(257.973738, 67.252202)"><g/></g></g><g fill="#e8d8a5" fill-opacity="1"><g transform="translate(267.633035, 67.252202)"><g><path d="M 5.953125 -1.46875 C 5.671875 -0.957031 5.316406 -0.554688 4.890625 -0.265625 C 4.460938 0.015625 3.957031 0.15625 3.375 0.15625 C 2.90625 0.15625 2.484375 0.078125 2.109375 -0.078125 C 1.742188 -0.242188 1.425781 -0.46875 1.15625 -0.75 C 0.894531 -1.039062 0.691406 -1.378906 0.546875 -1.765625 C 0.398438 -2.148438 0.328125 -2.570312 0.328125 -3.03125 C 0.328125 -3.488281 0.40625 -3.921875 0.5625 -4.328125 C 0.71875 -4.734375 0.929688 -5.085938 1.203125 -5.390625 C 1.484375 -5.691406 1.816406 -5.929688 2.203125 -6.109375 C 2.597656 -6.285156 3.035156 -6.375 3.515625 -6.375 C 3.671875 -6.375 3.816406 -6.363281 3.953125 -6.34375 C 4.085938 -6.320312 4.21875 -6.289062 4.34375 -6.25 C 4.476562 -6.207031 4.609375 -6.160156 4.734375 -6.109375 C 4.859375 -6.066406 4.988281 -6.015625 5.125 -5.953125 C 5.1875 -5.953125 5.238281 -5.960938 5.28125 -5.984375 C 5.332031 -6.015625 5.367188 -6.050781 5.390625 -6.09375 C 5.421875 -6.132812 5.445312 -6.179688 5.46875 -6.234375 C 5.488281 -6.285156 5.503906 -6.332031 5.515625 -6.375 L 5.671875 -6.375 L 5.8125 -4.265625 L 5.671875 -4.265625 C 5.597656 -4.523438 5.5 -4.757812 5.375 -4.96875 C 5.257812 -5.1875 5.113281 -5.375 4.9375 -5.53125 C 4.769531 -5.695312 4.570312 -5.820312 4.34375 -5.90625 C 4.125 -6 3.875 -6.046875 3.59375 -6.046875 C 3.300781 -6.046875 3.046875 -6.003906 2.828125 -5.921875 C 2.617188 -5.835938 2.429688 -5.722656 2.265625 -5.578125 C 2.097656 -5.429688 1.957031 -5.257812 1.84375 -5.0625 C 1.726562 -4.863281 1.640625 -4.648438 1.578125 -4.421875 C 1.515625 -4.203125 1.46875 -3.972656 1.4375 -3.734375 C 1.40625 -3.492188 1.390625 -3.253906 1.390625 -3.015625 C 1.390625 -2.640625 1.429688 -2.285156 1.515625 -1.953125 C 1.609375 -1.617188 1.75 -1.328125 1.9375 -1.078125 C 2.125 -0.828125 2.363281 -0.628906 2.65625 -0.484375 C 2.957031 -0.335938 3.3125 -0.265625 3.71875 -0.265625 C 3.976562 -0.265625 4.207031 -0.296875 4.40625 -0.359375 C 4.601562 -0.421875 4.78125 -0.503906 4.9375 -0.609375 C 5.101562 -0.722656 5.253906 -0.859375 5.390625 -1.015625 C 5.535156 -1.179688 5.675781 -1.363281 5.8125 -1.5625 Z M 5.953125 -1.46875 "/></g></g></g><g fill="#e8d8a5" fill-opacity="1"><g transform="translate(280.736434, 67.252202)"><g><path d="M 6.4375 -3.15625 C 6.4375 -2.707031 6.363281 -2.28125 6.21875 -1.875 C 6.070312 -1.476562 5.863281 -1.128906 5.59375 -0.828125 C 5.332031 -0.523438 5.015625 -0.285156 4.640625 -0.109375 C 4.265625 0.0664062 3.84375 0.15625 3.375 0.15625 C 2.90625 0.15625 2.484375 0.0664062 2.109375 -0.109375 C 1.734375 -0.285156 1.410156 -0.519531 1.140625 -0.8125 C 0.878906 -1.113281 0.675781 -1.460938 0.53125 -1.859375 C 0.394531 -2.265625 0.328125 -2.691406 0.328125 -3.140625 C 0.328125 -3.585938 0.398438 -4.007812 0.546875 -4.40625 C 0.703125 -4.800781 0.914062 -5.140625 1.1875 -5.421875 C 1.46875 -5.710938 1.800781 -5.941406 2.1875 -6.109375 C 2.570312 -6.285156 2.992188 -6.375 3.453125 -6.375 C 3.898438 -6.375 4.304688 -6.285156 4.671875 -6.109375 C 5.035156 -5.941406 5.347656 -5.707031 5.609375 -5.40625 C 5.878906 -5.113281 6.082031 -4.769531 6.21875 -4.375 C 6.363281 -3.988281 6.4375 -3.582031 6.4375 -3.15625 Z M 5.390625 -3.09375 C 5.390625 -3.320312 5.378906 -3.550781 5.359375 -3.78125 C 5.335938 -4.019531 5.296875 -4.25 5.234375 -4.46875 C 5.179688 -4.6875 5.101562 -4.890625 5 -5.078125 C 4.90625 -5.273438 4.78125 -5.441406 4.625 -5.578125 C 4.476562 -5.722656 4.300781 -5.835938 4.09375 -5.921875 C 3.882812 -6.003906 3.632812 -6.046875 3.34375 -6.046875 C 3.082031 -6.046875 2.851562 -6.003906 2.65625 -5.921875 C 2.46875 -5.835938 2.296875 -5.722656 2.140625 -5.578125 C 1.992188 -5.441406 1.875 -5.273438 1.78125 -5.078125 C 1.6875 -4.890625 1.609375 -4.6875 1.546875 -4.46875 C 1.484375 -4.257812 1.441406 -4.039062 1.421875 -3.8125 C 1.398438 -3.59375 1.390625 -3.375 1.390625 -3.15625 C 1.390625 -2.945312 1.398438 -2.726562 1.421875 -2.5 C 1.441406 -2.28125 1.484375 -2.054688 1.546875 -1.828125 C 1.609375 -1.609375 1.6875 -1.398438 1.78125 -1.203125 C 1.882812 -1.003906 2.007812 -0.828125 2.15625 -0.671875 C 2.300781 -0.523438 2.472656 -0.40625 2.671875 -0.3125 C 2.867188 -0.226562 3.097656 -0.1875 3.359375 -0.1875 C 3.628906 -0.1875 3.867188 -0.226562 4.078125 -0.3125 C 4.285156 -0.394531 4.460938 -0.503906 4.609375 -0.640625 C 4.765625 -0.785156 4.890625 -0.953125 4.984375 -1.140625 C 5.085938 -1.328125 5.164062 -1.523438 5.21875 -1.734375 C 5.28125 -1.953125 5.320312 -2.175781 5.34375 -2.40625 C 5.375 -2.632812 5.390625 -2.863281 5.390625 -3.09375 Z M 5.390625 -3.09375 "/></g></g></g><g fill="#e8d8a5" fill-opacity="1"><g transform="translate(294.351878, 67.252202)"><g><path d="M 4.703125 0 L 2.59375 -2.90625 C 2.519531 -2.90625 2.445312 -2.90625 2.375 -2.90625 C 2.300781 -2.90625 2.222656 -2.90625 2.140625 -2.90625 C 2.109375 -2.90625 2.070312 -2.90625 2.03125 -2.90625 C 2 -2.90625 1.960938 -2.90625 1.921875 -2.90625 L 1.921875 -1.09375 C 1.921875 -0.90625 1.929688 -0.75 1.953125 -0.625 C 1.972656 -0.507812 2.015625 -0.414062 2.078125 -0.34375 C 2.148438 -0.28125 2.242188 -0.234375 2.359375 -0.203125 C 2.484375 -0.179688 2.644531 -0.171875 2.84375 -0.171875 L 2.84375 0 L 0.171875 0 L 0.171875 -0.171875 C 0.367188 -0.171875 0.523438 -0.179688 0.640625 -0.203125 C 0.753906 -0.234375 0.84375 -0.28125 0.90625 -0.34375 C 0.96875 -0.414062 1.003906 -0.507812 1.015625 -0.625 C 1.035156 -0.75 1.046875 -0.90625 1.046875 -1.09375 L 1.046875 -5.140625 C 1.046875 -5.335938 1.035156 -5.492188 1.015625 -5.609375 C 1.003906 -5.734375 0.96875 -5.828125 0.90625 -5.890625 C 0.84375 -5.960938 0.753906 -6.007812 0.640625 -6.03125 C 0.523438 -6.0625 0.367188 -6.078125 0.171875 -6.078125 L 0.171875 -6.234375 L 2.515625 -6.234375 C 2.703125 -6.234375 2.890625 -6.226562 3.078125 -6.21875 C 3.273438 -6.207031 3.460938 -6.179688 3.640625 -6.140625 C 3.828125 -6.097656 4.003906 -6.039062 4.171875 -5.96875 C 4.335938 -5.894531 4.484375 -5.796875 4.609375 -5.671875 C 4.734375 -5.554688 4.832031 -5.414062 4.90625 -5.25 C 4.976562 -5.082031 5.015625 -4.878906 5.015625 -4.640625 C 5.015625 -4.398438 4.976562 -4.1875 4.90625 -4 C 4.832031 -3.820312 4.722656 -3.671875 4.578125 -3.546875 C 4.441406 -3.421875 4.28125 -3.316406 4.09375 -3.234375 C 3.914062 -3.148438 3.71875 -3.085938 3.5 -3.046875 L 4.765625 -1.234375 C 4.878906 -1.078125 4.988281 -0.9375 5.09375 -0.8125 C 5.207031 -0.695312 5.320312 -0.59375 5.4375 -0.5 C 5.5625 -0.40625 5.695312 -0.332031 5.84375 -0.28125 C 6 -0.226562 6.175781 -0.191406 6.375 -0.171875 L 6.375 0 Z M 4 -4.5625 C 4 -4.757812 3.960938 -4.941406 3.890625 -5.109375 C 3.828125 -5.273438 3.734375 -5.414062 3.609375 -5.53125 C 3.492188 -5.644531 3.351562 -5.734375 3.1875 -5.796875 C 3.03125 -5.859375 2.851562 -5.890625 2.65625 -5.890625 C 2.53125 -5.890625 2.40625 -5.878906 2.28125 -5.859375 C 2.164062 -5.847656 2.046875 -5.832031 1.921875 -5.8125 L 1.921875 -3.203125 L 2.1875 -3.203125 C 2.40625 -3.203125 2.625 -3.222656 2.84375 -3.265625 C 3.0625 -3.316406 3.253906 -3.394531 3.421875 -3.5 C 3.597656 -3.601562 3.738281 -3.738281 3.84375 -3.90625 C 3.945312 -4.082031 4 -4.300781 4 -4.5625 Z M 4 -4.5625 "/></g></g></g><g fill="#e8d8a5" fill-opacity="1"><g transform="translate(307.455266, 67.252202)"><g><path d="M 6.4375 -3.15625 C 6.4375 -2.707031 6.363281 -2.28125 6.21875 -1.875 C 6.070312 -1.476562 5.863281 -1.128906 5.59375 -0.828125 C 5.332031 -0.523438 5.015625 -0.285156 4.640625 -0.109375 C 4.265625 0.0664062 3.84375 0.15625 3.375 0.15625 C 2.90625 0.15625 2.484375 0.0664062 2.109375 -0.109375 C 1.734375 -0.285156 1.410156 -0.519531 1.140625 -0.8125 C 0.878906 -1.113281 0.675781 -1.460938 0.53125 -1.859375 C 0.394531 -2.265625 0.328125 -2.691406 0.328125 -3.140625 C 0.328125 -3.585938 0.398438 -4.007812 0.546875 -4.40625 C 0.703125 -4.800781 0.914062 -5.140625 1.1875 -5.421875 C 1.46875 -5.710938 1.800781 -5.941406 2.1875 -6.109375 C 2.570312 -6.285156 2.992188 -6.375 3.453125 -6.375 C 3.898438 -6.375 4.304688 -6.285156 4.671875 -6.109375 C 5.035156 -5.941406 5.347656 -5.707031 5.609375 -5.40625 C 5.878906 -5.113281 6.082031 -4.769531 6.21875 -4.375 C 6.363281 -3.988281 6.4375 -3.582031 6.4375 -3.15625 Z M 5.390625 -3.09375 C 5.390625 -3.320312 5.378906 -3.550781 5.359375 -3.78125 C 5.335938 -4.019531 5.296875 -4.25 5.234375 -4.46875 C 5.179688 -4.6875 5.101562 -4.890625 5 -5.078125 C 4.90625 -5.273438 4.78125 -5.441406 4.625 -5.578125 C 4.476562 -5.722656 4.300781 -5.835938 4.09375 -5.921875 C 3.882812 -6.003906 3.632812 -6.046875 3.34375 -6.046875 C 3.082031 -6.046875 2.851562 -6.003906 2.65625 -5.921875 C 2.46875 -5.835938 2.296875 -5.722656 2.140625 -5.578125 C 1.992188 -5.441406 1.875 -5.273438 1.78125 -5.078125 C 1.6875 -4.890625 1.609375 -4.6875 1.546875 -4.46875 C 1.484375 -4.257812 1.441406 -4.039062 1.421875 -3.8125 C 1.398438 -3.59375 1.390625 -3.375 1.390625 -3.15625 C 1.390625 -2.945312 1.398438 -2.726562 1.421875 -2.5 C 1.441406 -2.28125 1.484375 -2.054688 1.546875 -1.828125 C 1.609375 -1.609375 1.6875 -1.398438 1.78125 -1.203125 C 1.882812 -1.003906 2.007812 -0.828125 2.15625 -0.671875 C 2.300781 -0.523438 2.472656 -0.40625 2.671875 -0.3125 C 2.867188 -0.226562 3.097656 -0.1875 3.359375 -0.1875 C 3.628906 -0.1875 3.867188 -0.226562 4.078125 -0.3125 C 4.285156 -0.394531 4.460938 -0.503906 4.609375 -0.640625 C 4.765625 -0.785156 4.890625 -0.953125 4.984375 -1.140625 C 5.085938 -1.328125 5.164062 -1.523438 5.21875 -1.734375 C 5.28125 -1.953125 5.320312 -2.175781 5.34375 -2.40625 C 5.375 -2.632812 5.390625 -2.863281 5.390625 -3.09375 Z M 5.390625 -3.09375 "/></g></g></g><g fill="#e8d8a5" fill-opacity="1"><g transform="translate(321.070699, 67.252202)"><g><path d="M 6.671875 -6.078125 C 6.484375 -6.078125 6.328125 -6.0625 6.203125 -6.03125 C 6.085938 -6.007812 6 -5.960938 5.9375 -5.890625 C 5.875 -5.828125 5.832031 -5.734375 5.8125 -5.609375 C 5.789062 -5.492188 5.78125 -5.34375 5.78125 -5.15625 L 5.78125 0.09375 L 5.625 0.09375 L 1.5 -4.921875 L 1.5 -1.09375 C 1.5 -0.894531 1.507812 -0.734375 1.53125 -0.609375 C 1.550781 -0.492188 1.585938 -0.40625 1.640625 -0.34375 C 1.703125 -0.28125 1.789062 -0.234375 1.90625 -0.203125 C 2.03125 -0.179688 2.191406 -0.171875 2.390625 -0.171875 L 2.390625 0 L 0.21875 0 L 0.21875 -0.171875 C 0.40625 -0.171875 0.554688 -0.179688 0.671875 -0.203125 C 0.796875 -0.234375 0.882812 -0.28125 0.9375 -0.34375 C 1 -0.414062 1.039062 -0.507812 1.0625 -0.625 C 1.082031 -0.75 1.09375 -0.90625 1.09375 -1.09375 L 1.09375 -5.421875 C 1.019531 -5.523438 0.945312 -5.617188 0.875 -5.703125 C 0.8125 -5.785156 0.742188 -5.851562 0.671875 -5.90625 C 0.597656 -5.957031 0.507812 -6 0.40625 -6.03125 C 0.3125 -6.0625 0.191406 -6.078125 0.046875 -6.078125 L 0.046875 -6.234375 L 1.578125 -6.234375 L 5.390625 -1.5625 L 5.390625 -5.15625 C 5.390625 -5.34375 5.378906 -5.492188 5.359375 -5.609375 C 5.335938 -5.734375 5.296875 -5.828125 5.234375 -5.890625 C 5.171875 -5.960938 5.082031 -6.007812 4.96875 -6.03125 C 4.851562 -6.0625 4.695312 -6.078125 4.5 -6.078125 L 4.5 -6.234375 L 6.671875 -6.234375 Z M 6.671875 -6.078125 "/></g></g></g><g fill="#e8d8a5" fill-opacity="1"><g transform="translate(334.686131, 67.252202)"><g><path d="M 4.234375 0 L 4.234375 -0.171875 C 4.304688 -0.171875 4.378906 -0.175781 4.453125 -0.1875 C 4.523438 -0.195312 4.59375 -0.21875 4.65625 -0.25 C 4.71875 -0.28125 4.765625 -0.320312 4.796875 -0.375 C 4.835938 -0.425781 4.859375 -0.492188 4.859375 -0.578125 C 4.859375 -0.660156 4.832031 -0.773438 4.78125 -0.921875 C 4.738281 -1.066406 4.6875 -1.210938 4.625 -1.359375 C 4.5625 -1.515625 4.5 -1.660156 4.4375 -1.796875 C 4.382812 -1.929688 4.34375 -2.03125 4.3125 -2.09375 L 1.890625 -2.09375 C 1.878906 -2.050781 1.851562 -1.992188 1.8125 -1.921875 C 1.78125 -1.847656 1.742188 -1.765625 1.703125 -1.671875 C 1.660156 -1.578125 1.613281 -1.472656 1.5625 -1.359375 C 1.519531 -1.253906 1.476562 -1.148438 1.4375 -1.046875 C 1.40625 -0.953125 1.375 -0.859375 1.34375 -0.765625 C 1.320312 -0.679688 1.3125 -0.617188 1.3125 -0.578125 C 1.3125 -0.492188 1.335938 -0.425781 1.390625 -0.375 C 1.441406 -0.320312 1.503906 -0.28125 1.578125 -0.25 C 1.660156 -0.226562 1.742188 -0.210938 1.828125 -0.203125 C 1.910156 -0.191406 1.976562 -0.179688 2.03125 -0.171875 L 2.03125 0 L 0.078125 0 L 0.078125 -0.171875 C 0.222656 -0.179688 0.347656 -0.21875 0.453125 -0.28125 C 0.554688 -0.34375 0.644531 -0.425781 0.71875 -0.53125 C 0.800781 -0.632812 0.867188 -0.75 0.921875 -0.875 C 0.984375 -1 1.039062 -1.117188 1.09375 -1.234375 L 3.296875 -6.375 L 3.453125 -6.375 L 5.625 -1.203125 C 5.6875 -1.054688 5.742188 -0.921875 5.796875 -0.796875 C 5.859375 -0.679688 5.925781 -0.578125 6 -0.484375 C 6.070312 -0.398438 6.164062 -0.328125 6.28125 -0.265625 C 6.394531 -0.210938 6.535156 -0.179688 6.703125 -0.171875 L 6.703125 0 Z M 3.125 -4.96875 L 2.03125 -2.421875 L 4.1875 -2.421875 Z M 3.125 -4.96875 "/></g></g></g><g fill="#e8d8a5" fill-opacity="1"><g transform="translate(183.197957, 129.504619)"><g><path d="M 1.390625 0 L 1.390625 -0.203125 C 1.609375 -0.203125 1.78125 -0.21875 1.90625 -0.25 C 2.03125 -0.28125 2.117188 -0.332031 2.171875 -0.40625 C 2.234375 -0.488281 2.269531 -0.597656 2.28125 -0.734375 C 2.300781 -0.867188 2.3125 -1.039062 2.3125 -1.25 L 2.3125 -5.34375 C 2.3125 -5.476562 2.304688 -5.609375 2.296875 -5.734375 C 2.296875 -5.859375 2.28125 -5.96875 2.25 -6.0625 C 2.21875 -6.164062 2.171875 -6.25 2.109375 -6.3125 C 2.054688 -6.375 1.976562 -6.40625 1.875 -6.40625 C 1.78125 -6.40625 1.6875 -6.382812 1.59375 -6.34375 C 1.5 -6.3125 1.414062 -6.28125 1.34375 -6.25 L 1.25 -6.40625 L 2.984375 -7.25 L 3.171875 -7.25 L 3.171875 -1.25 C 3.171875 -1.039062 3.175781 -0.867188 3.1875 -0.734375 C 3.195312 -0.609375 3.226562 -0.503906 3.28125 -0.421875 C 3.34375 -0.335938 3.429688 -0.28125 3.546875 -0.25 C 3.660156 -0.21875 3.832031 -0.203125 4.0625 -0.203125 L 4.0625 0 Z M 1.390625 0 "/></g></g></g><g fill="#e8d8a5" fill-opacity="1"><g transform="translate(194.876108, 129.504619)"><g><path d="M 4.75 -1.6875 C 4.75 -1.382812 4.691406 -1.117188 4.578125 -0.890625 C 4.472656 -0.671875 4.320312 -0.484375 4.125 -0.328125 C 3.9375 -0.179688 3.71875 -0.0703125 3.46875 0 C 3.21875 0.0820312 2.957031 0.125 2.6875 0.125 C 2.4375 0.125 2.1875 0.0820312 1.9375 0 C 1.695312 -0.0703125 1.476562 -0.179688 1.28125 -0.328125 C 1.09375 -0.484375 0.9375 -0.664062 0.8125 -0.875 C 0.695312 -1.09375 0.640625 -1.34375 0.640625 -1.625 C 0.640625 -1.832031 0.679688 -2.03125 0.765625 -2.21875 C 0.859375 -2.40625 0.972656 -2.582031 1.109375 -2.75 C 1.253906 -2.914062 1.410156 -3.066406 1.578125 -3.203125 C 1.742188 -3.335938 1.90625 -3.460938 2.0625 -3.578125 C 1.90625 -3.710938 1.742188 -3.847656 1.578125 -3.984375 C 1.421875 -4.117188 1.273438 -4.265625 1.140625 -4.421875 C 1.015625 -4.578125 0.910156 -4.75 0.828125 -4.9375 C 0.753906 -5.125 0.71875 -5.332031 0.71875 -5.5625 C 0.71875 -5.832031 0.773438 -6.070312 0.890625 -6.28125 C 1.003906 -6.5 1.148438 -6.675781 1.328125 -6.8125 C 1.515625 -6.957031 1.722656 -7.066406 1.953125 -7.140625 C 2.191406 -7.210938 2.4375 -7.25 2.6875 -7.25 C 2.90625 -7.25 3.128906 -7.21875 3.359375 -7.15625 C 3.585938 -7.09375 3.789062 -6.992188 3.96875 -6.859375 C 4.15625 -6.734375 4.304688 -6.578125 4.421875 -6.390625 C 4.535156 -6.203125 4.59375 -5.976562 4.59375 -5.71875 C 4.59375 -5.507812 4.546875 -5.316406 4.453125 -5.140625 C 4.359375 -4.960938 4.238281 -4.800781 4.09375 -4.65625 C 3.957031 -4.507812 3.800781 -4.378906 3.625 -4.265625 C 3.457031 -4.148438 3.296875 -4.039062 3.140625 -3.9375 C 3.316406 -3.789062 3.5 -3.640625 3.6875 -3.484375 C 3.882812 -3.328125 4.0625 -3.15625 4.21875 -2.96875 C 4.375 -2.789062 4.5 -2.59375 4.59375 -2.375 C 4.695312 -2.164062 4.75 -1.9375 4.75 -1.6875 Z M 3.84375 -5.78125 C 3.84375 -6.550781 3.457031 -6.9375 2.6875 -6.9375 C 2.53125 -6.9375 2.378906 -6.914062 2.234375 -6.875 C 2.085938 -6.832031 1.957031 -6.765625 1.84375 -6.671875 C 1.738281 -6.585938 1.65625 -6.484375 1.59375 -6.359375 C 1.53125 -6.234375 1.5 -6.082031 1.5 -5.90625 C 1.5 -5.707031 1.539062 -5.523438 1.625 -5.359375 C 1.71875 -5.191406 1.835938 -5.035156 1.984375 -4.890625 C 2.128906 -4.742188 2.28125 -4.609375 2.4375 -4.484375 C 2.601562 -4.367188 2.753906 -4.253906 2.890625 -4.140625 C 3.023438 -4.265625 3.148438 -4.382812 3.265625 -4.5 C 3.378906 -4.613281 3.476562 -4.726562 3.5625 -4.84375 C 3.65625 -4.96875 3.722656 -5.101562 3.765625 -5.25 C 3.816406 -5.40625 3.84375 -5.582031 3.84375 -5.78125 Z M 4 -1.25 C 4 -1.476562 3.9375 -1.691406 3.8125 -1.890625 C 3.695312 -2.097656 3.550781 -2.285156 3.375 -2.453125 C 3.207031 -2.628906 3.023438 -2.796875 2.828125 -2.953125 C 2.640625 -3.109375 2.46875 -3.253906 2.3125 -3.390625 C 2.039062 -3.160156 1.828125 -2.898438 1.671875 -2.609375 C 1.523438 -2.316406 1.453125 -1.992188 1.453125 -1.640625 C 1.453125 -1.441406 1.476562 -1.253906 1.53125 -1.078125 C 1.59375 -0.898438 1.675781 -0.742188 1.78125 -0.609375 C 1.894531 -0.472656 2.03125 -0.363281 2.1875 -0.28125 C 2.351562 -0.207031 2.546875 -0.171875 2.765625 -0.171875 C 2.929688 -0.171875 3.085938 -0.191406 3.234375 -0.234375 C 3.378906 -0.285156 3.507812 -0.351562 3.625 -0.4375 C 3.738281 -0.53125 3.828125 -0.644531 3.890625 -0.78125 C 3.960938 -0.914062 4 -1.070312 4 -1.25 Z M 4 -1.25 "/></g></g></g><g fill="#e8d8a5" fill-opacity="1"><g transform="translate(206.554258, 129.504619)"><g><path d="M 4.75 -1.6875 C 4.75 -1.382812 4.691406 -1.117188 4.578125 -0.890625 C 4.472656 -0.671875 4.320312 -0.484375 4.125 -0.328125 C 3.9375 -0.179688 3.71875 -0.0703125 3.46875 0 C 3.21875 0.0820312 2.957031 0.125 2.6875 0.125 C 2.4375 0.125 2.1875 0.0820312 1.9375 0 C 1.695312 -0.0703125 1.476562 -0.179688 1.28125 -0.328125 C 1.09375 -0.484375 0.9375 -0.664062 0.8125 -0.875 C 0.695312 -1.09375 0.640625 -1.34375 0.640625 -1.625 C 0.640625 -1.832031 0.679688 -2.03125 0.765625 -2.21875 C 0.859375 -2.40625 0.972656 -2.582031 1.109375 -2.75 C 1.253906 -2.914062 1.410156 -3.066406 1.578125 -3.203125 C 1.742188 -3.335938 1.90625 -3.460938 2.0625 -3.578125 C 1.90625 -3.710938 1.742188 -3.847656 1.578125 -3.984375 C 1.421875 -4.117188 1.273438 -4.265625 1.140625 -4.421875 C 1.015625 -4.578125 0.910156 -4.75 0.828125 -4.9375 C 0.753906 -5.125 0.71875 -5.332031 0.71875 -5.5625 C 0.71875 -5.832031 0.773438 -6.070312 0.890625 -6.28125 C 1.003906 -6.5 1.148438 -6.675781 1.328125 -6.8125 C 1.515625 -6.957031 1.722656 -7.066406 1.953125 -7.140625 C 2.191406 -7.210938 2.4375 -7.25 2.6875 -7.25 C 2.90625 -7.25 3.128906 -7.21875 3.359375 -7.15625 C 3.585938 -7.09375 3.789062 -6.992188 3.96875 -6.859375 C 4.15625 -6.734375 4.304688 -6.578125 4.421875 -6.390625 C 4.535156 -6.203125 4.59375 -5.976562 4.59375 -5.71875 C 4.59375 -5.507812 4.546875 -5.316406 4.453125 -5.140625 C 4.359375 -4.960938 4.238281 -4.800781 4.09375 -4.65625 C 3.957031 -4.507812 3.800781 -4.378906 3.625 -4.265625 C 3.457031 -4.148438 3.296875 -4.039062 3.140625 -3.9375 C 3.316406 -3.789062 3.5 -3.640625 3.6875 -3.484375 C 3.882812 -3.328125 4.0625 -3.15625 4.21875 -2.96875 C 4.375 -2.789062 4.5 -2.59375 4.59375 -2.375 C 4.695312 -2.164062 4.75 -1.9375 4.75 -1.6875 Z M 3.84375 -5.78125 C 3.84375 -6.550781 3.457031 -6.9375 2.6875 -6.9375 C 2.53125 -6.9375 2.378906 -6.914062 2.234375 -6.875 C 2.085938 -6.832031 1.957031 -6.765625 1.84375 -6.671875 C 1.738281 -6.585938 1.65625 -6.484375 1.59375 -6.359375 C 1.53125 -6.234375 1.5 -6.082031 1.5 -5.90625 C 1.5 -5.707031 1.539062 -5.523438 1.625 -5.359375 C 1.71875 -5.191406 1.835938 -5.035156 1.984375 -4.890625 C 2.128906 -4.742188 2.28125 -4.609375 2.4375 -4.484375 C 2.601562 -4.367188 2.753906 -4.253906 2.890625 -4.140625 C 3.023438 -4.265625 3.148438 -4.382812 3.265625 -4.5 C 3.378906 -4.613281 3.476562 -4.726562 3.5625 -4.84375 C 3.65625 -4.96875 3.722656 -5.101562 3.765625 -5.25 C 3.816406 -5.40625 3.84375 -5.582031 3.84375 -5.78125 Z M 4 -1.25 C 4 -1.476562 3.9375 -1.691406 3.8125 -1.890625 C 3.695312 -2.097656 3.550781 -2.285156 3.375 -2.453125 C 3.207031 -2.628906 3.023438 -2.796875 2.828125 -2.953125 C 2.640625 -3.109375 2.46875 -3.253906 2.3125 -3.390625 C 2.039062 -3.160156 1.828125 -2.898438 1.671875 -2.609375 C 1.523438 -2.316406 1.453125 -1.992188 1.453125 -1.640625 C 1.453125 -1.441406 1.476562 -1.253906 1.53125 -1.078125 C 1.59375 -0.898438 1.675781 -0.742188 1.78125 -0.609375 C 1.894531 -0.472656 2.03125 -0.363281 2.1875 -0.28125 C 2.351562 -0.207031 2.546875 -0.171875 2.765625 -0.171875 C 2.929688 -0.171875 3.085938 -0.191406 3.234375 -0.234375 C 3.378906 -0.285156 3.507812 -0.351562 3.625 -0.4375 C 3.738281 -0.53125 3.828125 -0.644531 3.890625 -0.78125 C 3.960938 -0.914062 4 -1.070312 4 -1.25 Z M 4 -1.25 "/></g></g></g><g fill="#e8d8a5" fill-opacity="1"><g transform="translate(218.232408, 129.504619)"><g><path d="M 4.75 -1.6875 C 4.75 -1.382812 4.691406 -1.117188 4.578125 -0.890625 C 4.472656 -0.671875 4.320312 -0.484375 4.125 -0.328125 C 3.9375 -0.179688 3.71875 -0.0703125 3.46875 0 C 3.21875 0.0820312 2.957031 0.125 2.6875 0.125 C 2.4375 0.125 2.1875 0.0820312 1.9375 0 C 1.695312 -0.0703125 1.476562 -0.179688 1.28125 -0.328125 C 1.09375 -0.484375 0.9375 -0.664062 0.8125 -0.875 C 0.695312 -1.09375 0.640625 -1.34375 0.640625 -1.625 C 0.640625 -1.832031 0.679688 -2.03125 0.765625 -2.21875 C 0.859375 -2.40625 0.972656 -2.582031 1.109375 -2.75 C 1.253906 -2.914062 1.410156 -3.066406 1.578125 -3.203125 C 1.742188 -3.335938 1.90625 -3.460938 2.0625 -3.578125 C 1.90625 -3.710938 1.742188 -3.847656 1.578125 -3.984375 C 1.421875 -4.117188 1.273438 -4.265625 1.140625 -4.421875 C 1.015625 -4.578125 0.910156 -4.75 0.828125 -4.9375 C 0.753906 -5.125 0.71875 -5.332031 0.71875 -5.5625 C 0.71875 -5.832031 0.773438 -6.070312 0.890625 -6.28125 C 1.003906 -6.5 1.148438 -6.675781 1.328125 -6.8125 C 1.515625 -6.957031 1.722656 -7.066406 1.953125 -7.140625 C 2.191406 -7.210938 2.4375 -7.25 2.6875 -7.25 C 2.90625 -7.25 3.128906 -7.21875 3.359375 -7.15625 C 3.585938 -7.09375 3.789062 -6.992188 3.96875 -6.859375 C 4.15625 -6.734375 4.304688 -6.578125 4.421875 -6.390625 C 4.535156 -6.203125 4.59375 -5.976562 4.59375 -5.71875 C 4.59375 -5.507812 4.546875 -5.316406 4.453125 -5.140625 C 4.359375 -4.960938 4.238281 -4.800781 4.09375 -4.65625 C 3.957031 -4.507812 3.800781 -4.378906 3.625 -4.265625 C 3.457031 -4.148438 3.296875 -4.039062 3.140625 -3.9375 C 3.316406 -3.789062 3.5 -3.640625 3.6875 -3.484375 C 3.882812 -3.328125 4.0625 -3.15625 4.21875 -2.96875 C 4.375 -2.789062 4.5 -2.59375 4.59375 -2.375 C 4.695312 -2.164062 4.75 -1.9375 4.75 -1.6875 Z M 3.84375 -5.78125 C 3.84375 -6.550781 3.457031 -6.9375 2.6875 -6.9375 C 2.53125 -6.9375 2.378906 -6.914062 2.234375 -6.875 C 2.085938 -6.832031 1.957031 -6.765625 1.84375 -6.671875 C 1.738281 -6.585938 1.65625 -6.484375 1.59375 -6.359375 C 1.53125 -6.234375 1.5 -6.082031 1.5 -5.90625 C 1.5 -5.707031 1.539062 -5.523438 1.625 -5.359375 C 1.71875 -5.191406 1.835938 -5.035156 1.984375 -4.890625 C 2.128906 -4.742188 2.28125 -4.609375 2.4375 -4.484375 C 2.601562 -4.367188 2.753906 -4.253906 2.890625 -4.140625 C 3.023438 -4.265625 3.148438 -4.382812 3.265625 -4.5 C 3.378906 -4.613281 3.476562 -4.726562 3.5625 -4.84375 C 3.65625 -4.96875 3.722656 -5.101562 3.765625 -5.25 C 3.816406 -5.40625 3.84375 -5.582031 3.84375 -5.78125 Z M 4 -1.25 C 4 -1.476562 3.9375 -1.691406 3.8125 -1.890625 C 3.695312 -2.097656 3.550781 -2.285156 3.375 -2.453125 C 3.207031 -2.628906 3.023438 -2.796875 2.828125 -2.953125 C 2.640625 -3.109375 2.46875 -3.253906 2.3125 -3.390625 C 2.039062 -3.160156 1.828125 -2.898438 1.671875 -2.609375 C 1.523438 -2.316406 1.453125 -1.992188 1.453125 -1.640625 C 1.453125 -1.441406 1.476562 -1.253906 1.53125 -1.078125 C 1.59375 -0.898438 1.675781 -0.742188 1.78125 -0.609375 C 1.894531 -0.472656 2.03125 -0.363281 2.1875 -0.28125 C 2.351562 -0.207031 2.546875 -0.171875 2.765625 -0.171875 C 2.929688 -0.171875 3.085938 -0.191406 3.234375 -0.234375 C 3.378906 -0.285156 3.507812 -0.351562 3.625 -0.4375 C 3.738281 -0.53125 3.828125 -0.644531 3.890625 -0.78125 C 3.960938 -0.914062 4 -1.070312 4 -1.25 Z M 4 -1.25 "/></g></g></g><g fill="#e8d8a5" fill-opacity="1"><g transform="translate(229.910559, 129.504619)"><g><path d="M 0.421875 -1.65625 L 0.421875 -2.453125 L 3.140625 -2.453125 L 3.140625 -1.65625 Z M 0.421875 -1.65625 "/></g></g></g><g fill="#e8d8a5" fill-opacity="1"><g transform="translate(239.795035, 129.504619)"><g><path d="M 1.390625 0 L 1.390625 -0.203125 C 1.609375 -0.203125 1.78125 -0.21875 1.90625 -0.25 C 2.03125 -0.28125 2.117188 -0.332031 2.171875 -0.40625 C 2.234375 -0.488281 2.269531 -0.597656 2.28125 -0.734375 C 2.300781 -0.867188 2.3125 -1.039062 2.3125 -1.25 L 2.3125 -5.34375 C 2.3125 -5.476562 2.304688 -5.609375 2.296875 -5.734375 C 2.296875 -5.859375 2.28125 -5.96875 2.25 -6.0625 C 2.21875 -6.164062 2.171875 -6.25 2.109375 -6.3125 C 2.054688 -6.375 1.976562 -6.40625 1.875 -6.40625 C 1.78125 -6.40625 1.6875 -6.382812 1.59375 -6.34375 C 1.5 -6.3125 1.414062 -6.28125 1.34375 -6.25 L 1.25 -6.40625 L 2.984375 -7.25 L 3.171875 -7.25 L 3.171875 -1.25 C 3.171875 -1.039062 3.175781 -0.867188 3.1875 -0.734375 C 3.195312 -0.609375 3.226562 -0.503906 3.28125 -0.421875 C 3.34375 -0.335938 3.429688 -0.28125 3.546875 -0.25 C 3.660156 -0.21875 3.832031 -0.203125 4.0625 -0.203125 L 4.0625 0 Z M 1.390625 0 "/></g></g></g><g fill="#e8d8a5" fill-opacity="1"><g transform="translate(251.473188, 129.504619)"><g><path d="M 4.90625 -4.328125 C 4.90625 -3.960938 4.859375 -3.597656 4.765625 -3.234375 C 4.671875 -2.878906 4.535156 -2.535156 4.359375 -2.203125 C 4.191406 -1.867188 3.984375 -1.554688 3.734375 -1.265625 C 3.492188 -0.984375 3.222656 -0.734375 2.921875 -0.515625 C 2.628906 -0.304688 2.3125 -0.140625 1.96875 -0.015625 C 1.625 0.0976562 1.257812 0.15625 0.875 0.15625 L 0.5625 0.15625 L 0.5625 -0.046875 C 0.988281 -0.0546875 1.375 -0.148438 1.71875 -0.328125 C 2.070312 -0.503906 2.378906 -0.734375 2.640625 -1.015625 C 2.910156 -1.304688 3.132812 -1.632812 3.3125 -2 C 3.5 -2.375 3.640625 -2.753906 3.734375 -3.140625 C 3.515625 -2.984375 3.273438 -2.851562 3.015625 -2.75 C 2.765625 -2.644531 2.503906 -2.59375 2.234375 -2.59375 C 1.941406 -2.59375 1.679688 -2.648438 1.453125 -2.765625 C 1.234375 -2.890625 1.046875 -3.050781 0.890625 -3.25 C 0.734375 -3.445312 0.613281 -3.671875 0.53125 -3.921875 C 0.457031 -4.179688 0.421875 -4.445312 0.421875 -4.71875 C 0.421875 -5.03125 0.472656 -5.335938 0.578125 -5.640625 C 0.679688 -5.941406 0.828125 -6.210938 1.015625 -6.453125 C 1.210938 -6.691406 1.445312 -6.882812 1.71875 -7.03125 C 1.988281 -7.175781 2.296875 -7.25 2.640625 -7.25 C 2.890625 -7.25 3.117188 -7.207031 3.328125 -7.125 C 3.546875 -7.039062 3.738281 -6.925781 3.90625 -6.78125 C 4.070312 -6.644531 4.21875 -6.476562 4.34375 -6.28125 C 4.46875 -6.082031 4.570312 -5.875 4.65625 -5.65625 C 4.738281 -5.445312 4.800781 -5.226562 4.84375 -5 C 4.882812 -4.769531 4.90625 -4.546875 4.90625 -4.328125 Z M 3.90625 -4.59375 C 3.90625 -4.800781 3.882812 -5.035156 3.84375 -5.296875 C 3.800781 -5.566406 3.722656 -5.820312 3.609375 -6.0625 C 3.503906 -6.300781 3.359375 -6.503906 3.171875 -6.671875 C 2.992188 -6.835938 2.773438 -6.921875 2.515625 -6.921875 C 2.304688 -6.921875 2.125 -6.863281 1.96875 -6.75 C 1.820312 -6.644531 1.703125 -6.507812 1.609375 -6.34375 C 1.523438 -6.1875 1.460938 -6.007812 1.421875 -5.8125 C 1.390625 -5.613281 1.375 -5.425781 1.375 -5.25 C 1.375 -5.050781 1.390625 -4.820312 1.421875 -4.5625 C 1.460938 -4.3125 1.53125 -4.070312 1.625 -3.84375 C 1.71875 -3.625 1.847656 -3.4375 2.015625 -3.28125 C 2.179688 -3.132812 2.394531 -3.0625 2.65625 -3.0625 C 2.726562 -3.0625 2.820312 -3.070312 2.9375 -3.09375 C 3.050781 -3.113281 3.164062 -3.144531 3.28125 -3.1875 C 3.394531 -3.226562 3.5 -3.273438 3.59375 -3.328125 C 3.695312 -3.390625 3.769531 -3.453125 3.8125 -3.515625 C 3.832031 -3.691406 3.851562 -3.867188 3.875 -4.046875 C 3.894531 -4.222656 3.90625 -4.40625 3.90625 -4.59375 Z M 3.90625 -4.59375 "/></g></g></g><g fill="#e8d8a5" fill-opacity="1"><g transform="translate(263.151341, 129.504619)"><g><path d="M 4.90625 -4.328125 C 4.90625 -3.960938 4.859375 -3.597656 4.765625 -3.234375 C 4.671875 -2.878906 4.535156 -2.535156 4.359375 -2.203125 C 4.191406 -1.867188 3.984375 -1.554688 3.734375 -1.265625 C 3.492188 -0.984375 3.222656 -0.734375 2.921875 -0.515625 C 2.628906 -0.304688 2.3125 -0.140625 1.96875 -0.015625 C 1.625 0.0976562 1.257812 0.15625 0.875 0.15625 L 0.5625 0.15625 L 0.5625 -0.046875 C 0.988281 -0.0546875 1.375 -0.148438 1.71875 -0.328125 C 2.070312 -0.503906 2.378906 -0.734375 2.640625 -1.015625 C 2.910156 -1.304688 3.132812 -1.632812 3.3125 -2 C 3.5 -2.375 3.640625 -2.753906 3.734375 -3.140625 C 3.515625 -2.984375 3.273438 -2.851562 3.015625 -2.75 C 2.765625 -2.644531 2.503906 -2.59375 2.234375 -2.59375 C 1.941406 -2.59375 1.679688 -2.648438 1.453125 -2.765625 C 1.234375 -2.890625 1.046875 -3.050781 0.890625 -3.25 C 0.734375 -3.445312 0.613281 -3.671875 0.53125 -3.921875 C 0.457031 -4.179688 0.421875 -4.445312 0.421875 -4.71875 C 0.421875 -5.03125 0.472656 -5.335938 0.578125 -5.640625 C 0.679688 -5.941406 0.828125 -6.210938 1.015625 -6.453125 C 1.210938 -6.691406 1.445312 -6.882812 1.71875 -7.03125 C 1.988281 -7.175781 2.296875 -7.25 2.640625 -7.25 C 2.890625 -7.25 3.117188 -7.207031 3.328125 -7.125 C 3.546875 -7.039062 3.738281 -6.925781 3.90625 -6.78125 C 4.070312 -6.644531 4.21875 -6.476562 4.34375 -6.28125 C 4.46875 -6.082031 4.570312 -5.875 4.65625 -5.65625 C 4.738281 -5.445312 4.800781 -5.226562 4.84375 -5 C 4.882812 -4.769531 4.90625 -4.546875 4.90625 -4.328125 Z M 3.90625 -4.59375 C 3.90625 -4.800781 3.882812 -5.035156 3.84375 -5.296875 C 3.800781 -5.566406 3.722656 -5.820312 3.609375 -6.0625 C 3.503906 -6.300781 3.359375 -6.503906 3.171875 -6.671875 C 2.992188 -6.835938 2.773438 -6.921875 2.515625 -6.921875 C 2.304688 -6.921875 2.125 -6.863281 1.96875 -6.75 C 1.820312 -6.644531 1.703125 -6.507812 1.609375 -6.34375 C 1.523438 -6.1875 1.460938 -6.007812 1.421875 -5.8125 C 1.390625 -5.613281 1.375 -5.425781 1.375 -5.25 C 1.375 -5.050781 1.390625 -4.820312 1.421875 -4.5625 C 1.460938 -4.3125 1.53125 -4.070312 1.625 -3.84375 C 1.71875 -3.625 1.847656 -3.4375 2.015625 -3.28125 C 2.179688 -3.132812 2.394531 -3.0625 2.65625 -3.0625 C 2.726562 -3.0625 2.820312 -3.070312 2.9375 -3.09375 C 3.050781 -3.113281 3.164062 -3.144531 3.28125 -3.1875 C 3.394531 -3.226562 3.5 -3.273438 3.59375 -3.328125 C 3.695312 -3.390625 3.769531 -3.453125 3.8125 -3.515625 C 3.832031 -3.691406 3.851562 -3.867188 3.875 -4.046875 C 3.894531 -4.222656 3.90625 -4.40625 3.90625 -4.59375 Z M 3.90625 -4.59375 "/></g></g></g><g fill="#e8d8a5" fill-opacity="1"><g transform="translate(274.829494, 129.504619)"><g><path d="M 4.90625 -4.328125 C 4.90625 -3.960938 4.859375 -3.597656 4.765625 -3.234375 C 4.671875 -2.878906 4.535156 -2.535156 4.359375 -2.203125 C 4.191406 -1.867188 3.984375 -1.554688 3.734375 -1.265625 C 3.492188 -0.984375 3.222656 -0.734375 2.921875 -0.515625 C 2.628906 -0.304688 2.3125 -0.140625 1.96875 -0.015625 C 1.625 0.0976562 1.257812 0.15625 0.875 0.15625 L 0.5625 0.15625 L 0.5625 -0.046875 C 0.988281 -0.0546875 1.375 -0.148438 1.71875 -0.328125 C 2.070312 -0.503906 2.378906 -0.734375 2.640625 -1.015625 C 2.910156 -1.304688 3.132812 -1.632812 3.3125 -2 C 3.5 -2.375 3.640625 -2.753906 3.734375 -3.140625 C 3.515625 -2.984375 3.273438 -2.851562 3.015625 -2.75 C 2.765625 -2.644531 2.503906 -2.59375 2.234375 -2.59375 C 1.941406 -2.59375 1.679688 -2.648438 1.453125 -2.765625 C 1.234375 -2.890625 1.046875 -3.050781 0.890625 -3.25 C 0.734375 -3.445312 0.613281 -3.671875 0.53125 -3.921875 C 0.457031 -4.179688 0.421875 -4.445312 0.421875 -4.71875 C 0.421875 -5.03125 0.472656 -5.335938 0.578125 -5.640625 C 0.679688 -5.941406 0.828125 -6.210938 1.015625 -6.453125 C 1.210938 -6.691406 1.445312 -6.882812 1.71875 -7.03125 C 1.988281 -7.175781 2.296875 -7.25 2.640625 -7.25 C 2.890625 -7.25 3.117188 -7.207031 3.328125 -7.125 C 3.546875 -7.039062 3.738281 -6.925781 3.90625 -6.78125 C 4.070312 -6.644531 4.21875 -6.476562 4.34375 -6.28125 C 4.46875 -6.082031 4.570312 -5.875 4.65625 -5.65625 C 4.738281 -5.445312 4.800781 -5.226562 4.84375 -5 C 4.882812 -4.769531 4.90625 -4.546875 4.90625 -4.328125 Z M 3.90625 -4.59375 C 3.90625 -4.800781 3.882812 -5.035156 3.84375 -5.296875 C 3.800781 -5.566406 3.722656 -5.820312 3.609375 -6.0625 C 3.503906 -6.300781 3.359375 -6.503906 3.171875 -6.671875 C 2.992188 -6.835938 2.773438 -6.921875 2.515625 -6.921875 C 2.304688 -6.921875 2.125 -6.863281 1.96875 -6.75 C 1.820312 -6.644531 1.703125 -6.507812 1.609375 -6.34375 C 1.523438 -6.1875 1.460938 -6.007812 1.421875 -5.8125 C 1.390625 -5.613281 1.375 -5.425781 1.375 -5.25 C 1.375 -5.050781 1.390625 -4.820312 1.421875 -4.5625 C 1.460938 -4.3125 1.53125 -4.070312 1.625 -3.84375 C 1.71875 -3.625 1.847656 -3.4375 2.015625 -3.28125 C 2.179688 -3.132812 2.394531 -3.0625 2.65625 -3.0625 C 2.726562 -3.0625 2.820312 -3.070312 2.9375 -3.09375 C 3.050781 -3.113281 3.164062 -3.144531 3.28125 -3.1875 C 3.394531 -3.226562 3.5 -3.273438 3.59375 -3.328125 C 3.695312 -3.390625 3.769531 -3.453125 3.8125 -3.515625 C 3.832031 -3.691406 3.851562 -3.867188 3.875 -4.046875 C 3.894531 -4.222656 3.90625 -4.40625 3.90625 -4.59375 Z M 3.90625 -4.59375 "/></g></g></g></svg>