<svg xmlns="http://www.w3.org/2000/svg" xmlns:xlink="http://www.w3.org/1999/xlink" width="500" zoomAndPan="magnify" viewBox="0 0 375 374.999991" height="500" preserveAspectRatio="xMidYMid meet" version="1.0"><path fill="#803b04" d="M 336.269531 83.84375 C 336.496094 87.140625 336.496094 90.4375 336.496094 93.757812 C 336.496094 195.101562 259.277344 311.976562 118.085938 311.976562 L 118.085938 311.917969 C 76.375 311.984375 35.535156 300.050781 0.421875 277.539062 C 6.484375 278.265625 12.582031 278.632812 18.695312 278.648438 C 53.261719 278.675781 86.835938 267.085938 114.03125 245.75 C 81.179688 245.128906 52.378906 223.730469 42.3125 192.484375 C 53.820312 194.707031 65.675781 194.25 76.96875 191.164062 C 41.152344 183.933594 15.390625 152.492188 15.390625 115.984375 C 15.390625 115.648438 15.390625 115.335938 15.390625 115.011719 C 26.058594 120.949219 38.011719 124.246094 50.230469 124.613281 C 16.503906 102.101562 6.109375 57.269531 26.480469 22.214844 C 65.449219 70.128906 122.949219 99.261719 184.679688 102.339844 C 178.492188 75.699219 186.945312 47.789062 206.890625 29.0625 C 237.808594 0.0234375 286.433594 1.511719 315.5 32.390625 C 332.6875 29 349.164062 22.699219 364.242188 13.773438 C 358.511719 31.527344 346.523438 46.609375 330.5 56.1875 C 345.714844 54.390625 360.582031 50.324219 374.585938 44.113281 C 364.273438 59.542969 351.289062 72.988281 336.269531 83.84375 Z M 336.269531 83.84375 " fill-opacity="1" fill-rule="nonzero"/></svg>