<svg xmlns="http://www.w3.org/2000/svg" xmlns:xlink="http://www.w3.org/1999/xlink" width="500" zoomAndPan="magnify" viewBox="0 0 375 374.999991" height="500" preserveAspectRatio="xMidYMid meet" version="1.0"><defs><g/><clipPath id="id1"><path d="M 126.953125 84.679688 L 247.703125 84.679688 L 247.703125 253.429688 L 126.953125 253.429688 Z M 126.953125 84.679688 " clip-rule="nonzero"/></clipPath></defs><rect x="-37.5" width="450" fill="#ffffff" y="-37.499999" height="449.999989" fill-opacity="1"/><rect x="-37.5" width="450" fill="#803b04" y="-37.499999" height="449.999989" fill-opacity="1"/><rect x="-37.5" width="450" fill="#ffffff" y="-37.499999" height="449.999989" fill-opacity="1"/><rect x="-37.5" width="450" fill="#803b04" y="-37.499999" height="449.999989" fill-opacity="1"/><path fill="#e8d8a5" d="M 180.703125 195.644531 L 181.808594 193.996094 L 182.933594 194.964844 L 183.136719 198.171875 Z M 183.707031 199.945312 C 183.773438 199.945312 183.839844 199.929688 183.902344 199.902344 C 184.085938 199.820312 184.203125 199.632812 184.1875 199.425781 L 183.886719 194.699219 C 183.875 194.566406 183.816406 194.445312 183.71875 194.359375 L 182.027344 192.902344 C 181.921875 192.8125 181.785156 192.773438 181.644531 192.792969 C 181.511719 192.808594 181.386719 192.886719 181.308594 193 L 179.679688 195.425781 C 179.550781 195.617188 179.574219 195.871094 179.734375 196.039062 L 183.359375 199.796875 C 183.449219 199.894531 183.578125 199.945312 183.707031 199.945312 " fill-opacity="1" fill-rule="nonzero"/><path fill="#e8d8a5" d="M 193.957031 195.644531 L 191.519531 198.171875 L 191.726562 194.964844 L 192.847656 193.996094 Z M 192.632812 192.902344 L 190.941406 194.359375 C 190.84375 194.445312 190.78125 194.566406 190.773438 194.699219 L 190.46875 199.425781 C 190.457031 199.632812 190.570312 199.820312 190.757812 199.902344 C 190.820312 199.929688 190.886719 199.945312 190.953125 199.945312 C 191.082031 199.945312 191.207031 199.894531 191.300781 199.796875 L 194.925781 196.039062 C 195.082031 195.871094 195.105469 195.617188 194.976562 195.425781 L 193.347656 193 C 193.269531 192.886719 193.148438 192.808594 193.011719 192.792969 C 192.875 192.773438 192.734375 192.8125 192.632812 192.902344 " fill-opacity="1" fill-rule="nonzero"/><g clip-path="url(#id1)"><path fill="#e8d8a5" d="M 245.457031 119.558594 L 239.285156 126.042969 L 240.25 120.539062 L 243.988281 117.488281 C 244.050781 117.4375 244.097656 117.371094 244.128906 117.296875 L 246.316406 112.113281 Z M 224.917969 146.085938 L 213.460938 152.34375 L 221.246094 142.921875 L 235.9375 130.386719 Z M 206.050781 171.644531 L 203.816406 167.53125 L 209.980469 164.445312 Z M 211.511719 163.660156 L 222.105469 157.03125 L 223.574219 166.621094 L 214.222656 172.503906 L 206.035156 174.359375 L 206.496094 172.847656 Z M 219.382812 155.105469 L 226.714844 153 L 222.222656 155.8125 C 222.21875 155.8125 222.21875 155.816406 222.21875 155.816406 L 213.960938 160.984375 Z M 224.300781 164.972656 L 223 156.472656 L 228.929688 152.757812 Z M 206.414062 195.789062 L 207.085938 212.023438 L 196.5625 202.46875 L 203.761719 193.953125 C 203.832031 193.867188 203.871094 193.765625 203.875 193.65625 L 204.050781 188.652344 Z M 198.773438 246.429688 L 207.699219 214.667969 L 212.863281 227.523438 Z M 166.960938 214.664062 L 175.890625 246.433594 L 161.796875 227.523438 Z M 170.609375 188.652344 L 170.78125 193.65625 C 170.785156 193.765625 170.828125 193.867188 170.898438 193.953125 L 178.097656 202.46875 L 167.574219 212.027344 L 168.246094 195.789062 Z M 160.4375 172.503906 L 151.085938 166.621094 L 152.550781 157.03125 L 163.144531 163.660156 L 168.164062 172.84375 L 168.621094 174.359375 Z M 151.65625 156.472656 L 150.359375 164.972656 L 145.726562 152.757812 Z M 155.277344 155.105469 L 160.699219 160.984375 L 152.4375 155.816406 C 152.4375 155.8125 152.4375 155.8125 152.4375 155.8125 L 147.945312 153 Z M 170.84375 167.53125 L 168.609375 171.644531 L 164.675781 164.445312 Z M 138.722656 130.386719 L 153.414062 142.921875 L 161.195312 152.34375 L 149.742188 146.085938 Z M 128.34375 112.113281 L 130.53125 117.296875 C 130.5625 117.371094 130.609375 117.4375 130.667969 117.488281 L 134.40625 120.539062 L 135.375 126.042969 L 129.203125 119.558594 Z M 142.695312 88.871094 L 138.40625 106.203125 L 134.96875 118.128906 L 133.011719 107.003906 Z M 139.996094 118.03125 C 140.003906 118.066406 140.011719 118.101562 140.027344 118.136719 L 141.835938 122.707031 L 136.46875 126.683594 L 135.347656 120.300781 L 138.632812 108.914062 Z M 142.023438 108.367188 L 144.464844 104.246094 L 143.023438 111.066406 C 143.015625 111.082031 143.015625 111.101562 143.011719 111.121094 L 142.125 120.808594 L 140.945312 117.832031 L 140.640625 115.777344 Z M 151.160156 114.082031 C 151.144531 114.117188 151.128906 114.152344 151.117188 114.191406 L 147.601562 127.078125 L 147.601562 113.550781 L 156.15625 105.050781 Z M 144.503906 126.691406 L 146.632812 117.558594 L 146.632812 129.324219 Z M 152.015625 140.453125 L 136.910156 127.566406 L 142.203125 123.640625 L 143.527344 126.992188 C 143.53125 126.996094 143.535156 127 143.535156 127.003906 C 143.554688 127.042969 143.574219 127.082031 143.601562 127.117188 L 146.714844 130.96875 Z M 166.769531 128.25 L 170.097656 124.746094 L 168.597656 127.90625 C 168.59375 127.910156 168.59375 127.914062 168.59375 127.914062 C 168.589844 127.917969 168.589844 127.921875 168.589844 127.921875 L 165.722656 134.621094 Z M 172.921875 149.796875 L 166.859375 147.902344 L 165.097656 138.539062 L 168.445312 130.714844 L 168.125 138.921875 C 168.125 138.996094 168.136719 139.070312 168.167969 139.136719 Z M 206.210938 130.714844 L 209.558594 138.539062 L 207.800781 147.902344 L 201.734375 149.796875 L 206.488281 139.136719 C 206.519531 139.070312 206.535156 138.996094 206.53125 138.921875 Z M 207.890625 128.25 L 208.9375 134.621094 L 206.070312 127.921875 C 206.070312 127.921875 206.066406 127.917969 206.066406 127.914062 C 206.0625 127.910156 206.0625 127.910156 206.0625 127.90625 L 204.5625 124.746094 Z M 211.21875 153.535156 L 197.066406 156.402344 L 201.148438 151 L 208.367188 148.742188 C 208.382812 148.738281 208.402344 148.730469 208.417969 148.722656 L 219.199219 143.875 Z M 202.691406 167.140625 L 198.777344 173.597656 L 192.90625 175.894531 L 187.917969 166.132812 L 195.960938 157.769531 L 203.460938 163.167969 Z M 203.421875 179.640625 L 197.324219 193.195312 L 193.425781 186.644531 L 193.167969 176.835938 L 199.238281 174.457031 L 200.660156 174.1875 L 200.175781 176.164062 C 200.140625 176.289062 200.164062 176.425781 200.234375 176.539062 C 200.304688 176.648438 200.414062 176.726562 200.542969 176.753906 L 204.070312 177.507812 Z M 187.8125 227.910156 L 187.8125 208.230469 L 190.46875 207.914062 C 190.558594 207.90625 190.644531 207.871094 190.714844 207.8125 L 194.878906 204.445312 C 194.898438 204.429688 194.914062 204.414062 194.929688 204.398438 C 194.933594 204.390625 194.941406 204.386719 194.945312 204.382812 L 194.949219 204.378906 C 194.949219 204.378906 194.949219 204.378906 194.949219 204.375 L 195.9375 203.210938 L 206.867188 213.132812 Z M 179.707031 204.378906 L 179.710938 204.382812 C 179.71875 204.390625 179.726562 204.394531 179.734375 204.402344 C 179.746094 204.417969 179.761719 204.433594 179.777344 204.445312 L 183.945312 207.8125 C 184.015625 207.871094 184.101562 207.90625 184.191406 207.914062 L 186.847656 208.230469 L 186.847656 227.910156 L 167.796875 213.132812 L 178.722656 203.210938 Z M 171.351562 182.257812 L 176.800781 194.371094 L 177.339844 200.074219 L 171.746094 193.453125 Z M 174.113281 176.753906 C 174.242188 176.726562 174.355469 176.648438 174.425781 176.539062 C 174.492188 176.425781 174.515625 176.289062 174.484375 176.164062 L 174 174.1875 L 175.417969 174.457031 L 181.492188 176.835938 L 181.230469 186.644531 L 177.332031 193.195312 L 171.238281 179.640625 L 170.589844 177.507812 Z M 178.695312 157.769531 L 186.738281 166.132812 L 181.753906 175.894531 L 175.882812 173.597656 L 171.96875 167.140625 L 171.199219 163.167969 Z M 186.847656 164.84375 L 180.035156 157.765625 L 186.847656 158.535156 Z M 187.8125 158.535156 L 194.621094 157.765625 L 187.8125 164.839844 Z M 192.195312 176.628906 L 192.449219 186.21875 L 187.8125 185.515625 L 187.8125 168.0625 Z M 187.8125 204.554688 L 193.203125 204.554688 L 190.21875 206.96875 L 187.8125 207.25 Z M 186.847656 204.554688 L 186.847656 207.25 L 184.441406 206.96875 L 181.457031 204.554688 Z M 186.847656 185.515625 L 182.210938 186.21875 L 182.464844 176.628906 L 186.847656 168.054688 Z M 178.4375 201.371094 L 177.769531 194.355469 L 182.007812 187.230469 L 186.847656 186.5 L 186.847656 203.582031 L 180.304688 203.582031 Z M 196.222656 201.371094 L 194.351562 203.582031 L 187.8125 203.582031 L 187.8125 186.5 L 192.648438 187.230469 L 196.886719 194.355469 Z M 166.238281 148.722656 C 166.257812 148.730469 166.273438 148.738281 166.292969 148.742188 L 173.511719 151 L 177.59375 156.402344 L 163.441406 153.535156 L 155.460938 143.875 Z M 170.746094 162.296875 L 164.433594 154.730469 L 177.566406 157.386719 Z M 171.53125 168.292969 L 174.570312 173.304688 L 169.351562 172.304688 Z M 169.308594 173.285156 L 172.953125 173.984375 L 173.425781 175.90625 L 170.304688 176.574219 Z M 177.464844 248.457031 L 167.90625 214.449219 L 186.847656 229.136719 L 186.847656 252.226562 Z M 197.199219 248.457031 L 187.8125 252.226562 L 187.8125 229.136719 L 206.757812 214.449219 Z M 202.914062 193.453125 L 197.316406 200.074219 L 197.859375 194.371094 L 203.304688 182.257812 Z M 204.351562 176.574219 L 201.234375 175.90625 L 201.703125 173.984375 L 205.351562 173.285156 Z M 205.304688 172.304688 L 200.085938 173.304688 L 203.125 168.292969 Z M 203.914062 162.296875 L 197.09375 157.386719 L 210.222656 154.730469 Z M 227.941406 130.96875 L 231.050781 127.125 C 231.050781 127.125 231.050781 127.121094 231.050781 127.121094 L 231.054688 127.117188 C 231.085938 127.082031 231.105469 127.042969 231.125 127.003906 C 231.125 127 231.128906 126.996094 231.128906 126.992188 L 232.453125 123.640625 L 237.75 127.566406 L 222.640625 140.453125 Z M 223.539062 114.191406 C 223.53125 114.152344 223.515625 114.117188 223.496094 114.082031 L 218.5 105.050781 L 227.058594 113.550781 L 227.058594 127.078125 Z M 228.023438 117.558594 L 230.15625 126.691406 L 228.023438 129.324219 Z M 231.644531 111.121094 C 231.644531 111.101562 231.640625 111.082031 231.636719 111.066406 L 230.195312 104.246094 L 232.636719 108.367188 L 234.019531 115.777344 L 233.710938 117.832031 L 232.53125 120.808594 Z M 236.027344 108.914062 L 239.308594 120.300781 L 238.1875 126.683594 L 232.824219 122.707031 L 234.632812 118.136719 C 234.644531 118.101562 234.65625 118.066406 234.660156 118.03125 Z M 241.644531 107.003906 L 239.691406 118.128906 L 236.253906 106.210938 L 231.964844 88.871094 Z M 247.308594 108.332031 C 247.074219 108.269531 246.832031 108.390625 246.738281 108.613281 L 243.285156 116.808594 L 240.507812 119.074219 L 242.628906 107.003906 C 242.648438 106.898438 242.628906 106.789062 242.578125 106.691406 L 230.988281 84.980469 C 230.871094 84.765625 230.613281 84.671875 230.386719 84.757812 C 230.15625 84.847656 230.03125 85.089844 230.089844 85.328125 L 235.378906 106.703125 L 234.457031 112.851562 L 233.570312 108.105469 C 233.558594 108.050781 233.539062 107.996094 233.511719 107.945312 L 229.527344 101.214844 C 229.40625 101.011719 229.152344 100.925781 228.933594 101.011719 C 228.714844 101.097656 228.585938 101.332031 228.636719 101.566406 L 230.683594 111.238281 L 231.742188 122.804688 L 230.800781 125.191406 L 228.011719 113.238281 C 228.011719 113.230469 228.007812 113.226562 228.007812 113.222656 C 227.996094 113.191406 227.984375 113.15625 227.96875 113.128906 C 227.964844 113.117188 227.960938 113.109375 227.953125 113.101562 C 227.933594 113.066406 227.910156 113.03125 227.882812 113.003906 L 216.773438 101.96875 C 216.601562 101.796875 216.332031 101.777344 216.140625 101.925781 C 215.949219 102.070312 215.890625 102.335938 216.007812 102.550781 L 222.621094 114.503906 L 227.019531 130.628906 L 220.554688 142.199219 L 208.867188 147.453125 L 210.539062 138.578125 C 210.546875 138.523438 210.546875 138.472656 210.539062 138.417969 C 210.539062 138.414062 210.542969 138.410156 210.539062 138.40625 L 208.820312 127.945312 C 208.804688 127.847656 208.757812 127.757812 208.691406 127.6875 L 203.167969 121.867188 C 203.003906 121.695312 202.738281 121.667969 202.542969 121.800781 C 202.347656 121.9375 202.277344 122.195312 202.382812 122.414062 L 205.144531 128.234375 L 205.558594 138.84375 L 200.4375 150.332031 L 195.644531 156.671875 L 187.328125 157.613281 L 179.011719 156.671875 L 174.222656 150.332031 L 169.097656 138.84375 L 169.511719 128.234375 L 172.277344 122.414062 C 172.378906 122.195312 172.3125 121.9375 172.113281 121.800781 C 171.917969 121.667969 171.652344 121.695312 171.492188 121.867188 L 165.964844 127.6875 C 165.898438 127.757812 165.855469 127.847656 165.839844 127.945312 L 164.117188 138.40625 C 164.117188 138.410156 164.117188 138.414062 164.117188 138.417969 C 164.109375 138.472656 164.109375 138.523438 164.121094 138.574219 L 165.789062 147.453125 L 154.101562 142.199219 L 147.636719 130.628906 L 152.035156 114.503906 L 158.648438 102.550781 C 158.765625 102.335938 158.710938 102.070312 158.519531 101.925781 C 158.328125 101.777344 158.058594 101.796875 157.886719 101.96875 L 146.777344 113.003906 C 146.746094 113.03125 146.722656 113.066406 146.703125 113.101562 C 146.699219 113.109375 146.695312 113.117188 146.691406 113.125 C 146.671875 113.15625 146.660156 113.191406 146.652344 113.222656 C 146.652344 113.230469 146.648438 113.234375 146.644531 113.238281 L 143.859375 125.191406 L 142.914062 122.804688 L 143.976562 111.238281 L 146.019531 101.566406 C 146.070312 101.332031 145.945312 101.097656 145.722656 101.011719 C 145.503906 100.925781 145.253906 101.011719 145.132812 101.214844 L 141.148438 107.945312 C 141.117188 107.996094 141.097656 108.050781 141.085938 108.105469 L 140.199219 112.851562 L 139.277344 106.703125 L 144.566406 85.328125 C 144.628906 85.089844 144.5 84.847656 144.273438 84.757812 C 144.042969 84.671875 143.789062 84.765625 143.671875 84.980469 L 132.082031 106.691406 C 132.027344 106.789062 132.011719 106.898438 132.03125 107.003906 L 134.152344 119.074219 L 131.375 116.808594 L 127.917969 108.613281 C 127.824219 108.386719 127.582031 108.269531 127.351562 108.332031 C 127.117188 108.394531 126.964844 108.617188 126.992188 108.855469 L 128.261719 119.832031 C 128.273438 119.9375 128.320312 120.035156 128.390625 120.113281 L 135.753906 127.847656 L 149.015625 146.738281 C 149.058594 146.800781 149.113281 146.851562 149.179688 146.886719 L 162.863281 154.363281 L 170.210938 163.167969 L 170.847656 166.445312 L 163.804688 162.921875 L 155.894531 154.34375 C 155.835938 154.28125 155.757812 154.234375 155.671875 154.207031 L 144.90625 151.117188 C 144.710938 151.054688 144.488281 151.128906 144.367188 151.304688 C 144.355469 151.320312 144.34375 151.335938 144.335938 151.351562 C 144.285156 151.445312 144.269531 151.546875 144.28125 151.644531 C 144.285156 151.667969 144.289062 151.691406 144.296875 151.714844 C 144.296875 151.71875 144.296875 151.71875 144.296875 151.71875 C 144.300781 151.734375 144.304688 151.746094 144.3125 151.761719 L 150.105469 167.039062 C 150.109375 167.042969 150.109375 167.042969 150.113281 167.046875 C 150.128906 167.089844 150.152344 167.128906 150.179688 167.164062 C 150.183594 167.171875 150.191406 167.175781 150.195312 167.183594 C 150.226562 167.21875 150.261719 167.25 150.300781 167.273438 C 150.300781 167.273438 150.300781 167.277344 150.300781 167.277344 L 150.304688 167.277344 L 159.992188 173.371094 C 160.039062 173.402344 160.089844 173.421875 160.140625 173.433594 L 168.945312 175.429688 L 170.300781 179.890625 L 170.511719 185.867188 L 167.304688 195.546875 C 167.292969 195.589844 167.285156 195.632812 167.28125 195.679688 L 166.5625 213.058594 L 160.796875 227.414062 C 160.734375 227.570312 160.757812 227.75 160.859375 227.886719 L 176.675781 249.113281 C 176.703125 249.148438 176.734375 249.179688 176.769531 249.207031 C 176.777344 249.214844 176.785156 249.214844 176.792969 249.21875 C 176.824219 249.238281 176.851562 249.257812 176.882812 249.273438 L 187.148438 253.394531 C 187.160156 253.398438 187.167969 253.398438 187.175781 253.402344 C 187.1875 253.40625 187.195312 253.410156 187.203125 253.410156 C 187.246094 253.421875 187.289062 253.429688 187.328125 253.429688 C 187.371094 253.429688 187.414062 253.421875 187.453125 253.410156 C 187.464844 253.410156 187.472656 253.40625 187.484375 253.402344 C 187.492188 253.398438 187.5 253.398438 187.507812 253.394531 L 197.75 249.28125 C 197.753906 249.28125 197.753906 249.28125 197.757812 249.277344 L 197.773438 249.273438 C 197.792969 249.265625 197.808594 249.25 197.828125 249.242188 C 197.886719 249.210938 197.9375 249.167969 197.976562 249.117188 C 197.980469 249.113281 197.980469 249.113281 197.984375 249.113281 L 197.984375 249.109375 C 197.988281 249.101562 197.996094 249.097656 198 249.089844 L 213.800781 227.886719 C 213.902344 227.75 213.925781 227.570312 213.863281 227.414062 L 208.097656 213.058594 L 207.375 195.679688 C 207.375 195.632812 207.367188 195.589844 207.351562 195.546875 L 204.148438 185.863281 L 204.355469 179.890625 L 205.710938 175.429688 L 214.515625 173.433594 C 214.570312 173.421875 214.621094 173.402344 214.667969 173.371094 L 224.351562 167.28125 C 224.355469 167.277344 224.355469 167.277344 224.355469 167.277344 C 224.355469 167.277344 224.359375 167.273438 224.359375 167.273438 C 224.398438 167.25 224.433594 167.21875 224.460938 167.183594 C 224.46875 167.175781 224.472656 167.171875 224.476562 167.164062 C 224.507812 167.128906 224.527344 167.089844 224.546875 167.046875 C 224.546875 167.042969 224.550781 167.042969 224.550781 167.039062 L 230.347656 151.761719 C 230.351562 151.75 230.355469 151.734375 230.359375 151.722656 C 230.367188 151.695312 230.371094 151.667969 230.375 151.640625 C 230.386719 151.542969 230.371094 151.441406 230.320312 151.351562 C 230.3125 151.335938 230.304688 151.320312 230.292969 151.304688 C 230.171875 151.128906 229.949219 151.058594 229.753906 151.117188 L 218.984375 154.207031 C 218.902344 154.234375 218.824219 154.28125 218.761719 154.34375 L 210.855469 162.921875 L 203.8125 166.445312 L 204.445312 163.167969 L 211.792969 154.363281 L 225.476562 146.886719 C 225.542969 146.851562 225.597656 146.800781 225.640625 146.738281 L 238.902344 127.847656 L 246.265625 120.113281 C 246.339844 120.035156 246.386719 119.9375 246.398438 119.832031 L 247.664062 108.855469 C 247.691406 108.617188 247.539062 108.394531 247.308594 108.332031 " fill-opacity="1" fill-rule="nonzero"/></g><g fill="#e8d8a5" fill-opacity="1"><g transform="translate(88.160353, 43.666044)"><g><path d="M 2.15625 -15.703125 L 6.59375 -15.703125 C 8.675781 -15.703125 10.179688 -15.390625 11.109375 -14.765625 C 12.046875 -14.148438 12.515625 -13.164062 12.515625 -11.8125 C 12.515625 -10.882812 12.253906 -10.117188 11.734375 -9.515625 C 11.210938 -8.910156 10.457031 -8.519531 9.46875 -8.34375 L 9.46875 -8.234375 C 11.851562 -7.816406 13.046875 -6.5625 13.046875 -4.46875 C 13.046875 -3.0625 12.566406 -1.960938 11.609375 -1.171875 C 10.660156 -0.390625 9.335938 0 7.640625 0 L 2.15625 0 Z M 3.984375 -8.984375 L 7 -8.984375 C 8.28125 -8.984375 9.203125 -9.179688 9.765625 -9.578125 C 10.335938 -9.984375 10.625 -10.671875 10.625 -11.640625 C 10.625 -12.515625 10.304688 -13.144531 9.671875 -13.53125 C 9.046875 -13.925781 8.046875 -14.125 6.671875 -14.125 L 3.984375 -14.125 Z M 3.984375 -7.4375 L 3.984375 -1.5625 L 7.265625 -1.5625 C 8.523438 -1.5625 9.476562 -1.804688 10.125 -2.296875 C 10.769531 -2.785156 11.09375 -3.550781 11.09375 -4.59375 C 11.09375 -5.570312 10.765625 -6.289062 10.109375 -6.75 C 9.453125 -7.207031 8.453125 -7.4375 7.109375 -7.4375 Z M 3.984375 -7.4375 "/></g></g></g><g fill="#e8d8a5" fill-opacity="1"><g transform="translate(104.810707, 43.666044)"><g><path d="M 10.921875 0 L 2.15625 0 L 2.15625 -15.703125 L 10.921875 -15.703125 L 10.921875 -14.078125 L 3.984375 -14.078125 L 3.984375 -9.03125 L 10.5 -9.03125 L 10.5 -7.40625 L 3.984375 -7.40625 L 3.984375 -1.640625 L 10.921875 -1.640625 Z M 10.921875 0 "/></g></g></g><g fill="#e8d8a5" fill-opacity="1"><g transform="translate(119.441889, 43.666044)"><g><path d="M 10.921875 0 L 2.15625 0 L 2.15625 -15.703125 L 10.921875 -15.703125 L 10.921875 -14.078125 L 3.984375 -14.078125 L 3.984375 -9.03125 L 10.5 -9.03125 L 10.5 -7.40625 L 3.984375 -7.40625 L 3.984375 -1.640625 L 10.921875 -1.640625 Z M 10.921875 0 "/></g></g></g><g fill="#e8d8a5" fill-opacity="1"><g transform="translate(134.073071, 43.666044)"><g><path d="M 3.984375 -6.53125 L 3.984375 0 L 2.15625 0 L 2.15625 -15.703125 L 6.46875 -15.703125 C 8.394531 -15.703125 9.816406 -15.332031 10.734375 -14.59375 C 11.660156 -13.863281 12.125 -12.753906 12.125 -11.265625 C 12.125 -9.191406 11.066406 -7.789062 8.953125 -7.0625 L 13.21875 0 L 11.0625 0 L 7.265625 -6.53125 Z M 3.984375 -8.09375 L 6.484375 -8.09375 C 7.773438 -8.09375 8.722656 -8.347656 9.328125 -8.859375 C 9.929688 -9.378906 10.234375 -10.148438 10.234375 -11.171875 C 10.234375 -12.210938 9.925781 -12.960938 9.3125 -13.421875 C 8.695312 -13.878906 7.710938 -14.109375 6.359375 -14.109375 L 3.984375 -14.109375 Z M 3.984375 -8.09375 "/></g></g></g><g fill="#e8d8a5" fill-opacity="1"><g transform="translate(150.068262, 43.666044)"><g/></g></g><g fill="#e8d8a5" fill-opacity="1"><g transform="translate(158.180086, 43.666044)"><g><path d="M 15.796875 -7.875 C 15.796875 -5.363281 15.160156 -3.382812 13.890625 -1.9375 C 12.617188 -0.5 10.847656 0.21875 8.578125 0.21875 C 6.265625 0.21875 4.476562 -0.488281 3.21875 -1.90625 C 1.96875 -3.320312 1.34375 -5.316406 1.34375 -7.890625 C 1.34375 -10.453125 1.972656 -12.4375 3.234375 -13.84375 C 4.492188 -15.25 6.285156 -15.953125 8.609375 -15.953125 C 10.859375 -15.953125 12.617188 -15.234375 13.890625 -13.796875 C 15.160156 -12.367188 15.796875 -10.394531 15.796875 -7.875 Z M 3.28125 -7.875 C 3.28125 -5.75 3.734375 -4.132812 4.640625 -3.03125 C 5.546875 -1.9375 6.859375 -1.390625 8.578125 -1.390625 C 10.316406 -1.390625 11.628906 -1.9375 12.515625 -3.03125 C 13.410156 -4.125 13.859375 -5.738281 13.859375 -7.875 C 13.859375 -9.988281 13.414062 -11.585938 12.53125 -12.671875 C 11.644531 -13.765625 10.335938 -14.3125 8.609375 -14.3125 C 6.867188 -14.3125 5.546875 -13.757812 4.640625 -12.65625 C 3.734375 -11.5625 3.28125 -9.96875 3.28125 -7.875 Z M 3.28125 -7.875 "/></g></g></g><g fill="#e8d8a5" fill-opacity="1"><g transform="translate(177.708832, 43.666044)"><g><path d="M 2.15625 0 L 2.15625 -15.703125 L 3.984375 -15.703125 L 3.984375 -1.65625 L 10.921875 -1.65625 L 10.921875 0 Z M 2.15625 0 "/></g></g></g><g fill="#e8d8a5" fill-opacity="1"><g transform="translate(191.52375, 43.666044)"><g><path d="M 14.703125 -8 C 14.703125 -5.40625 13.992188 -3.421875 12.578125 -2.046875 C 11.171875 -0.679688 9.148438 0 6.515625 0 L 2.15625 0 L 2.15625 -15.703125 L 6.96875 -15.703125 C 9.414062 -15.703125 11.316406 -15.023438 12.671875 -13.671875 C 14.023438 -12.316406 14.703125 -10.425781 14.703125 -8 Z M 12.765625 -7.9375 C 12.765625 -9.988281 12.25 -11.53125 11.21875 -12.5625 C 10.1875 -13.601562 8.660156 -14.125 6.640625 -14.125 L 3.984375 -14.125 L 3.984375 -1.578125 L 6.203125 -1.578125 C 8.378906 -1.578125 10.015625 -2.113281 11.109375 -3.1875 C 12.210938 -4.257812 12.765625 -5.84375 12.765625 -7.9375 Z M 12.765625 -7.9375 "/></g></g></g><g fill="#e8d8a5" fill-opacity="1"><g transform="translate(209.956987, 43.666044)"><g><path d="M 11.015625 -4.171875 C 11.015625 -2.796875 10.515625 -1.71875 9.515625 -0.9375 C 8.515625 -0.164062 7.15625 0.21875 5.4375 0.21875 C 3.570312 0.21875 2.140625 -0.0195312 1.140625 -0.5 L 1.140625 -2.265625 C 1.785156 -1.992188 2.488281 -1.78125 3.25 -1.625 C 4.007812 -1.46875 4.757812 -1.390625 5.5 -1.390625 C 6.71875 -1.390625 7.632812 -1.617188 8.25 -2.078125 C 8.863281 -2.535156 9.171875 -3.175781 9.171875 -4 C 9.171875 -4.550781 9.0625 -5 8.84375 -5.34375 C 8.625 -5.6875 8.257812 -6.003906 7.75 -6.296875 C 7.238281 -6.597656 6.460938 -6.9375 5.421875 -7.3125 C 3.953125 -7.832031 2.90625 -8.445312 2.28125 -9.15625 C 1.65625 -9.875 1.34375 -10.8125 1.34375 -11.96875 C 1.34375 -13.175781 1.796875 -14.140625 2.703125 -14.859375 C 3.617188 -15.578125 4.820312 -15.9375 6.3125 -15.9375 C 7.875 -15.9375 9.3125 -15.648438 10.625 -15.078125 L 10.0625 -13.484375 C 8.757812 -14.023438 7.5 -14.296875 6.28125 -14.296875 C 5.3125 -14.296875 4.550781 -14.085938 4 -13.671875 C 3.457031 -13.253906 3.1875 -12.679688 3.1875 -11.953125 C 3.1875 -11.398438 3.285156 -10.953125 3.484375 -10.609375 C 3.691406 -10.265625 4.03125 -9.945312 4.5 -9.65625 C 4.976562 -9.363281 5.707031 -9.039062 6.6875 -8.6875 C 8.332031 -8.101562 9.460938 -7.472656 10.078125 -6.796875 C 10.703125 -6.128906 11.015625 -5.253906 11.015625 -4.171875 Z M 11.015625 -4.171875 "/></g></g></g><g fill="#e8d8a5" fill-opacity="1"><g transform="translate(224.427057, 43.666044)"><g><path d="M 7 0 L 5.171875 0 L 5.171875 -14.078125 L 0.1875 -14.078125 L 0.1875 -15.703125 L 11.96875 -15.703125 L 11.96875 -14.078125 L 7 -14.078125 Z M 7 0 "/></g></g></g><g fill="#e8d8a5" fill-opacity="1"><g transform="translate(238.993794, 43.666044)"><g><path d="M 15.796875 -7.875 C 15.796875 -5.363281 15.160156 -3.382812 13.890625 -1.9375 C 12.617188 -0.5 10.847656 0.21875 8.578125 0.21875 C 6.265625 0.21875 4.476562 -0.488281 3.21875 -1.90625 C 1.96875 -3.320312 1.34375 -5.316406 1.34375 -7.890625 C 1.34375 -10.453125 1.972656 -12.4375 3.234375 -13.84375 C 4.492188 -15.25 6.285156 -15.953125 8.609375 -15.953125 C 10.859375 -15.953125 12.617188 -15.234375 13.890625 -13.796875 C 15.160156 -12.367188 15.796875 -10.394531 15.796875 -7.875 Z M 3.28125 -7.875 C 3.28125 -5.75 3.734375 -4.132812 4.640625 -3.03125 C 5.546875 -1.9375 6.859375 -1.390625 8.578125 -1.390625 C 10.316406 -1.390625 11.628906 -1.9375 12.515625 -3.03125 C 13.410156 -4.125 13.859375 -5.738281 13.859375 -7.875 C 13.859375 -9.988281 13.414062 -11.585938 12.53125 -12.671875 C 11.644531 -13.765625 10.335938 -14.3125 8.609375 -14.3125 C 6.867188 -14.3125 5.546875 -13.757812 4.640625 -12.65625 C 3.734375 -11.5625 3.28125 -9.96875 3.28125 -7.875 Z M 3.28125 -7.875 "/></g></g></g><g fill="#e8d8a5" fill-opacity="1"><g transform="translate(258.52254, 43.666044)"><g><path d="M 3.984375 -6.53125 L 3.984375 0 L 2.15625 0 L 2.15625 -15.703125 L 6.46875 -15.703125 C 8.394531 -15.703125 9.816406 -15.332031 10.734375 -14.59375 C 11.660156 -13.863281 12.125 -12.753906 12.125 -11.265625 C 12.125 -9.191406 11.066406 -7.789062 8.953125 -7.0625 L 13.21875 0 L 11.0625 0 L 7.265625 -6.53125 Z M 3.984375 -8.09375 L 6.484375 -8.09375 C 7.773438 -8.09375 8.722656 -8.347656 9.328125 -8.859375 C 9.929688 -9.378906 10.234375 -10.148438 10.234375 -11.171875 C 10.234375 -12.210938 9.925781 -12.960938 9.3125 -13.421875 C 8.695312 -13.878906 7.710938 -14.109375 6.359375 -14.109375 L 3.984375 -14.109375 Z M 3.984375 -8.09375 "/></g></g></g><g fill="#e8d8a5" fill-opacity="1"><g transform="translate(274.517729, 43.666044)"><g><path d="M 6.15625 -7.859375 L 10.34375 -15.703125 L 12.328125 -15.703125 L 7.078125 -6.09375 L 7.078125 0 L 5.234375 0 L 5.234375 -6 L 0 -15.703125 L 2 -15.703125 Z M 6.15625 -7.859375 "/></g></g></g><g fill="#e8d8a5" fill-opacity="1"><g transform="translate(188.695506, 74.416042)"><g/></g></g><g fill="#e8d8a5" fill-opacity="1"><g transform="translate(47.226645, 336.901768)"><g><path d="M 6.953125 -25.15625 C 9.671875 -27.90625 13.21875 -29.28125 17.59375 -29.28125 C 21.96875 -29.28125 25.519531 -27.90625 28.25 -25.15625 C 30.988281 -22.414062 32.359375 -18.816406 32.359375 -14.359375 C 32.359375 -9.898438 30.988281 -6.296875 28.25 -3.546875 C 25.519531 -0.796875 21.96875 0.578125 17.59375 0.578125 C 13.21875 0.578125 9.671875 -0.796875 6.953125 -3.546875 C 4.234375 -6.296875 2.875 -9.898438 2.875 -14.359375 C 2.875 -18.816406 4.234375 -22.414062 6.953125 -25.15625 Z M 9.203125 -4.421875 C 11.328125 -1.910156 14.128906 -0.65625 17.609375 -0.65625 C 21.097656 -0.65625 23.898438 -1.910156 26.015625 -4.421875 C 28.140625 -6.941406 29.203125 -10.253906 29.203125 -14.359375 C 29.203125 -17.066406 28.722656 -19.457031 27.765625 -21.53125 C 26.804688 -23.613281 25.445312 -25.222656 23.6875 -26.359375 C 21.925781 -27.492188 19.894531 -28.0625 17.59375 -28.0625 C 14.125 -28.0625 11.328125 -26.800781 9.203125 -24.28125 C 7.085938 -21.769531 6.03125 -18.460938 6.03125 -14.359375 C 6.03125 -10.253906 7.085938 -6.941406 9.203125 -4.421875 Z M 9.203125 -4.421875 "/></g></g></g><g fill="#e8d8a5" fill-opacity="1"><g transform="translate(89.588747, 336.901768)"><g><path d="M 3 -0.40625 C 3.707031 -0.40625 4.3125 -0.65625 4.8125 -1.15625 C 5.320312 -1.664062 5.59375 -2.28125 5.625 -3 L 5.625 -25.71875 C 5.59375 -26.425781 5.320312 -27.03125 4.8125 -27.53125 C 4.3125 -28.039062 3.707031 -28.296875 3 -28.296875 L 2.46875 -28.296875 L 2.46875 -28.71875 L 11.4375 -28.71875 L 11.4375 -28.296875 L 10.90625 -28.296875 C 9.925781 -28.296875 9.175781 -27.875 8.65625 -27.03125 C 8.40625 -26.625 8.28125 -26.1875 8.28125 -25.71875 L 8.28125 -1.265625 L 14.15625 -1.265625 C 16.175781 -1.265625 17.71875 -1.71875 18.78125 -2.625 C 19.851562 -3.53125 20.742188 -4.867188 21.453125 -6.640625 L 21.859375 -6.640625 L 19.484375 0 L 2.46875 0 L 2.46875 -0.40625 Z M 3 -0.40625 "/></g></g></g><g fill="#e8d8a5" fill-opacity="1"><g transform="translate(120.632746, 336.901768)"><g><path d="M 16.359375 -28.71875 C 20.734375 -28.71875 24.28125 -27.394531 27 -24.75 C 29.726562 -22.113281 31.09375 -18.648438 31.09375 -14.359375 C 31.09375 -10.066406 29.726562 -6.597656 27 -3.953125 C 24.28125 -1.316406 20.734375 0 16.359375 0 L 2.46875 0 L 2.46875 -0.40625 L 3 -0.40625 C 3.707031 -0.40625 4.3125 -0.65625 4.8125 -1.15625 C 5.320312 -1.664062 5.59375 -2.28125 5.625 -3 L 5.625 -25.96875 C 5.625 -26.625 5.351562 -27.175781 4.8125 -27.625 C 4.28125 -28.070312 3.675781 -28.296875 3 -28.296875 L 2.5 -28.296875 L 2.46875 -28.71875 Z M 8.28125 -27.484375 L 8.28125 -1.234375 L 16.359375 -1.234375 C 18.660156 -1.234375 20.691406 -1.78125 22.453125 -2.875 C 24.222656 -3.96875 25.59375 -5.503906 26.5625 -7.484375 C 27.53125 -9.460938 28.015625 -11.753906 28.015625 -14.359375 C 28.015625 -18.296875 26.941406 -21.46875 24.796875 -23.875 C 22.648438 -26.28125 19.835938 -27.484375 16.359375 -27.484375 Z M 8.28125 -27.484375 "/></g></g></g><g fill="#e8d8a5" fill-opacity="1"><g transform="translate(161.723611, 336.901768)"><g><path d="M 2.5 -1.6875 C 2.414062 -2.0625 2.375 -2.796875 2.375 -3.890625 C 2.375 -4.984375 2.582031 -6.148438 3 -7.390625 L 3.359375 -7.390625 C 3.335938 -7.085938 3.328125 -6.785156 3.328125 -6.484375 C 3.328125 -4.816406 3.832031 -3.425781 4.84375 -2.3125 C 5.851562 -1.207031 7.191406 -0.65625 8.859375 -0.65625 C 10.578125 -0.65625 11.988281 -1.175781 13.09375 -2.21875 C 14.207031 -3.257812 14.765625 -4.5625 14.765625 -6.125 C 14.765625 -7.695312 14.234375 -8.976562 13.171875 -9.96875 L 5.296875 -17.265625 C 3.816406 -18.628906 3.078125 -20.28125 3.078125 -22.21875 C 3.078125 -24.164062 3.722656 -25.828125 5.015625 -27.203125 C 6.316406 -28.585938 8.078125 -29.28125 10.296875 -29.28125 C 11.335938 -29.28125 12.515625 -29.144531 13.828125 -28.875 L 15.421875 -28.875 L 15.421875 -23.828125 L 15.046875 -23.828125 C 15.046875 -25.117188 14.601562 -26.144531 13.71875 -26.90625 C 12.832031 -27.675781 11.691406 -28.0625 10.296875 -28.0625 C 8.898438 -28.0625 7.726562 -27.59375 6.78125 -26.65625 C 5.84375 -25.726562 5.375 -24.566406 5.375 -23.171875 C 5.375 -21.773438 5.921875 -20.570312 7.015625 -19.5625 L 15.09375 -12.09375 C 16.457031 -10.84375 17.140625 -9.125 17.140625 -6.9375 C 17.140625 -4.75 16.441406 -2.945312 15.046875 -1.53125 C 13.660156 -0.125 11.800781 0.578125 9.46875 0.578125 C 8.269531 0.578125 6.992188 0.390625 5.640625 0.015625 C 4.285156 -0.347656 3.238281 -0.914062 2.5 -1.6875 Z M 2.5 -1.6875 "/></g></g></g><g fill="#e8d8a5" fill-opacity="1"><g transform="translate(189.199958, 336.901768)"><g><path d="M 24.15625 -25.0625 C 24.15625 -25.71875 23.921875 -26.285156 23.453125 -26.765625 C 22.992188 -27.242188 22.453125 -27.492188 21.828125 -27.515625 L 14.03125 -27.515625 L 14.03125 -2.953125 C 14.050781 -2.242188 14.316406 -1.640625 14.828125 -1.140625 C 15.335938 -0.648438 15.945312 -0.40625 16.65625 -0.40625 L 17.1875 -0.40625 L 17.1875 0 L 8.203125 0 L 8.203125 -0.40625 L 8.734375 -0.40625 C 9.441406 -0.40625 10.050781 -0.648438 10.5625 -1.140625 C 11.070312 -1.640625 11.335938 -2.226562 11.359375 -2.90625 L 11.359375 -27.515625 L 3.5625 -27.515625 C 2.90625 -27.492188 2.351562 -27.242188 1.90625 -26.765625 C 1.457031 -26.285156 1.234375 -25.71875 1.234375 -25.0625 L 1.234375 -24.359375 L 0.828125 -24.328125 L 0.828125 -29.484375 C 1.234375 -29.328125 1.941406 -29.164062 2.953125 -29 C 3.960938 -28.832031 4.894531 -28.75 5.75 -28.75 L 19.609375 -28.75 C 20.941406 -28.75 22.050781 -28.851562 22.9375 -29.0625 C 23.832031 -29.269531 24.375 -29.410156 24.5625 -29.484375 L 24.5625 -24.328125 L 24.15625 -24.359375 Z M 24.15625 -25.0625 "/></g></g></g><g fill="#e8d8a5" fill-opacity="1"><g transform="translate(222.540396, 336.901768)"><g><path d="M 6.953125 -25.15625 C 9.671875 -27.90625 13.21875 -29.28125 17.59375 -29.28125 C 21.96875 -29.28125 25.519531 -27.90625 28.25 -25.15625 C 30.988281 -22.414062 32.359375 -18.816406 32.359375 -14.359375 C 32.359375 -9.898438 30.988281 -6.296875 28.25 -3.546875 C 25.519531 -0.796875 21.96875 0.578125 17.59375 0.578125 C 13.21875 0.578125 9.671875 -0.796875 6.953125 -3.546875 C 4.234375 -6.296875 2.875 -9.898438 2.875 -14.359375 C 2.875 -18.816406 4.234375 -22.414062 6.953125 -25.15625 Z M 9.203125 -4.421875 C 11.328125 -1.910156 14.128906 -0.65625 17.609375 -0.65625 C 21.097656 -0.65625 23.898438 -1.910156 26.015625 -4.421875 C 28.140625 -6.941406 29.203125 -10.253906 29.203125 -14.359375 C 29.203125 -17.066406 28.722656 -19.457031 27.765625 -21.53125 C 26.804688 -23.613281 25.445312 -25.222656 23.6875 -26.359375 C 21.925781 -27.492188 19.894531 -28.0625 17.59375 -28.0625 C 14.125 -28.0625 11.328125 -26.800781 9.203125 -24.28125 C 7.085938 -21.769531 6.03125 -18.460938 6.03125 -14.359375 C 6.03125 -10.253906 7.085938 -6.941406 9.203125 -4.421875 Z M 9.203125 -4.421875 "/></g></g></g><g fill="#e8d8a5" fill-opacity="1"><g transform="translate(264.902498, 336.901768)"><g><path d="M 10.90625 -27.4375 L 8.28125 -27.4375 L 8.28125 -3 C 8.28125 -2.28125 8.53125 -1.664062 9.03125 -1.15625 C 9.539062 -0.65625 10.164062 -0.40625 10.90625 -0.40625 L 11.40625 -0.40625 L 11.4375 0 L 2.46875 0 L 2.46875 -0.40625 L 3 -0.40625 C 3.707031 -0.40625 4.3125 -0.648438 4.8125 -1.140625 C 5.320312 -1.640625 5.59375 -2.242188 5.625 -2.953125 L 5.625 -25.71875 C 5.59375 -26.425781 5.320312 -27.03125 4.8125 -27.53125 C 4.3125 -28.039062 3.707031 -28.296875 3 -28.296875 L 2.46875 -28.296875 L 2.46875 -28.71875 L 13.53125 -28.71875 C 16.019531 -28.71875 17.972656 -28.023438 19.390625 -26.640625 C 20.816406 -25.253906 21.53125 -23.460938 21.53125 -21.265625 C 21.53125 -19.066406 20.851562 -17.164062 19.5 -15.5625 C 18.144531 -13.96875 16.5 -13.171875 14.5625 -13.171875 C 14.96875 -12.972656 15.453125 -12.59375 16.015625 -12.03125 C 16.578125 -11.476562 17.078125 -10.898438 17.515625 -10.296875 C 19.867188 -6.929688 21.398438 -4.859375 22.109375 -4.078125 C 22.816406 -3.296875 23.320312 -2.757812 23.625 -2.46875 C 23.925781 -2.1875 24.253906 -1.910156 24.609375 -1.640625 C 24.960938 -1.367188 25.316406 -1.148438 25.671875 -0.984375 C 26.460938 -0.597656 27.3125 -0.40625 28.21875 -0.40625 L 28.21875 0 L 25.96875 0 C 24.789062 0 23.695312 -0.207031 22.6875 -0.625 C 21.675781 -1.050781 20.914062 -1.488281 20.40625 -1.9375 C 19.894531 -2.394531 19.457031 -2.832031 19.09375 -3.25 C 18.726562 -3.675781 17.707031 -5.09375 16.03125 -7.5 C 14.363281 -9.90625 13.394531 -11.28125 13.125 -11.625 C 12.851562 -11.96875 12.566406 -12.304688 12.265625 -12.640625 C 11.390625 -13.566406 10.515625 -14.03125 9.640625 -14.03125 L 9.640625 -14.4375 C 9.859375 -14.40625 10.144531 -14.390625 10.5 -14.390625 C 10.851562 -14.390625 11.289062 -14.40625 11.8125 -14.4375 C 15.207031 -14.519531 17.34375 -15.941406 18.21875 -18.703125 C 18.375 -19.253906 18.453125 -19.765625 18.453125 -20.234375 C 18.453125 -20.710938 18.453125 -21.023438 18.453125 -21.171875 C 18.398438 -22.992188 17.921875 -24.46875 17.015625 -25.59375 C 16.117188 -26.71875 14.90625 -27.320312 13.375 -27.40625 C 12.71875 -27.425781 11.894531 -27.4375 10.90625 -27.4375 Z M 10.90625 -27.4375 "/></g></g></g><g fill="#e8d8a5" fill-opacity="1"><g transform="translate(300.662388, 336.901768)"><g><path d="M 27.609375 -28.296875 L 27.03125 -28.296875 C 26.21875 -28.296875 25.445312 -28.070312 24.71875 -27.625 C 23.988281 -27.175781 23.378906 -26.609375 22.890625 -25.921875 L 14.8125 -12.796875 L 14.8125 -3 C 14.8125 -2.28125 15.0625 -1.664062 15.5625 -1.15625 C 16.070312 -0.65625 16.695312 -0.40625 17.4375 -0.40625 L 17.9375 -0.40625 L 17.9375 0 L 8.984375 0 L 8.984375 -0.40625 L 9.515625 -0.40625 C 10.234375 -0.40625 10.84375 -0.648438 11.34375 -1.140625 C 11.851562 -1.640625 12.117188 -2.242188 12.140625 -2.953125 L 12.140625 -12.84375 L 4.3125 -25.921875 C 3.90625 -26.578125 3.320312 -27.132812 2.5625 -27.59375 C 1.8125 -28.0625 1.03125 -28.296875 0.21875 -28.296875 L -0.359375 -28.296875 L -0.359375 -28.71875 L 9.734375 -28.71875 L 9.734375 -28.296875 L 9.1875 -28.296875 C 8.59375 -28.296875 8.128906 -28.023438 7.796875 -27.484375 C 7.628906 -27.179688 7.546875 -26.882812 7.546875 -26.59375 C 7.546875 -26.3125 7.617188 -26.035156 7.765625 -25.765625 L 13.90625 -14.28125 L 20.46875 -25.796875 C 20.601562 -26.066406 20.671875 -26.335938 20.671875 -26.609375 C 20.671875 -26.890625 20.578125 -27.179688 20.390625 -27.484375 C 20.066406 -28.023438 19.601562 -28.296875 19 -28.296875 L 18.5 -28.296875 L 18.5 -28.71875 L 27.609375 -28.71875 Z M 27.609375 -28.296875 "/></g></g></g><g fill="#e8d8a5" fill-opacity="1"><g transform="translate(112.10783, 286.396163)"><g><path d="M 2.96875 -5.515625 C 3.664062 -5.515625 4.210938 -5.34375 4.609375 -5 C 5.015625 -4.664062 5.21875 -4.207031 5.21875 -3.625 C 5.21875 -3.03125 5.015625 -2.566406 4.609375 -2.234375 C 4.210938 -1.898438 3.664062 -1.734375 2.96875 -1.734375 L 1.484375 -1.734375 L 1.484375 0 L 0.890625 0 L 0.890625 -5.515625 Z M 2.9375 -2.25 C 3.488281 -2.25 3.90625 -2.367188 4.1875 -2.609375 C 4.476562 -2.847656 4.625 -3.1875 4.625 -3.625 C 4.625 -4.070312 4.476562 -4.414062 4.1875 -4.65625 C 3.90625 -4.894531 3.488281 -5.015625 2.9375 -5.015625 L 1.484375 -5.015625 L 1.484375 -2.25 Z M 2.9375 -2.25 "/></g></g></g><g fill="#e8d8a5" fill-opacity="1"><g transform="translate(121.244366, 286.396163)"><g><path d="M 0.890625 -5.515625 L 1.484375 -5.515625 L 1.484375 -0.5 L 4.5625 -0.5 L 4.5625 0 L 0.890625 0 Z M 0.890625 -5.515625 "/></g></g></g><g fill="#e8d8a5" fill-opacity="1"><g transform="translate(129.365734, 286.396163)"><g><path d="M 4.359375 -1.46875 L 1.28125 -1.46875 L 0.625 0 L 0.015625 0 L 2.53125 -5.515625 L 3.109375 -5.515625 L 5.625 0 L 5.015625 0 Z M 4.140625 -1.9375 L 2.8125 -4.90625 L 1.5 -1.9375 Z M 4.140625 -1.9375 "/></g></g></g><g fill="#e8d8a5" fill-opacity="1"><g transform="translate(138.494406, 286.396163)"><g><path d="M 4.875 -0.5 L 4.875 0 L 0.359375 0 L 0.359375 -0.40625 L 4.015625 -5.015625 L 0.40625 -5.015625 L 0.40625 -5.515625 L 4.78125 -5.515625 L 4.78125 -5.109375 L 1.140625 -0.5 Z M 4.875 -0.5 "/></g></g></g><g fill="#e8d8a5" fill-opacity="1"><g transform="translate(147.10368, 286.396163)"><g><path d="M 4.359375 -1.46875 L 1.28125 -1.46875 L 0.625 0 L 0.015625 0 L 2.53125 -5.515625 L 3.109375 -5.515625 L 5.625 0 L 5.015625 0 Z M 4.140625 -1.9375 L 2.8125 -4.90625 L 1.5 -1.9375 Z M 4.140625 -1.9375 "/></g></g></g><g fill="#e8d8a5" fill-opacity="1"><g transform="translate(156.23235, 286.396163)"><g/></g></g><g fill="#e8d8a5" fill-opacity="1"><g transform="translate(161.780369, 286.396163)"><g><path d="M 0.890625 -5.515625 L 3.140625 -5.515625 C 3.722656 -5.515625 4.238281 -5.394531 4.6875 -5.15625 C 5.132812 -4.925781 5.476562 -4.601562 5.71875 -4.1875 C 5.96875 -3.769531 6.09375 -3.289062 6.09375 -2.75 C 6.09375 -2.21875 5.96875 -1.742188 5.71875 -1.328125 C 5.476562 -0.910156 5.132812 -0.582031 4.6875 -0.34375 C 4.238281 -0.113281 3.722656 0 3.140625 0 L 0.890625 0 Z M 3.109375 -0.5 C 3.585938 -0.5 4.007812 -0.59375 4.375 -0.78125 C 4.738281 -0.976562 5.019531 -1.242188 5.21875 -1.578125 C 5.414062 -1.921875 5.515625 -2.3125 5.515625 -2.75 C 5.515625 -3.195312 5.414062 -3.585938 5.21875 -3.921875 C 5.019531 -4.265625 4.738281 -4.53125 4.375 -4.71875 C 4.007812 -4.914062 3.585938 -5.015625 3.109375 -5.015625 L 1.484375 -5.015625 L 1.484375 -0.5 Z M 3.109375 -0.5 "/></g></g></g><g fill="#e8d8a5" fill-opacity="1"><g transform="translate(171.766819, 286.396163)"><g><path d="M 4.796875 -0.5 L 4.796875 0 L 0.890625 0 L 0.890625 -5.515625 L 4.671875 -5.515625 L 4.671875 -5.015625 L 1.484375 -5.015625 L 1.484375 -3.046875 L 4.328125 -3.046875 L 4.328125 -2.546875 L 1.484375 -2.546875 L 1.484375 -0.5 Z M 4.796875 -0.5 "/></g></g></g><g fill="#e8d8a5" fill-opacity="1"><g transform="translate(180.517752, 286.396163)"><g/></g></g><g fill="#e8d8a5" fill-opacity="1"><g transform="translate(186.065771, 286.396163)"><g><path d="M 0.890625 -5.515625 L 1.484375 -5.515625 L 1.484375 -0.5 L 4.5625 -0.5 L 4.5625 0 L 0.890625 0 Z M 0.890625 -5.515625 "/></g></g></g><g fill="#e8d8a5" fill-opacity="1"><g transform="translate(194.187139, 286.396163)"><g><path d="M 4.359375 -1.46875 L 1.28125 -1.46875 L 0.625 0 L 0.015625 0 L 2.53125 -5.515625 L 3.109375 -5.515625 L 5.625 0 L 5.015625 0 Z M 4.140625 -1.9375 L 2.8125 -4.90625 L 1.5 -1.9375 Z M 4.140625 -1.9375 "/></g></g></g><g fill="#e8d8a5" fill-opacity="1"><g transform="translate(203.315809, 286.396163)"><g/></g></g><g fill="#e8d8a5" fill-opacity="1"><g transform="translate(208.863828, 286.396163)"><g><path d="M 3.296875 0.046875 C 2.742188 0.046875 2.25 -0.0703125 1.8125 -0.3125 C 1.375 -0.550781 1.03125 -0.882812 0.78125 -1.3125 C 0.53125 -1.738281 0.40625 -2.21875 0.40625 -2.75 C 0.40625 -3.28125 0.53125 -3.757812 0.78125 -4.1875 C 1.03125 -4.613281 1.375 -4.945312 1.8125 -5.1875 C 2.257812 -5.4375 2.753906 -5.5625 3.296875 -5.5625 C 3.703125 -5.5625 4.078125 -5.492188 4.421875 -5.359375 C 4.773438 -5.222656 5.070312 -5.019531 5.3125 -4.75 L 4.953125 -4.390625 C 4.515625 -4.828125 3.96875 -5.046875 3.3125 -5.046875 C 2.875 -5.046875 2.476562 -4.941406 2.125 -4.734375 C 1.769531 -4.535156 1.488281 -4.265625 1.28125 -3.921875 C 1.082031 -3.578125 0.984375 -3.1875 0.984375 -2.75 C 0.984375 -2.320312 1.082031 -1.9375 1.28125 -1.59375 C 1.488281 -1.25 1.769531 -0.972656 2.125 -0.765625 C 2.476562 -0.566406 2.875 -0.46875 3.3125 -0.46875 C 3.976562 -0.46875 4.523438 -0.691406 4.953125 -1.140625 L 5.3125 -0.765625 C 5.070312 -0.503906 4.773438 -0.300781 4.421875 -0.15625 C 4.078125 -0.0195312 3.703125 0.046875 3.296875 0.046875 Z M 3.296875 0.046875 "/></g></g></g><g fill="#e8d8a5" fill-opacity="1"><g transform="translate(218.008236, 286.396163)"><g><path d="M 3.3125 0.046875 C 2.757812 0.046875 2.257812 -0.0703125 1.8125 -0.3125 C 1.375 -0.5625 1.03125 -0.894531 0.78125 -1.3125 C 0.53125 -1.738281 0.40625 -2.21875 0.40625 -2.75 C 0.40625 -3.28125 0.53125 -3.757812 0.78125 -4.1875 C 1.03125 -4.613281 1.375 -4.945312 1.8125 -5.1875 C 2.257812 -5.4375 2.757812 -5.5625 3.3125 -5.5625 C 3.851562 -5.5625 4.34375 -5.4375 4.78125 -5.1875 C 5.21875 -4.945312 5.5625 -4.613281 5.8125 -4.1875 C 6.070312 -3.757812 6.203125 -3.28125 6.203125 -2.75 C 6.203125 -2.21875 6.070312 -1.738281 5.8125 -1.3125 C 5.5625 -0.882812 5.21875 -0.550781 4.78125 -0.3125 C 4.34375 -0.0703125 3.851562 0.046875 3.3125 0.046875 Z M 3.3125 -0.46875 C 3.75 -0.46875 4.140625 -0.566406 4.484375 -0.765625 C 4.835938 -0.960938 5.113281 -1.234375 5.3125 -1.578125 C 5.507812 -1.929688 5.609375 -2.320312 5.609375 -2.75 C 5.609375 -3.1875 5.507812 -3.578125 5.3125 -3.921875 C 5.113281 -4.273438 4.835938 -4.550781 4.484375 -4.75 C 4.140625 -4.945312 3.75 -5.046875 3.3125 -5.046875 C 2.875 -5.046875 2.476562 -4.945312 2.125 -4.75 C 1.769531 -4.550781 1.488281 -4.273438 1.28125 -3.921875 C 1.082031 -3.578125 0.984375 -3.1875 0.984375 -2.75 C 0.984375 -2.320312 1.082031 -1.929688 1.28125 -1.578125 C 1.488281 -1.234375 1.769531 -0.960938 2.125 -0.765625 C 2.476562 -0.566406 2.875 -0.46875 3.3125 -0.46875 Z M 3.3125 -0.46875 "/></g></g></g><g fill="#e8d8a5" fill-opacity="1"><g transform="translate(228.096986, 286.396163)"><g><path d="M 4.65625 0 L 3.40625 -1.765625 C 3.257812 -1.753906 3.113281 -1.75 2.96875 -1.75 L 1.484375 -1.75 L 1.484375 0 L 0.890625 0 L 0.890625 -5.515625 L 2.96875 -5.515625 C 3.664062 -5.515625 4.210938 -5.34375 4.609375 -5 C 5.015625 -4.664062 5.21875 -4.207031 5.21875 -3.625 C 5.21875 -3.195312 5.109375 -2.832031 4.890625 -2.53125 C 4.671875 -2.238281 4.359375 -2.023438 3.953125 -1.890625 L 5.296875 0 Z M 2.9375 -2.25 C 3.488281 -2.25 3.90625 -2.367188 4.1875 -2.609375 C 4.476562 -2.847656 4.625 -3.1875 4.625 -3.625 C 4.625 -4.070312 4.476562 -4.414062 4.1875 -4.65625 C 3.90625 -4.894531 3.488281 -5.015625 2.9375 -5.015625 L 1.484375 -5.015625 L 1.484375 -2.25 Z M 2.9375 -2.25 "/></g></g></g><g fill="#e8d8a5" fill-opacity="1"><g transform="translate(237.27287, 286.396163)"><g><path d="M 3.3125 0.046875 C 2.757812 0.046875 2.257812 -0.0703125 1.8125 -0.3125 C 1.375 -0.5625 1.03125 -0.894531 0.78125 -1.3125 C 0.53125 -1.738281 0.40625 -2.21875 0.40625 -2.75 C 0.40625 -3.28125 0.53125 -3.757812 0.78125 -4.1875 C 1.03125 -4.613281 1.375 -4.945312 1.8125 -5.1875 C 2.257812 -5.4375 2.757812 -5.5625 3.3125 -5.5625 C 3.851562 -5.5625 4.34375 -5.4375 4.78125 -5.1875 C 5.21875 -4.945312 5.5625 -4.613281 5.8125 -4.1875 C 6.070312 -3.757812 6.203125 -3.28125 6.203125 -2.75 C 6.203125 -2.21875 6.070312 -1.738281 5.8125 -1.3125 C 5.5625 -0.882812 5.21875 -0.550781 4.78125 -0.3125 C 4.34375 -0.0703125 3.851562 0.046875 3.3125 0.046875 Z M 3.3125 -0.46875 C 3.75 -0.46875 4.140625 -0.566406 4.484375 -0.765625 C 4.835938 -0.960938 5.113281 -1.234375 5.3125 -1.578125 C 5.507812 -1.929688 5.609375 -2.320312 5.609375 -2.75 C 5.609375 -3.1875 5.507812 -3.578125 5.3125 -3.921875 C 5.113281 -4.273438 4.835938 -4.550781 4.484375 -4.75 C 4.140625 -4.945312 3.75 -5.046875 3.3125 -5.046875 C 2.875 -5.046875 2.476562 -4.945312 2.125 -4.75 C 1.769531 -4.550781 1.488281 -4.273438 1.28125 -3.921875 C 1.082031 -3.578125 0.984375 -3.1875 0.984375 -2.75 C 0.984375 -2.320312 1.082031 -1.929688 1.28125 -1.578125 C 1.488281 -1.234375 1.769531 -0.960938 2.125 -0.765625 C 2.476562 -0.566406 2.875 -0.46875 3.3125 -0.46875 Z M 3.3125 -0.46875 "/></g></g></g><g fill="#e8d8a5" fill-opacity="1"><g transform="translate(247.361628, 286.396163)"><g><path d="M 5.5 -5.515625 L 5.5 0 L 5.03125 0 L 1.484375 -4.46875 L 1.484375 0 L 0.890625 0 L 0.890625 -5.515625 L 1.375 -5.515625 L 4.9375 -1.046875 L 4.9375 -5.515625 Z M 5.5 -5.515625 "/></g></g></g><g fill="#e8d8a5" fill-opacity="1"><g transform="translate(257.245778, 286.396163)"><g><path d="M 4.359375 -1.46875 L 1.28125 -1.46875 L 0.625 0 L 0.015625 0 L 2.53125 -5.515625 L 3.109375 -5.515625 L 5.625 0 L 5.015625 0 Z M 4.140625 -1.9375 L 2.8125 -4.90625 L 1.5 -1.9375 Z M 4.140625 -1.9375 "/></g></g></g><g fill="#e8d8a5" fill-opacity="1"><g transform="translate(154.491095, 368.248638)"><g><path d="M 1.9375 -5.515625 L 1.9375 0 L 1.375 0 L 1.375 -5.015625 L 0.078125 -5.015625 L 0.078125 -5.515625 Z M 1.9375 -5.515625 "/></g></g></g><g fill="#e8d8a5" fill-opacity="1"><g transform="translate(160.818206, 368.248638)"><g><path d="M 3.5625 -2.890625 C 3.914062 -2.773438 4.179688 -2.601562 4.359375 -2.375 C 4.546875 -2.144531 4.640625 -1.863281 4.640625 -1.53125 C 4.640625 -1.21875 4.550781 -0.941406 4.375 -0.703125 C 4.207031 -0.460938 3.960938 -0.273438 3.640625 -0.140625 C 3.316406 -0.015625 2.9375 0.046875 2.5 0.046875 C 1.84375 0.046875 1.320312 -0.09375 0.9375 -0.375 C 0.5625 -0.65625 0.375 -1.039062 0.375 -1.53125 C 0.375 -1.863281 0.460938 -2.144531 0.640625 -2.375 C 0.828125 -2.601562 1.09375 -2.773438 1.4375 -2.890625 C 1.15625 -3.003906 0.941406 -3.160156 0.796875 -3.359375 C 0.648438 -3.566406 0.578125 -3.816406 0.578125 -4.109375 C 0.578125 -4.546875 0.75 -4.894531 1.09375 -5.15625 C 1.445312 -5.425781 1.914062 -5.5625 2.5 -5.5625 C 2.894531 -5.5625 3.238281 -5.5 3.53125 -5.375 C 3.820312 -5.257812 4.046875 -5.09375 4.203125 -4.875 C 4.367188 -4.65625 4.453125 -4.398438 4.453125 -4.109375 C 4.453125 -3.816406 4.375 -3.566406 4.21875 -3.359375 C 4.070312 -3.160156 3.851562 -3.003906 3.5625 -2.890625 Z M 1.140625 -4.09375 C 1.140625 -3.78125 1.257812 -3.535156 1.5 -3.359375 C 1.738281 -3.179688 2.070312 -3.09375 2.5 -3.09375 C 2.925781 -3.09375 3.257812 -3.179688 3.5 -3.359375 C 3.75 -3.535156 3.875 -3.773438 3.875 -4.078125 C 3.875 -4.390625 3.75 -4.632812 3.5 -4.8125 C 3.25 -4.988281 2.914062 -5.078125 2.5 -5.078125 C 2.082031 -5.078125 1.75 -4.988281 1.5 -4.8125 C 1.257812 -4.632812 1.140625 -4.394531 1.140625 -4.09375 Z M 2.5 -0.4375 C 2.988281 -0.4375 3.367188 -0.535156 3.640625 -0.734375 C 3.921875 -0.929688 4.0625 -1.203125 4.0625 -1.546875 C 4.0625 -1.890625 3.921875 -2.15625 3.640625 -2.34375 C 3.367188 -2.539062 2.988281 -2.640625 2.5 -2.640625 C 2.019531 -2.640625 1.640625 -2.539062 1.359375 -2.34375 C 1.085938 -2.15625 0.953125 -1.890625 0.953125 -1.546875 C 0.953125 -1.203125 1.085938 -0.929688 1.359375 -0.734375 C 1.628906 -0.535156 2.007812 -0.4375 2.5 -0.4375 Z M 2.5 -0.4375 "/></g></g></g><g fill="#e8d8a5" fill-opacity="1"><g transform="translate(169.32518, 368.248638)"><g><path d="M 3.5625 -2.890625 C 3.914062 -2.773438 4.179688 -2.601562 4.359375 -2.375 C 4.546875 -2.144531 4.640625 -1.863281 4.640625 -1.53125 C 4.640625 -1.21875 4.550781 -0.941406 4.375 -0.703125 C 4.207031 -0.460938 3.960938 -0.273438 3.640625 -0.140625 C 3.316406 -0.015625 2.9375 0.046875 2.5 0.046875 C 1.84375 0.046875 1.320312 -0.09375 0.9375 -0.375 C 0.5625 -0.65625 0.375 -1.039062 0.375 -1.53125 C 0.375 -1.863281 0.460938 -2.144531 0.640625 -2.375 C 0.828125 -2.601562 1.09375 -2.773438 1.4375 -2.890625 C 1.15625 -3.003906 0.941406 -3.160156 0.796875 -3.359375 C 0.648438 -3.566406 0.578125 -3.816406 0.578125 -4.109375 C 0.578125 -4.546875 0.75 -4.894531 1.09375 -5.15625 C 1.445312 -5.425781 1.914062 -5.5625 2.5 -5.5625 C 2.894531 -5.5625 3.238281 -5.5 3.53125 -5.375 C 3.820312 -5.257812 4.046875 -5.09375 4.203125 -4.875 C 4.367188 -4.65625 4.453125 -4.398438 4.453125 -4.109375 C 4.453125 -3.816406 4.375 -3.566406 4.21875 -3.359375 C 4.070312 -3.160156 3.851562 -3.003906 3.5625 -2.890625 Z M 1.140625 -4.09375 C 1.140625 -3.78125 1.257812 -3.535156 1.5 -3.359375 C 1.738281 -3.179688 2.070312 -3.09375 2.5 -3.09375 C 2.925781 -3.09375 3.257812 -3.179688 3.5 -3.359375 C 3.75 -3.535156 3.875 -3.773438 3.875 -4.078125 C 3.875 -4.390625 3.75 -4.632812 3.5 -4.8125 C 3.25 -4.988281 2.914062 -5.078125 2.5 -5.078125 C 2.082031 -5.078125 1.75 -4.988281 1.5 -4.8125 C 1.257812 -4.632812 1.140625 -4.394531 1.140625 -4.09375 Z M 2.5 -0.4375 C 2.988281 -0.4375 3.367188 -0.535156 3.640625 -0.734375 C 3.921875 -0.929688 4.0625 -1.203125 4.0625 -1.546875 C 4.0625 -1.890625 3.921875 -2.15625 3.640625 -2.34375 C 3.367188 -2.539062 2.988281 -2.640625 2.5 -2.640625 C 2.019531 -2.640625 1.640625 -2.539062 1.359375 -2.34375 C 1.085938 -2.15625 0.953125 -1.890625 0.953125 -1.546875 C 0.953125 -1.203125 1.085938 -0.929688 1.359375 -0.734375 C 1.628906 -0.535156 2.007812 -0.4375 2.5 -0.4375 Z M 2.5 -0.4375 "/></g></g></g><g fill="#e8d8a5" fill-opacity="1"><g transform="translate(177.832155, 368.248638)"><g><path d="M 3.5625 -2.890625 C 3.914062 -2.773438 4.179688 -2.601562 4.359375 -2.375 C 4.546875 -2.144531 4.640625 -1.863281 4.640625 -1.53125 C 4.640625 -1.21875 4.550781 -0.941406 4.375 -0.703125 C 4.207031 -0.460938 3.960938 -0.273438 3.640625 -0.140625 C 3.316406 -0.015625 2.9375 0.046875 2.5 0.046875 C 1.84375 0.046875 1.320312 -0.09375 0.9375 -0.375 C 0.5625 -0.65625 0.375 -1.039062 0.375 -1.53125 C 0.375 -1.863281 0.460938 -2.144531 0.640625 -2.375 C 0.828125 -2.601562 1.09375 -2.773438 1.4375 -2.890625 C 1.15625 -3.003906 0.941406 -3.160156 0.796875 -3.359375 C 0.648438 -3.566406 0.578125 -3.816406 0.578125 -4.109375 C 0.578125 -4.546875 0.75 -4.894531 1.09375 -5.15625 C 1.445312 -5.425781 1.914062 -5.5625 2.5 -5.5625 C 2.894531 -5.5625 3.238281 -5.5 3.53125 -5.375 C 3.820312 -5.257812 4.046875 -5.09375 4.203125 -4.875 C 4.367188 -4.65625 4.453125 -4.398438 4.453125 -4.109375 C 4.453125 -3.816406 4.375 -3.566406 4.21875 -3.359375 C 4.070312 -3.160156 3.851562 -3.003906 3.5625 -2.890625 Z M 1.140625 -4.09375 C 1.140625 -3.78125 1.257812 -3.535156 1.5 -3.359375 C 1.738281 -3.179688 2.070312 -3.09375 2.5 -3.09375 C 2.925781 -3.09375 3.257812 -3.179688 3.5 -3.359375 C 3.75 -3.535156 3.875 -3.773438 3.875 -4.078125 C 3.875 -4.390625 3.75 -4.632812 3.5 -4.8125 C 3.25 -4.988281 2.914062 -5.078125 2.5 -5.078125 C 2.082031 -5.078125 1.75 -4.988281 1.5 -4.8125 C 1.257812 -4.632812 1.140625 -4.394531 1.140625 -4.09375 Z M 2.5 -0.4375 C 2.988281 -0.4375 3.367188 -0.535156 3.640625 -0.734375 C 3.921875 -0.929688 4.0625 -1.203125 4.0625 -1.546875 C 4.0625 -1.890625 3.921875 -2.15625 3.640625 -2.34375 C 3.367188 -2.539062 2.988281 -2.640625 2.5 -2.640625 C 2.019531 -2.640625 1.640625 -2.539062 1.359375 -2.34375 C 1.085938 -2.15625 0.953125 -1.890625 0.953125 -1.546875 C 0.953125 -1.203125 1.085938 -0.929688 1.359375 -0.734375 C 1.628906 -0.535156 2.007812 -0.4375 2.5 -0.4375 Z M 2.5 -0.4375 "/></g></g></g><g fill="#e8d8a5" fill-opacity="1"><g transform="translate(186.339129, 368.248638)"><g><path d="M 0.46875 -2.375 L 2.53125 -2.375 L 2.53125 -1.890625 L 0.46875 -1.890625 Z M 0.46875 -2.375 "/></g></g></g><g fill="#e8d8a5" fill-opacity="1"><g transform="translate(192.831498, 368.248638)"><g><path d="M 1.9375 -5.515625 L 1.9375 0 L 1.375 0 L 1.375 -5.015625 L 0.078125 -5.015625 L 0.078125 -5.515625 Z M 1.9375 -5.515625 "/></g></g></g><g fill="#e8d8a5" fill-opacity="1"><g transform="translate(199.158608, 368.248638)"><g><path d="M 2.125 -5.5625 C 2.851562 -5.5625 3.410156 -5.320312 3.796875 -4.84375 C 4.191406 -4.363281 4.390625 -3.679688 4.390625 -2.796875 C 4.390625 -2.179688 4.28125 -1.660156 4.0625 -1.234375 C 3.851562 -0.816406 3.5625 -0.5 3.1875 -0.28125 C 2.8125 -0.0625 2.367188 0.046875 1.859375 0.046875 C 1.316406 0.046875 0.882812 -0.0507812 0.5625 -0.25 L 0.78125 -0.703125 C 1.050781 -0.535156 1.410156 -0.453125 1.859375 -0.453125 C 2.460938 -0.453125 2.9375 -0.644531 3.28125 -1.03125 C 3.632812 -1.414062 3.8125 -1.972656 3.8125 -2.703125 C 3.8125 -2.835938 3.800781 -2.988281 3.78125 -3.15625 C 3.644531 -2.851562 3.425781 -2.617188 3.125 -2.453125 C 2.832031 -2.296875 2.492188 -2.21875 2.109375 -2.21875 C 1.742188 -2.21875 1.421875 -2.285156 1.140625 -2.421875 C 0.859375 -2.554688 0.640625 -2.75 0.484375 -3 C 0.328125 -3.25 0.25 -3.535156 0.25 -3.859375 C 0.25 -4.203125 0.328125 -4.5 0.484375 -4.75 C 0.648438 -5.007812 0.875 -5.207031 1.15625 -5.34375 C 1.445312 -5.488281 1.769531 -5.5625 2.125 -5.5625 Z M 2.1875 -2.6875 C 2.46875 -2.6875 2.710938 -2.738281 2.921875 -2.84375 C 3.140625 -2.957031 3.304688 -3.101562 3.421875 -3.28125 C 3.546875 -3.46875 3.609375 -3.671875 3.609375 -3.890625 C 3.609375 -4.109375 3.550781 -4.304688 3.4375 -4.484375 C 3.320312 -4.660156 3.15625 -4.800781 2.9375 -4.90625 C 2.71875 -5.019531 2.457031 -5.078125 2.15625 -5.078125 C 1.75 -5.078125 1.421875 -4.96875 1.171875 -4.75 C 0.921875 -4.53125 0.796875 -4.238281 0.796875 -3.875 C 0.796875 -3.519531 0.921875 -3.234375 1.171875 -3.015625 C 1.421875 -2.796875 1.757812 -2.6875 2.1875 -2.6875 Z M 2.1875 -2.6875 "/></g></g></g><g fill="#e8d8a5" fill-opacity="1"><g transform="translate(207.437362, 368.248638)"><g><path d="M 2.125 -5.5625 C 2.851562 -5.5625 3.410156 -5.320312 3.796875 -4.84375 C 4.191406 -4.363281 4.390625 -3.679688 4.390625 -2.796875 C 4.390625 -2.179688 4.28125 -1.660156 4.0625 -1.234375 C 3.851562 -0.816406 3.5625 -0.5 3.1875 -0.28125 C 2.8125 -0.0625 2.367188 0.046875 1.859375 0.046875 C 1.316406 0.046875 0.882812 -0.0507812 0.5625 -0.25 L 0.78125 -0.703125 C 1.050781 -0.535156 1.410156 -0.453125 1.859375 -0.453125 C 2.460938 -0.453125 2.9375 -0.644531 3.28125 -1.03125 C 3.632812 -1.414062 3.8125 -1.972656 3.8125 -2.703125 C 3.8125 -2.835938 3.800781 -2.988281 3.78125 -3.15625 C 3.644531 -2.851562 3.425781 -2.617188 3.125 -2.453125 C 2.832031 -2.296875 2.492188 -2.21875 2.109375 -2.21875 C 1.742188 -2.21875 1.421875 -2.285156 1.140625 -2.421875 C 0.859375 -2.554688 0.640625 -2.75 0.484375 -3 C 0.328125 -3.25 0.25 -3.535156 0.25 -3.859375 C 0.25 -4.203125 0.328125 -4.5 0.484375 -4.75 C 0.648438 -5.007812 0.875 -5.207031 1.15625 -5.34375 C 1.445312 -5.488281 1.769531 -5.5625 2.125 -5.5625 Z M 2.1875 -2.6875 C 2.46875 -2.6875 2.710938 -2.738281 2.921875 -2.84375 C 3.140625 -2.957031 3.304688 -3.101562 3.421875 -3.28125 C 3.546875 -3.46875 3.609375 -3.671875 3.609375 -3.890625 C 3.609375 -4.109375 3.550781 -4.304688 3.4375 -4.484375 C 3.320312 -4.660156 3.15625 -4.800781 2.9375 -4.90625 C 2.71875 -5.019531 2.457031 -5.078125 2.15625 -5.078125 C 1.75 -5.078125 1.421875 -4.96875 1.171875 -4.75 C 0.921875 -4.53125 0.796875 -4.238281 0.796875 -3.875 C 0.796875 -3.519531 0.921875 -3.234375 1.171875 -3.015625 C 1.421875 -2.796875 1.757812 -2.6875 2.1875 -2.6875 Z M 2.1875 -2.6875 "/></g></g></g><g fill="#e8d8a5" fill-opacity="1"><g transform="translate(215.716117, 368.248638)"><g><path d="M 2.125 -5.5625 C 2.851562 -5.5625 3.410156 -5.320312 3.796875 -4.84375 C 4.191406 -4.363281 4.390625 -3.679688 4.390625 -2.796875 C 4.390625 -2.179688 4.28125 -1.660156 4.0625 -1.234375 C 3.851562 -0.816406 3.5625 -0.5 3.1875 -0.28125 C 2.8125 -0.0625 2.367188 0.046875 1.859375 0.046875 C 1.316406 0.046875 0.882812 -0.0507812 0.5625 -0.25 L 0.78125 -0.703125 C 1.050781 -0.535156 1.410156 -0.453125 1.859375 -0.453125 C 2.460938 -0.453125 2.9375 -0.644531 3.28125 -1.03125 C 3.632812 -1.414062 3.8125 -1.972656 3.8125 -2.703125 C 3.8125 -2.835938 3.800781 -2.988281 3.78125 -3.15625 C 3.644531 -2.851562 3.425781 -2.617188 3.125 -2.453125 C 2.832031 -2.296875 2.492188 -2.21875 2.109375 -2.21875 C 1.742188 -2.21875 1.421875 -2.285156 1.140625 -2.421875 C 0.859375 -2.554688 0.640625 -2.75 0.484375 -3 C 0.328125 -3.25 0.25 -3.535156 0.25 -3.859375 C 0.25 -4.203125 0.328125 -4.5 0.484375 -4.75 C 0.648438 -5.007812 0.875 -5.207031 1.15625 -5.34375 C 1.445312 -5.488281 1.769531 -5.5625 2.125 -5.5625 Z M 2.1875 -2.6875 C 2.46875 -2.6875 2.710938 -2.738281 2.921875 -2.84375 C 3.140625 -2.957031 3.304688 -3.101562 3.421875 -3.28125 C 3.546875 -3.46875 3.609375 -3.671875 3.609375 -3.890625 C 3.609375 -4.109375 3.550781 -4.304688 3.4375 -4.484375 C 3.320312 -4.660156 3.15625 -4.800781 2.9375 -4.90625 C 2.71875 -5.019531 2.457031 -5.078125 2.15625 -5.078125 C 1.75 -5.078125 1.421875 -4.96875 1.171875 -4.75 C 0.921875 -4.53125 0.796875 -4.238281 0.796875 -3.875 C 0.796875 -3.519531 0.921875 -3.234375 1.171875 -3.015625 C 1.421875 -2.796875 1.757812 -2.6875 2.1875 -2.6875 Z M 2.1875 -2.6875 "/></g></g></g></svg>