<svg xmlns="http://www.w3.org/2000/svg" xmlns:xlink="http://www.w3.org/1999/xlink" width="250" zoomAndPan="magnify" viewBox="0 0 187.5 187.499992" height="250" preserveAspectRatio="xMidYMid meet" version="1.0"><defs><clipPath id="id1"><path d="M 26.367188 0 L 161.367188 0 L 161.367188 187 L 26.367188 187 Z M 26.367188 0 " clip-rule="nonzero"/></clipPath></defs><path fill="#e8d8a5" d="M 86.460938 123.292969 L 87.699219 121.464844 L 88.953125 122.539062 L 89.183594 126.101562 Z M 89.816406 128.074219 C 89.890625 128.074219 89.964844 128.054688 90.035156 128.027344 C 90.246094 127.933594 90.371094 127.722656 90.359375 127.496094 L 90.019531 122.242188 C 90.011719 122.097656 89.941406 121.960938 89.832031 121.867188 L 87.941406 120.25 C 87.824219 120.148438 87.671875 120.105469 87.515625 120.125 C 87.363281 120.144531 87.226562 120.230469 87.140625 120.355469 L 85.320312 123.050781 C 85.175781 123.265625 85.199219 123.546875 85.378906 123.730469 L 89.429688 127.90625 C 89.535156 128.015625 89.675781 128.074219 89.816406 128.074219 " fill-opacity="1" fill-rule="nonzero"/><path fill="#e8d8a5" d="M 101.277344 123.292969 L 98.554688 126.101562 L 98.785156 122.539062 L 100.039062 121.464844 Z M 99.796875 120.25 L 97.90625 121.867188 C 97.796875 121.960938 97.730469 122.097656 97.71875 122.242188 L 97.378906 127.496094 C 97.367188 127.722656 97.496094 127.933594 97.703125 128.027344 C 97.773438 128.054688 97.847656 128.074219 97.921875 128.074219 C 98.0625 128.074219 98.207031 128.015625 98.308594 127.90625 L 102.359375 123.730469 C 102.539062 123.546875 102.5625 123.265625 102.421875 123.050781 L 100.597656 120.355469 C 100.511719 120.230469 100.375 120.144531 100.222656 120.125 C 100.066406 120.105469 99.914062 120.148438 99.796875 120.25 " fill-opacity="1" fill-rule="nonzero"/><g clip-path="url(#id1)"><path fill="#e8d8a5" d="M 158.851562 38.753906 L 151.953125 45.957031 L 153.035156 39.839844 L 157.210938 36.453125 C 157.28125 36.394531 157.335938 36.324219 157.371094 36.242188 L 159.8125 30.480469 Z M 135.890625 68.226562 L 123.085938 75.179688 L 131.785156 64.710938 L 148.210938 50.789062 Z M 114.796875 96.625 L 112.300781 92.054688 L 119.195312 88.628906 Z M 120.90625 87.757812 L 132.75 80.390625 L 134.390625 91.046875 L 123.9375 97.582031 L 114.785156 99.640625 L 115.296875 97.960938 Z M 129.703125 78.25 L 137.898438 75.914062 L 132.878906 79.039062 C 132.875 79.039062 132.875 79.039062 132.875 79.039062 L 123.640625 84.785156 Z M 135.203125 89.210938 L 133.75 79.769531 L 140.378906 75.644531 Z M 115.203125 123.453125 L 115.957031 141.492188 L 104.195312 130.875 L 112.238281 121.414062 C 112.316406 121.320312 112.363281 121.203125 112.367188 121.082031 L 112.5625 115.527344 Z M 106.664062 179.71875 L 116.644531 144.433594 L 122.414062 158.714844 Z M 71.097656 144.429688 L 81.082031 179.726562 L 65.324219 158.714844 Z M 75.175781 115.523438 L 75.371094 121.082031 C 75.375 121.203125 75.421875 121.320312 75.5 121.414062 L 83.546875 130.875 L 71.78125 141.496094 L 72.535156 123.453125 Z M 63.804688 97.582031 L 53.351562 91.046875 L 54.988281 80.390625 L 66.832031 87.757812 L 72.441406 97.960938 L 72.953125 99.640625 Z M 53.992188 79.769531 L 52.539062 89.210938 L 47.359375 75.644531 Z M 58.035156 78.25 L 64.097656 84.785156 L 54.863281 79.039062 L 49.839844 75.914062 Z M 75.4375 92.054688 L 72.941406 96.625 L 68.542969 88.628906 Z M 39.527344 50.789062 L 55.953125 64.710938 L 64.65625 75.179688 L 51.847656 68.226562 Z M 27.925781 30.480469 L 30.371094 36.242188 C 30.40625 36.324219 30.457031 36.394531 30.527344 36.453125 L 34.707031 39.839844 L 35.785156 45.957031 L 28.886719 38.753906 Z M 43.96875 4.65625 L 39.175781 23.914062 L 35.332031 37.164062 L 33.144531 24.804688 Z M 40.953125 37.054688 C 40.960938 37.097656 40.972656 37.136719 40.988281 37.175781 L 43.007812 42.253906 L 37.011719 46.667969 L 35.757812 39.578125 L 39.425781 26.925781 Z M 43.21875 26.320312 L 45.949219 21.738281 L 44.335938 29.316406 C 44.332031 29.335938 44.328125 29.359375 44.324219 29.378906 L 43.332031 40.144531 L 42.015625 36.832031 L 41.671875 34.554688 Z M 53.4375 32.671875 C 53.414062 32.707031 53.398438 32.746094 53.386719 32.789062 L 49.457031 47.109375 L 49.457031 32.078125 L 59.019531 22.636719 Z M 45.992188 46.675781 L 48.375 36.53125 L 48.375 49.601562 Z M 54.390625 61.972656 L 37.5 47.652344 L 43.421875 43.292969 L 44.902344 47.011719 C 44.902344 47.015625 44.90625 47.019531 44.910156 47.023438 C 44.929688 47.070312 44.953125 47.113281 44.984375 47.152344 L 48.464844 51.429688 Z M 70.886719 48.410156 L 74.605469 44.515625 L 72.925781 48.027344 C 72.925781 48.03125 72.925781 48.035156 72.921875 48.039062 C 72.921875 48.042969 72.917969 48.042969 72.917969 48.046875 L 69.714844 55.492188 Z M 77.761719 72.351562 L 70.984375 70.246094 L 69.015625 59.84375 L 72.761719 51.148438 L 72.402344 60.265625 C 72.398438 60.351562 72.414062 60.433594 72.449219 60.507812 Z M 114.980469 51.148438 L 118.722656 59.84375 L 116.753906 70.246094 L 109.976562 72.351562 L 115.289062 60.507812 C 115.324219 60.433594 115.339844 60.351562 115.335938 60.265625 Z M 116.855469 48.410156 L 118.027344 55.492188 L 114.820312 48.046875 C 114.820312 48.042969 114.816406 48.042969 114.816406 48.039062 C 114.816406 48.035156 114.8125 48.03125 114.8125 48.027344 L 113.132812 44.515625 Z M 120.578125 76.503906 L 104.753906 79.6875 L 109.316406 73.6875 L 117.386719 71.179688 C 117.40625 71.175781 117.429688 71.167969 117.445312 71.15625 L 129.5 65.773438 Z M 111.042969 91.621094 L 106.667969 98.796875 L 100.105469 101.347656 L 94.527344 90.503906 L 103.519531 81.210938 L 111.90625 87.207031 Z M 111.859375 105.507812 L 105.042969 120.574219 L 100.6875 113.292969 L 100.398438 102.394531 L 107.183594 99.753906 L 108.773438 99.453125 L 108.230469 101.648438 C 108.195312 101.789062 108.21875 101.9375 108.296875 102.0625 C 108.375 102.1875 108.5 102.273438 108.644531 102.304688 L 112.582031 103.140625 Z M 94.410156 159.144531 L 94.410156 137.277344 L 97.378906 136.929688 C 97.480469 136.917969 97.574219 136.875 97.65625 136.8125 L 102.3125 133.074219 C 102.332031 133.058594 102.347656 133.039062 102.367188 133.019531 C 102.371094 133.011719 102.378906 133.007812 102.382812 133 L 102.386719 132.996094 C 102.390625 132.996094 102.390625 132.996094 102.390625 132.996094 L 103.492188 131.699219 L 115.710938 142.726562 Z M 85.351562 132.996094 L 85.355469 133 C 85.359375 133.011719 85.371094 133.015625 85.375 133.023438 C 85.394531 133.042969 85.410156 133.058594 85.429688 133.074219 L 90.085938 136.8125 C 90.164062 136.875 90.261719 136.917969 90.359375 136.929688 L 93.332031 137.277344 L 93.332031 159.144531 L 72.03125 142.726562 L 84.246094 131.699219 Z M 76.007812 108.421875 L 82.097656 121.878906 L 82.703125 128.214844 L 76.449219 120.855469 Z M 79.097656 102.304688 C 79.238281 102.273438 79.363281 102.1875 79.441406 102.0625 C 79.519531 101.9375 79.542969 101.789062 79.507812 101.648438 L 78.96875 99.453125 L 80.554688 99.753906 L 87.34375 102.394531 L 87.050781 113.292969 L 82.695312 120.574219 L 75.878906 105.507812 L 75.15625 103.140625 Z M 84.21875 81.210938 L 93.210938 90.503906 L 87.632812 101.347656 L 81.070312 98.796875 L 76.695312 91.621094 L 75.835938 87.207031 Z M 93.332031 89.070312 L 85.71875 81.207031 L 93.332031 82.0625 Z M 94.410156 82.0625 L 102.023438 81.207031 L 94.410156 89.066406 Z M 99.308594 102.167969 L 99.59375 112.820312 L 94.410156 112.042969 L 94.410156 92.644531 Z M 94.410156 133.191406 L 100.4375 133.191406 L 97.097656 135.875 L 94.410156 136.1875 Z M 93.332031 133.191406 L 93.332031 136.191406 L 90.640625 135.875 L 87.304688 133.191406 Z M 93.332031 112.042969 L 88.148438 112.820312 L 88.429688 102.167969 L 93.332031 92.636719 Z M 83.929688 129.65625 L 83.183594 121.863281 L 87.921875 113.945312 L 93.332031 113.132812 L 93.332031 132.113281 L 86.015625 132.113281 Z M 103.808594 129.65625 L 101.722656 132.113281 L 94.410156 132.113281 L 94.410156 113.136719 L 99.816406 113.945312 L 104.554688 121.863281 Z M 70.292969 71.15625 C 70.3125 71.167969 70.332031 71.175781 70.351562 71.179688 L 78.421875 73.6875 L 82.984375 79.6875 L 67.164062 76.503906 L 58.242188 65.773438 Z M 75.332031 86.238281 L 68.273438 77.832031 L 82.957031 80.785156 Z M 76.207031 92.902344 L 79.609375 98.472656 L 73.773438 97.359375 Z M 73.722656 98.449219 L 77.796875 99.226562 L 78.324219 101.363281 L 74.839844 102.105469 Z M 82.839844 181.976562 L 72.152344 144.1875 L 93.332031 160.507812 L 93.332031 186.164062 Z M 104.902344 181.972656 L 94.410156 186.160156 L 94.410156 160.507812 L 115.589844 144.1875 Z M 111.292969 120.855469 L 105.035156 128.214844 L 105.640625 121.878906 L 111.730469 108.421875 Z M 112.898438 102.105469 L 109.414062 101.363281 L 109.941406 99.226562 L 114.015625 98.449219 Z M 113.964844 97.359375 L 108.132812 98.472656 L 111.53125 92.902344 Z M 112.410156 86.238281 L 104.785156 80.785156 L 119.464844 77.832031 Z M 139.273438 51.429688 L 142.746094 47.160156 C 142.75 47.160156 142.75 47.160156 142.75 47.15625 L 142.753906 47.152344 C 142.789062 47.113281 142.808594 47.070312 142.828125 47.023438 C 142.832031 47.019531 142.835938 47.015625 142.835938 47.011719 L 144.320312 43.292969 L 150.238281 47.652344 L 133.347656 61.972656 Z M 134.351562 32.789062 C 134.339844 32.746094 134.324219 32.707031 134.304688 32.671875 L 128.71875 22.636719 L 138.285156 32.078125 L 138.285156 47.109375 Z M 139.367188 36.53125 L 141.746094 46.679688 L 139.367188 49.601562 Z M 143.414062 29.378906 C 143.410156 29.359375 143.40625 29.335938 143.402344 29.316406 L 141.789062 21.738281 L 144.519531 26.320312 L 146.066406 34.554688 L 145.722656 36.832031 L 144.40625 40.144531 Z M 148.3125 26.925781 L 151.980469 39.578125 L 150.726562 46.667969 L 144.730469 42.253906 L 146.753906 37.175781 C 146.769531 37.136719 146.777344 37.097656 146.785156 37.054688 Z M 154.59375 24.804688 L 152.40625 37.164062 L 148.566406 23.921875 L 143.769531 4.65625 Z M 160.925781 26.277344 C 160.664062 26.210938 160.390625 26.34375 160.289062 26.589844 L 156.425781 35.699219 L 153.320312 38.214844 L 155.691406 24.804688 C 155.714844 24.6875 155.695312 24.5625 155.636719 24.457031 L 142.675781 0.335938 C 142.546875 0.09375 142.257812 -0.0117188 142.003906 0.0859375 C 141.75 0.183594 141.609375 0.457031 141.675781 0.71875 L 147.585938 24.46875 L 146.558594 31.304688 L 145.566406 26.027344 C 145.554688 25.964844 145.53125 25.90625 145.5 25.851562 L 141.042969 18.371094 C 140.910156 18.144531 140.628906 18.050781 140.382812 18.144531 C 140.136719 18.242188 139.996094 18.503906 140.050781 18.761719 L 142.339844 29.511719 L 143.523438 42.363281 L 142.46875 45.011719 L 139.351562 31.730469 C 139.351562 31.726562 139.347656 31.71875 139.34375 31.714844 C 139.335938 31.675781 139.320312 31.640625 139.304688 31.609375 C 139.296875 31.597656 139.292969 31.585938 139.285156 31.578125 C 139.265625 31.539062 139.238281 31.503906 139.207031 31.472656 C 139.207031 31.472656 139.203125 31.472656 139.203125 31.46875 L 126.785156 19.207031 C 126.59375 19.019531 126.292969 19 126.078125 19.160156 C 125.863281 19.324219 125.800781 19.621094 125.933594 19.855469 L 133.324219 33.136719 L 138.242188 51.054688 L 131.015625 63.910156 L 117.949219 69.75 L 119.816406 59.882812 C 119.828125 59.828125 119.828125 59.765625 119.820312 59.707031 C 119.816406 59.703125 119.820312 59.699219 119.820312 59.695312 L 117.894531 48.074219 C 117.878906 47.964844 117.828125 47.867188 117.753906 47.789062 L 111.578125 41.320312 C 111.394531 41.128906 111.097656 41.09375 110.878906 41.246094 C 110.660156 41.398438 110.582031 41.683594 110.699219 41.925781 L 113.789062 48.394531 L 114.25 60.183594 L 108.523438 72.949219 L 103.167969 79.992188 L 93.871094 81.035156 L 84.574219 79.992188 L 79.214844 72.949219 L 73.488281 60.183594 L 73.953125 48.394531 L 77.042969 41.925781 C 77.15625 41.683594 77.078125 41.398438 76.859375 41.246094 C 76.640625 41.097656 76.34375 41.128906 76.164062 41.320312 L 69.984375 47.789062 C 69.910156 47.867188 69.863281 47.964844 69.84375 48.074219 L 67.921875 59.695312 C 67.917969 59.699219 67.921875 59.703125 67.921875 59.710938 C 67.914062 59.765625 67.914062 59.824219 67.921875 59.882812 L 69.789062 69.75 L 56.722656 63.910156 L 49.496094 51.054688 L 54.414062 33.136719 L 61.804688 19.855469 C 61.9375 19.621094 61.875 19.324219 61.660156 19.160156 C 61.445312 19 61.144531 19.019531 60.953125 19.207031 L 48.535156 31.46875 C 48.535156 31.46875 48.535156 31.472656 48.535156 31.472656 C 48.5 31.503906 48.472656 31.539062 48.453125 31.578125 C 48.445312 31.589844 48.441406 31.597656 48.4375 31.605469 C 48.417969 31.640625 48.402344 31.679688 48.394531 31.714844 C 48.390625 31.722656 48.386719 31.726562 48.386719 31.730469 L 45.269531 45.011719 L 44.214844 42.363281 L 45.402344 29.511719 L 47.6875 18.761719 C 47.742188 18.503906 47.601562 18.242188 47.355469 18.144531 C 47.109375 18.050781 46.828125 18.144531 46.695312 18.371094 L 42.238281 25.851562 C 42.207031 25.90625 42.183594 25.964844 42.171875 26.027344 L 41.183594 31.304688 L 40.152344 24.46875 L 46.066406 0.71875 C 46.128906 0.457031 45.988281 0.183594 45.734375 0.0859375 C 45.480469 -0.0117188 45.191406 0.0976562 45.0625 0.335938 L 32.101562 24.457031 C 32.046875 24.5625 32.027344 24.6875 32.046875 24.804688 L 34.417969 38.214844 L 31.3125 35.699219 L 27.453125 26.589844 C 27.347656 26.34375 27.078125 26.210938 26.816406 26.277344 C 26.554688 26.347656 26.382812 26.597656 26.417969 26.863281 L 27.832031 39.058594 C 27.847656 39.175781 27.898438 39.285156 27.980469 39.371094 L 36.210938 47.964844 L 51.035156 68.953125 C 51.085938 69.023438 51.148438 69.078125 51.222656 69.117188 L 66.519531 77.421875 L 74.734375 87.210938 L 75.441406 90.847656 L 67.570312 86.933594 L 58.726562 77.40625 C 58.660156 77.332031 58.574219 77.28125 58.480469 77.253906 L 46.441406 73.820312 C 46.222656 73.75 45.972656 73.832031 45.839844 74.027344 C 45.828125 74.042969 45.816406 74.0625 45.804688 74.082031 C 45.75 74.183594 45.730469 74.296875 45.746094 74.40625 C 45.75 74.429688 45.753906 74.457031 45.761719 74.484375 C 45.765625 74.503906 45.773438 74.519531 45.777344 74.535156 L 52.253906 91.507812 C 52.257812 91.511719 52.261719 91.515625 52.261719 91.519531 C 52.28125 91.566406 52.308594 91.609375 52.335938 91.648438 C 52.34375 91.65625 52.351562 91.664062 52.355469 91.671875 C 52.390625 91.707031 52.425781 91.742188 52.472656 91.769531 C 52.472656 91.773438 52.472656 91.773438 52.472656 91.773438 L 52.476562 91.773438 C 52.476562 91.777344 52.476562 91.777344 52.476562 91.777344 L 63.308594 98.546875 C 63.359375 98.578125 63.417969 98.601562 63.476562 98.613281 L 73.320312 100.832031 L 74.835938 105.789062 L 75.066406 112.429688 L 71.484375 123.183594 C 71.46875 123.230469 71.460938 123.28125 71.457031 123.332031 L 70.652344 142.644531 L 64.207031 158.59375 C 64.136719 158.769531 64.160156 158.96875 64.273438 159.117188 L 81.960938 182.703125 C 81.988281 182.742188 82.027344 182.777344 82.066406 182.808594 C 82.074219 182.816406 82.082031 182.816406 82.09375 182.824219 C 82.125 182.84375 82.15625 182.863281 82.191406 182.878906 L 93.667969 187.460938 C 93.679688 187.464844 93.6875 187.464844 93.699219 187.46875 C 93.710938 187.472656 93.71875 187.476562 93.730469 187.480469 C 93.777344 187.492188 93.824219 187.5 93.871094 187.5 C 93.914062 187.5 93.964844 187.492188 94.007812 187.480469 C 94.019531 187.476562 94.03125 187.472656 94.042969 187.46875 C 94.050781 187.464844 94.0625 187.464844 94.070312 187.460938 L 105.519531 182.890625 C 105.523438 182.890625 105.523438 182.886719 105.527344 182.886719 L 105.546875 182.878906 C 105.570312 182.871094 105.585938 182.855469 105.605469 182.847656 C 105.671875 182.8125 105.730469 182.765625 105.773438 182.707031 C 105.777344 182.703125 105.777344 182.703125 105.78125 182.703125 L 105.78125 182.699219 C 105.789062 182.691406 105.792969 182.683594 105.800781 182.675781 L 123.464844 159.117188 C 123.578125 158.96875 123.605469 158.769531 123.53125 158.59375 L 117.089844 142.644531 L 116.28125 123.332031 C 116.28125 123.28125 116.269531 123.230469 116.253906 123.183594 L 112.671875 112.425781 L 112.90625 105.789062 L 114.421875 100.832031 L 124.265625 98.613281 C 124.324219 98.601562 124.378906 98.578125 124.433594 98.546875 L 135.261719 91.777344 C 135.261719 91.777344 135.261719 91.777344 135.261719 91.773438 L 135.265625 91.773438 C 135.3125 91.742188 135.347656 91.707031 135.382812 91.667969 C 135.390625 91.664062 135.394531 91.65625 135.402344 91.652344 C 135.433594 91.609375 135.457031 91.566406 135.476562 91.519531 C 135.480469 91.515625 135.480469 91.511719 135.484375 91.507812 L 141.960938 74.535156 C 141.964844 74.519531 141.972656 74.507812 141.976562 74.492188 C 141.984375 74.464844 141.992188 74.433594 141.996094 74.402344 C 142.007812 74.292969 141.988281 74.179688 141.933594 74.082031 C 141.925781 74.0625 141.914062 74.042969 141.902344 74.027344 C 141.765625 73.832031 141.519531 73.753906 141.296875 73.820312 L 129.261719 77.253906 C 129.164062 77.28125 129.078125 77.332031 129.011719 77.40625 L 120.171875 86.933594 L 112.296875 90.847656 L 113.007812 87.210938 L 121.21875 77.421875 L 136.519531 69.117188 C 136.589844 69.078125 136.65625 69.023438 136.703125 68.953125 L 151.527344 47.964844 L 159.757812 39.371094 C 159.839844 39.285156 159.890625 39.175781 159.90625 39.058594 L 161.324219 26.863281 C 161.355469 26.597656 161.183594 26.347656 160.925781 26.277344 " fill-opacity="1" fill-rule="nonzero"/></g></svg>